<?xml version="1.0" encoding="UTF-8" ?>
<!DOCTYPE svg PUBLIC "-//W3C//DTD SVG 1.1//EN" "http://www.w3.org/Graphics/SVG/1.1/DTD/svg11.dtd">
<svg width="419pt" height="419pt" viewBox="0 0 419 419" version="1.1" xmlns="http://www.w3.org/2000/svg">
<g id="#ffffffff">
<path fill="#ffffff" opacity="1.00" d=" M 304.11 114.95 C 305.31 115.94 306.51 116.92 307.73 117.91 C 305.67 122.02 301.68 124.73 299.74 128.89 C 295.90 131.27 293.48 135.33 291.15 139.08 C 289.54 140.87 287.30 142.00 285.87 143.98 C 284.11 146.34 282.80 149.02 280.72 151.14 C 277.48 152.34 276.38 155.95 274.38 158.45 C 272.82 160.84 270.51 162.53 268.41 164.40 C 266.52 167.59 264.27 170.53 261.62 173.13 C 259.73 173.69 259.36 175.81 258.18 177.14 C 255.91 179.96 253.25 182.49 251.42 185.66 C 247.90 188.15 245.58 191.87 243.10 195.31 C 239.91 197.94 237.04 201.01 235.00 204.62 C 233.54 207.41 230.48 208.73 228.56 211.14 C 227.13 210.55 225.70 209.96 224.27 209.38 C 226.00 207.57 227.64 205.65 228.79 203.41 C 230.19 200.66 233.31 199.50 235.06 197.03 C 237.53 194.02 238.92 189.73 242.72 188.09 C 244.78 185.67 246.16 182.76 248.34 180.44 C 250.02 178.38 252.74 177.28 253.83 174.74 C 255.60 171.34 258.94 169.11 260.62 165.64 C 264.28 162.91 266.98 159.05 269.56 155.33 C 273.23 152.68 275.78 148.83 278.16 145.06 C 278.70 144.09 279.70 143.61 280.66 143.16 C 283.76 140.38 285.59 136.62 288.20 133.45 C 293.01 131.03 294.19 125.11 298.34 121.87 C 301.35 120.72 302.20 117.25 304.11 114.95 Z" />
<path fill="#ffffff" opacity="1.00" d=" M 174.48 200.64 C 177.12 198.91 179.70 196.81 182.89 196.25 C 189.10 195.08 195.68 197.38 199.93 202.02 C 202.88 201.78 206.02 200.71 208.88 201.95 C 210.67 202.45 211.45 204.28 212.90 205.27 C 216.03 207.25 217.15 210.98 218.44 214.23 C 224.11 215.03 230.67 218.23 231.34 224.62 C 231.64 224.53 232.26 224.36 232.56 224.27 C 233.14 226.21 232.45 229.37 234.93 230.08 C 236.60 230.71 238.39 230.99 240.12 231.44 C 240.53 233.42 243.09 233.36 243.86 235.10 C 246.17 238.42 245.70 242.60 246.76 246.31 C 248.59 248.35 251.56 248.75 253.92 249.96 C 254.10 251.96 255.33 254.76 253.04 256.03 C 248.98 257.90 244.78 259.78 240.28 260.29 C 240.37 260.61 240.54 261.25 240.62 261.57 C 223.52 266.41 205.70 268.08 187.98 268.48 C 167.92 268.60 147.65 267.10 128.29 261.54 C 128.45 261.29 128.77 260.78 128.93 260.53 C 125.53 260.05 122.44 258.53 119.32 257.22 C 119.12 254.97 118.88 252.67 119.50 250.46 C 120.80 248.05 124.70 248.55 125.80 245.96 C 126.54 243.09 126.55 240.09 127.16 237.20 C 127.46 237.28 128.06 237.43 128.35 237.51 C 129.35 235.09 131.19 233.21 132.64 231.07 C 134.98 230.32 138.25 230.96 139.90 228.84 C 140.91 224.33 141.93 219.13 146.31 216.63 C 149.04 215.80 151.87 215.24 154.49 214.07 C 154.65 213.10 154.99 211.18 155.16 210.21 C 155.44 210.30 156.01 210.49 156.29 210.58 C 157.24 207.76 159.68 205.91 161.02 203.33 C 162.57 202.44 164.17 201.33 166.04 201.34 C 168.89 201.28 171.98 202.61 174.48 200.64 Z" />
<path fill="#ffffff" opacity="1.00" d=" M 109.41 242.84 C 111.88 237.28 118.57 236.52 123.38 233.92 C 122.31 236.95 121.36 240.05 121.27 243.29 C 119.85 243.88 118.43 244.43 116.97 244.90 C 114.00 247.14 113.14 250.79 113.04 254.33 C 111.61 253.15 110.22 251.88 109.45 250.16 C 106.57 249.20 106.55 243.85 109.41 242.84 Z" />
<path fill="#ffffff" opacity="1.00" d=" M 250.14 236.82 C 250.53 236.87 251.33 236.97 251.73 237.02 C 254.47 237.05 256.39 239.45 258.42 241.00 C 258.61 241.85 258.79 242.71 258.97 243.57 C 259.07 244.78 259.27 247.20 259.37 248.40 C 258.89 248.01 257.93 247.22 257.45 246.83 C 255.76 245.36 253.93 244.08 252.00 242.97 C 252.01 242.13 252.04 240.43 252.06 239.58 C 252.14 238.02 251.45 237.48 249.99 237.96 L 250.14 236.82 Z" />
<path fill="#ffffff" opacity="1.00" d=" M 108.29 257.94 C 110.04 258.87 112.29 259.54 112.89 261.67 C 120.17 265.17 127.97 267.51 135.86 269.23 C 135.78 269.51 135.64 270.07 135.57 270.35 C 167.62 276.03 200.69 275.82 232.76 270.32 C 232.60 270.07 232.27 269.57 232.10 269.32 C 239.22 267.74 246.25 265.71 253.09 263.17 C 254.44 262.47 256.27 262.00 256.62 260.27 C 257.25 259.92 258.50 259.21 259.13 258.85 C 257.75 267.62 255.38 276.25 251.84 284.39 C 248.98 285.52 248.90 289.12 247.32 291.37 C 245.60 293.84 244.13 296.85 241.25 298.14 C 239.20 302.18 235.55 305.38 231.70 307.68 C 227.99 312.78 221.35 314.13 216.26 317.41 C 216.05 317.76 215.63 318.48 215.41 318.84 C 201.69 324.15 186.60 326.20 172.01 323.97 C 165.37 323.13 159.00 321.00 152.66 318.92 C 151.69 316.57 148.92 316.04 146.86 315.02 C 142.92 313.55 139.92 310.44 136.11 308.73 C 133.79 304.93 129.66 302.76 126.63 299.65 C 124.38 295.80 120.81 292.77 119.44 288.43 C 119.20 287.22 118.47 286.42 117.25 286.18 C 113.55 278.60 111.17 270.43 109.71 262.14 C 109.40 262.25 108.78 262.47 108.47 262.59 C 108.41 261.03 108.34 259.49 108.29 257.94 Z" />
<path fill="#ffffff" opacity="1.00" d=" M 25.21 285.95 C 20.61 280.52 16.87 273.54 17.33 266.20 C 18.67 269.92 19.95 273.73 22.36 276.93 C 24.34 277.64 24.82 279.77 25.76 281.42 C 27.10 283.96 28.89 286.25 30.02 288.91 C 30.98 290.75 31.56 293.21 33.82 293.86 C 35.01 296.20 35.70 298.75 35.55 301.40 C 34.72 300.28 34.21 298.98 33.80 297.66 C 33.43 297.60 32.70 297.47 32.33 297.40 C 29.54 293.84 27.03 290.10 25.21 285.95 Z" />
<path fill="#ffffff" opacity="1.00" d=" M 379.37 293.96 C 379.71 294.05 380.39 294.25 380.73 294.34 C 379.87 299.57 378.01 304.60 375.52 309.26 C 370.79 313.85 369.32 320.98 363.70 324.73 C 361.14 327.90 359.26 331.95 355.34 333.76 C 352.45 336.83 350.44 340.84 346.60 342.92 C 343.92 344.25 342.46 346.99 340.01 348.62 C 340.59 345.29 342.51 342.36 345.03 340.16 C 348.28 337.66 349.80 333.65 352.82 330.90 C 356.35 327.68 359.29 323.91 362.24 320.16 C 363.36 318.77 363.84 316.76 365.66 316.07 C 368.29 313.14 370.84 310.09 372.50 306.49 C 373.44 303.99 376.42 303.03 377.23 300.48 C 377.96 298.31 378.62 296.12 379.37 293.96 Z" />
<path fill="#ffffff" opacity="1.00" d=" M 340.03 359.05 C 342.54 357.69 343.76 354.94 345.97 353.22 C 346.25 353.51 346.81 354.08 347.09 354.37 C 346.65 354.37 345.78 354.37 345.34 354.37 C 345.19 358.01 342.28 360.50 339.48 362.36 C 337.99 363.42 335.86 363.76 335.06 365.59 C 330.69 368.95 325.42 370.73 320.70 373.51 C 322.16 371.77 323.58 369.89 325.61 368.78 C 327.64 367.61 330.06 366.72 331.06 364.41 C 333.74 362.13 337.01 360.79 340.03 359.05 Z" />
</g>
<g id="#f7be15ff">
<path fill="#f7be15" opacity="1.00" d=" M 201.53 6.44 C 207.33 5.48 213.41 5.20 219.13 6.75 C 213.29 6.59 207.17 8.24 201.53 6.44 Z" />
<path fill="#f7be15" opacity="1.00" d=" M 175.27 10.89 C 176.94 9.53 179.01 8.90 181.13 8.66 C 185.97 8.09 190.88 7.53 195.75 8.14 C 189.11 10.04 182.19 11.30 175.27 10.89 Z" />
<path fill="#f7be15" opacity="1.00" d=" M 154.54 13.47 C 160.15 12.03 165.84 10.73 171.69 11.25 C 165.19 16.96 156.06 17.84 149.01 22.63 C 148.82 22.91 148.42 23.47 148.23 23.75 C 143.88 24.95 139.98 27.27 135.81 28.92 C 133.33 30.13 130.52 31.12 128.82 33.43 C 123.62 35.57 118.90 38.69 113.91 41.27 C 112.96 43.96 109.84 44.50 107.68 45.86 C 104.66 47.71 101.63 49.68 99.31 52.40 C 96.14 54.16 93.64 56.84 90.59 58.76 C 87.76 60.41 86.28 63.53 83.62 65.39 C 81.14 67.35 78.32 69.00 76.55 71.70 C 74.11 75.42 69.66 77.24 67.56 81.22 C 65.80 83.74 63.61 85.92 61.74 88.35 C 61.32 88.46 60.48 88.70 60.05 88.81 C 58.47 93.19 54.77 96.37 52.58 100.44 C 47.16 104.69 46.46 112.43 41.26 116.74 C 39.77 120.96 37.02 124.60 35.67 128.88 C 34.84 130.70 34.51 133.09 32.46 133.99 C 32.20 134.70 31.66 136.12 31.39 136.83 C 31.02 134.66 30.87 132.33 29.51 130.51 C 28.70 133.59 28.46 136.77 28.48 139.94 C 29.14 139.42 30.47 138.36 31.14 137.84 C 27.79 145.82 25.43 154.20 23.52 162.63 C 23.21 162.55 22.60 162.38 22.29 162.30 C 20.54 171.79 18.52 181.24 17.52 190.85 C 16.98 194.31 17.34 197.97 15.82 201.22 C 17.07 202.91 16.67 205.09 16.82 207.06 C 16.95 215.32 17.52 223.57 18.72 231.75 C 18.08 232.37 17.43 232.98 16.76 233.58 C 16.46 232.86 15.87 231.42 15.58 230.70 C 15.25 232.87 16.04 234.77 17.83 236.00 L 17.19 233.60 C 17.75 233.69 18.88 233.88 19.44 233.97 C 18.82 240.63 21.80 247.02 22.17 253.66 C 22.50 253.61 23.16 253.52 23.50 253.48 C 25.53 262.30 28.15 270.98 31.35 279.45 C 31.99 282.22 34.68 283.81 35.32 286.59 C 36.77 291.35 39.60 295.47 41.45 300.06 C 45.80 303.47 46.66 309.54 50.29 313.57 C 54.80 317.24 56.35 323.46 61.36 326.68 C 66.58 333.96 73.06 340.37 80.31 345.63 C 84.17 351.06 91.11 352.63 95.46 357.43 C 99.57 360.57 105.25 361.44 108.78 365.35 C 116.20 368.49 123.66 371.70 131.52 373.59 C 132.84 373.96 134.33 374.35 134.82 375.82 C 176.66 384.72 220.90 387.42 262.42 375.42 C 262.39 375.13 262.33 374.54 262.30 374.25 C 269.80 371.90 277.17 369.13 284.27 365.76 C 284.70 363.79 286.82 363.36 288.36 362.57 C 292.32 361.09 295.55 358.24 299.35 356.45 C 302.12 353.02 306.21 351.11 309.88 348.83 C 312.36 347.34 313.61 344.54 315.99 342.94 C 318.33 341.36 321.10 340.16 322.62 337.64 C 325.13 333.18 330.66 331.65 332.97 327.00 C 334.78 323.18 339.43 322.00 341.09 318.05 C 342.65 314.75 345.67 312.67 348.20 310.21 C 350.24 306.09 353.40 302.72 355.68 298.75 C 360.62 294.16 361.40 286.90 365.83 281.96 C 368.59 275.05 371.48 268.15 373.29 260.91 C 373.83 259.22 373.86 256.96 375.82 256.24 C 378.39 249.28 378.94 241.50 383.07 235.17 C 391.70 232.33 399.84 237.93 408.03 239.76 C 410.36 239.31 412.42 236.04 414.94 237.92 C 417.05 243.16 414.83 248.90 413.83 254.17 C 410.39 256.73 410.67 261.88 408.47 265.38 C 405.94 269.62 406.00 275.46 402.27 278.84 C 400.54 284.01 398.11 288.93 396.15 294.01 C 391.49 300.20 388.68 307.51 384.71 314.12 C 382.12 315.09 381.57 318.06 380.15 320.12 C 378.54 322.50 376.75 324.75 375.31 327.24 C 371.76 330.72 368.87 334.82 365.95 338.83 C 362.59 341.21 360.15 344.49 357.95 347.92 C 354.88 350.12 351.65 352.26 349.43 355.41 C 347.12 359.21 342.36 360.33 339.78 363.91 C 337.86 366.77 334.43 367.82 331.97 370.10 C 329.50 372.33 326.20 373.46 323.99 376.01 C 320.63 379.68 315.16 380.27 311.90 384.05 C 309.92 386.30 306.76 386.74 304.32 388.31 C 301.03 390.34 297.34 391.55 293.89 393.27 C 291.95 396.69 287.26 396.66 283.90 397.88 C 286.43 396.56 289.35 395.95 291.58 394.11 C 296.45 389.86 303.30 388.51 307.67 383.57 C 311.40 381.85 314.27 378.81 317.80 376.74 C 318.99 376.17 319.61 374.98 320.34 373.96 C 319.93 374.41 319.12 375.31 318.71 375.76 C 313.74 378.34 308.76 380.87 303.67 383.20 C 303.23 383.85 302.72 384.44 302.13 384.95 C 295.76 387.88 289.34 390.68 282.83 393.29 C 282.60 393.66 282.12 394.40 281.89 394.77 C 274.51 397.49 267.15 400.36 259.52 402.27 C 259.50 402.62 259.46 403.31 259.44 403.65 C 245.14 407.74 230.55 410.66 215.76 412.21 C 215.28 412.74 214.69 413.06 214.02 413.19 C 208.35 414.00 202.50 413.13 196.97 414.90 C 184.61 416.63 171.73 418.60 159.44 415.45 C 168.60 414.31 177.88 414.35 187.03 413.02 C 172.32 411.52 157.65 409.14 143.63 404.29 C 143.36 403.77 142.82 402.74 142.54 402.23 C 145.93 402.25 149.31 402.37 152.69 402.44 C 152.59 402.77 152.39 403.43 152.28 403.75 C 162.19 404.51 172.13 404.80 182.02 405.92 C 202.47 407.78 223.06 406.46 243.33 403.40 C 243.31 403.08 243.28 402.45 243.26 402.14 C 253.61 400.38 263.96 398.24 273.81 394.58 C 274.06 394.23 274.57 393.53 274.82 393.18 C 281.36 390.69 287.89 388.05 294.02 384.66 C 295.23 381.87 298.43 381.19 300.79 379.72 C 303.25 378.39 305.34 376.42 306.50 373.85 C 303.89 377.51 299.47 378.70 295.59 380.49 C 290.58 382.44 286.12 385.66 280.89 387.03 C 273.49 389.40 265.98 391.43 258.47 393.42 C 258.53 393.73 258.64 394.36 258.69 394.67 C 245.72 398.11 232.57 401.04 219.21 402.50 C 219.32 402.81 219.55 403.43 219.67 403.74 C 202.23 405.28 184.63 405.77 167.22 403.63 L 167.76 402.38 C 156.14 401.44 144.79 398.48 133.63 395.24 C 132.46 395.02 131.68 394.22 131.19 393.18 C 126.01 392.01 121.33 389.47 116.36 387.71 C 113.98 386.68 111.33 385.75 109.79 383.53 C 105.12 381.69 101.11 378.60 96.59 376.47 C 92.56 371.28 85.54 369.69 81.89 364.12 C 78.34 361.45 74.20 359.17 71.92 355.17 C 67.95 352.61 64.25 349.27 61.87 345.15 C 57.86 342.73 55.03 338.79 52.81 334.75 C 46.92 331.59 46.14 323.98 40.87 320.19 C 38.48 315.77 35.64 311.56 33.52 306.99 C 31.23 305.61 30.38 302.92 29.29 300.64 C 27.66 296.25 24.99 292.33 23.70 287.81 C 21.86 286.66 21.32 284.43 20.54 282.56 C 18.59 276.79 16.09 271.23 14.54 265.34 L 13.28 265.73 C 6.65 243.83 1.87 220.29 7.43 197.60 C 7.98 201.58 7.96 205.81 10.20 209.32 C 13.77 200.95 10.43 192.01 9.12 183.57 C 11.04 182.55 12.94 181.49 14.88 180.49 C 16.61 172.70 15.49 164.54 17.71 156.84 C 18.66 153.12 19.86 149.46 20.78 145.73 C 21.46 143.77 21.71 141.20 23.84 140.24 C 25.55 135.24 27.50 130.32 29.39 125.38 C 30.53 123.11 31.31 120.39 33.53 118.91 C 36.52 113.26 38.22 106.71 42.77 102.04 C 40.03 103.32 37.88 105.58 36.54 108.27 C 35.31 110.25 34.65 113.03 32.16 113.79 C 28.99 119.83 25.71 125.83 22.98 132.09 C 22.80 131.47 22.61 130.85 22.43 130.24 C 24.89 128.45 24.88 124.89 26.52 122.43 C 28.96 118.44 29.71 113.00 33.74 110.23 C 35.25 105.63 39.07 102.42 41.56 98.39 C 43.37 96.98 45.06 95.42 46.62 93.74 C 46.31 94.91 46.00 96.08 45.71 97.26 C 47.63 97.24 49.12 95.97 48.54 93.97 C 47.96 89.83 52.89 88.40 54.30 85.14 C 52.33 84.72 50.83 85.96 49.23 86.78 C 49.04 85.59 49.13 84.43 49.50 83.30 C 50.43 83.70 51.34 84.14 52.23 84.62 C 54.93 82.84 56.74 80.17 58.69 77.67 C 61.10 75.62 63.94 74.10 66.01 71.66 C 67.44 68.23 71.10 66.87 73.83 64.71 C 75.74 63.40 77.04 61.45 78.62 59.81 C 81.59 57.70 84.79 55.83 87.21 53.06 C 89.33 50.12 92.98 49.05 95.63 46.69 C 97.88 44.66 101.62 44.33 102.86 41.29 C 107.04 37.54 113.50 36.92 116.81 32.21 C 121.41 30.42 125.63 27.77 130.36 26.27 C 132.50 25.17 135.33 24.70 136.69 22.54 C 142.61 19.78 148.62 17.25 154.63 14.68 C 154.61 14.37 154.56 13.77 154.54 13.47 M 72.09 73.56 C 75.36 70.84 77.17 66.67 81.21 64.74 C 76.88 65.74 72.69 68.91 72.09 73.56 M 63.03 82.21 C 63.56 81.93 64.61 81.37 65.14 81.10 C 65.46 79.33 65.82 77.57 66.01 75.79 C 63.86 77.28 63.05 79.68 63.03 82.21 M 44.84 108.42 C 47.43 105.86 49.14 102.58 50.54 99.26 C 47.92 101.76 45.33 104.68 44.84 108.42 M 34.88 125.45 C 37.62 122.48 38.95 118.57 39.69 114.68 C 37.44 117.91 35.43 121.49 34.88 125.45 M 9.03 217.69 C 9.09 220.68 9.97 223.60 11.62 226.09 C 12.75 223.06 11.75 219.52 9.03 217.69 M 16.35 249.24 C 17.47 246.39 15.95 243.13 12.76 242.74 C 12.66 242.19 12.47 241.10 12.37 240.55 C 9.75 243.69 14.16 247.20 16.35 249.24 M 398.12 246.91 C 398.68 248.74 399.44 250.50 400.16 252.27 C 400.00 250.37 400.77 247.27 398.12 246.91 M 15.37 251.50 C 15.27 255.15 16.48 258.60 17.72 261.97 C 17.99 261.92 18.53 261.82 18.79 261.76 C 17.99 258.24 16.96 254.75 15.37 251.50 M 25.21 285.95 C 27.03 290.10 29.54 293.84 32.33 297.40 C 32.70 297.47 33.43 297.60 33.80 297.66 C 34.21 298.98 34.72 300.28 35.55 301.40 C 35.70 298.75 35.01 296.20 33.82 293.86 C 31.56 293.21 30.98 290.75 30.02 288.91 C 28.89 286.25 27.10 283.96 25.76 281.42 C 24.82 279.77 24.34 277.64 22.36 276.93 C 19.95 273.73 18.67 269.92 17.33 266.20 C 16.87 273.54 20.61 280.52 25.21 285.95 M 381.76 284.73 C 382.09 286.95 382.32 289.67 384.87 290.43 C 384.97 288.89 385.01 287.34 384.98 285.80 C 383.94 285.33 382.86 284.97 381.76 284.73 M 379.37 293.96 C 378.62 296.12 377.96 298.31 377.23 300.48 C 376.42 303.03 373.44 303.99 372.50 306.49 C 370.84 310.09 368.29 313.14 365.66 316.07 C 363.84 316.76 363.36 318.77 362.24 320.16 C 359.29 323.91 356.35 327.68 352.82 330.90 C 349.80 333.65 348.28 337.66 345.03 340.16 C 342.51 342.36 340.59 345.29 340.01 348.62 C 342.46 346.99 343.92 344.25 346.60 342.92 C 350.44 340.84 352.45 336.83 355.34 333.76 C 359.26 331.95 361.14 327.90 363.70 324.73 C 369.32 320.98 370.79 313.85 375.52 309.26 C 378.01 304.60 379.87 299.57 380.73 294.34 C 380.39 294.25 379.71 294.05 379.37 293.96 M 36.46 305.71 C 37.45 310.19 40.04 314.97 44.74 316.35 C 44.12 315.12 43.49 313.91 42.85 312.71 C 42.44 312.67 41.62 312.58 41.20 312.54 C 39.57 310.30 38.05 307.98 36.46 305.71 M 375.46 320.07 C 375.01 320.28 374.12 320.68 373.68 320.89 C 374.14 321.65 375.71 322.50 376.11 321.13 C 378.08 317.66 379.76 313.92 380.52 309.97 C 377.70 312.68 376.86 316.58 375.46 320.07 M 44.88 322.04 C 46.83 324.01 49.21 325.48 51.16 327.46 C 51.53 327.61 52.27 327.92 52.64 328.07 C 52.68 327.28 52.78 325.71 52.83 324.93 C 50.40 323.43 47.83 322.00 44.88 322.04 M 365.93 330.99 C 364.78 332.33 363.61 333.67 362.63 335.16 C 367.48 333.52 369.84 328.23 370.29 323.47 C 367.92 325.41 367.88 328.76 365.93 330.99 M 52.85 329.33 C 54.20 332.20 56.43 334.48 58.26 337.02 C 58.94 338.39 60.55 338.59 61.79 339.19 C 61.63 338.66 61.32 337.59 61.16 337.05 C 58.30 334.58 55.85 331.66 52.85 329.33 M 356.54 339.49 C 352.89 343.17 350.96 348.09 347.81 352.16 C 350.08 350.16 352.40 348.09 353.74 345.31 C 354.29 343.89 355.49 343.01 356.78 342.29 C 358.48 339.99 359.89 337.39 360.05 334.46 C 358.55 335.91 357.86 337.92 356.54 339.49 M 63.40 342.98 C 64.11 344.28 64.82 345.59 65.50 346.91 C 69.00 348.77 72.83 349.85 76.44 351.47 C 75.04 349.00 72.78 347.30 70.09 346.48 C 68.70 344.13 65.69 343.96 63.40 342.98 M 332.16 351.29 C 331.01 352.05 331.66 355.26 333.16 353.61 C 334.24 352.83 333.68 349.69 332.16 351.29 M 340.03 359.05 C 337.01 360.79 333.74 362.13 331.06 364.41 C 330.06 366.72 327.64 367.61 325.61 368.78 C 323.58 369.89 322.16 371.77 320.70 373.51 C 325.42 370.73 330.69 368.95 335.06 365.59 C 335.86 363.76 337.99 363.42 339.48 362.36 C 342.28 360.50 345.19 358.01 345.34 354.37 C 345.78 354.37 346.65 354.37 347.09 354.37 C 346.81 354.08 346.25 353.51 345.97 353.22 C 343.76 354.94 342.54 357.69 340.03 359.05 M 76.22 353.69 C 76.36 354.46 76.66 356.00 76.80 356.77 C 78.30 356.59 79.79 356.41 81.29 356.24 C 79.60 355.38 77.91 354.52 76.22 353.69 M 325.29 357.30 C 324.08 359.22 323.05 361.26 322.47 363.47 C 325.50 362.76 325.50 358.82 328.35 357.93 C 327.33 357.72 326.30 357.50 325.29 357.30 M 82.65 360.08 C 83.40 362.40 86.02 362.30 87.98 362.74 C 87.41 360.27 84.60 360.47 82.65 360.08 Z" />
<path fill="#f7be15" opacity="1.00" d=" M 55.97 314.30 C 57.75 316.62 58.84 319.58 61.45 321.16 C 65.63 323.74 67.06 329.09 71.61 331.20 C 75.56 333.24 77.54 337.58 81.39 339.71 C 84.37 341.65 87.01 344.10 90.24 345.66 C 94.84 350.94 102.79 351.26 107.43 356.53 C 110.73 358.53 114.76 359.95 116.30 363.91 C 110.81 361.38 103.90 360.36 100.04 355.33 C 97.20 354.23 94.72 352.47 92.17 350.84 C 89.69 349.26 86.52 348.21 85.30 345.28 C 82.39 342.06 77.76 341.05 75.12 337.57 C 72.85 334.20 68.62 333.10 65.90 330.17 C 63.58 328.49 63.18 324.98 60.29 324.04 C 57.73 321.40 55.86 318.09 55.97 314.30 Z" />
<path fill="#f7be15" opacity="1.00" d=" M 147.75 410.45 C 149.18 410.07 150.63 409.76 152.08 409.51 C 151.33 411.05 148.98 412.06 147.75 410.45 Z" />
</g>
<g id="#000000ff">
<path fill="#000000" opacity="1.00" d=" M 175.01 28.80 C 199.56 25.57 224.73 26.59 248.80 32.54 C 248.62 32.80 248.27 33.34 248.09 33.61 C 256.95 35.22 265.36 38.59 273.90 41.36 L 273.26 42.40 C 279.79 45.06 286.14 48.07 292.49 51.13 C 292.68 51.49 293.08 52.21 293.27 52.57 C 297.14 55.46 301.85 57.02 305.50 60.27 C 305.97 61.10 306.54 61.86 307.21 62.55 C 311.85 63.76 314.47 68.47 318.72 70.50 C 320.59 73.63 323.74 75.67 326.28 78.22 C 328.42 78.42 328.78 80.71 330.02 82.06 C 332.19 84.86 335.28 87.04 336.61 90.43 C 339.78 92.05 341.32 95.73 343.63 98.35 C 344.08 99.41 344.58 100.45 345.12 101.48 C 347.59 102.28 348.64 104.99 349.96 107.01 C 351.54 110.70 353.67 114.10 355.61 117.60 C 355.83 117.45 356.26 117.14 356.48 116.98 C 357.31 120.68 359.76 123.73 360.95 127.30 C 362.02 130.56 363.49 133.68 364.74 136.87 L 365.54 135.16 C 365.50 138.87 367.68 142.04 368.56 145.55 C 370.87 153.92 373.22 162.34 374.26 170.98 C 374.55 170.79 375.13 170.43 375.43 170.25 C 378.49 190.70 378.73 211.56 375.74 232.04 C 375.47 231.82 374.95 231.38 374.68 231.16 C 373.09 243.65 369.79 255.88 365.69 267.77 C 365.40 267.64 364.81 267.40 364.52 267.27 C 363.94 269.64 363.26 272.00 362.15 274.19 C 360.13 278.16 359.08 282.59 356.61 286.33 C 356.26 286.43 355.57 286.63 355.23 286.73 C 353.98 291.81 350.23 295.66 348.25 300.41 C 347.64 301.77 346.63 302.93 345.22 303.48 C 342.63 306.99 340.86 311.08 337.68 314.15 C 335.57 314.76 334.31 316.72 333.63 318.68 C 331.77 320.95 329.74 323.06 327.68 325.14 C 326.23 325.34 325.37 326.26 325.16 327.69 C 322.17 331.06 318.59 333.74 314.85 336.21 C 313.76 339.39 310.22 341.01 307.39 342.43 C 306.05 343.33 304.73 344.28 303.44 345.26 C 302.42 348.33 298.77 348.74 296.39 350.35 C 293.36 352.36 290.15 354.04 286.78 355.41 C 286.67 355.75 286.46 356.42 286.35 356.75 C 283.97 357.97 281.57 359.18 279.05 360.08 C 275.38 361.42 272.10 363.89 268.11 364.21 L 268.71 365.33 C 257.24 369.70 245.25 372.44 233.17 374.52 C 233.35 374.80 233.69 375.37 233.86 375.65 C 212.36 378.77 190.42 378.68 168.95 375.33 L 172.44 374.44 C 163.49 373.75 154.81 371.21 146.21 368.79 C 142.56 367.81 139.13 366.04 135.33 365.61 C 135.44 365.33 135.64 364.76 135.74 364.48 C 129.43 361.96 123.31 358.93 116.99 356.50 C 117.14 356.29 117.44 355.86 117.59 355.65 C 112.52 352.32 106.59 350.50 101.88 346.61 C 101.44 344.50 99.14 344.23 97.60 343.21 C 94.78 341.50 92.55 338.94 89.53 337.54 C 87.27 334.08 83.54 331.88 80.69 328.92 C 79.24 328.69 78.33 327.75 78.06 326.33 C 75.40 323.92 73.47 320.57 70.24 318.89 C 68.56 315.10 65.03 312.59 63.01 309.01 C 62.33 307.85 62.07 306.21 60.49 306.03 C 57.16 302.35 55.53 297.61 52.77 293.55 C 49.70 292.33 49.50 288.48 47.96 285.97 C 45.67 281.98 44.37 277.55 42.40 273.42 C 42.11 273.52 41.54 273.73 41.25 273.83 C 38.55 265.27 35.10 256.89 33.50 248.02 L 32.50 248.97 C 25.95 221.80 25.20 193.25 30.31 165.77 C 30.90 161.78 32.48 157.97 32.50 153.90 L 33.23 156.54 C 34.86 151.11 36.08 145.55 38.12 140.25 C 39.40 136.60 40.11 132.54 43.03 129.75 C 45.41 123.45 48.32 117.35 51.58 111.46 C 51.86 111.55 52.42 111.74 52.70 111.83 C 54.32 107.07 57.48 103.12 60.38 99.09 C 62.41 101.64 62.28 104.97 62.46 108.05 C 62.81 115.04 64.59 121.99 67.94 128.15 C 69.85 131.79 73.72 133.67 76.39 136.65 C 79.39 139.90 82.77 143.38 83.23 148.02 C 84.88 158.19 83.57 169.19 88.57 178.58 C 91.77 182.89 94.41 188.17 99.54 190.47 C 104.24 192.90 108.70 196.26 114.18 196.54 C 128.55 199.15 143.30 196.07 157.56 199.45 C 153.72 201.44 152.35 205.71 150.19 209.15 C 147.57 209.90 144.48 210.16 142.60 212.36 C 140.54 215.02 138.84 217.96 136.36 220.27 C 135.27 221.78 135.01 224.34 132.83 224.65 C 126.07 226.41 119.14 227.89 112.90 231.15 C 110.56 234.15 106.45 235.10 104.41 238.41 C 100.95 242.89 102.24 248.90 102.49 254.11 C 103.13 263.58 104.96 272.96 108.35 281.84 C 111.94 285.28 112.47 290.60 115.65 294.33 C 119.69 298.99 123.38 303.92 127.46 308.55 C 132.14 312.62 137.48 315.81 142.23 319.78 C 145.55 322.07 149.48 323.20 153.18 324.72 C 157.50 326.18 161.38 328.96 166.04 329.33 C 180.13 331.99 194.68 331.11 208.58 327.79 C 208.87 327.37 209.44 326.52 209.72 326.09 C 215.37 324.84 220.67 322.37 225.78 319.74 C 230.28 315.69 235.86 313.11 240.19 308.86 C 240.31 308.32 240.55 307.23 240.67 306.69 C 241.21 306.57 242.30 306.33 242.84 306.22 C 245.76 303.39 247.99 299.99 250.47 296.81 C 255.58 291.74 257.85 284.69 260.36 278.13 C 261.65 276.29 262.64 274.23 263.07 272.02 C 264.61 264.72 265.73 257.33 266.41 249.90 C 266.72 245.66 266.56 240.77 263.39 237.54 C 261.41 235.81 258.96 234.71 256.99 232.96 C 251.94 227.92 244.38 227.55 238.13 224.85 C 236.57 221.45 235.14 217.96 232.89 214.93 C 237.38 206.69 245.16 200.95 250.07 193.04 C 252.95 190.86 255.40 188.17 257.25 185.07 C 259.43 181.41 263.56 179.48 265.60 175.70 C 267.59 171.77 271.87 169.84 274.01 166.04 C 275.61 163.42 277.62 161.07 279.98 159.11 C 282.83 156.84 284.17 153.28 286.86 150.86 C 291.03 147.25 293.77 142.39 297.48 138.36 C 300.22 135.16 303.28 132.24 305.64 128.74 C 308.19 124.96 312.99 122.58 314.02 117.90 C 312.67 112.83 306.18 112.45 303.37 108.54 C 301.32 112.37 297.04 114.24 295.01 118.07 C 293.11 121.75 289.67 124.14 287.08 127.24 C 283.66 132.66 278.68 136.79 274.94 141.97 C 270.61 147.50 265.57 152.43 261.49 158.16 C 256.70 161.64 254.67 167.53 249.96 171.07 C 247.12 173.59 245.90 177.45 242.88 179.82 C 240.60 181.59 238.68 183.76 237.23 186.26 C 235.17 189.74 231.56 191.90 229.35 195.27 C 227.37 198.18 225.10 200.93 222.13 202.88 C 221.65 203.97 221.18 205.06 220.71 206.16 C 218.78 202.10 215.40 199.09 211.46 197.04 C 211.80 195.71 212.14 194.39 212.49 193.07 C 213.55 191.52 214.45 189.85 214.83 188.00 C 216.77 179.72 219.19 171.56 221.10 163.28 C 221.53 161.33 222.38 159.51 223.59 157.93 C 225.82 149.39 228.13 140.86 230.25 132.29 C 231.30 128.28 233.48 124.67 234.39 120.62 C 236.27 112.59 238.54 104.67 240.37 96.63 C 240.72 94.89 241.47 93.28 242.57 91.89 C 243.48 88.55 244.32 85.19 245.24 81.85 C 244.50 81.00 243.77 80.14 243.03 79.29 C 239.16 78.16 235.22 77.22 231.18 76.87 C 229.71 81.98 228.04 87.03 226.90 92.23 C 224.12 83.99 219.80 75.42 211.96 70.96 C 205.14 66.80 196.92 66.44 189.18 65.76 C 184.12 65.17 179.04 65.08 173.96 65.29 C 160.86 65.80 148.11 61.20 134.99 62.28 C 123.61 63.29 111.22 64.92 100.68 59.46 C 103.92 56.72 107.55 54.46 111.48 52.85 C 112.13 50.75 114.40 50.05 116.12 49.03 C 120.74 47.19 124.96 44.46 129.74 43.02 C 132.52 40.18 136.51 39.50 140.10 38.25 C 145.23 36.31 150.56 35.03 155.81 33.51 C 155.61 33.28 155.21 32.83 155.01 32.61 C 161.66 31.24 168.19 29.20 175.01 28.80 Z" />
</g>
<g id="#120a0aff">
<path fill="#120a0a" opacity="1.00" d=" M 97.83 61.67 C 97.83 61.29 97.84 60.54 97.84 60.17 C 98.55 59.99 99.97 59.64 100.68 59.46 C 111.22 64.92 123.61 63.29 134.99 62.28 C 148.11 61.20 160.86 65.80 173.96 65.29 C 179.04 65.08 184.12 65.17 189.18 65.76 C 196.92 66.44 205.14 66.80 211.96 70.96 C 219.80 75.42 224.12 83.99 226.90 92.23 C 225.56 97.60 224.40 103.04 221.89 108.01 C 219.32 117.08 217.15 126.28 214.77 135.40 C 213.87 139.06 211.72 142.26 210.94 145.96 C 209.01 154.23 206.66 162.39 204.75 170.66 C 204.35 170.94 203.54 171.49 203.14 171.77 C 201.74 178.79 199.87 185.72 197.86 192.59 C 192.51 189.99 186.18 188.08 180.39 190.46 C 176.70 191.46 174.02 194.26 170.85 196.16 C 166.27 196.58 161.34 196.32 157.56 199.45 C 143.30 196.07 128.55 199.15 114.18 196.54 C 108.70 196.26 104.24 192.90 99.54 190.47 C 94.41 188.17 91.77 182.89 88.57 178.58 C 83.57 169.19 84.88 158.19 83.23 148.02 C 82.77 143.38 79.39 139.90 76.39 136.65 C 73.72 133.67 69.85 131.79 67.94 128.15 C 64.59 121.99 62.81 115.04 62.46 108.05 C 62.28 104.97 62.41 101.64 60.38 99.09 C 60.22 98.83 59.90 98.31 59.75 98.05 C 63.00 97.41 64.27 93.75 66.19 91.40 C 67.54 88.98 69.21 86.62 71.76 85.36 C 73.98 83.35 75.84 81.02 77.42 78.49 C 77.73 84.06 76.26 89.52 76.20 95.08 C 75.99 103.10 76.53 111.15 77.69 119.09 C 78.20 124.05 82.89 127.15 87.04 129.04 C 92.45 130.85 96.33 123.45 101.66 125.41 C 103.55 125.97 104.05 128.22 103.65 129.93 C 102.17 136.44 98.00 142.22 97.75 149.03 C 97.60 152.69 97.68 156.36 97.68 160.03 C 97.50 166.14 100.20 171.83 102.89 177.15 C 106.18 181.95 112.74 182.32 118.03 182.34 C 125.70 182.01 133.29 183.59 140.95 183.27 C 148.44 183.00 155.95 183.05 163.42 183.53 C 168.34 183.81 172.05 187.92 177.00 188.07 C 181.03 188.19 185.83 187.92 188.64 184.61 C 193.94 178.66 196.31 170.76 197.11 162.97 C 197.82 156.69 198.88 150.34 198.06 144.03 C 197.59 139.27 192.63 137.01 190.93 132.80 C 196.81 131.86 203.14 130.87 207.71 126.68 C 211.53 123.14 214.95 118.40 214.89 112.97 C 214.84 107.98 213.80 103.04 213.89 98.04 C 214.02 93.25 212.47 88.34 209.31 84.72 C 206.13 81.89 202.11 80.06 198.03 78.98 C 193.52 77.87 189.41 80.84 185.00 81.18 C 181.31 80.39 177.86 78.53 174.02 78.50 C 167.03 78.28 159.91 79.58 153.03 77.85 C 148.26 76.74 143.99 73.77 138.99 73.67 C 133.64 73.56 129.38 77.86 124.01 77.74 C 117.47 77.83 110.56 78.54 104.52 75.44 C 97.97 72.31 90.62 73.45 83.63 73.59 C 86.10 70.42 88.84 67.50 92.48 65.67 C 94.29 64.38 95.99 62.93 97.83 61.67 Z" />
</g>
<g id="#f8f3f1ff">
<path fill="#f8f3f1" opacity="1.00" d=" M 72.09 73.56 C 72.69 68.91 76.88 65.74 81.21 64.74 C 77.17 66.67 75.36 70.84 72.09 73.56 Z" />
<path fill="#f8f3f1" opacity="1.00" d=" M 76.55 71.70 C 78.32 69.00 81.14 67.35 83.62 65.39 C 86.57 65.22 89.64 64.47 92.48 65.67 C 88.84 67.50 86.10 70.42 83.63 73.59 C 81.68 75.37 79.28 76.60 77.42 78.49 C 75.84 81.02 73.98 83.35 71.76 85.36 C 69.21 86.62 67.54 88.98 66.19 91.40 C 66.52 87.99 66.94 84.59 67.56 81.22 C 69.66 77.24 74.11 75.42 76.55 71.70 Z" />
<path fill="#f8f3f1" opacity="1.00" d=" M 44.88 322.04 C 47.83 322.00 50.40 323.43 52.83 324.93 C 52.78 325.71 52.68 327.28 52.64 328.07 C 52.27 327.92 51.53 327.61 51.16 327.46 C 49.21 325.48 46.83 324.01 44.88 322.04 Z" />
<path fill="#f8f3f1" opacity="1.00" d=" M 52.85 329.33 C 55.85 331.66 58.30 334.58 61.16 337.05 C 61.32 337.59 61.63 338.66 61.79 339.19 C 60.55 338.59 58.94 338.39 58.26 337.02 C 56.43 334.48 54.20 332.20 52.85 329.33 Z" />
<path fill="#f8f3f1" opacity="1.00" d=" M 76.22 353.69 C 77.91 354.52 79.60 355.38 81.29 356.24 C 79.79 356.41 78.30 356.59 76.80 356.77 C 76.66 356.00 76.36 354.46 76.22 353.69 Z" />
</g>
<g id="#3a0608ff">
<path fill="#3a0608" opacity="1.00" d=" M 77.42 78.49 C 79.28 76.60 81.68 75.37 83.63 73.59 C 90.62 73.45 97.97 72.31 104.52 75.44 C 110.56 78.54 117.47 77.83 124.01 77.74 C 129.38 77.86 133.64 73.56 138.99 73.67 C 143.99 73.77 148.26 76.74 153.03 77.85 C 159.91 79.58 167.03 78.28 174.02 78.50 C 177.86 78.53 181.31 80.39 185.00 81.18 C 189.41 80.84 193.52 77.87 198.03 78.98 C 202.11 80.06 206.13 81.89 209.31 84.72 C 212.47 88.34 214.02 93.25 213.89 98.04 C 213.80 103.04 214.84 107.98 214.89 112.97 C 214.95 118.40 211.53 123.14 207.71 126.68 C 203.14 130.87 196.81 131.86 190.93 132.80 C 192.63 137.01 197.59 139.27 198.06 144.03 C 198.88 150.34 197.82 156.69 197.11 162.97 C 196.31 170.76 193.94 178.66 188.64 184.61 C 185.83 187.92 181.03 188.19 177.00 188.07 C 172.05 187.92 168.34 183.81 163.42 183.53 C 155.95 183.05 148.44 183.00 140.95 183.27 C 133.29 183.59 125.70 182.01 118.03 182.34 C 112.74 182.32 106.18 181.95 102.89 177.15 C 100.20 171.83 97.50 166.14 97.68 160.03 C 97.68 156.36 97.60 152.69 97.75 149.03 C 98.00 142.22 102.17 136.44 103.65 129.93 C 104.05 128.22 103.55 125.97 101.66 125.41 C 96.33 123.45 92.45 130.85 87.04 129.04 C 82.89 127.15 78.20 124.05 77.69 119.09 C 76.53 111.15 75.99 103.10 76.20 95.08 C 76.26 89.52 77.73 84.06 77.42 78.49 M 135.82 75.99 C 132.17 76.83 133.70 82.09 130.60 83.52 C 126.38 84.28 122.23 82.27 118.00 82.73 C 114.47 83.06 110.90 84.23 107.35 83.50 C 104.61 81.27 102.79 77.54 98.92 77.07 C 94.54 76.40 89.32 75.33 85.48 78.15 C 84.95 78.16 83.91 78.17 83.38 78.18 C 82.10 90.79 83.07 103.47 82.67 116.11 L 83.29 116.92 C 83.27 119.31 83.25 121.71 83.23 124.11 C 86.31 124.24 89.40 124.26 92.48 124.31 C 92.60 123.80 92.84 122.79 92.96 122.29 C 95.15 119.75 95.03 116.23 96.39 113.31 C 97.46 111.11 100.30 110.73 102.33 111.76 C 104.87 115.18 104.72 120.08 107.80 123.16 C 110.39 124.95 113.26 126.29 115.89 128.03 C 117.10 128.68 118.45 129.84 119.90 129.13 C 123.78 127.71 127.57 125.40 131.84 125.61 C 135.11 126.15 138.34 127.64 141.71 126.77 C 147.18 125.57 152.70 127.57 158.18 126.59 C 164.17 125.51 170.08 128.62 176.04 127.13 C 179.76 126.14 183.33 123.05 187.35 124.84 C 193.11 127.08 200.04 127.83 205.34 124.01 C 208.77 122.46 209.58 118.35 210.23 115.01 C 211.14 110.58 208.77 106.51 207.60 102.39 C 206.98 100.44 208.16 98.56 208.64 96.72 L 209.58 96.55 C 209.29 93.52 208.98 90.36 207.21 87.78 C 206.93 87.30 206.36 86.35 206.08 85.87 C 202.45 84.82 198.73 83.11 194.88 83.94 C 191.43 84.35 188.39 86.33 184.96 86.67 C 181.22 86.51 178.02 84.13 174.33 83.66 C 168.49 82.64 162.95 86.93 157.17 84.75 C 153.43 83.50 149.51 82.89 145.80 81.57 C 145.23 80.03 145.00 78.29 144.02 76.95 C 141.67 75.32 138.49 75.17 135.82 75.99 M 106.83 135.85 C 102.11 141.40 101.79 149.07 101.95 156.01 C 102.29 163.04 101.85 170.82 106.35 176.73 C 110.69 179.95 116.40 179.52 121.42 178.58 C 127.47 177.46 133.37 179.98 139.41 179.57 C 143.94 179.45 148.46 178.03 153.00 178.90 C 159.30 180.19 165.84 179.07 172.09 180.75 C 172.29 181.33 172.70 182.48 172.91 183.05 C 177.68 183.96 182.65 183.62 187.32 182.29 C 187.95 180.66 188.65 179.06 189.06 177.37 C 192.97 170.06 191.85 161.36 194.69 153.72 C 196.04 149.93 195.26 145.84 195.12 141.93 C 193.50 141.71 191.89 141.43 190.26 141.33 C 181.19 139.98 171.96 140.50 162.90 139.19 C 157.75 138.36 152.86 141.51 147.70 140.34 C 140.96 139.00 133.94 140.42 127.31 138.38 C 124.77 137.16 123.13 134.54 120.46 133.51 C 115.93 131.43 110.76 133.33 106.83 135.85 Z" />
</g>
<g id="#660a0aff">
<path fill="#660a0a" opacity="1.00" d=" M 135.82 75.99 C 138.49 75.17 141.67 75.32 144.02 76.95 C 145.00 78.29 145.23 80.03 145.80 81.57 C 149.51 82.89 153.43 83.50 157.17 84.75 C 154.40 84.67 151.63 84.86 148.89 85.23 C 148.68 85.55 148.25 86.20 148.04 86.52 C 146.53 85.68 145.03 84.84 143.52 84.00 C 143.54 82.04 143.54 80.09 143.54 78.14 C 140.49 78.14 137.44 78.15 134.39 78.18 C 134.40 80.08 134.43 81.98 134.41 83.89 C 133.64 85.22 132.89 86.59 131.78 87.67 C 130.11 87.76 128.46 87.44 126.83 87.14 C 122.84 84.32 117.59 84.14 113.17 85.99 C 111.09 86.82 109.05 87.75 107.01 88.67 C 106.22 87.60 105.43 86.53 104.68 85.44 C 103.36 83.07 101.82 80.82 100.18 78.66 C 95.30 78.21 90.39 78.14 85.48 78.15 C 89.32 75.33 94.54 76.40 98.92 77.07 C 102.79 77.54 104.61 81.27 107.35 83.50 C 110.90 84.23 114.47 83.06 118.00 82.73 C 122.23 82.27 126.38 84.28 130.60 83.52 C 133.70 82.09 132.17 76.83 135.82 75.99 Z" />
</g>
<g id="#fdfcfcff">
<path fill="#fdfcfc" opacity="1.00" d=" M 63.03 82.21 C 63.05 79.68 63.86 77.28 66.01 75.79 C 65.82 77.57 65.46 79.33 65.14 81.10 C 64.61 81.37 63.56 81.93 63.03 82.21 Z" />
<path fill="#fdfcfc" opacity="1.00" d=" M 235.26 82.77 C 236.65 83.08 238.04 83.40 239.44 83.72 C 237.26 92.76 234.59 101.71 232.78 110.83 C 232.50 110.74 231.93 110.57 231.64 110.49 C 229.06 120.93 225.93 131.24 223.72 141.77 C 223.41 141.65 222.79 141.40 222.47 141.28 C 219.90 153.18 216.00 164.78 213.74 176.74 C 213.45 176.63 212.85 176.43 212.55 176.33 C 210.82 183.04 209.02 189.73 207.48 196.49 C 205.53 196.48 203.58 196.48 201.63 196.48 C 202.16 193.74 202.84 191.03 203.52 188.33 C 203.83 188.45 204.45 188.70 204.76 188.82 C 206.78 178.51 209.97 168.47 212.27 158.22 C 212.57 158.32 213.18 158.53 213.48 158.63 C 215.87 146.70 219.80 135.13 222.21 123.20 C 222.53 123.32 223.16 123.54 223.47 123.65 C 225.70 113.41 228.97 103.45 231.23 93.22 C 231.55 93.33 232.18 93.55 232.50 93.66 C 233.19 89.98 234.17 86.36 235.26 82.77 Z" />
<path fill="#fdfcfc" opacity="1.00" d=" M 44.84 108.42 C 45.33 104.68 47.92 101.76 50.54 99.26 C 49.14 102.58 47.43 105.86 44.84 108.42 Z" />
<path fill="#fdfcfc" opacity="1.00" d=" M 34.88 125.45 C 35.43 121.49 37.44 117.91 39.69 114.68 C 38.95 118.57 37.62 122.48 34.88 125.45 Z" />
<path fill="#fdfcfc" opacity="1.00" d=" M 9.03 217.69 C 11.75 219.52 12.75 223.06 11.62 226.09 C 9.97 223.60 9.09 220.68 9.03 217.69 Z" />
<path fill="#fdfcfc" opacity="1.00" d=" M 16.35 249.24 C 14.16 247.20 9.75 243.69 12.37 240.55 C 12.47 241.10 12.66 242.19 12.76 242.74 C 15.95 243.13 17.47 246.39 16.35 249.24 Z" />
<path fill="#fdfcfc" opacity="1.00" d=" M 398.12 246.91 C 400.77 247.27 400.00 250.37 400.16 252.27 C 399.44 250.50 398.68 248.74 398.12 246.91 Z" />
<path fill="#fdfcfc" opacity="1.00" d=" M 15.37 251.50 C 16.96 254.75 17.99 258.24 18.79 261.76 C 18.53 261.82 17.99 261.92 17.72 261.97 C 16.48 258.60 15.27 255.15 15.37 251.50 Z" />
<path fill="#fdfcfc" opacity="1.00" d=" M 36.46 305.71 C 38.05 307.98 39.57 310.30 41.20 312.54 C 41.62 312.58 42.44 312.67 42.85 312.71 C 43.49 313.91 44.12 315.12 44.74 316.35 C 40.04 314.97 37.45 310.19 36.46 305.71 Z" />
<path fill="#fdfcfc" opacity="1.00" d=" M 375.46 320.07 C 376.86 316.58 377.70 312.68 380.52 309.97 C 379.76 313.92 378.08 317.66 376.11 321.13 C 375.71 322.50 374.14 321.65 373.68 320.89 C 374.12 320.68 375.01 320.28 375.46 320.07 Z" />
<path fill="#fdfcfc" opacity="1.00" d=" M 365.93 330.99 C 367.88 328.76 367.92 325.41 370.29 323.47 C 369.84 328.23 367.48 333.52 362.63 335.16 C 363.61 333.67 364.78 332.33 365.93 330.99 Z" />
<path fill="#fdfcfc" opacity="1.00" d=" M 356.54 339.49 C 357.86 337.92 358.55 335.91 360.05 334.46 C 359.89 337.39 358.48 339.99 356.78 342.29 C 355.49 343.01 354.29 343.89 353.74 345.31 C 352.40 348.09 350.08 350.16 347.81 352.16 C 350.96 348.09 352.89 343.17 356.54 339.49 Z" />
<path fill="#fdfcfc" opacity="1.00" d=" M 63.40 342.98 C 65.69 343.96 68.70 344.13 70.09 346.48 C 72.78 347.30 75.04 349.00 76.44 351.47 C 72.83 349.85 69.00 348.77 65.50 346.91 C 64.82 345.59 64.11 344.28 63.40 342.98 Z" />
<path fill="#fdfcfc" opacity="1.00" d=" M 332.16 351.29 C 333.68 349.69 334.24 352.83 333.16 353.61 C 331.66 355.26 331.01 352.05 332.16 351.29 Z" />
<path fill="#fdfcfc" opacity="1.00" d=" M 325.29 357.30 C 326.30 357.50 327.33 357.72 328.35 357.93 C 325.50 358.82 325.50 362.76 322.47 363.47 C 323.05 361.26 324.08 359.22 325.29 357.30 Z" />
<path fill="#fdfcfc" opacity="1.00" d=" M 82.65 360.08 C 84.60 360.47 87.41 360.27 87.98 362.74 C 86.02 362.30 83.40 362.40 82.65 360.08 Z" />
</g>
<g id="#f81415ff">
<path fill="#f81415" opacity="1.00" d=" M 231.18 76.87 C 235.22 77.22 239.16 78.16 243.03 79.29 C 243.77 80.14 244.50 81.00 245.24 81.85 C 244.32 85.19 243.48 88.55 242.57 91.89 C 241.47 93.28 240.72 94.89 240.37 96.63 C 238.54 104.67 236.27 112.59 234.39 120.62 C 233.48 124.67 231.30 128.28 230.25 132.29 C 228.13 140.86 225.82 149.39 223.59 157.93 C 222.38 159.51 221.53 161.33 221.10 163.28 C 219.19 171.56 216.77 179.72 214.83 188.00 C 214.45 189.85 213.55 191.52 212.49 193.07 C 212.14 194.39 211.80 195.71 211.46 197.04 C 215.40 199.09 218.78 202.10 220.71 206.16 C 221.18 205.06 221.65 203.97 222.13 202.88 C 225.10 200.93 227.37 198.18 229.35 195.27 C 231.56 191.90 235.17 189.74 237.23 186.26 C 238.68 183.76 240.60 181.59 242.88 179.82 C 245.90 177.45 247.12 173.59 249.96 171.07 C 254.67 167.53 256.70 161.64 261.49 158.16 C 265.57 152.43 270.61 147.50 274.94 141.97 C 278.68 136.79 283.66 132.66 287.08 127.24 C 289.67 124.14 293.11 121.75 295.01 118.07 C 297.04 114.24 301.32 112.37 303.37 108.54 C 306.18 112.45 312.67 112.83 314.02 117.90 C 312.99 122.58 308.19 124.96 305.64 128.74 C 303.28 132.24 300.22 135.16 297.48 138.36 C 293.77 142.39 291.03 147.25 286.86 150.86 C 284.17 153.28 282.83 156.84 279.98 159.11 C 277.62 161.07 275.61 163.42 274.01 166.04 C 271.87 169.84 267.59 171.77 265.60 175.70 C 263.56 179.48 259.43 181.41 257.25 185.07 C 255.40 188.17 252.95 190.86 250.07 193.04 C 245.16 200.95 237.38 206.69 232.89 214.93 C 235.14 217.96 236.57 221.45 238.13 224.85 C 244.38 227.55 251.94 227.92 256.99 232.96 C 258.96 234.71 261.41 235.81 263.39 237.54 C 266.56 240.77 266.72 245.66 266.41 249.90 C 265.73 257.33 264.61 264.72 263.07 272.02 C 262.64 274.23 261.65 276.29 260.36 278.13 C 257.85 284.69 255.58 291.74 250.47 296.81 C 247.99 299.99 245.76 303.39 242.84 306.22 C 242.30 306.33 241.21 306.57 240.67 306.69 C 240.55 307.23 240.31 308.32 240.19 308.86 C 235.86 313.11 230.28 315.69 225.78 319.74 C 220.67 322.37 215.37 324.84 209.72 326.09 C 209.44 326.52 208.87 327.37 208.58 327.79 C 194.68 331.11 180.13 331.99 166.04 329.33 C 161.38 328.96 157.50 326.18 153.18 324.72 C 149.48 323.20 145.55 322.07 142.23 319.78 C 137.48 315.81 132.14 312.62 127.46 308.55 C 123.38 303.92 119.69 298.99 115.65 294.33 C 112.47 290.60 111.94 285.28 108.35 281.84 C 104.96 272.96 103.13 263.58 102.49 254.11 C 102.24 248.90 100.95 242.89 104.41 238.41 C 106.45 235.10 110.56 234.15 112.90 231.15 C 119.14 227.89 126.07 226.41 132.83 224.65 C 135.01 224.34 135.27 221.78 136.36 220.27 C 138.84 217.96 140.54 215.02 142.60 212.36 C 144.48 210.16 147.57 209.90 150.19 209.15 C 152.35 205.71 153.72 201.44 157.56 199.45 C 161.34 196.32 166.27 196.58 170.85 196.16 C 174.02 194.26 176.70 191.46 180.39 190.46 C 186.18 188.08 192.51 189.99 197.86 192.59 C 199.87 185.72 201.74 178.79 203.14 171.77 C 203.54 171.49 204.35 170.94 204.75 170.66 C 206.66 162.39 209.01 154.23 210.94 145.96 C 211.72 142.26 213.87 139.06 214.77 135.40 C 217.15 126.28 219.32 117.08 221.89 108.01 C 224.40 103.04 225.56 97.60 226.90 92.23 C 228.04 87.03 229.71 81.98 231.18 76.87 M 235.26 82.77 C 234.17 86.36 233.19 89.98 232.50 93.66 C 232.18 93.55 231.55 93.33 231.23 93.22 C 228.97 103.45 225.70 113.41 223.47 123.65 C 223.16 123.54 222.53 123.32 222.21 123.20 C 219.80 135.13 215.87 146.70 213.48 158.63 C 213.18 158.53 212.57 158.32 212.27 158.22 C 209.97 168.47 206.78 178.51 204.76 188.82 C 204.45 188.70 203.83 188.45 203.52 188.33 C 202.84 191.03 202.16 193.74 201.63 196.48 C 203.58 196.48 205.53 196.48 207.48 196.49 C 209.02 189.73 210.82 183.04 212.55 176.33 C 212.85 176.43 213.45 176.63 213.74 176.74 C 216.00 164.78 219.90 153.18 222.47 141.28 C 222.79 141.40 223.41 141.65 223.72 141.77 C 225.93 131.24 229.06 120.93 231.64 110.49 C 231.93 110.57 232.50 110.74 232.78 110.83 C 234.59 101.71 237.26 92.76 239.44 83.72 C 238.04 83.40 236.65 83.08 235.26 82.77 M 304.11 114.95 C 302.20 117.25 301.35 120.72 298.34 121.87 C 294.19 125.11 293.01 131.03 288.20 133.45 C 285.59 136.62 283.76 140.38 280.66 143.16 C 279.70 143.61 278.70 144.09 278.16 145.06 C 275.78 148.83 273.23 152.68 269.56 155.33 C 266.98 159.05 264.28 162.91 260.62 165.64 C 258.94 169.11 255.60 171.34 253.83 174.74 C 252.74 177.28 250.02 178.38 248.34 180.44 C 246.16 182.76 244.78 185.67 242.72 188.09 C 238.92 189.73 237.53 194.02 235.06 197.03 C 233.31 199.50 230.19 200.66 228.79 203.41 C 227.64 205.65 226.00 207.57 224.27 209.38 C 225.70 209.96 227.13 210.55 228.56 211.14 C 230.48 208.73 233.54 207.41 235.00 204.62 C 237.04 201.01 239.91 197.94 243.10 195.31 C 245.58 191.87 247.90 188.15 251.42 185.66 C 253.25 182.49 255.91 179.96 258.18 177.14 C 259.36 175.81 259.73 173.69 261.62 173.13 C 264.27 170.53 266.52 167.59 268.41 164.40 C 270.51 162.53 272.82 160.84 274.38 158.45 C 276.38 155.95 277.48 152.34 280.72 151.14 C 282.80 149.02 284.11 146.34 285.87 143.98 C 287.30 142.00 289.54 140.87 291.15 139.08 C 293.48 135.33 295.90 131.27 299.74 128.89 C 301.68 124.73 305.67 122.02 307.73 117.91 C 306.51 116.92 305.31 115.94 304.11 114.95 M 174.48 200.64 C 171.98 202.61 168.89 201.28 166.04 201.34 C 164.17 201.33 162.57 202.44 161.02 203.33 C 159.68 205.91 157.24 207.76 156.29 210.58 C 156.01 210.49 155.44 210.30 155.16 210.21 C 154.99 211.18 154.65 213.10 154.49 214.07 C 151.87 215.24 149.04 215.80 146.31 216.63 C 141.93 219.13 140.91 224.33 139.90 228.84 C 138.25 230.96 134.98 230.32 132.64 231.07 C 131.19 233.21 129.35 235.09 128.35 237.51 C 128.06 237.43 127.46 237.28 127.16 237.20 C 126.55 240.09 126.54 243.09 125.80 245.96 C 124.70 248.55 120.80 248.05 119.50 250.46 C 118.88 252.67 119.12 254.97 119.32 257.22 C 122.44 258.53 125.53 260.05 128.93 260.53 C 128.77 260.78 128.45 261.29 128.29 261.54 C 147.65 267.10 167.92 268.60 187.98 268.48 C 205.70 268.08 223.52 266.41 240.62 261.57 C 240.54 261.25 240.37 260.61 240.28 260.29 C 244.78 259.78 248.98 257.90 253.04 256.03 C 255.33 254.76 254.10 251.96 253.92 249.96 C 251.56 248.75 248.59 248.35 246.76 246.31 C 245.70 242.60 246.17 238.42 243.86 235.10 C 243.09 233.36 240.53 233.42 240.12 231.44 C 238.39 230.99 236.60 230.71 234.93 230.08 C 232.45 229.37 233.14 226.21 232.56 224.27 C 232.26 224.36 231.64 224.53 231.34 224.62 C 230.67 218.23 224.11 215.03 218.44 214.23 C 217.15 210.98 216.03 207.25 212.90 205.27 C 211.45 204.28 210.67 202.45 208.88 201.95 C 206.02 200.71 202.88 201.78 199.93 202.02 C 195.68 197.38 189.10 195.08 182.89 196.25 C 179.70 196.81 177.12 198.91 174.48 200.64 M 109.41 242.84 C 106.55 243.85 106.57 249.20 109.45 250.16 C 110.22 251.88 111.61 253.15 113.04 254.33 C 113.14 250.79 114.00 247.14 116.97 244.90 C 118.43 244.43 119.85 243.88 121.27 243.29 C 121.36 240.05 122.31 236.95 123.38 233.92 C 118.57 236.52 111.88 237.28 109.41 242.84 M 250.14 236.82 L 249.99 237.96 C 249.74 239.73 250.43 240.27 252.06 239.58 C 252.04 240.43 252.01 242.13 252.00 242.97 C 253.93 244.08 255.76 245.36 257.45 246.83 C 257.59 247.37 257.89 248.46 258.04 249.00 C 258.49 249.21 259.40 249.64 259.85 249.85 C 259.92 247.72 260.38 245.40 258.97 243.57 C 258.79 242.71 258.61 241.85 258.42 241.00 C 256.39 239.45 254.47 237.05 251.73 237.02 C 251.27 235.38 250.74 235.32 250.14 236.82 M 108.29 257.94 C 108.34 259.49 108.41 261.03 108.47 262.59 C 108.78 262.47 109.40 262.25 109.71 262.14 C 111.17 270.43 113.55 278.60 117.25 286.18 C 118.47 286.42 119.20 287.22 119.44 288.43 C 120.81 292.77 124.38 295.80 126.63 299.65 C 129.66 302.76 133.79 304.93 136.11 308.73 C 139.92 310.44 142.92 313.55 146.86 315.02 C 148.92 316.04 151.69 316.57 152.66 318.92 C 159.00 321.00 165.37 323.13 172.01 323.97 C 186.60 326.20 201.69 324.15 215.41 318.84 C 215.63 318.48 216.05 317.76 216.26 317.41 C 221.35 314.13 227.99 312.78 231.70 307.68 C 235.55 305.38 239.20 302.18 241.25 298.14 C 244.13 296.85 245.60 293.84 247.32 291.37 C 248.90 289.12 248.98 285.52 251.84 284.39 C 255.38 276.25 257.75 267.62 259.13 258.85 C 258.50 259.21 257.25 259.92 256.62 260.27 C 256.27 262.00 254.44 262.47 253.09 263.17 C 246.25 265.71 239.22 267.74 232.10 269.32 C 232.27 269.57 232.60 270.07 232.76 270.32 C 200.69 275.82 167.62 276.03 135.57 270.35 C 135.64 270.07 135.78 269.51 135.86 269.23 C 127.97 267.51 120.17 265.17 112.89 261.67 C 112.29 259.54 110.04 258.87 108.29 257.94 Z" />
</g>
<g id="#f67676ff">
<path fill="#f67676" opacity="1.00" d=" M 83.38 78.18 C 83.91 78.17 84.95 78.16 85.48 78.15 C 90.39 78.14 95.30 78.21 100.18 78.66 C 101.82 80.82 103.36 83.07 104.68 85.44 C 105.50 91.90 106.17 99.40 101.84 104.84 L 101.39 105.32 C 98.39 105.63 95.39 105.95 92.40 106.32 C 92.42 112.32 92.15 118.32 92.48 124.31 C 89.40 124.26 86.31 124.24 83.23 124.11 C 83.25 121.71 83.27 119.31 83.29 116.92 L 82.67 116.11 C 83.07 103.47 82.10 90.79 83.38 78.18 M 92.44 97.62 C 93.43 97.46 94.42 97.29 95.41 97.13 C 95.75 93.99 95.81 90.84 95.65 87.69 C 94.87 87.35 93.30 86.66 92.51 86.32 C 92.35 90.08 92.34 93.85 92.44 97.62 Z" />
<path fill="#f67676" opacity="1.00" d=" M 134.39 78.18 C 137.44 78.15 140.49 78.14 143.54 78.14 C 143.54 80.09 143.54 82.04 143.52 84.00 C 143.45 87.95 143.50 91.91 143.76 95.86 C 145.29 92.79 146.50 89.58 148.04 86.52 C 148.25 86.20 148.68 85.55 148.89 85.23 C 151.98 85.28 155.06 85.30 158.15 85.37 C 156.48 91.03 152.86 96.11 152.46 102.11 C 152.88 110.01 158.33 116.41 159.48 124.16 C 156.09 124.12 152.49 124.77 149.27 123.41 C 149.13 122.88 148.87 121.82 148.73 121.29 C 147.98 116.12 144.50 111.90 143.69 106.73 C 143.45 112.56 143.45 118.39 143.43 124.22 C 140.67 124.22 137.90 124.25 135.14 124.10 C 134.94 123.94 134.54 123.62 134.33 123.47 C 134.47 110.27 134.34 97.08 134.41 83.89 C 134.43 81.98 134.40 80.08 134.39 78.18 Z" />
<path fill="#f67676" opacity="1.00" d=" M 113.17 85.99 C 117.59 84.14 122.84 84.32 126.83 87.14 C 127.63 87.67 128.43 88.22 129.23 88.78 C 132.22 95.83 131.29 103.58 131.33 111.03 C 131.18 114.24 131.01 117.64 129.42 120.52 C 125.74 124.56 119.77 124.76 114.70 124.29 C 110.38 122.51 106.90 118.70 107.14 113.80 C 107.58 107.87 107.22 101.91 107.37 95.97 C 107.22 91.81 110.47 88.71 113.17 85.99 M 118.68 92.12 L 118.74 93.58 C 118.24 93.53 117.25 93.43 116.75 93.38 C 116.52 100.88 116.37 108.43 116.80 115.92 C 117.37 116.23 118.49 116.84 119.06 117.14 C 119.69 116.92 120.95 116.48 121.58 116.26 C 121.37 108.50 122.03 100.69 121.24 92.96 C 120.60 92.75 119.32 92.33 118.68 92.12 Z" />
<path fill="#f67676" opacity="1.00" d=" M 160.58 93.18 C 160.86 89.66 163.24 86.19 166.91 85.65 C 171.24 84.91 176.31 84.37 180.12 87.03 C 183.85 92.49 182.28 99.33 182.80 105.49 C 178.40 105.60 174.00 105.50 169.60 105.58 C 169.50 109.37 169.61 113.18 170.13 116.94 C 171.24 116.74 172.35 116.53 173.46 116.32 C 173.46 114.26 173.46 112.20 173.49 110.15 C 176.51 110.15 179.53 110.13 182.55 110.13 C 182.53 115.32 182.04 121.31 177.02 124.19 L 176.39 124.40 C 172.14 124.40 167.43 124.89 163.64 122.56 C 160.18 119.82 160.47 114.94 160.33 110.97 C 160.44 105.04 160.06 99.10 160.58 93.18 M 170.18 93.05 C 169.01 95.59 169.71 98.58 169.53 101.30 C 170.52 101.30 172.52 101.31 173.52 101.32 C 173.50 98.55 173.65 95.76 173.23 93.01 C 172.51 92.20 170.68 91.74 170.18 93.05 Z" />
<path fill="#f67676" opacity="1.00" d=" M 187.78 88.18 C 193.24 83.54 201.31 84.56 207.21 87.78 C 207.61 90.70 208.17 93.61 208.66 96.52 C 205.62 96.57 202.58 96.60 199.55 96.65 C 199.17 95.26 198.79 93.87 198.40 92.48 C 197.29 92.57 196.19 92.66 195.09 92.77 C 195.84 96.28 198.34 98.98 201.11 101.10 C 203.59 102.84 206.70 104.25 207.83 107.29 C 209.09 110.98 208.98 115.10 208.07 118.87 C 207.30 121.92 204.11 123.08 201.56 124.28 C 196.95 124.81 191.99 124.80 188.12 121.86 C 187.26 120.05 186.61 118.15 186.34 116.16 C 186.29 114.19 186.30 112.22 186.30 110.25 C 189.39 110.35 192.47 110.28 195.56 110.26 C 195.45 112.29 195.50 114.33 195.54 116.36 C 196.69 116.52 197.85 116.68 199.00 116.83 C 199.75 113.39 198.28 110.14 195.88 107.73 C 192.47 105.69 188.79 103.69 186.76 100.11 C 186.04 96.11 186.39 92.00 187.78 88.18 Z" />
<path fill="#f67676" opacity="1.00" d=" M 107.53 138.32 C 110.41 134.92 115.14 135.30 119.14 135.64 C 120.56 137.33 122.02 138.99 123.50 140.64 C 124.10 143.77 124.37 146.95 124.55 150.14 C 121.88 150.10 119.22 150.08 116.55 150.03 C 116.01 147.54 117.75 142.78 113.74 143.12 C 112.12 145.43 112.62 148.36 112.52 151.01 C 112.71 156.37 112.33 161.74 112.67 167.10 C 112.46 169.27 114.68 169.72 116.34 169.73 C 116.43 166.78 116.47 163.82 116.53 160.86 C 116.01 160.52 114.98 159.84 114.46 159.50 C 114.49 157.40 114.51 155.30 114.53 153.21 C 117.81 153.17 121.09 153.15 124.38 153.15 C 124.43 160.95 124.50 168.75 124.25 176.55 C 121.76 178.13 120.36 175.57 119.86 173.48 C 119.65 174.36 119.44 175.24 119.22 176.13 C 115.51 177.52 111.55 177.64 107.75 176.49 C 102.84 169.55 104.80 160.84 104.42 152.92 C 104.64 148.01 103.28 141.95 107.53 138.32 Z" />
<path fill="#f67676" opacity="1.00" d=" M 153.99 143.07 C 158.40 141.45 163.38 141.36 167.79 143.04 C 171.15 146.03 171.22 150.83 171.09 154.98 C 170.66 162.39 170.52 169.83 171.04 177.24 C 168.25 177.16 165.46 177.13 162.67 177.10 C 162.53 176.22 162.25 174.45 162.11 173.57 C 161.85 174.40 161.59 175.25 161.34 176.09 C 160.71 176.47 159.46 177.24 158.84 177.63 C 156.77 177.40 154.73 176.99 152.69 176.58 C 152.30 175.44 151.92 174.30 151.56 173.16 C 150.34 168.75 149.63 163.39 152.49 159.46 C 155.40 156.84 159.27 155.61 162.71 153.83 C 162.40 151.69 161.88 149.59 161.05 147.59 C 160.30 149.16 159.60 150.75 158.92 152.35 C 156.34 152.36 153.75 152.35 151.17 152.33 C 151.39 149.07 151.47 145.50 153.99 143.07 M 159.72 170.28 C 160.38 170.36 161.70 170.53 162.35 170.61 C 162.51 166.65 162.56 162.68 162.33 158.72 C 157.83 160.79 159.46 166.40 159.72 170.28 Z" />
<path fill="#f67676" opacity="1.00" d=" M 140.26 142.36 C 142.93 142.12 145.62 142.19 148.31 142.21 C 148.39 153.85 148.61 165.49 148.24 177.12 C 145.62 177.07 142.99 177.03 140.37 176.99 C 140.30 175.70 140.24 174.42 140.17 173.13 C 139.39 174.35 138.61 175.56 137.83 176.77 C 135.48 176.92 133.13 177.06 130.79 177.15 C 129.33 174.67 128.18 171.93 128.29 169.00 C 128.21 160.04 128.28 151.08 128.32 142.12 C 130.59 142.21 132.86 142.37 135.11 142.73 C 135.96 151.92 135.17 161.16 135.61 170.36 C 136.58 170.40 138.51 170.48 139.47 170.53 C 140.12 161.15 139.12 151.71 140.26 142.36 Z" />
<path fill="#f67676" opacity="1.00" d=" M 172.52 142.11 C 175.41 142.17 178.30 142.29 181.19 142.51 C 181.38 148.88 181.76 155.23 181.93 161.59 C 182.20 163.00 181.34 165.18 183.13 165.82 C 185.20 158.34 186.88 150.63 186.31 142.82 C 188.49 142.47 190.68 142.21 192.88 141.97 C 192.67 144.74 192.49 147.51 192.25 150.28 C 190.54 157.15 189.77 164.21 188.63 171.19 C 188.03 174.60 187.92 178.23 186.30 181.35 C 182.12 182.84 177.56 182.14 173.21 182.17 C 173.27 180.62 173.34 179.07 173.43 177.53 C 175.15 177.47 176.87 177.41 178.60 177.34 C 178.31 176.03 178.03 174.71 177.74 173.40 C 177.09 168.26 176.95 162.99 175.28 158.04 C 173.48 152.91 173.48 147.42 172.52 142.11 Z" />
</g>
<g id="#8d100aff">
<path fill="#8d100a" opacity="1.00" d=" M 157.17 84.75 C 162.95 86.93 168.49 82.64 174.33 83.66 C 178.02 84.13 181.22 86.51 184.96 86.67 C 188.39 86.33 191.43 84.35 194.88 83.94 C 198.73 83.11 202.45 84.82 206.08 85.87 C 206.36 86.35 206.93 87.30 207.21 87.78 C 201.31 84.56 193.24 83.54 187.78 88.18 C 186.74 89.43 185.77 90.73 184.77 92.01 C 183.23 90.34 181.75 88.62 180.12 87.03 C 176.31 84.37 171.24 84.91 166.91 85.65 C 163.24 86.19 160.86 89.66 160.58 93.18 C 160.06 99.10 160.44 105.04 160.33 110.97 C 160.47 114.94 160.18 119.82 163.64 122.56 C 167.43 124.89 172.14 124.40 176.39 124.40 C 171.26 126.48 165.67 125.14 161.03 122.49 C 160.51 123.05 159.99 123.60 159.48 124.16 C 158.33 116.41 152.88 110.01 152.46 102.11 C 152.86 96.11 156.48 91.03 158.15 85.37 C 155.06 85.30 151.98 85.28 148.89 85.23 C 151.63 84.86 154.40 84.67 157.17 84.75 Z" />
</g>
<g id="#a50e0cff">
<path fill="#a50e0c" opacity="1.00" d=" M 131.78 87.67 C 132.89 86.59 133.64 85.22 134.41 83.89 C 134.34 97.08 134.47 110.27 134.33 123.47 C 133.73 122.92 132.52 121.83 131.91 121.28 C 126.57 123.63 120.57 127.19 114.70 124.29 C 119.77 124.76 125.74 124.56 129.42 120.52 C 131.01 117.64 131.18 114.24 131.33 111.03 C 131.29 103.58 132.22 95.83 129.23 88.78 C 128.43 88.22 127.63 87.67 126.83 87.14 C 128.46 87.44 130.11 87.76 131.78 87.67 Z" />
</g>
<g id="#ac1212ff">
<path fill="#ac1212" opacity="1.00" d=" M 143.52 84.00 C 145.03 84.84 146.53 85.68 148.04 86.52 C 146.50 89.58 145.29 92.79 143.76 95.86 C 143.50 91.91 143.45 87.95 143.52 84.00 Z" />
</g>
<g id="#9b110aff">
<path fill="#9b110a" opacity="1.00" d=" M 104.68 85.44 C 105.43 86.53 106.22 87.60 107.01 88.67 C 109.05 87.75 111.09 86.82 113.17 85.99 C 110.47 88.71 107.22 91.81 107.37 95.97 C 107.22 101.91 107.58 107.87 107.14 113.80 C 106.39 111.15 105.67 108.48 105.09 105.78 C 104.01 105.46 102.93 105.15 101.84 104.84 C 106.17 99.40 105.50 91.90 104.68 85.44 Z" />
</g>
<g id="#ac0b0eff">
<path fill="#ac0b0e" opacity="1.00" d=" M 92.44 97.62 C 92.34 93.85 92.35 90.08 92.51 86.32 C 93.30 86.66 94.87 87.35 95.65 87.69 C 95.81 90.84 95.75 93.99 95.41 97.13 C 94.42 97.29 93.43 97.46 92.44 97.62 Z" />
</g>
<g id="#b40f13ff">
<path fill="#b40f13" opacity="1.00" d=" M 180.12 87.03 C 181.75 88.62 183.23 90.34 184.77 92.01 C 185.77 90.73 186.74 89.43 187.78 88.18 C 186.39 92.00 186.04 96.11 186.76 100.11 C 186.06 99.02 185.40 97.90 184.73 96.79 C 184.45 99.76 184.05 102.76 182.80 105.49 C 182.28 99.33 183.85 92.49 180.12 87.03 Z" />
</g>
<g id="#af1114ff">
<path fill="#af1114" opacity="1.00" d=" M 207.21 87.78 C 208.98 90.36 209.29 93.52 209.58 96.55 L 208.64 96.72 C 205.68 97.33 201.63 97.28 201.11 101.10 C 198.34 98.98 195.84 96.28 195.09 92.77 C 196.19 92.66 197.29 92.57 198.40 92.48 C 198.79 93.87 199.17 95.26 199.55 96.65 C 202.58 96.60 205.62 96.57 208.66 96.52 C 208.17 93.61 207.61 90.70 207.21 87.78 Z" />
</g>
<g id="#af0b0eff">
<path fill="#af0b0e" opacity="1.00" d=" M 170.18 93.05 C 170.68 91.74 172.51 92.20 173.23 93.01 C 173.65 95.76 173.50 98.55 173.52 101.32 C 172.52 101.31 170.52 101.30 169.53 101.30 C 169.71 98.58 169.01 95.59 170.18 93.05 Z" />
</g>
<g id="#aa0d0eff">
<path fill="#aa0d0e" opacity="1.00" d=" M 118.68 92.12 C 119.32 92.33 120.60 92.75 121.24 92.96 C 122.03 100.69 121.37 108.50 121.58 116.26 C 120.95 116.48 119.69 116.92 119.06 117.14 C 118.67 109.29 118.98 101.43 118.74 93.58 L 118.68 92.12 Z" />
</g>
<g id="#c0181dff">
<path fill="#c0181d" opacity="1.00" d=" M 116.75 93.38 C 117.25 93.43 118.24 93.53 118.74 93.58 C 118.98 101.43 118.67 109.29 119.06 117.14 C 118.49 116.84 117.37 116.23 116.80 115.92 C 116.37 108.43 116.52 100.88 116.75 93.38 Z" />
</g>
<g id="#900f0aff">
<path fill="#900f0a" opacity="1.00" d=" M 182.80 105.49 C 184.05 102.76 184.45 99.76 184.73 96.79 C 185.40 97.90 186.06 99.02 186.76 100.11 C 188.79 103.69 192.47 105.69 195.88 107.73 C 195.80 108.37 195.64 109.63 195.56 110.26 C 192.47 110.28 189.39 110.35 186.30 110.25 C 185.53 110.17 183.99 110.02 183.22 109.95 C 182.99 109.50 182.53 108.60 182.30 108.15 C 179.39 107.81 176.46 107.79 173.54 107.76 C 173.53 108.35 173.50 109.55 173.49 110.15 C 173.46 112.20 173.46 114.26 173.46 116.32 C 172.35 116.53 171.24 116.74 170.13 116.94 C 169.61 113.18 169.50 109.37 169.60 105.58 C 174.00 105.50 178.40 105.60 182.80 105.49 Z" />
</g>
<g id="#7e0c0aff">
<path fill="#7e0c0a" opacity="1.00" d=" M 201.11 101.10 C 201.63 97.28 205.68 97.33 208.64 96.72 C 208.16 98.56 206.98 100.44 207.60 102.39 C 208.77 106.51 211.14 110.58 210.23 115.01 C 209.58 118.35 208.77 122.46 205.34 124.01 C 204.39 124.07 202.51 124.21 201.56 124.28 C 204.11 123.08 207.30 121.92 208.07 118.87 C 208.98 115.10 209.09 110.98 207.83 107.29 C 206.70 104.25 203.59 102.84 201.11 101.10 Z" />
</g>
<g id="#890f0aff">
<path fill="#890f0a" opacity="1.00" d=" M 92.40 106.32 C 95.39 105.95 98.39 105.63 101.39 105.32 C 99.36 107.05 96.79 108.14 95.04 110.18 C 92.70 113.77 93.26 118.23 92.96 122.29 C 92.84 122.79 92.60 123.80 92.48 124.31 C 92.15 118.32 92.42 112.32 92.40 106.32 Z" />
<path fill="#890f0a" opacity="1.00" d=" M 188.63 171.19 C 189.77 164.21 190.54 157.15 192.25 150.28 C 192.45 159.44 189.61 168.27 189.06 177.37 C 188.65 179.06 187.95 180.66 187.32 182.29 C 182.65 183.62 177.68 183.96 172.91 183.05 C 172.70 182.48 172.29 181.33 172.09 180.75 C 171.97 180.04 171.73 178.60 171.61 177.89 C 167.35 177.60 163.09 177.68 158.84 177.63 C 159.46 177.24 160.71 176.47 161.34 176.09 C 161.59 175.25 161.85 174.40 162.11 173.57 C 162.25 174.45 162.53 176.22 162.67 177.10 C 165.46 177.13 168.25 177.16 171.04 177.24 C 172.68 171.57 172.08 165.62 172.64 159.81 C 176.54 163.25 176.17 168.84 177.74 173.40 C 178.03 174.71 178.31 176.03 178.60 177.34 C 176.87 177.41 175.15 177.47 173.43 177.53 C 173.34 179.07 173.27 180.62 173.21 182.17 C 177.56 182.14 182.12 182.84 186.30 181.35 C 187.92 178.23 188.03 174.60 188.63 171.19 Z" />
</g>
<g id="#610a0aff">
<path fill="#610a0a" opacity="1.00" d=" M 101.39 105.32 L 101.84 104.84 C 102.93 105.15 104.01 105.46 105.09 105.78 C 105.67 108.48 106.39 111.15 107.14 113.80 C 106.90 118.70 110.38 122.51 114.70 124.29 C 120.57 127.19 126.57 123.63 131.91 121.28 C 132.52 121.83 133.73 122.92 134.33 123.47 C 134.54 123.62 134.94 123.94 135.14 124.10 C 137.90 124.25 140.67 124.22 143.43 124.22 L 143.74 123.93 C 144.52 123.29 145.31 122.66 146.11 122.04 C 147.16 122.51 148.21 122.96 149.27 123.41 C 152.49 124.77 156.09 124.12 159.48 124.16 C 159.99 123.60 160.51 123.05 161.03 122.49 C 165.67 125.14 171.26 126.48 176.39 124.40 L 177.02 124.19 C 178.96 123.34 180.69 122.11 182.29 120.73 C 184.24 121.03 186.21 121.33 188.12 121.86 C 191.99 124.80 196.95 124.81 201.56 124.28 C 202.51 124.21 204.39 124.07 205.34 124.01 C 200.04 127.83 193.11 127.08 187.35 124.84 C 183.33 123.05 179.76 126.14 176.04 127.13 C 170.08 128.62 164.17 125.51 158.18 126.59 C 152.70 127.57 147.18 125.57 141.71 126.77 C 138.34 127.64 135.11 126.15 131.84 125.61 C 127.57 125.40 123.78 127.71 119.90 129.13 C 118.45 129.84 117.10 128.68 115.89 128.03 C 113.26 126.29 110.39 124.95 107.80 123.16 C 104.72 120.08 104.87 115.18 102.33 111.76 C 100.30 110.73 97.46 111.11 96.39 113.31 C 95.03 116.23 95.15 119.75 92.96 122.29 C 93.26 118.23 92.70 113.77 95.04 110.18 C 96.79 108.14 99.36 107.05 101.39 105.32 Z" />
</g>
<g id="#c10f13ff">
<path fill="#c10f13" opacity="1.00" d=" M 143.69 106.73 C 144.50 111.90 147.98 116.12 148.73 121.29 C 147.48 119.48 146.11 117.75 144.75 116.02 C 144.44 118.66 144.16 121.30 143.74 123.93 L 143.43 124.22 C 143.45 118.39 143.45 112.56 143.69 106.73 Z" />
</g>
<g id="#ca3132ff">
<path fill="#ca3132" opacity="1.00" d=" M 173.54 107.76 C 176.46 107.79 179.39 107.81 182.30 108.15 C 182.53 108.60 182.99 109.50 183.22 109.95 C 183.15 111.92 183.01 113.90 182.82 115.87 C 182.65 117.49 182.45 119.11 182.29 120.73 C 180.69 122.11 178.96 123.34 177.02 124.19 C 182.04 121.31 182.53 115.32 182.55 110.13 C 179.53 110.13 176.51 110.15 173.49 110.15 C 173.50 109.55 173.53 108.35 173.54 107.76 Z" />
</g>
<g id="#ac0d0eff">
<path fill="#ac0d0e" opacity="1.00" d=" M 195.88 107.73 C 198.28 110.14 199.75 113.39 199.00 116.83 C 197.85 116.68 196.69 116.52 195.54 116.36 C 195.50 114.33 195.45 112.29 195.56 110.26 C 195.64 109.63 195.80 108.37 195.88 107.73 Z" />
</g>
<g id="#b9161cff">
<path fill="#b9161c" opacity="1.00" d=" M 183.22 109.95 C 183.99 110.02 185.53 110.17 186.30 110.25 C 186.30 112.22 186.29 114.19 186.34 116.16 C 185.46 116.09 183.70 115.94 182.82 115.87 C 183.01 113.90 183.15 111.92 183.22 109.95 Z" />
</g>
<g id="#9a110eff">
<path fill="#9a110e" opacity="1.00" d=" M 144.75 116.02 C 146.11 117.75 147.48 119.48 148.73 121.29 C 148.87 121.82 149.13 122.88 149.27 123.41 C 148.21 122.96 147.16 122.51 146.11 122.04 C 145.31 122.66 144.52 123.29 143.74 123.93 C 144.16 121.30 144.44 118.66 144.75 116.02 Z" />
</g>
<g id="#901009ff">
<path fill="#901009" opacity="1.00" d=" M 182.82 115.87 C 183.70 115.94 185.46 116.09 186.34 116.16 C 186.61 118.15 187.26 120.05 188.12 121.86 C 186.21 121.33 184.24 121.03 182.29 120.73 C 182.45 119.11 182.65 117.49 182.82 115.87 Z" />
</g>
<g id="#670a0aff">
<path fill="#670a0a" opacity="1.00" d=" M 106.83 135.85 C 110.76 133.33 115.93 131.43 120.46 133.51 C 123.13 134.54 124.77 137.16 127.31 138.38 C 133.94 140.42 140.96 139.00 147.70 140.34 C 152.86 141.51 157.75 138.36 162.90 139.19 C 171.96 140.50 181.19 139.98 190.26 141.33 C 188.93 141.66 187.60 142.03 186.30 142.44 C 185.92 142.55 185.16 142.79 184.79 142.90 C 184.22 149.19 182.87 155.36 181.93 161.59 C 181.76 155.23 181.38 148.88 181.19 142.51 C 178.30 142.29 175.41 142.17 172.52 142.11 C 172.18 142.92 171.85 143.74 171.51 144.56 C 170.28 144.04 169.04 143.53 167.79 143.04 C 163.38 141.36 158.40 141.45 153.99 143.07 C 152.65 143.60 151.33 144.17 150.00 144.74 C 149.43 143.89 148.87 143.05 148.31 142.21 C 145.62 142.19 142.93 142.12 140.26 142.36 C 139.52 142.68 138.78 143.00 138.05 143.34 C 137.06 143.00 136.08 142.62 135.07 142.37 C 131.80 141.45 128.39 141.97 125.08 142.27 C 124.68 141.87 123.90 141.05 123.50 140.64 C 122.02 138.99 120.56 137.33 119.14 135.64 C 115.14 135.30 110.41 134.92 107.53 138.32 C 103.28 141.95 104.64 148.01 104.42 152.92 C 104.80 160.84 102.84 169.55 107.75 176.49 C 111.55 177.64 115.51 177.52 119.22 176.13 C 119.44 175.24 119.65 174.36 119.86 173.48 C 120.36 175.57 121.76 178.13 124.25 176.55 C 126.45 175.21 128.70 176.01 130.79 177.15 C 136.52 178.42 142.43 177.06 148.24 177.12 C 149.34 175.79 150.45 174.47 151.56 173.16 C 151.92 174.30 152.30 175.44 152.69 176.58 C 154.73 176.99 156.77 177.40 158.84 177.63 C 163.09 177.68 167.35 177.60 171.61 177.89 C 171.73 178.60 171.97 180.04 172.09 180.75 C 165.84 179.07 159.30 180.19 153.00 178.90 C 148.46 178.03 143.94 179.45 139.41 179.57 C 133.37 179.98 127.47 177.46 121.42 178.58 C 116.40 179.52 110.69 179.95 106.35 176.73 C 101.85 170.82 102.29 163.04 101.95 156.01 C 101.79 149.07 102.11 141.40 106.83 135.85 Z" />
</g>
<g id="#f7c021ff">
<path fill="#f7c021" opacity="1.00" d=" M 19.97 135.95 C 19.06 140.15 17.06 144.00 16.05 148.17 C 15.35 150.13 15.28 152.71 13.24 153.83 C 10.57 162.18 9.34 170.86 7.57 179.42 C 6.89 169.88 8.64 160.22 12.45 151.46 C 15.65 146.66 17.65 141.21 19.97 135.95 Z" />
<path fill="#f7c021" opacity="1.00" d=" M 269.83 403.41 C 272.71 402.14 275.71 401.18 278.77 400.46 C 277.23 401.99 276.07 404.15 273.87 404.84 C 261.90 409.11 249.06 409.24 236.58 410.88 C 247.07 406.18 258.96 406.78 269.83 403.41 Z" />
</g>
<g id="#af110fff">
<path fill="#af110f" opacity="1.00" d=" M 123.50 140.64 C 123.90 141.05 124.68 141.87 125.08 142.27 C 128.39 141.97 131.80 141.45 135.07 142.37 L 135.11 142.73 C 132.86 142.37 130.59 142.21 128.32 142.12 C 128.28 151.08 128.21 160.04 128.29 169.00 C 128.18 171.93 129.33 174.67 130.79 177.15 C 128.70 176.01 126.45 175.21 124.25 176.55 C 124.50 168.75 124.43 160.95 124.38 153.15 C 121.09 153.15 117.81 153.17 114.53 153.21 C 114.51 155.30 114.49 157.40 114.46 159.50 C 114.98 159.84 116.01 160.52 116.53 160.86 C 116.47 163.82 116.43 166.78 116.34 169.73 C 114.68 169.72 112.46 169.27 112.67 167.10 C 112.33 161.74 112.71 156.37 112.52 151.01 C 112.62 148.36 112.12 145.43 113.74 143.12 C 117.75 142.78 116.01 147.54 116.55 150.03 C 119.22 150.08 121.88 150.10 124.55 150.14 C 124.37 146.95 124.10 143.77 123.50 140.64 Z" />
</g>
<g id="#ad0c0fff">
<path fill="#ad0c0f" opacity="1.00" d=" M 135.07 142.37 C 136.08 142.62 137.06 143.00 138.05 143.34 C 138.78 143.00 139.52 142.68 140.26 142.36 C 139.12 151.71 140.12 161.15 139.47 170.53 C 138.51 170.48 136.58 170.40 135.61 170.36 C 135.17 161.16 135.96 151.92 135.11 142.73 L 135.07 142.37 Z" />
</g>
<g id="#96100aff">
<path fill="#96100a" opacity="1.00" d=" M 148.31 142.21 C 148.87 143.05 149.43 143.89 150.00 144.74 C 151.33 144.17 152.65 143.60 153.99 143.07 C 151.47 145.50 151.39 149.07 151.17 152.33 C 153.75 152.35 156.34 152.36 158.92 152.35 C 159.60 150.75 160.30 149.16 161.05 147.59 C 161.88 149.59 162.40 151.69 162.71 153.83 C 159.27 155.61 155.40 156.84 152.49 159.46 C 149.63 163.39 150.34 168.75 151.56 173.16 C 150.45 174.47 149.34 175.79 148.24 177.12 C 148.61 165.49 148.39 153.85 148.31 142.21 Z" />
</g>
<g id="#a60d0cff">
<path fill="#a60d0c" opacity="1.00" d=" M 171.51 144.56 C 171.85 143.74 172.18 142.92 172.52 142.11 C 173.48 147.42 173.48 152.91 175.28 158.04 C 176.95 162.99 177.09 168.26 177.74 173.40 C 176.17 168.84 176.54 163.25 172.64 159.81 C 172.08 165.62 172.68 171.57 171.04 177.24 C 170.52 169.83 170.66 162.39 171.09 154.98 C 171.22 150.83 171.15 146.03 167.79 143.04 C 169.04 143.53 170.28 144.04 171.51 144.56 Z" />
</g>
<g id="#f25e5fff">
<path fill="#f25e5f" opacity="1.00" d=" M 184.79 142.90 C 185.16 142.79 185.92 142.55 186.30 142.44 L 186.31 142.82 C 186.88 150.63 185.20 158.34 183.13 165.82 C 181.34 165.18 182.20 163.00 181.93 161.59 C 182.87 155.36 184.22 149.19 184.79 142.90 Z" />
</g>
<g id="#5c0b09ff">
<path fill="#5c0b09" opacity="1.00" d=" M 186.30 142.44 C 187.60 142.03 188.93 141.66 190.26 141.33 C 191.89 141.43 193.50 141.71 195.12 141.93 C 195.26 145.84 196.04 149.93 194.69 153.72 C 191.85 161.36 192.97 170.06 189.06 177.37 C 189.61 168.27 192.45 159.44 192.25 150.28 C 192.49 147.51 192.67 144.74 192.88 141.97 C 190.68 142.21 188.49 142.47 186.31 142.82 L 186.30 142.44 Z" />
</g>
<g id="#af0a0eff">
<path fill="#af0a0e" opacity="1.00" d=" M 159.72 170.28 C 159.46 166.40 157.83 160.79 162.33 158.72 C 162.56 162.68 162.51 166.65 162.35 170.61 C 161.70 170.53 160.38 170.36 159.72 170.28 Z" />
</g>
<g id="#b33232ff">
<path fill="#b33232" opacity="1.00" d=" M 137.83 176.77 C 138.61 175.56 139.39 174.35 140.17 173.13 C 140.24 174.42 140.30 175.70 140.37 176.99 C 142.99 177.03 145.62 177.07 148.24 177.12 C 142.43 177.06 136.52 178.42 130.79 177.15 C 133.13 177.06 135.48 176.92 137.83 176.77 Z" />
</g>
<g id="#c17676ff">
<path fill="#c17676" opacity="1.00" d=" M 250.14 236.82 C 250.74 235.32 251.27 235.38 251.73 237.02 C 251.33 236.97 250.53 236.87 250.14 236.82 Z" />
</g>
<g id="#ca6262ff">
<path fill="#ca6262" opacity="1.00" d=" M 249.99 237.96 C 251.45 237.48 252.14 238.02 252.06 239.58 C 250.43 240.27 249.74 239.73 249.99 237.96 Z" />
</g>
<g id="#cca6a5ff">
<path fill="#cca6a5" opacity="1.00" d=" M 258.97 243.57 C 260.38 245.40 259.92 247.72 259.85 249.85 C 259.40 249.64 258.49 249.21 258.04 249.00 C 257.89 248.46 257.59 247.37 257.45 246.83 C 257.93 247.22 258.89 248.01 259.37 248.40 C 259.27 247.20 259.07 244.78 258.97 243.57 Z" />
</g>
<g id="#f9e39cff">
<path fill="#f9e39c" opacity="1.00" d=" M 381.76 284.73 C 382.86 284.97 383.94 285.33 384.98 285.80 C 385.01 287.34 384.97 288.89 384.87 290.43 C 382.32 289.67 382.09 286.95 381.76 284.73 Z" />
</g>
</svg>
