<svg width="1600" height="1580" viewBox="0 0 1200 1185" xmlns="http://www.w3.org/2000/svg"><g fill="#fff"><path d="M214.71 615.64c14.42 4.15 28.83 8.32 43.24 12.48 20.42 61.39 57.96 116.79 106.82 159.11 10.89 9.59 22.6 18.18 34.46 26.51-27.94-10.7-54.18-25.79-77.53-44.49-26.87-21.46-49.92-47.52-68.78-76.23-15.75-24.14-28.98-50.05-38.21-77.38zM1024.55 966.58c2.45-2.62 4.4-5.76 7.33-7.9-3.78 4.95-8.38 9.23-12.06 14.27-7.2 7.06-13.84 14.72-21.15 21.7-5.46 5.51-11.38 10.56-16.72 16.18-5.53 4.11-9.91 9.63-15.84 13.2.43-.38 1.3-1.12 1.73-1.5 2.69-3.46 7.1-5.34 9.69-9.04 11.21-9.32 21.27-19.96 31.58-30.26 5.33-5.38 10.37-11.03 15.44-16.65z"/></g><path d="M474.1 50.89c83.84-19.83 172.25-18.5 255.93 1.54 75.11 17.94 146.72 50.79 208.94 96.61 42.87 31.54 81.19 69.34 112.87 112.13 51.96 69.94 86.56 152.29 102.29 237.88 16.14 87.65 12.7 179.07-11.61 264.9-15.99 56.52-41.09 110.57-74.85 158.69-1.72 3.36-7.39.92-6-2.64 1.48-3.17 3.56-6.02 5.2-9.1-10.52 14.48-20.58 29.3-31.89 43.19-1.25 1.54-2.57 3.04-3.52 4.8 6.72-6.84 12.23-14.76 18.34-22.13 1.52-1.76 4.14-3.19 6.45-2.06 1.97.89 1.93 3.58.55 4.98-11.97 17.08-26.2 32.39-40.08 47.91-21.85 24.29-47.06 45.27-73.12 64.87-27.87 20.74-57.25 39.67-88.73 54.5-34.71 16.08-70.72 29.47-107.76 39.12-20.1 5.13-40.47 9.51-61.17 11.27-23.24 2.06-46.58 2.75-69.91 2.84-26.43-.16-52.95-.94-79.16-4.65-17.69-2.91-35.34-6.04-52.91-9.61-22.75-4.62-44.99-11.41-66.84-19.19-34.38-11.76-67.02-28.13-98.11-46.84-20.69-12.57-40.96-25.91-60.07-40.8-24.78-19.67-47.57-41.75-68.87-65.11-19.38-21.3-37.3-43.99-52.65-68.38-10.25-16.12-19.61-32.8-28.36-49.78-6.94-13.63-13.99-27.25-19.37-41.6-7.95-20.67-14.68-41.79-20.93-63.03-4.28-14.93-8.65-29.89-11.2-45.25-3.61-21.16-5.9-42.54-7.51-63.94-.21-3.99-.5-8.48 2.03-11.85 1.39-1.92 4.73-2.59 6.25-.48 1.54 2.88 1.49 6.28 2.02 9.44 2.85 24.21 6.12 48.37 10.36 72.38 3.55 16.22 7.15 32.45 11.8 48.4 4.98 17.3 12.29 33.79 19.28 50.34 9.33 21.2 19.75 41.91 30.66 62.35 15.16 27.21 34.29 51.97 54.13 75.91 17.75 20.81 35.54 41.82 56.43 59.6 27.35 23.5 56.84 44.4 87.23 63.76 2.07 1.4 3.78 3.79 6.52 3.82-1.35-1.08-2.79-2.09-4.45-2.59-19.41-13.23-38.56-26.89-57.12-41.31-33.58-25.35-63.63-55.22-89.94-88.01-10.45-13.09-20.79-26.3-29.93-40.35-10.37-15.86-19.87-32.27-28.85-48.95-8.24-15.44-16.19-31.08-22.43-47.45-5.77-14.93-11.98-29.75-16.47-45.13-1.51-3.53 1.93-7.13 5.55-5.98 5.45 14.7 10.41 29.63 16.8 43.97 13.69 31.52 29.15 62.39 48.11 91.09 10.54 15.89 21.97 31.19 33.97 46.01 1.56 1.89 2.99 3.98 5.07 5.38-8.63-11.29-17.31-22.6-24.85-34.67-.92-1.43-.42-3.32-1.47-4.67-16.46-24.33-30.36-50.3-43.38-76.61-9.01-17.94-15.69-36.93-22.01-55.95-5.74-17.78-11.39-35.64-15.04-53.98-4.23-20.95-7.98-42.06-9.46-63.4-1.05-13.34-2.15-26.69-2.6-40.07-.01-3.63-.28-7.76 2.15-10.76 1.39-1.88 4.77-1.41 5.31.95.82 3.51.78 7.14 1.1 10.72 1.63 26.14 4.2 52.22 7.58 78.2 3.37 20.14 7.88 40.09 13.2 59.8 3.96 15.03 9.8 29.46 15.3 43.96.92-3.19 4.27-4.04 6.85-2.17-2.97-6.75-5.49-13.69-8.14-20.56-1.49-4.38-3.57-9.09-2.35-13.77.72-2.66 4.62-2.96 5.74-.44 3.06 5.35 4.69 11.36 6.97 17.05 5.83 15.74 12.72 31.06 19.72 46.3 4.67 9.91 9.33 19.84 14.83 29.32 4.28 6.98 8.83 13.79 13.23 20.69-.24-2.23-1.61-5.07.35-6.86 2.6-1.14 4.53 1.65 5.95 3.38 19.19 26.52 39.11 52.69 62.36 75.82 12.29 12.74 25.35 24.74 39.18 35.81 20.14 17.32 42.67 31.55 65.16 45.58.78-2.25 2.82-3.5 5.14-2.57 41.78 7.54 77.3 33.47 118.51 42.93 120 28.3 250.94 10.84 357.83-51.22 62.02-35.94 114.65-87.31 153.87-147.18 43.45-66.24 70.95-143.09 78.02-222.06 4.13-45.74 1.16-92.14-9.11-136.91-21.79-95.5-74.76-183.26-147.84-248.32-50.04-44.65-110.03-78.35-174.74-96.31-44.57-12.52-91.19-17.64-137.42-15.3-45.72 2.25-90.98 11.67-134.13 26.83-72.02 25.33-138.09 66.27-195.01 116.93-4.54 3.88-9.01 8.01-14.41 10.68-1.94.98-4.98 1.47-6.2-.82-1.34-2.56-.02-5.36.56-7.92-20.27 22.3-37.69 46.94-55.42 71.25-10.75 15.13-21.66 30.21-30.82 46.38-10.26 19.36-20.01 39.01-28.91 59.03-.76 1.82-2.67 2.52-4.34 3.25-3.46 10.65-6.71 21.5-12.11 31.37-1.48 2.3-3.15 5.51-6.31 5.46-2.72-.98-3.65-4.06-4.24-6.61-1.42-7.53-1.04-15.27-.41-22.86-2.11 3.4-6.34 4.56-9.69 2.09-6.11 23.99-9.1 48.65-14 72.9-1.95 7.47-3.38 15.75-8.98 21.5.45 8.1 1.15 16.89-2.75 24.31-1.14 2.54-5.41 4.32-6.81 1.05-2.42-5.96-2-12.62-2.12-18.93-1.36 1.59-2.69 3.53-4.89 3.98-1.47.38-3.58-.06-3.85-1.83-1.39-7.27-.92-14.75-.87-22.12-1.66 4.52-2.54 10.58-7.36 12.82-4.3.79-5.49-4.42-5.7-7.67-1.7-20.08-.03-40.28 2.07-60.26 2.34-21.31 6.63-42.4 13.08-62.86 38.57-128.03 124.1-240.48 234.98-314.73C344.79 94.44 407.9 66.4 474.1 50.89m11.49-.46c-63.93 13.58-125.24 38.91-180.6 73.59C196.47 191.89 110.4 295.73 66 415.97c-9.53 26.29-18.04 53.16-21.9 80.95-3.18 22.49-5.16 45.26-4.24 67.99.48 3.88-.08 8.58 3.11 11.47 1.1-1.04 2.35-1.98 3.07-3.34 3.62-6.75 4.27-14.51 5.97-21.84l1.34-.24c.69 12.03-1.16 24.25.83 36.24 2.92-.25 4.85-2.67 5.73-5.28.81-1.57.88-3.97 3.05-4.21.11 5.8-.22 11.61.3 17.41.28 3.12.52 6.49 2.56 9.06 1.44-1.42 2.9-2.93 3.43-4.94 2.28-7.1 1.62-14.67 1.27-21.99 5.75-4.65 6.76-12.6 8.72-19.29 4.84-23.59 7.94-47.53 13.4-71 .62-1.7.69-4.03 2.4-5.03 2.23.05 4.51 2.59 6.57.9 2.68-1.85 2.89-5.93 5.99-7.23-.06 6.14-.99 12.25-.83 18.4.14 5.38.09 11.2 3.26 15.83 3.39-2.02 4.98-5.77 6.64-9.16 4.12-8.99 7.11-18.44 10.06-27.87 1.69-.51 3.77-.87 4.34-2.84 5.72-13.05 12.01-25.84 18.37-38.59 5.63-11.14 11.17-22.36 18.05-32.8 16.02-24.7 33.74-48.23 51.26-71.87 11.13-14.75 23.29-28.67 35.52-42.5.47-1.14 3.51-2.85 2.81-.36-3.41 5.74-8.95 11.26-8.19 18.47 6.23-.36 10.65-5.48 15.32-9.04 53.07-47.54 113.97-86.77 180.43-112.79 42.35-16.59 86.92-27.74 132.23-32.01 73.65-7.19 149.07 4.9 216.71 34.96 62.82 27.78 118.61 70.65 163.12 122.86 61.38 71.95 101.9 162.27 111.18 256.64 7.83 79.42-6.55 160.44-38.55 233.37-29.53 67.35-74.1 128.26-130.34 175.75-50.32 42.68-110.32 73.5-173.81 91.16-81.99 22.89-169.85 24.5-252.58 4.39-36.31-9.18-68.23-30.28-104.41-39.82-4.43-.95-8.85-2.54-13.43-2.21.61 1.25 1.23 2.51 1.85 3.77-1.48.73-2.79-.21-4.01-.94-14.94-9.26-29.78-18.71-44.09-28.93-10.88-7.6-20.87-16.34-31.11-24.76-11.48-9.49-22.05-20-32.47-30.63-22.22-22.42-41.43-47.58-59.87-73.13-1.1-1.58-2.51-2.9-4.01-4.08.2 7.12 5.46 12.4 9.02 18.07-1.02.68-2.06 1.35-3.12 1.98-6.2-9.12-12.11-18.44-18.11-27.7-7.5-11.32-13.18-23.7-18.98-35.94-7.79-16.89-15.35-33.91-21.64-51.42-1.83-4.48-2.97-9.39-6.14-13.17-2.72 4.6.33 9.85 1.72 14.4 4.74 12.48 9.72 24.86 14.77 37.22.53 1.37.88 2.8 1.03 4.29l-1.5-.64c-3.92-6.46-5.67-14.43-11.3-19.8-1.01 1.01-2.15 2.15-1.81 3.75.31 4.35 2.55 8.25 3.33 12.51-.49-.19-1.46-.57-1.94-.77-9.34-22.33-18.19-45.01-23.79-68.62-4.74-19.85-9.52-39.77-11.66-60.1-2.68-21.93-4.71-43.93-6.11-65.97-.31-3.92-.3-7.88-1.23-11.72-2.79-.33-2.97 3.64-3.23 5.65-.06 14.11 1.43 28.19 2.41 42.26 1.47 22.07 5.3 43.91 9.71 65.57 3.64 18.08 9.23 35.69 14.89 53.22 6.31 18.96 12.97 37.88 21.96 55.76 13.04 26.31 26.94 52.29 43.45 76.61 1.11 1.72.84 3.98 2.04 5.68a413.308 413.308 0 0 0 24.96 34.19c-1.28.89-2.57 1.77-3.85 2.66-24.18-28.58-45.76-59.46-63.25-92.6-16.07-30.43-30.17-61.96-41.01-94.65-4.08 1.15-1.44 5.66-.79 8.37 9.37 26.47 19.1 52.95 32.3 77.8 15.3 29.17 31.78 57.93 52.1 83.94 18.49 24.23 38.56 47.32 60.76 68.23 15.8 15.04 32.84 28.69 50.31 41.73 23.21 17.49 46.9 34.51 72.36 48.6 14.64 8.15 29.89 15.13 45.31 21.66 1.51.66 3.42 1.19 3.3 3.27-4.19-1-8.07-2.92-12.06-4.49-18.87-7.85-37.52-16.36-55.26-26.54-21.53-12.79-42.22-26.97-62.37-41.82-22.86-17.12-45.32-35.08-64.46-56.38-13.11-14.27-25.8-28.93-37.95-44.03-18.29-22.92-35.81-46.71-49.13-72.93-9.4-17.93-18.4-36.1-26.52-54.65-6.91-16.42-14.15-32.77-19.07-49.92-4.73-16.33-8.45-32.94-12.02-49.57A1226.48 1226.48 0 0 1 59 645c-.74-4.96-.85-10.09-2.56-14.85-1.19.51-2.73.74-3.27 2.12-2.02 4.31-.95 9.22-.76 13.79 2.65 30.03 5.68 60.27 14.03 89.34 5.59 20.32 11.78 40.48 18.69 60.39 4.92 13.99 10.11 27.93 16.79 41.19 16.16 33.08 34.16 65.41 56.11 95.03 17.52 23.48 37.14 45.35 57.92 65.98 20.08 19.8 41.37 38.5 64.64 54.48 36.29 25.2 74.73 47.6 115.7 64.29 17.01 6.72 34.34 12.68 51.84 18.01 20.6 6.26 41.74 10.47 62.92 14.21 17.49 3.25 35.05 6.28 52.83 7.36 30.01 2.14 60.15 2.19 90.21.98 19.52-.91 39.11-2.01 58.35-5.65 21.64-3.97 42.97-9.55 63.93-16.21 29.78-9.58 58.95-21.14 87.03-34.96 30.05-15.16 58.2-33.86 84.94-54.24 23.99-18.38 47.13-38.06 67.33-60.61 13.1-14.64 26.46-29.13 37.99-45.08.75-1.35 2.57-2.64 1.67-4.34-2.47 0-4.13 1.89-5.48 3.69-31.7 41.23-69.41 77.72-111.04 108.84-22.88 17.18-47.63 31.68-72.87 45.09-31.63 16.58-64.48 31.19-98.89 40.98-22.42 6.43-45.17 11.83-68.22 15.46-1.37 1.04-2.11-2.09-.64-1.86 38.13-6.89 75.73-17.18 111.72-31.61 19.96-8.01 39.11-17.86 58.07-27.96 24.91-13.35 49.16-28.05 71.38-45.55 26.83-20.54 51.44-43.82 74.72-68.27 20.94-22.14 38.35-47.24 55.7-72.19 10.94-16.45 20.78-33.6 30-51.06 6.47-12.53 12.95-25.14 17.48-38.54 4.17-11.8 8.39-23.58 12.49-35.4.41-1.44 1.14-2.77 2.38-3.68.7 2.28-.31 4.54-.89 6.73-9.39 30.73-21.32 60.87-37.8 88.53-9.82 17.26-20.09 34.27-29.87 51.54l.42 1.07 1.08.21c4.3-4.88 7.46-10.67 11.16-16.02 27.79-42.96 49-90.11 63.26-139.23 25.41-87.41 29-180.8 12.13-270.15-15.88-84.26-50.13-165.28-101.28-234.22-32.11-43.4-71.05-81.65-114.66-113.43-58.62-42.75-125.5-74.01-195.72-92.17-82.8-21.45-170.61-24.52-254.37-6.6m538.96 916.15c-5.07 5.62-10.11 11.27-15.44 16.65-10.31 10.3-20.37 20.94-31.58 30.26-2.59 3.7-7 5.58-9.69 9.04-.43.38-1.3 1.12-1.73 1.5 5.93-3.57 10.31-9.09 15.84-13.2 5.34-5.62 11.26-10.67 16.72-16.18 7.31-6.98 13.95-14.64 21.15-21.7 3.68-5.04 8.28-9.32 12.06-14.27-2.93 2.14-4.88 5.28-7.33 7.9z"/><path d="M280.13 400.97c6.99-3.57 15.37-4.84 22.94-2.42 7.29 2.29 13.34 7.51 17.7 13.68.86 1.05 1.26 2.37 1.49 3.7-8.74-1.75-19.24-2.35-26.31 4.03-6.07 7.18-5.98 17.37-5.41 26.24-1.16 1.88-3.1 3.18-4.49 4.91-6.94 8.06-11.48 17.91-14.77 27.96-6.65 21.13-7.84 44.45-.91 65.66 3.48 10.31 9.76 20.81 20.28 25.08 2.31-14.7 5.35-29.32 9.87-43.51-9.57-2-19.96-4.73-26.68-12.35 4.25-1.86 8.23-4.34 11.51-7.63 8.17-7.93 14.61-17.41 20.63-27.02 7.06 1.88 13.96 4.32 20.78 6.94 4.76 1.74 8.76 5.12 11.73 9.18 3.54 5.14 6.88 11.08 6.22 17.56-.35 8.4-.11 18.67-7.38 24.41-1.13 1.66-1.44 3.7-1.85 5.63-2.23 12.96.09 26.05.74 39.04.61 12.3 1.09 24.63.61 36.93-1.36.76-2.29-.99-3.29-1.59-8.3-7.55-16.75-14.93-25.18-22.32-5.67 4.96-11.82 9.46-18.69 12.6-10.85 5.29-23.58 7.19-35.31 3.92-1.84-.59-4.02-1.12-4.98-2.98-2.68-4.56-4.69-9.47-7.08-14.18-5.09-11.09-9.94-22.44-12.31-34.46-3.57-18.11-4.28-36.76-2.45-55.11 2.41-24.1 10.46-47.4 21.53-68.83 7.51-13.73 16.86-27.59 31.06-35.07m-16.52 16.67c-11.29 13.93-18.81 30.47-24.78 47.26-10.32 28.05-12.51 58.74-7.98 88.19 2.82 19.73 11.77 37.83 20.71 55.41 7.39 2.78 15.53 3.39 23.28 1.93 12.71-2.29 23.98-9.43 33.38-18.03 9.14 7.52 17.86 15.55 26.69 23.43.17-14.66-.26-29.33-1.48-43.93-.92-10.09-1.69-20.37.24-30.39.56-2.15.93-4.6 2.7-6.12 6.16-5.15 5.81-14.06 6.28-21.36.8-6.24-2.14-12.04-5.57-17.01-2.65-3.7-6.17-6.91-10.45-8.59-6.46-2.55-13.03-4.83-19.71-6.74-4.96 7.95-10.36 15.67-16.68 22.61-3.71 4.07-7.86 7.85-12.86 10.26 7.13 6.29 16.76 8.25 25.77 10.26-5.17 15.39-8.04 31.4-11 47.3-4.08-.42-7.54-3.02-10.62-5.55-8.91-7.95-13.4-19.59-15.78-31.03-4.25-21.25-1.86-43.67 5.95-63.83 3.85-9.55 8.96-18.9 16.66-25.89-.41-9.11-.36-19.38 5.67-26.84 6.32-6.6 16.38-6.81 24.87-5.86-5.7-7.92-14.76-14.22-24.86-13.75-12.51.45-22.84 9.01-30.43 18.27zM490.52 472.21c2.18-.89 3.52 2.25 5.13 3.35 1.37 1.44 2.75 2.9 4.04 4.44 2.51 3.52 5.53 6.93 6.71 11.18-.61 3.21-2.14 6.15-3.14 9.25-.53 1.46-1.04 2.93-1.53 4.41-4.72 14.94-10.21 30.18-9.74 46.06-.44.16-1.31.49-1.75.65 2.06 9.98 4.46 19.91 6.13 29.96-3.35-.78-5.62-3.57-8.34-5.47-7.54-6.24-15.6-12.09-21.73-19.79 3.14-11.41 1.1-23.56-3.04-34.44-4.66-13.71-10.79-26.87-15.82-40.42 8.45 1.7 16.54 4.87 24.81 7.26 2.55 6.41 5.14 12.8 7.7 19.21 5.01-11.36 9.11-23.27 10.57-35.65m1.76 2.86c-2.21 12.87-6.19 25.6-12.35 37.12-3.83-6.94-6.08-14.62-9.25-21.87-6.71-2.05-13.39-4.24-20.14-6.14 5.18 12.11 10.17 24.3 14.6 36.71 4.28 11.09 6.2 23.39 3.45 35.1 7.49 8.19 16.39 14.92 25.06 21.81-1.73-9.49-4.3-18.84-5.68-28.38.47-.18 1.42-.53 1.9-.7.54-20.01 8.06-38.97 14.62-57.62-3.03-6.06-7.43-11.28-12.21-16.03zM424 488.9c1.26-3.4 2.01-7.03 3.99-10.12 2.75 4.71 3.78 10.17 6.09 15.07 3.44 2.65 7.38 4.59 10.98 7.03 4.35 27.86 10.72 55.44 19.37 82.29 1 1.77-1.59 1.61-2.33.79-6.89-3.89-13.62-8.1-20.58-11.87-.48.16-1.43.49-1.91.65-5.74-4.6-13.63-4.04-20.55-4.6-2.48 10.33-4.96 20.65-7.43 30.98-.69 2.74-1.04 5.63-2.63 8.05-.77-1.41-1.44-2.85-1.87-4.38-3.79-12.92-7.65-25.82-11.49-38.72-1.35 7.6-3.85 15.03-7.62 21.78-2.73 4.76-6.29 9.44-11.42 11.77-5.1 2.38-11.58 1.27-15.53-2.77-5.25-5.26-7.5-12.64-9.22-19.68-5.94-25.68-1.73-52.15-4.04-78.15 2.95.32 4.35 3.18 5.91 5.34 5.59 9.02 9.51 18.94 13.44 28.76 1.25 2.81.27 5.94.37 8.89-.21 10.56-.08 21.52 3.97 31.45 1.56-2.55 1.83-5.59 2.4-8.46 3.29-19.89 2.57-40.18 5.7-60.09 1.1-6.32 1.76-12.87 4.32-18.81.32.16.97.48 1.29.64 4.4 19.47 8.34 39.07 13.58 58.35.32 1.52 1.1 3.11.55 4.7-1.16 5.12-2.69 10.18-3.27 15.42 11.32-23.97 19.17-49.35 27.93-74.31m3.9-5.01c-4.11 12.08-8.25 24.15-12.49 36.19-5.26 14.89-10.56 29.82-17.57 44 3.62 12.34 7.28 24.66 10.99 36.97 3.31-11.41 5.43-23.16 8.63-34.6 8.24-1.12 16.67 1.28 24.62 3.48 6.57 3.67 12.94 7.68 19.56 11.25-8.24-25.82-14.2-52.34-18.51-79.08-3.48-2.28-7.19-4.19-10.53-6.66-2.03-3.64-2.79-7.84-4.7-11.55m-53.14 85.2c-.84 1.97-.77 5.67-3.45 5.8-2.88-4.08-4.02-9.07-4.83-13.9-1.29-8.61-1.24-17.35-.8-26.02.18-2.13-.85-4.05-1.57-5.97-3.97-9.63-7.88-19.4-13.82-28.02 1.15 20.97-1.11 42.07 1.67 62.95 1.01 7.41 2.41 14.88 5.46 21.75 1.76 3.85 4.17 7.74 8.01 9.81 4.05 2.18 9.23 1.52 12.86-1.22 5.49-4.07 8.75-10.35 11.31-16.53 3.59-8.51 4.44-17.79 6.83-26.64.37-1.98 1.31-4.01.71-6.03-4.87-18.26-8.92-36.72-12.84-55.2-6.76 25.9-3.9 53.14-9.54 79.22z"/><path d="M428.7 527.73c.71-1.72.75-4.3 2.93-4.81 1.33 7.44 2.07 14.97 3.2 22.44a69.06 69.06 0 0 1-11.81 1.54c1.43-6.52 3.89-12.75 5.68-19.17m-3.09 16.96c2.3-.29 4.6-.57 6.9-.85-.64-4.84-1.27-9.68-1.95-14.52-1.89 5.04-3.29 10.25-4.95 15.37z"/><g fill="#fc2503"><path d="M485.59 50.43c83.76-17.92 171.57-14.85 254.37 6.6 70.22 18.16 137.1 49.42 195.72 92.17 43.61 31.78 82.55 70.03 114.66 113.43 51.15 68.94 85.4 149.96 101.28 234.22 16.87 89.35 13.28 182.74-12.13 270.15-14.26 49.12-35.47 96.27-63.26 139.23-3.7 5.35-6.86 11.14-11.16 16.02l-1.08-.21-.42-1.07c9.78-17.27 20.05-34.28 29.87-51.54 16.48-27.66 28.41-57.8 37.8-88.53.58-2.19 1.59-4.45.89-6.73-1.24.91-1.97 2.24-2.38 3.68-4.1 11.82-8.32 23.6-12.49 35.4-4.53 13.4-11.01 26.01-17.48 38.54-9.22 17.46-19.06 34.61-30 51.06-17.35 24.95-34.76 50.05-55.7 72.19-23.28 24.45-47.89 47.73-74.72 68.27-22.22 17.5-46.47 32.2-71.38 45.55-18.96 10.1-38.11 19.95-58.07 27.96-35.99 14.43-73.59 24.72-111.72 31.61-1.47-.23-.73 2.9.64 1.86 23.05-3.63 45.8-9.03 68.22-15.46 34.41-9.79 67.26-24.4 98.89-40.98 25.24-13.41 49.99-27.91 72.87-45.09 41.63-31.12 79.34-67.61 111.04-108.84 1.35-1.8 3.01-3.69 5.48-3.69.9 1.7-.92 2.99-1.67 4.34-11.53 15.95-24.89 30.44-37.99 45.08-20.2 22.55-43.34 42.23-67.33 60.61-26.74 20.38-54.89 39.08-84.94 54.24-28.08 13.82-57.25 25.38-87.03 34.96-20.96 6.66-42.29 12.24-63.93 16.21-19.24 3.64-38.83 4.74-58.35 5.65-30.06 1.21-60.2 1.16-90.21-.98-17.78-1.08-35.34-4.11-52.83-7.36-21.18-3.74-42.32-7.95-62.92-14.21-17.5-5.33-34.83-11.29-51.84-18.01-40.97-16.69-79.41-39.09-115.7-64.29-23.27-15.98-44.56-34.68-64.64-54.48-20.78-20.63-40.4-42.5-57.92-65.98-21.95-29.62-39.95-61.95-56.11-95.03-6.68-13.26-11.87-27.2-16.79-41.19-6.91-19.91-13.1-40.07-18.69-60.39-8.35-29.07-11.38-59.31-14.03-89.34-.19-4.57-1.26-9.48.76-13.79.54-1.38 2.08-1.61 3.27-2.12 1.71 4.76 1.82 9.89 2.56 14.85 2.57 22.04 5.72 44 9.48 65.86 3.57 16.63 7.29 33.24 12.02 49.57 4.92 17.15 12.16 33.5 19.07 49.92 8.12 18.55 17.12 36.72 26.52 54.65 13.32 26.22 30.84 50.01 49.13 72.93 12.15 15.1 24.84 29.76 37.95 44.03 19.14 21.3 41.6 39.26 64.46 56.38 20.15 14.85 40.84 29.03 62.37 41.82 17.74 10.18 36.39 18.69 55.26 26.54 3.99 1.57 7.87 3.49 12.06 4.49.12-2.08-1.79-2.61-3.3-3.27-15.42-6.53-30.67-13.51-45.31-21.66-25.46-14.09-49.15-31.11-72.36-48.6-17.47-13.04-34.51-26.69-50.31-41.73-22.2-20.91-42.27-44-60.76-68.23-20.32-26.01-36.8-54.77-52.1-83.94-13.2-24.85-22.93-51.33-32.3-77.8-.65-2.71-3.29-7.22.79-8.37 10.84 32.69 24.94 64.22 41.01 94.65 17.49 33.14 39.07 64.02 63.25 92.6 1.28-.89 2.57-1.77 3.85-2.66a413.308 413.308 0 0 1-24.96-34.19c-1.2-1.7-.93-3.96-2.04-5.68-16.51-24.32-30.41-50.3-43.45-76.61-8.99-17.88-15.65-36.8-21.96-55.76-5.66-17.53-11.25-35.14-14.89-53.22-4.41-21.66-8.24-43.5-9.71-65.57-.98-14.07-2.47-28.15-2.41-42.26.26-2.01.44-5.98 3.23-5.65.93 3.84.92 7.8 1.23 11.72 1.4 22.04 3.43 44.04 6.11 65.97 2.14 20.33 6.92 40.25 11.66 60.1 5.6 23.61 14.45 46.29 23.79 68.62.48.2 1.45.58 1.94.77-.78-4.26-3.02-8.16-3.33-12.51-.34-1.6.8-2.74 1.81-3.75 5.63 5.37 7.38 13.34 11.3 19.8l1.5.64c-.15-1.49-.5-2.92-1.03-4.29-5.05-12.36-10.03-24.74-14.77-37.22-1.39-4.55-4.44-9.8-1.72-14.4 3.17 3.78 4.31 8.69 6.14 13.17 6.29 17.51 13.85 34.53 21.64 51.42 5.8 12.24 11.48 24.62 18.98 35.94 6 9.26 11.91 18.58 18.11 27.7 1.06-.63 2.1-1.3 3.12-1.98-3.56-5.67-8.82-10.95-9.02-18.07 1.5 1.18 2.91 2.5 4.01 4.08 18.44 25.55 37.65 50.71 59.87 73.13 10.42 10.63 20.99 21.14 32.47 30.63 10.24 8.42 20.23 17.16 31.11 24.76 14.31 10.22 29.15 19.67 44.09 28.93 1.22.73 2.53 1.67 4.01.94-.62-1.26-1.24-2.52-1.85-3.77 4.58-.33 9 1.26 13.43 2.21 36.18 9.54 68.1 30.64 104.41 39.82 82.73 20.11 170.59 18.5 252.58-4.39 63.49-17.66 123.49-48.48 173.81-91.16 56.24-47.49 100.81-108.4 130.34-175.75 32-72.93 46.38-153.95 38.55-233.37-9.28-94.37-49.8-184.69-111.18-256.64-44.51-52.21-100.3-95.08-163.12-122.86-67.64-30.06-143.06-42.15-216.71-34.96-45.31 4.27-89.88 15.42-132.23 32.01-66.46 26.02-127.36 65.25-180.43 112.79-4.67 3.56-9.09 8.68-15.32 9.04-.76-7.21 4.78-12.73 8.19-18.47.7-2.49-2.34-.78-2.81.36-12.23 13.83-24.39 27.75-35.52 42.5-17.52 23.64-35.24 47.17-51.26 71.87-6.88 10.44-12.42 21.66-18.05 32.8-6.36 12.75-12.65 25.54-18.37 38.59-.57 1.97-2.65 2.33-4.34 2.84-2.95 9.43-5.94 18.88-10.06 27.87-1.66 3.39-3.25 7.14-6.64 9.16-3.17-4.63-3.12-10.45-3.26-15.83-.16-6.15.77-12.26.83-18.4-3.1 1.3-3.31 5.38-5.99 7.23-2.06 1.69-4.34-.85-6.57-.9-1.71 1-1.78 3.33-2.4 5.03-5.46 23.47-8.56 47.41-13.4 71-1.96 6.69-2.97 14.64-8.72 19.29.35 7.32 1.01 14.89-1.27 21.99-.53 2.01-1.99 3.52-3.43 4.94-2.04-2.57-2.28-5.94-2.56-9.06-.52-5.8-.19-11.61-.3-17.41-2.17.24-2.24 2.64-3.05 4.21-.88 2.61-2.81 5.03-5.73 5.28-1.99-11.99-.14-24.21-.83-36.24l-1.34.24c-1.7 7.33-2.35 15.09-5.97 21.84-.72 1.36-1.97 2.3-3.07 3.34-3.19-2.89-2.63-7.59-3.11-11.47-.92-22.73 1.06-45.5 4.24-67.99 3.86-27.79 12.37-54.66 21.9-80.95 44.4-120.24 130.47-224.08 238.99-291.95 55.36-34.68 116.67-60.01 180.6-73.59z"/><path d="M263.61 417.64c7.59-9.26 17.92-17.82 30.43-18.27 10.1-.47 19.16 5.83 24.86 13.75-8.49-.95-18.55-.74-24.87 5.86-6.03 7.46-6.08 17.73-5.67 26.84-7.7 6.99-12.81 16.34-16.66 25.89-7.81 20.16-10.2 42.58-5.95 63.83 2.38 11.44 6.87 23.08 15.78 31.03 3.08 2.53 6.54 5.13 10.62 5.55 2.96-15.9 5.83-31.91 11-47.3-9.01-2.01-18.64-3.97-25.77-10.26 5-2.41 9.15-6.19 12.86-10.26 6.32-6.94 11.72-14.66 16.68-22.61 6.68 1.91 13.25 4.19 19.71 6.74 4.28 1.68 7.8 4.89 10.45 8.59 3.43 4.97 6.37 10.77 5.57 17.01-.47 7.3-.12 16.21-6.28 21.36-1.77 1.52-2.14 3.97-2.7 6.12-1.93 10.02-1.16 20.3-.24 30.39 1.22 14.6 1.65 29.27 1.48 43.93-8.83-7.88-17.55-15.91-26.69-23.43-9.4 8.6-20.67 15.74-33.38 18.03-7.75 1.46-15.89.85-23.28-1.93-8.94-17.58-17.89-35.68-20.71-55.41-4.53-29.45-2.34-60.14 7.98-88.19 5.97-16.79 13.49-33.33 24.78-47.26zM486.43 422.72c11.28.74 22.6 1.62 33.8 3.03 2.79 12.32 4.56 24.89 6.96 37.3 4.99 27.68 9.97 55.36 14.97 83.04.57 3.06.91 6.18 1.93 9.14 10.2-42.03 19.92-84.18 30.06-126.21-.16-1.87 3.1-2.1 3.04-.19 8.57 44.14 16.74 88.37 25.31 132.51 3.42-12.31 5.8-24.9 8.82-37.31 6.72-29.1 13.33-58.24 20.1-87.33.1-2.01 2.4-1.46 3.72-1.25 6.67 1.16 13.46 1.77 20.06 3.36-16.8 73.23-34.12 146.34-51.16 219.51-5.32-.17-10.62-.84-15.87-1.65-1.19-1.98-1.11-4.45-1.65-6.63-5.88-31.67-11.67-63.36-17.67-95.01-7.76 31.66-15.55 63.32-23.35 94.96-.24 2.81-3.63 1.39-5.43 1.41-4.13-.75-8.53-.44-12.5-1.84-8.57-44.94-16.49-90.04-24.82-135.04-.45-3.21-1.72-6.43-1.02-9.68.49-1.48 1-2.95 1.53-4.41 9.11 48.85 17.9 97.77 26.86 146.66 4.17.4 8.31 1.35 12.52 1.15 6.23-24.44 12.08-49 18.16-73.48 2.56-9.53 4.32-19.29 7.35-28.67.47-.03 1.4-.07 1.87-.1 1.25 3.13 1.56 6.54 2.21 9.83 6.03 32.68 12.16 65.35 18.16 98.05 3.74.51 7.5.9 11.27 1.19 16.54-71.34 33.34-142.62 49.91-213.95-5.82-.85-11.63-1.81-17.46-2.59-9.89 43.51-19.92 86.99-29.94 130.46.16 2.95-3.78 2.84-3.44-.08-8.43-43.98-16.71-88-25.14-131.99-10.4 42.15-19.99 84.5-30.25 126.68-.31 2.81-3.44 1.9-3.28-.56-8.15-44.86-16.14-89.75-24.3-134.61-9.34-.79-18.67-1.67-28.01-2.46 3.33 18.01 6.47 36.06 9.94 54.04-1.29-1.54-2.67-3-4.04-4.44-2.66-14.38-5.26-28.76-7.9-43.13-.59-3.22-1.37-6.43-1.32-9.71zM755.23 434.03c8.77-3.3 17.08-7.96 26.13-10.43.38 14.8-.41 29.62-.49 44.43-.48 28.66-.99 57.31-1.45 85.96 33.89-12.6 67.76-25.26 101.64-37.89 22.06-8.07 43.94-16.68 66.12-24.42 1.46 5.34 1.95 10.87 2.94 16.31 1.27 8.37 2.91 16.7 3.92 25.11-57.61 16.83-115.37 33.13-173.02 49.83 50.53 33.88 101.37 67.31 152.02 101.01 5.46 3.72 11.95 6.91 14.72 13.31 3.56 6.82 1.4 14.6.94 21.84-.38 3.09-.21 6.64-2.45 9.1-2.8 3.37-8.24 3.99-11.67 1.23-52.09-39.08-104.1-78.28-156.18-117.36-.25 18-.65 36-.88 54-.08 1.39.01 2.84-.44 4.19-1.97.55-4.04.07-6.04.02-8.59-.77-17.24-1.03-25.81-2.05.39-25.2 1.34-50.39 1.92-75.59-1.77.5-3.54 1.01-5.3 1.52-1.53 18.1-6 36.41-15.94 51.82-5.9 9.04-14.26 17.22-24.95 20.07-9.21 2.57-19.28.22-27.02-5.18-10.79-7.4-18.1-18.8-23.3-30.6-8.79-20.46-11.7-43.15-10.2-65.27 1.36-17.89 5.72-35.96 15.25-51.34 5.91-9.43 14.38-18.03 25.37-21.1 9.04-2.6 18.96-.48 26.69 4.71 10.49 6.93 17.76 17.71 22.99 28.95 4.35 9.4 7.23 19.43 9.16 29.59 2.7 1.79 5.4 3.59 8.11 5.37 1.16-41.44 2.2-82.89 3.41-124.33-.04-1.9 2.55-1.99 3.81-2.81m-.72 3.72c-2.14 75.91-4.14 151.83-6.22 227.75 8.7.61 17.4 1.27 26.1 1.85 1.3-79.91 2.73-159.81 4.06-239.71-7.99 3.34-15.96 6.75-23.94 10.11m-86.25 65.57c-9.89 9.01-15.85 21.48-19.71 34.09-6.68 22.67-6.97 47.04-1.97 70.08 3.64 15.88 9.91 31.7 21.08 43.84 6.96 7.56 16.82 13.44 27.42 12.58 11.11-.83 20.34-8.5 26.57-17.26 10.62-15.05 15.29-33.46 17.01-51.58-12.04 3.41-24.05 6.88-36.07 10.36-1.13.14-3.22 1.31-3.59-.44-.35-6.97-.18-13.97-.04-20.95 13.2-4.96 26.43-9.83 39.62-14.8-1.95-19.7-7.3-39.64-18.91-55.93-6.24-8.6-14.87-16.39-25.63-18.33-9.35-1.83-18.95 2.04-25.78 8.34m266.33-3.8c-46.15 17.19-92.31 34.42-138.47 51.6-5.38 2.53-11.43 3.49-16.52 6.59-1.03 7.35-.48 14.91-.47 22.33 32.71-9.13 65.32-18.7 98-27.97 24.42-7.31 49.08-13.84 73.46-21.27-1.92-11.59-3.42-23.26-5.74-34.78-3.53.84-6.9 2.18-10.26 3.5m-232.38 86.7c-.47 5.26-.29 10.54-.14 15.81 15.05-3.63 29.76-8.6 44.78-12.42.37-6.78 1.25-13.56.93-20.35-15.25 5.49-30.41 11.23-45.57 16.96m76.84-.22c-.27 6.01-.14 12.04-.27 18.07.12 1.86-.32 4.34 1.58 5.5 19.45 14.54 38.92 29.09 58.22 43.84 32.74 24.59 65.51 49.17 98.26 73.74 2.79 2.08 7.26.13 7.89-3.22.92-3.92 1.11-7.97 1.51-11.96.36-3.61.95-7.36-.38-10.84-1.3-4.78-4.99-8.45-9.09-10.98-46.46-30.85-93.06-61.47-139.37-92.55-6.1-3.89-11.95-8.22-18.35-11.6z"/><path d="M492.28 475.07c4.78 4.75 9.18 9.97 12.21 16.03-6.56 18.65-14.08 37.61-14.62 57.62-.48.17-1.43.52-1.9.7 1.38 9.54 3.95 18.89 5.68 28.38-8.67-6.89-17.57-13.62-25.06-21.81 2.75-11.71.83-24.01-3.45-35.1-4.43-12.41-9.42-24.6-14.6-36.71 6.75 1.9 13.43 4.09 20.14 6.14 3.17 7.25 5.42 14.93 9.25 21.87 6.16-11.52 10.14-24.25 12.35-37.12zM427.9 483.89c1.91 3.71 2.67 7.91 4.7 11.55 3.34 2.47 7.05 4.38 10.53 6.66 4.31 26.74 10.27 53.26 18.51 79.08-6.62-3.57-12.99-7.58-19.56-11.25-7.95-2.2-16.38-4.6-24.62-3.48-3.2 11.44-5.32 23.19-8.63 34.6-3.71-12.31-7.37-24.63-10.99-36.97 7.01-14.18 12.31-29.11 17.57-44 4.24-12.04 8.38-24.11 12.49-36.19m.8 43.84c-1.79 6.42-4.25 12.65-5.68 19.17 3.97-.18 7.93-.68 11.81-1.54-1.13-7.47-1.87-15-3.2-22.44-2.18.51-2.22 3.09-2.93 4.81zM374.76 569.09c5.64-26.08 2.78-53.32 9.54-79.22 3.92 18.48 7.97 36.94 12.84 55.2.6 2.02-.34 4.05-.71 6.03-2.39 8.85-3.24 18.13-6.83 26.64-2.56 6.18-5.82 12.46-11.31 16.53-3.63 2.74-8.81 3.4-12.86 1.22-3.84-2.07-6.25-5.96-8.01-9.81-3.05-6.87-4.45-14.34-5.46-21.75-2.78-20.88-.52-41.98-1.67-62.95 5.94 8.62 9.85 18.39 13.82 28.02.72 1.92 1.75 3.84 1.57 5.97-.44 8.67-.49 17.41.8 26.02.81 4.83 1.95 9.82 4.83 13.9 2.68-.13 2.61-3.83 3.45-5.8z"/><path d="M425.61 544.69c1.66-5.12 3.06-10.33 4.95-15.37.68 4.84 1.31 9.68 1.95 14.52-2.3.28-4.6.56-6.9.85z"/></g><g fill="#1e2728"><path d="M489.75 425.96c9.34.79 18.67 1.67 28.01 2.46 8.16 44.86 16.15 89.75 24.3 134.61-.16 2.46 2.97 3.37 3.28.56 10.26-42.18 19.85-84.53 30.25-126.68 8.43 43.99 16.71 88.01 25.14 131.99-.34 2.92 3.6 3.03 3.44.08 10.02-43.47 20.05-86.95 29.94-130.46 5.83.78 11.64 1.74 17.46 2.59-16.57 71.33-33.37 142.61-49.91 213.95-3.77-.29-7.53-.68-11.27-1.19-6-32.7-12.13-65.37-18.16-98.05-.65-3.29-.96-6.7-2.21-9.83-.47.03-1.4.07-1.87.1-3.03 9.38-4.79 19.14-7.35 28.67-6.08 24.48-11.93 49.04-18.16 73.48-4.21.2-8.35-.75-12.52-1.15-8.96-48.89-17.75-97.81-26.86-146.66 1-3.1 2.53-6.04 3.14-9.25-1.18-4.25-4.2-7.66-6.71-11.18-3.47-17.98-6.61-36.03-9.94-54.04zM754.51 437.75c7.98-3.36 15.95-6.77 23.94-10.11-1.33 79.9-2.76 159.8-4.06 239.71-8.7-.58-17.4-1.24-26.1-1.85 2.08-75.92 4.08-151.84 6.22-227.75zM668.26 503.32c6.83-6.3 16.43-10.17 25.78-8.34 10.76 1.94 19.39 9.73 25.63 18.33 11.61 16.29 16.96 36.23 18.91 55.93-13.19 4.97-26.42 9.84-39.62 14.8-.14 6.98-.31 13.98.04 20.95.37 1.75 2.46.58 3.59.44 12.02-3.48 24.03-6.95 36.07-10.36-1.72 18.12-6.39 36.53-17.01 51.58-6.23 8.76-15.46 16.43-26.57 17.26-10.6.86-20.46-5.02-27.42-12.58-11.17-12.14-17.44-27.96-21.08-43.84-5-23.04-4.71-47.41 1.97-70.08 3.86-12.61 9.82-25.08 19.71-34.09zM192.97 581.2c1.42-.43 2.82.24 4.19.54 15.04 4.27 30.07 8.57 45.14 12.7 2.39 4.71 4.4 9.62 7.08 14.18.96 1.86 3.14 2.39 4.98 2.98 11.73 3.27 24.46 1.37 35.31-3.92 40.66 11.86 81.53 23.04 122.27 34.64 99.87 28.15 199.73 56.3 299.6 84.46 3.37 1.08 7.05 1.51 10.07 3.48 2.75 2.31 4.77 5.36 6.99 8.16 2.69 3.48 2.69 8.61.16 12.18-15.39 23.45-35.18 44.02-58.1 60.19-25.65 18.18-55.03 30.81-85.57 38.08-37.32 8.89-76.3 10-114.26 4.83-62.08-8.53-122.2-33.83-170.14-74.43-48.42-40.32-84.62-95.44-100.91-156.41-3.23-12.12-5.73-24.44-7.02-36.92-.04-1.57-.56-3.28.21-4.74m21.74 34.44c9.23 27.33 22.46 53.24 38.21 77.38 18.86 28.71 41.91 54.77 68.78 76.23 23.35 18.7 49.59 33.79 77.53 44.49-11.86-8.33-23.57-16.92-34.46-26.51-48.86-42.32-86.4-97.72-106.82-159.11-14.41-4.16-28.82-8.33-43.24-12.48zM732.48 780.57c8.26-12.74 13.78-27 18.33-41.42 63.15 16.15 126.15 32.91 189.25 49.25 2.84.72 5.82 1.45 8.18 3.31 4.67 3.43 6.99 9.71 5.63 15.37-2.99 14.23-5.9 28.53-7.1 43.05-.14 4.62-5.59 7.64-9.68 5.63-67.02-23.2-134.02-46.46-201.04-69.62-1.66-.73-3.71-.91-4.97-2.27-.18-1.29.86-2.25 1.4-3.3z"/></g><g fill="#fb1814"><path d="M934.59 499.52c3.36-1.32 6.73-2.66 10.26-3.5 2.32 11.52 3.82 23.19 5.74 34.78-24.38 7.43-49.04 13.96-73.46 21.27-32.68 9.27-65.29 18.84-98 27.97-.01-7.42-.56-14.98.47-22.33 5.09-3.1 11.14-4.06 16.52-6.59 46.16-17.18 92.32-34.41 138.47-51.6zM702.21 586.22c15.16-5.73 30.32-11.47 45.57-16.96.32 6.79-.56 13.57-.93 20.35-15.02 3.82-29.73 8.79-44.78 12.42-.15-5.27-.33-10.55.14-15.81zM779.05 586c6.4 3.38 12.25 7.71 18.35 11.6 46.31 31.08 92.91 61.7 139.37 92.55 4.1 2.53 7.79 6.2 9.09 10.98 1.33 3.48.74 7.23.38 10.84-.4 3.99-.59 8.04-1.51 11.96-.63 3.35-5.1 5.3-7.89 3.22-32.75-24.57-65.52-49.15-98.26-73.74-19.3-14.75-38.77-29.3-58.22-43.84-1.9-1.16-1.46-3.64-1.58-5.5.13-6.03 0-12.06.27-18.07z"/></g></svg>