<svg width="899pt" height="899pt" viewBox="0 0 899 899" xmlns="http://www.w3.org/2000/svg"><path fill="#fff" d="M455.36 577.16c.59-1.06 1.18-2.12 1.78-3.17.28.48.84 1.43 1.11 1.9 2.67 5.07 6.29 10 6.61 15.92.03 5.83-2.28 11.47-6.03 15.88-2.75 2.83-6.63 5.49-10.77 4.36-3.49-.8-4.2-4.75-5.77-7.41l-.46-.69c-.58-.26-1.75-.79-2.33-1.06 1.82-2.64 3.59-5.31 5.31-8.02 1.99-3.11 3.91-6.26 5.8-9.44 1.62-2.74 3.2-5.49 4.75-8.27z"/><path d="M178.05 90.16c3.48-.9 6.73 1.51 9.57 3.22 8.57 5.76 12.71 16.49 11.97 26.59-.58 14.65-11.08 26.57-12.57 40.99-.8 8.6 5.95 15.12 12.28 19.79 2.95 1.8 2.64 6.68-.48 8.12-2.96 1.56-5.82-.84-8.3-2.23-8.39-5-15.22-13.64-15.63-23.71-.77-12.99 6.5-24.34 10.86-36.07 2.87-7.38 3.28-16.47-1.53-23.14-1.85-2.8-4.68-4.64-7.38-6.5-2.45-1.82-1.56-6.04 1.21-7.06zM220.13 90.14c2.97-.85 5.79 1.09 8.29 2.45 9 5.39 13.75 16.13 13.22 26.42-.2 14.68-10.49 26.64-12.51 40.89-1.16 7.29 3.44 13.87 8.88 18.19 1.89 1.82 4.91 2.99 5.34 5.87.68 3.38-3.12 6.53-6.29 5.12-9.4-4.35-18.01-12.41-19.78-23.01-1.95-11.07 2.95-21.66 7.31-31.53 2.87-6.47 5.91-13.29 5.22-20.56-.27-6.81-4.48-13-10.35-16.3-3.06-1.54-2.48-6.47.67-7.54zM280.31 250.2c57.93-41.95 115.95-83.78 173.91-125.7 140.67 101.72 281.4 203.37 422.02 305.17-9.19-.14-18.42.25-27.58-.18-126.14-90.82-252.14-181.87-378.22-272.78-5.35-3.91-10.79-7.68-16.07-11.68-58.11 41.7-116 83.72-174 125.58-.09-6.81 0-13.61-.06-20.41zM201.42 198.59c2.8-1.38 6.25-.51 8.42 1.62 3.68 3.46 5.51 8.35 7.03 13.05 3.23 10.93 4.22 22.41 4.13 33.77-.26 11.51-1.44 23.21-5.53 34.05-1.87 4.48-4.38 9.76-9.47 11.16-4.49 1.08-8.2-2.62-10.22-6.18-4.34-7.69-5.92-16.57-7.04-25.22-1.71-15.66-1.17-31.77 3.07-47 1.86-5.68 4.02-12.24 9.61-15.25m.99 4.69c-2.86 2.46-4.24 6.12-5.53 9.56-3.46 10.33-4.43 21.32-4.52 32.16.07 11.16 1.05 22.49 4.73 33.09 1.3 3.36 2.72 6.99 5.69 9.24 1.77 1.34 3.93-.13 5.03-1.62 3.47-4.57 4.96-10.28 6.26-15.78 2.91-14.04 3.08-28.61 1.2-42.81-1.19-7.44-2.68-15.13-6.78-21.59-1.22-1.95-3.88-4.32-6.08-2.25zM230.6 200.94c-.48-1.77 1.35-3.38 3.02-2.72 1.28.49 1.47 2.01 1.97 3.12 8.68 24.64 17.04 49.41 26.03 73.94.17-25.16-.1-50.32.13-75.47.39-2.87 5.2-1.76 4.4 1.11.01 29.4.06 58.8-.02 88.2.42 2.5-3.9 3.33-4.34.78-8.91-25.33-17.92-50.64-26.55-76.07-.39 25.09-.01 50.19-.19 75.29.4 3.11-5.1 3.03-4.45-.17-.03-29.34-.02-58.68 0-88.01zM173.52 199.68c3.4-1.75 7.57-1.78 11.04-.2 1.77.61 1.89 3.49.11 4.18-1.27.46-2.52-.4-3.78-.55-2.66-.77-5.54.32-7.48 2.18-3.35 3.16-4.98 7.62-6.27 11.93-3.71 12.89-4.48 26.54-2.98 39.84.93 7.74 2.59 15.54 6.19 22.51 1.48 2.71 3.39 5.54 6.41 6.68 2.37.96 4.85-.1 7.23-.45 2.12.12 2.71 3.3.86 4.23-3.68 1.53-8.14 1.67-11.63-.43-3.49-2.04-5.77-5.57-7.52-9.12-4.07-8.57-5.74-18.07-6.46-27.47-.93-13.3.2-26.88 4.33-39.61 1.83-5.38 4.69-11 9.95-13.72zM208.82 301.8c1.66-1.67 4.11-1.04 6.21-1.15 7.78.12 15.56-.16 23.34.15-58.82 42.77-117.91 85.16-176.79 127.83-.96.92-2.27 1.13-3.55 1.05-8.66-.04-17.31.01-25.97-.03 58.82-42.75 117.88-85.18 176.76-127.85zM139.99 429.4c4.61.03 9.22.01 13.84.01.01 81.03 0 162.06.01 243.08 200.24.01 400.49 0 600.74.01.01-81.03.01-162.05 0-243.07 4.66-.03 9.33-.01 14-.01 0 85.69.01 171.39 0 257.08-209.53.01-419.06-.02-628.6.02-.11-85.71-.11-171.42.01-257.12z"/><path d="M465.04 456.11c-.1-2.43 3.73-2.98 4.17-.57 3.83 18.52 7.57 37.07 11.29 55.61 1.02 2.46-3.19 3.92-3.95 1.45-1.89-8.41-3.46-16.89-5.21-25.32-2.73-.04-5.46-.04-8.19-.03-1.61 7.88-3.15 15.78-4.71 23.68-.31 1-.33 2.42-1.54 2.79-1.55.86-3.62-1.04-2.83-2.66 3.59-18.33 7.28-36.64 10.97-54.95M463.99 483c2.15 0 4.3-.01 6.47 0-1.05-5.35-2.22-10.67-3.19-16.03-1.21 5.32-2.18 10.69-3.28 16.03z"/><path fill="#060200" d="M303.47 284.06c14.31-4.86 29.45-7.51 44.59-7.1 8.59.35 17.4 2.28 24.58 7.22-3.13.84-6.38 1.01-9.61.91-14.99-.32-30 .01-45-.12-4.86-.06-9.85.62-14.56-.91z"/><path fill="#130800" d="M285.21 291.21c5.92-2.78 12.02-5.18 18.26-7.15 4.71 1.53 9.7.85 14.56.91 15 .13 30.01-.2 45 .12 3.23.1 6.48-.07 9.61-.91l.1-.03c3.55 2.53 6.68 5.66 8.95 9.4-6.29-.64-12.6-.59-18.9-.38-4.45-4.91-11.37-6.33-17.73-5.76-9.38.1-18.52 2.47-27.43 5.01-9.93-.85-19.94-.37-29.89-.22-.87-.27-1.71-.6-2.53-.99z"/><path fill="#200d00" d="M271.37 298.29c4.51-2.56 9.09-5.01 13.84-7.08.82.39 1.66.72 2.53.99 9.95-.15 19.96-.63 29.89.22l.5.05c-5.32 2.18-10.63 4.43-15.73 7.1-10.28-1.67-20.77.49-31.03-1.28z"/><path fill="#240f00" d="M362.79 293.17c6.3-.21 12.61-.26 18.9.38l.15.02c1.45 2.69 2.72 5.48 3.66 8.39-6.55.06-13.11.01-19.66.05-.37-3.14-1.34-6.17-3.05-8.84z"/><g fill="#2d1200"><path d="M260.23 305.14c3.62-2.42 7.32-4.74 11.14-6.85 10.26 1.77 20.75-.39 31.03 1.28-3.82 2.16-7.59 4.4-11.22 6.87-8.04-.36-16.09-.18-24.14-.1-2.34.08-4.61-.49-6.81-1.2zM301.45 633.36c6.35-2.69 12.56-5.75 18.29-9.6 5.93.67 11.93-.07 17.83.94-3.77 3.57-7.84 6.81-12.04 9.86-7.83-1.18-15.8.4-23.6-1.13l-.48-.07z"/></g><path fill="#341500" d="M365.84 302.01c6.55-.04 13.11.01 19.66-.05.64 2.74 1.13 5.51 1.3 8.33-7.19-.54-14.68 1.21-21.64-1.1.39-2.37.63-4.77.68-7.18z"/><path fill="#441b00" d="M237.44 323.28c7.03-6.71 14.7-12.75 22.79-18.14 2.2.71 4.47 1.28 6.81 1.2 8.05-.08 16.1-.26 24.14.1-7.52 5.28-14.61 11.19-20.91 17.89-10.9-1.35-22.02.98-32.83-1.05z"/><path fill="#4d1f00" d="m365.05 309.16.11.03c6.96 2.31 14.45.56 21.64 1.1h.14c.62 7.14-1.45 14.15-4.5 20.53-9.25-2.5-18.98.46-28.27-1.75 4.34-6.19 8.61-12.63 10.88-19.91z"/><path fill="#411a00" d="M500.27 316.37c.13-2.84.19-6.84 3.7-7.52 6.43-1.27 12.36 3.46 15.96 8.36-6.55-.08-13.19.26-19.66-.84z"/><path fill="#4f2000" d="m500.2 316.36.07.01c6.47 1.1 13.11.76 19.66.84l.12-.01c1.39 2.34 1.9 5.04 1.38 7.73-7.81.06-15.63.26-23.42-.22l-.28-.58c.6-2.66 1.77-5.14 2.47-7.77z"/><path fill="#632800" d="m237.33 323.26.11.02c10.81 2.03 21.93-.3 32.83 1.05-5.57 5.92-10.58 12.33-15.5 18.79l-.8.15c-11.05-1.31-22.21.08-33.3-.73 4.67-7.13 10.54-13.39 16.66-19.28z"/><path fill="#5c2400" d="m497.29 324.9.72-.19c7.79.48 15.61.28 23.42.22-.93 2.73-1.47 5.63-2.74 8.24l-.71.19c-7.94-.76-16.13 1.16-23.86-1.18 1.12-2.4 1.88-4.97 3.17-7.28z"/><path fill="#6a2a00" d="M341.43 344.34c4.45-4.92 8.75-9.97 12.74-15.27 9.29 2.21 19.02-.75 28.27 1.75-2.25 4.8-4.96 9.37-7.87 13.79-10.98-1.4-22.12-.8-33.14-.27z"/><g fill="#732e00"><path d="M485.37 350.61c2.99-6.11 5.87-12.28 8.75-18.43 7.73 2.34 15.92.42 23.86 1.18l.29.55c-1.63 5.93-4.48 11.46-6.81 17.15-8.5-.57-17.01.01-25.51-.42l-.58-.03zM487.32 597.2c1.85-1.91 3.57-3.93 5.25-5.99 8.23 2.32 16.86.11 25.22 1.48-2.07 4.63-4.01 9.33-5.63 14.14-6.65-.17-13.3-.1-19.95 0 .02-.68.04-2.05.06-2.73-1.49 1.41-2.97 2.82-4.49 4.2-9.58-1.37-19.3-.31-28.95-.61 3.75-4.41 6.06-10.05 6.03-15.88 7.57.18 15.13.24 22.7.03-.1 1.78-.18 3.57-.24 5.36zM343.48 602.6c2.81-3.24 5.63-6.47 8.28-9.84 10.16.41 20.33-.18 30.5.32-1.8 4.75-3.15 9.66-3.71 14.72-6.57-.26-13.14-.15-19.7-.07-.43-1.54-.8-3.08-1.13-4.63-.21.15-.63.44-.84.58-4.46-.46-8.95-.54-13.4-1.08zM426.84 604.96c2.78-3.62 5.4-7.37 7.87-11.21 3.39.09 6.77.42 10.1 1.12a252.75 252.75 0 0 1-5.31 8.02c.58.27 1.75.8 2.33 1.06l.46.69c-1.6.33-3.19.69-4.8.94h-.04c-3.51-.55-7.06-.85-10.61-.62z"/></g><path fill="#7f3300" d="m220.41 342.52.26.02c11.09.81 22.25-.58 33.3.73l.32.52c-2.18 4.13-5.04 7.97-7.17 12.19-11.24.08-22.5.31-33.73-.23 1.69-4.73 4.45-8.95 7.02-13.23z"/><path fill="#7d3200" d="m341.32 344.35.11-.01c11.02-.53 22.16-1.13 33.14.27-1.72 2.58-3.53 5.1-5.39 7.58-11.58-.43-23.22.61-34.75-.82 2.32-2.31 4.62-4.65 6.89-7.02z"/><path fill="#8a3700" d="M652.28 346.23c3.54-3.89 9.26-2.21 13.71-1.26 3.93 1.12 9.08 3.26 9.36 8-.26 4.9-3.62 8.88-5.82 13.08-8.49-.42-17-.34-25.5-.18 1.01-7.07 3.19-14.38 8.25-19.64z"/><g fill="#8e3900"><path d="M334.43 351.37c11.53 1.43 23.17.39 34.75.82-3.42 4.55-7.1 8.91-10.93 13.12-12.88-.68-25.83.7-38.66-.9 5.21-4.04 10.07-8.49 14.84-13.04zM408.08 581.11c6.99.43 14.2-1.2 20.99 1.06l.21.69c-1.13 3.62-3.1 6.91-4.54 10.42l-.13-.01c-7.38-.84-14.81-.04-22.2-.66 1.97-3.79 3.91-7.6 5.67-11.5zM239.68 582.56c6.03-1.23 12.2-.63 18.31-.83 3.04-.11 6.08.25 9.05.87-1.56 3.49-3.05 7.01-4.32 10.62l-.1-.01c-8.67-.6-17.36-.3-26.04-.24.88-3.52 1.96-6.97 3.1-10.41zM674.38 582.59l.16.01c3.4.12 6.79.47 10.15 1.04-1.82 3.11-3.66 6.2-5.6 9.24-3.53-.1-7.07-.13-10.6-.19 1.9-3.4 4.05-6.66 5.89-10.1z"/></g><path fill="#873600" d="m485.31 350.61.64.03c8.5.43 17.01-.15 25.51.42-1.02 2.34-2.06 4.68-3.11 7.02-8.72-.52-17.54.74-26.19-.76 1.02-2.26 2.08-4.49 3.15-6.71z"/><g fill="#943b00"><path d="m213.2 355.74.19.01c11.23.54 22.49.31 33.73.23-2.15 4.16-4.06 8.45-5.55 12.89-10.34.4-20.68.12-31.02.18.02-4.57 1.1-9.03 2.65-13.31zM508.36 366.23c7.61-5.53 16.57-11.33 26.43-9.98 5.67.64 10.04 5.28 11.81 10.49-7.19.49-14.4.12-21.6.18-5.55-.11-11.18.57-16.64-.69zM587.52 366.55c6.7-6.61 15.92-11.77 25.62-10.36 6.48.23 13.24 4.05 14.52 10.84-13.38-.3-26.79.59-40.14-.48zM482.06 357.3l.1.02c8.65 1.5 17.47.24 26.19.76-1.34 2.98-2.71 5.95-4.12 8.91-8.89-.14-17.78.24-26.66-.27 1.49-3.15 3-6.28 4.49-9.42z"/></g><path fill="#923b00" d="M403.24 364.15c7.55-5.09 16.48-8.84 25.76-8.21 6.46.13 12.98 2.99 16.77 8.37-2.23.38-4.47.73-6.73.73-10.02-.13-20.03 0-30.05-.01-1.95-.03-3.86-.46-5.75-.88z"/><path fill="#a64200" d="M319.59 364.41c12.83 1.6 25.78.22 38.66.9-6.3 6.89-13.07 13.41-20.55 19.02-3.57-2.15-7.8-1.49-11.76-1.52-6.83.15-13.71-.52-20.49.56-1.48-2.53-3.4-5.28-2.82-8.37.27-2.17 2.18-3.93 4.38-3.97 4.94-.39 8.7-3.93 12.58-6.62z"/><path fill="#9d3f00" d="M394.36 371.39c2.71-2.7 5.71-5.1 8.88-7.24 1.89.42 3.8.85 5.75.88 10.02.01 20.03-.12 30.05.01 2.26 0 4.5-.35 6.73-.73 2.71 4.92 4.96 11.41 2.24 16.72-2.65.37-5.07-.93-7.29-2.17-.11-2.26-.2-4.84-2.11-6.4-3.7-3.36-9.48-2.6-13.42-.05-8.06-.3-16.13-.15-24.2-.11-2.25.04-4.46-.38-6.63-.91z"/><g fill="#a14000"><path d="M502.37 370.86c1.98-1.56 3.96-3.12 5.99-4.63 5.46 1.26 11.09.58 16.64.69 7.2-.06 14.41.31 21.6-.18l.12-.01c.71 2.73 1.12 5.52 1.4 8.33-7.87-.05-15.74.05-23.61-.1-.28-1.39.66-4.09-1.22-4.48-3.96.36-7.35 2.69-10.59 4.81-4.51-1.35-9.19.39-13.78-.09-8.33-.44-16.77.82-25-.8 1.2-2.57 2.41-5.13 3.65-7.68 8.88.51 17.77.13 26.66.27-.63 1.28-1.25 2.57-1.86 3.87zM644.03 365.87c8.5-.16 17.01-.24 25.5.18-1.62 2.92-3.05 5.96-3.94 9.19-7.09-.21-14.18-.26-21.27-.3-.39-3.01-.49-6.04-.29-9.07z"/></g><g fill="#a34100"><path d="M582.17 372.63c1.71-2.1 3.48-4.13 5.35-6.08 13.35 1.07 26.76.18 40.14.48.32 2.65.46 5.33.47 8.01-3.7.02-7.38.02-11.07 0 .05-2.4-.32-4.78-.94-7.08-3.37 1.54-5.64 4.52-7.73 7.45-10.13-.46-20.27-.15-30.41-.17-2.37.02-4.7-.48-6.98-1.07 2.9-3.4 7.38-2.4 11.17-1.54zM645.87 566.68c5.34-.98 10.51 1.89 14.99 4.48 1.77 1.36 4.55 3 3.94 5.63-.85 3.44-2.6 6.55-3.94 9.81l-.09-.02c-7.15-1.77-14.6-.68-21.88-.75 2.83-6.17 5.95-12.37 6.98-19.15zM596.7 573.75c9.34.27 18.71-.28 28.04.49-1.42 2.29-2.77 4.63-4.04 7.02l-.16-.03c-.98-.23-1.95-.35-2.94-.37-8.05.59-16.15.59-24.2.04.92-2.46 2.07-4.83 3.3-7.15z"/></g><g fill="#a94400"><path d="M210.55 369.05c10.34-.06 20.68.22 31.02-.18-1.24 4.1-1.67 8.54-.06 12.61-9.13 1.34-18.39-.02-27.55.91l-.75.06c-1.66-4.29-2.49-8.82-2.66-13.4zM239.68 582.56c1.95-5.31 4.22-10.49 6.81-15.52 9.6.39 19.22-.01 28.83.3-3.06 4.92-5.75 10.05-8.28 15.26-2.97-.62-6.01-.98-9.05-.87-6.11.2-12.28-.4-18.31.83z"/></g><path fill="#b34800" d="m394.23 371.36.13.03c2.17.53 4.38.95 6.63.91 8.07-.04 16.14-.19 24.2.11-7.48 5.47-12.98 13.13-17.71 21-9.69.48-19.43.62-29.11-.09 3.84-8.24 9.4-15.6 15.86-21.96z"/><g fill="#b54800"><path d="M473.92 374.4c8.23 1.62 16.67.36 25 .8 4.59.48 9.27-1.26 13.78.09-7.46 5.44-14.07 11.98-19.98 19.06-9.2-1.34-18.51-.02-27.74-.81l-.51-.03c3.63-6.13 6.35-12.71 9.45-19.11zM559.09 391.33c3-6.32 6.87-12.29 11.91-17.16 2.28.59 4.61 1.09 6.98 1.07 10.14.02 20.28-.29 30.41.17a81.7 81.7 0 0 0-9.21 17.28c-12.01-1.34-24.16.04-36.2-.61-1.31-.2-2.61-.45-3.89-.75z"/></g><g fill="#ae4600"><path d="M524.51 374.96c7.87.15 15.74.05 23.61.1.14 2.97.11 5.95-.09 8.93-8.42-.12-16.85.14-25.27-.2.81-2.89 1.39-5.85 1.75-8.83zM617.06 375.04c3.69.02 7.37.02 11.07 0-.19 3.3-.47 6.61-.92 9.89l-11.62-.09c.75-3.22 1.23-6.51 1.47-9.8z"/></g><path fill="#b04600" d="M644.32 374.94c7.09.04 14.18.09 21.27.3-.27 3.17.17 6.38 1.85 9.13-8.29 1.11-16.78.95-25.09.05.99-2.07 2.01-4.12 3-6.18-.25-.83-.77-2.47-1.03-3.3z"/><path fill="#b64900" d="M703.6 376.56c3.01-1.04 7.46.32 8.68 3.45-1.78 4.53-4.24 8.75-6.43 13.09-3.2-.8-6.43-1.43-9.68-1.94 2.68-4.77 4.84-9.79 7.43-14.6z"/><path fill="#bc4b00" d="m241.51 381.48.12-.02c4.76 7.53 14.04 9.94 22.07 12.31-4.25 2.27-9.17 1.12-13.75 1.32-8.82.17-17.66-.43-26.45.4-4.29-3.57-7.85-8-10.26-13.04l.72-.06c9.16-.93 18.42.43 27.55-.91z"/><g fill="#bd4c00"><path d="M431.53 382.48c4.16-1.44 8.42 1.11 12.22 2.67 3.14 1.83 7.64 3.85 7.58 8.12-7.6 1.29-15.43.92-23.06.1 1.37-3.55 2.36-7.21 3.26-10.89zM642.28 384.41l.07.01c8.31.9 16.8 1.06 25.09-.05 3.37 3.79 9.41 4.61 11.48 9.55-7.95.08-15.9 0-23.85.12.51-1.09 1.04-2.18 1.56-3.26-1.11-.72-2.2-1.44-3.29-2.16-1.58 2.48-3.22 4.93-4.95 7.31-3.96-.79-8-1.1-12.03-1.36 2.45-3.09 4.13-6.67 5.92-10.16zM615.59 384.84l11.62.09c-.58 3.37-1.35 6.71-2.24 10.01-4.12.02-8.22-.01-12.33-.09a97.98 97.98 0 0 0 2.95-10.01z"/></g><path fill="#ba4b00" d="M305.45 383.37c6.78-1.08 13.66-.41 20.49-.56 3.96.03 8.19-.63 11.76 1.52-6.12 4.3-12.78 9.42-20.61 9.26-5.05-1.67-8.56-6.11-11.64-10.22z"/><path fill="#bb4b00" d="M520.22 391.3c.93-2.48 1.8-4.97 2.54-7.51 8.42.34 16.85.08 25.27.2-.41 2.83-1 5.63-1.69 8.4-6.11-.06-12.22-.3-18.33-.11-2.65.13-5.26-.29-7.79-.98z"/><path fill="#d05300" d="M509.23 412.1c4.43-6.49 8.12-13.49 10.99-20.8 2.53.69 5.14 1.11 7.79.98 6.11-.19 12.22.05 18.33.11-2.52 8.05-6.92 15.37-12.25 21.86l-.21-.07c-7.92-3.01-16.55-.1-24.65-2.08z"/><path fill="#d15400" d="M538.1 412.23c7.65-6.26 14.71-13.27 20.99-20.9 1.28.3 2.58.55 3.89.75 12.04.65 24.19-.73 36.2.61-1.64 4.72-3.26 9.92-1.87 14.89.63 2.47 2.88 3.89 5.09 4.82-6.91.75-13.86.07-20.76.73-1.05-.91-2.08-1.87-3.09-2.8-.44 1.1-.88 2.2-1.3 3.32-7.76-1.73-15.75-.25-23.6-1.18-5.17-.72-10.66 2.11-15.55-.24z"/><g fill="#ca5100"><path d="M688.6 404.68c2.43-4.56 5.1-8.98 7.57-13.52 3.25.51 6.48 1.14 9.68 1.94-2.16 4.12-4.51 8.14-6.83 12.18-3.49.09-6.97-.2-10.42-.6zM378.28 393.31l.09.01c9.68.71 19.42.57 29.11.09-1.83 3.2-3.52 6.48-5.11 9.81-9.23-.65-18.48.12-27.71-.39 1.02-3.24 2.24-6.41 3.62-9.52zM428.18 393.36l.09.01c7.63.82 15.46 1.19 23.06-.1-1.36 3.28-2.69 6.58-4.19 9.8-7.61-.3-15.29.58-22.84-.7 1.3-3 2.66-5.98 3.88-9.01zM464.37 393.5l.61.04c9.23.79 18.54-.53 27.74.81-2.31 2.81-4.53 5.7-6.54 8.74-9.04-.2-18.09-.03-27.14-.13 1.82-3.13 3.65-6.25 5.33-9.46zM655.07 394.04c7.95-.12 15.9-.04 23.85-.12-.21 3.23-1.48 6.23-2.85 9.12-8.34-.11-16.69-.24-25.02.05 1.29-3.04 2.6-6.07 4.02-9.05zM453.27 550.4c8.1 1.36 16.35-.01 24.45 1.25-2.06 3.54-1.82 7.66-1.43 11.58l-.36.51c-8.01.68-16.06.09-24.08.13 1.96-4.21-.1-9.06 1.42-13.47zM557.83 550.69c7.67.33 15.51-.94 23.05.91-2.04 4.25-4.23 8.42-6.21 12.7l-.1-.01c-7.6-.91-15.26.14-22.85-.75 1.86-4.36 4.1-8.55 6.11-12.85zM513.28 553.91l.76-.2c6.47.47 12.98.48 19.45-.01l.24-.02c1.05 2.73.19 5.47-.84 8.04l-.13.01c-7.71.67-15.5.78-23.18-.25 1.33-2.48 2.24-5.18 3.7-7.57z"/></g><path fill="#d25400" d="M263.7 393.77c20.56 4.36 41.7 4.83 62.32 8.77 7.65 1.66 15.58 3.63 21.87 8.56-1.93.39-3.86.77-5.83.83-16.02-.03-32.04-.07-48.05-.09-3.91 0-8.05-.63-11.61 1.39-7.13-.25-14.25-1.67-21.29-2.91-13.21-2.71-26.82-6.32-37.61-14.83 8.79-.83 17.63-.23 26.45-.4 4.58-.2 9.5.95 13.75-1.32z"/><g fill="#cd5200"><path d="M612.64 394.85c4.11.08 8.21.11 12.33.09-1.1 3.47-2.35 6.89-3.81 10.22-4.23.11-8.46.01-12.66-.39 1.54-3.24 2.92-6.55 4.14-9.92zM626.31 404.34c3.5-3.1 6.84-6.37 10.05-9.77 4.03.26 8.07.57 12.03 1.36-2.49 3.34-5.16 6.54-8.06 9.53-4.68-.38-9.44.08-14.02-1.12z"/></g><g fill="#d75600"><path d="m424.2 402.36.1.01c7.55 1.28 15.23.4 22.84.7-1.48 3.31-3.02 6.6-4.53 9.9-7.65-1.97-15.59-.56-23.38-.76 1.67-3.28 3.39-6.53 4.97-9.85zM373.74 407.04c.22-1.43.58-2.81.92-4.21 9.23.51 18.48-.26 27.71.39-1.37 2.88-2.27 5.98-3.65 8.84l-.71.2c-7.84-.74-15.72.06-23.57-.41-.25-1.6-.51-3.2-.7-4.81zM459.04 402.96c9.05.1 18.1-.07 27.14.13-1.97 3.04-3.73 6.22-5.1 9.57-8.9-1.78-18.1.6-26.96-1.4 1.59-2.79 3.28-5.54 4.92-8.3zM651.05 403.09c8.33-.29 16.68-.16 25.02-.05-1.49 3.04-2.97 6.1-4.35 9.19l-.15-.01c-7.79-.74-15.68.54-23.41-.89.83-2.79 1.82-5.53 2.89-8.24zM516.34 544.85c6.77-1.34 13.41 3.54 17.15 8.85-6.47.49-12.98.48-19.45.01l-.28-.57c.86-2.76 2.25-5.37 2.58-8.29z"/></g><path fill="#e05900" d="m626.2 404.32.11.02c4.58 1.2 9.34.74 14.02 1.12-7.78 8.16-17.64 14.79-28.93 16.68-4.57.03-9.18.2-13.69-.57-5.82-1.79-11.47-4.4-16.07-8.44 6.9-.66 13.85.02 20.76-.73.47.03 1.43.1 1.91.13 1.47-2.55 2.9-5.11 4.19-7.76 4.2.4 8.43.5 12.66.39-.56 1.17-1.1 2.36-1.63 3.55 2.31-1.33 4.52-2.82 6.67-4.39z"/><g fill="#db5800"><path d="m688.42 404.66.18.02c3.45.4 6.93.69 10.42.6-2.46 4.06-4.93 8.12-7.53 12.09-3.69-.41-7.4-.28-11.05.24 2.82-4.21 5.51-8.51 7.98-12.95zM382.47 551.87c8.36-6.38 18.71-11.23 29.47-10.08 6.12.48 12.79 3.59 15.35 9.41l-.31.55c-6.65.84-13.35.2-20.02.4-8.16-.19-16.34.31-24.49-.28z"/></g><g fill="#e15a00"><path d="M373.97 422.09c-1.03-4.95-1.25-10.08-.23-15.05.19 1.61.45 3.21.7 4.81 7.85.47 15.73-.33 23.57.41l.28.62c-.53 3.09-1.63 6.05-2.25 9.13-7.35.1-14.71.04-22.07.08zM347.89 411.1l.1-.02c3.35 2.66 5.35 6.62 5.69 10.88-7.19.12-14.38.01-21.56-.06-.32-2.93-3.78-3.05-6.01-3.71-14.44-2.63-29.22-2.71-43.71-4.96 3.56-2.02 7.7-1.39 11.61-1.39 16.01.02 32.03.06 48.05.09 1.97-.06 3.9-.44 5.83-.83zM648.05 411.31l.11.02c7.73 1.43 15.62.15 23.41.89-1.21 3-2.55 5.96-3.73 8.97-7.39 1.83-15 .69-22.49.52.66-3.53 1.6-6.99 2.7-10.4z"/></g><g fill="#e45b00"><path d="m454.03 411.24.09.02c8.86 2 18.06-.38 26.96 1.4-1.11 3.03-1.36 6.29-.97 9.48-7.07.01-14.14.05-21.19-.43-.19.01-.57.03-.76.03-3.65.55-7.37.53-10.95-.47 2.37-3.28 4.65-6.62 6.82-10.03zM419.12 412.21h.11c7.79.2 15.73-1.21 23.38.76-1.42 3.31-2.74 6.66-3.89 10.08l-.1-.03c-8.32-2.34-17.09.47-25.42-1.76 2.11-2.93 4.14-5.92 5.92-9.05zM502.18 421.05c2.54-2.83 4.88-5.83 7.05-8.95 8.1 1.98 16.73-.93 24.65 2.08l-.88 2c1.67-1.36 3.34-2.7 5.1-3.95 4.89 2.35 10.38-.48 15.55.24 7.85.93 15.84-.55 23.6 1.18-1.18 3.11-2.2 6.29-2.87 9.56-6.51-.08-13.02-.23-19.53.14l-.55.02c-.88-3.56-1.24-7.22-1.35-10.88-3.68 3.49-7.48 6.86-11.55 9.89-11.46-.63-22.96-.02-34.43-.21-1.67-.03-3.23-.66-4.79-1.12z"/></g><path fill="#eb5e01" d="M680.44 417.61c3.65-.52 7.36-.65 11.05-.24-2.85 4.42-6 8.63-9.32 12.7-3.65.04-7.3-.12-10.9-.77 3.28-3.72 6.4-7.58 9.17-11.69z"/><path fill="#f36100" d="M397.9 431.49c6.77.42 11.28-5.68 15.3-10.23 8.33 2.23 17.1-.58 25.42 1.76-.66 2.51-1.37 5.06-1.15 7.68 4.18-2.04 6.87-5.94 9.74-9.43 3.58 1 7.3 1.02 10.95.47-3.27 5.37-7.49 10.12-11.95 14.53-3.53 3.38-7.97 7-13.21 6.05-7.01-1.13-12.19-7.05-15.32-13.06-6.24 6.45-13.84 14.26-23.66 13.04-10.49-.98-17.71-10.59-20.05-20.21 7.36-.04 14.72.02 22.07-.08-.05 3.08-1.43 7.59 1.86 9.48z"/><path fill="#f46100" d="M458.92 421.71c7.05.48 14.12.44 21.19.43.78 3.55 2.65 8.06 6.88 8.28 6.32-.19 10.99-5.21 15.19-9.37 1.56.46 3.12 1.09 4.79 1.12 11.47.19 22.97-.42 34.43.21-15.36 11.52-33.92 19.8-53.37 20.04-6.88.13-14.24-.54-20.06-4.56-5.31-3.67-8.04-9.97-9.05-16.15z"/><g fill="#f56200"><path d="M645.35 421.71c7.49.17 15.1 1.31 22.49-.52-1.12 3.61-3.21 7.42-2.01 11.28 1.99-.69 3.78-1.81 5.37-3.18l.07.01c3.6.65 7.25.81 10.9.77-4.33 4.76-8.91 9.93-15.21 11.96-11.63 2.77-23.73-8.45-21.61-20.32zM597.71 421.57c4.51.77 9.12.6 13.69.57-5.23 7.46-12.27 13.87-20.55 17.77-8.64 3.97-19.49 3.34-27.1-2.58-4.65-3.42-7.61-8.59-9.49-13.95l.59-.03c6.51-.37 13.02-.22 19.53-.14-.11 2.35-.63 5.26 1.34 7.04 2.08 1.48 4.84 1.04 7.21.73 5.97-1.05 10.66-5.24 14.78-9.41z"/></g><path fill="#f06000" d="M332.12 421.9c7.18.07 14.37.18 21.56.06-.15 3.52-.82 7-2.05 10.31h-.13c-9.12-.81-18.43 1.06-27.41-1.04 3.09-2.73 6.13-5.61 8.03-9.33z"/><g fill="#f60"><path d="M286.28 453.21c13.41-5.78 26.26-13.02 37.81-21.98 8.98 2.1 18.29.23 27.41 1.04-5.28 11.69-15.37 20.33-25.71 27.49-14 9.34-29.65 16.66-46.32 19.5-7.68 1.11-16.23 1.52-23.08-2.76-9.24-5.84-14.28-16.87-14.25-27.6.12-4.81 6.62-7.12 10.05-3.98 3.45 2.71.77 8.06 3.92 11 3.12 2.97 7.84 3.09 11.89 2.9 6.37-.75 12.37-3.23 18.28-5.61zM345.94 480.35c10.55-1.96 21.22 1.99 30.04 7.56 3.67 2.61 8.33 5.98 7.79 11.08-.65 13.62-6.92 26.22-13.84 37.7l-.09-.02c-5.18-1.64-10.65-.81-15.97-.84 6.85-10.79 12.83-22.53 14.78-35.27-11.86-1.54-23.53 2.77-33.83 8.28-12.58 6.77-23.83 15.81-33.83 25.97l-.12-.02c-6.21-1.51-12.59-.56-18.89-.65-4.35-.01-8.69-.43-13.04-.41 11.97-14.28 25.63-27.24 41.12-37.63 10.93-7.21 22.85-13.55 35.88-15.75zM578.45 501.4c3.09-1.32 6.49.49 9.3 1.81 3.74 2.24 8.14 5.15 8.73 9.85-.14 5.53-2.64 10.61-4.6 15.68l-.09.01c-7.79.53-15.61.57-23.39.08 3.89-8.92 8.61-17.7 10.05-27.43zM533.13 510.14c6.64-2.23 15.85 2.32 16.24 9.88.34 3.89-2.03 7.31-4.73 9.85-6.83-1.52-13.89-.41-20.82-.75.77-7.05 3.38-14.68 9.31-18.98z"/></g><g fill="#ec5f00"><path d="M568.4 528.83c7.78.49 15.6.45 23.39-.08-.78 1.81-1.57 3.62-2.37 5.43 6.97-.26 13.93-1 20.76-2.46 3.94-.76 7.86-2.01 11.91-1.86 1.99-.14 3.39 2.44 2.11 4-2.3 3.05-5.9 4.71-9.35 6.11-9.76 3.71-20.28 4.88-30.66 4.95a411.46 411.46 0 0 1-3.21 6.7l-.1-.02c-7.54-1.85-15.38-.58-23.05-.91 1.18-2.38 2.41-4.73 3.3-7.24-8.77-1.49-17.9-3.49-25.21-8.83-2.91.43-5.94 1.33-8.86.54-2.46-.92-2.82-3.81-3.24-6.04 6.93.34 13.99-.77 20.82.75 7.09 1.7 14.32 2.73 21.57 3.48.73-1.51 1.45-3.02 2.19-4.52zM456.65 542.69c3.63-5.58 8.87-10.55 15.46-12.23 4.56-.58 9.76.02 13.36 3.13 2.82 2.39 2.62 7.47.06 9.74-9.6-1.03-19.26.07-28.88-.64z"/></g><path fill="#e25b00" d="M268.94 533.73c4.35-.02 8.69.4 13.04.41 6.3.09 12.68-.86 18.89.65-6.03 6.38-11.81 13.01-17.05 20.07-1.48-.91-2.89-2.24-4.75-2.09-8.21.03-16.44-.34-24.62.52 4.41-6.82 9.36-13.27 14.49-19.56z"/><path fill="#e95d00" d="M353.87 535.83c5.32.03 10.79-.8 15.97.84a82.367 82.367 0 0 1-5.1 7.45c-5.59-.85-11.24.33-16.85-.16 2.09-2.64 4.09-5.35 5.98-8.13z"/><path fill="#d55500" d="M633.52 542.67c7.48-1.79 16.17-1.61 22.53 3.22 3.06 2.21 4.83 5.65 6.12 9.12-3.89-.21-7.78.06-11.64.56-2.22.02-4.48-.74-6.66-.03-3.6.99-6.35 3.65-9.12 5.99-1.15-.63-2.44-1.02-3.76-.88-8.37.3-16.74.08-25.11.19 7.44-8.27 16.79-15.23 27.64-18.17z"/><path fill="#da5700" d="M347.89 543.96c5.61.49 11.26-.69 16.85.16-2.2 2.99-4.54 5.87-7.02 8.63-5.71-1.08-11.55-.05-17.25-1.16 2.61-2.41 5.12-4.93 7.42-7.63z"/><path fill="#df5900" d="M453.27 550.4c.85-2.69 1.98-5.27 3.38-7.71 9.62.71 19.28-.39 28.88.64-2.42 2.89-5.3 5.37-7.64 8.34l-.17-.02c-8.1-1.26-16.35.11-24.45-1.25z"/><g fill="#c75000"><path d="M329.99 555.87c3.97.04 7.46-1.88 10.48-4.28 5.7 1.11 11.54.08 17.25 1.16-4.63 5.09-9.68 10.07-15.9 13.18-5.01 2.54-12.34 1.82-15.47-3.28-1.96-2.73.33-6.87 3.64-6.78zM366.82 568.6c4.34-6.32 9.57-12.04 15.65-16.73 8.15.59 16.33.09 24.49.28 6.67-.2 13.37.44 20.02-.4l.76.2c2 3.8 2.8 8.43 1.63 12.61-2.04 2.34-5.62-.12-7.73-1.42-.03-1.83-.01-3.88-1.38-5.29-3.12-3.43-8.72-3.34-12.47-1.02-5.28 3.18-9.24 8.03-12.97 12.84-2.23-.68-4.52-1.17-6.86-1.08-7.05.09-14.1.13-21.14.01zM650.53 555.57c3.86-.5 7.75-.77 11.64-.56.56 3.27 1.55 7.06-.18 10.11-2.45 1.15-5.24-.62-7.31-1.98.53-3.28-1.46-5.97-4.15-7.57z"/></g><path fill="#cb5100" d="M250.64 559.51c1.23-2.1 2.51-4.17 3.81-6.22 8.18-.86 16.41-.49 24.62-.52 1.86-.15 3.27 1.18 4.75 2.09-1.39 1.92-2.76 3.85-4.15 5.78-9.61-1.57-19.39.13-29.03-1.13z"/><path fill="#bf4c00" d="M246.49 567.04c1.31-2.55 2.7-5.06 4.15-7.53 9.64 1.26 19.42-.44 29.03 1.13-1.46 2.22-2.91 4.46-4.35 6.7-9.61-.31-19.23.09-28.83-.3z"/><g fill="#b74900"><path d="M630.99 560.65c1.32-.14 2.61.25 3.76.88-3.78 3.87-7.04 8.2-10.01 12.71-9.33-.77-18.7-.22-28.04-.49 2.59-4.62 5.72-8.91 9.18-12.91 8.37-.11 16.74.11 25.11-.19zM685.49 562.51c1.45-4.43 8.66-2 9.56 1.61-1.49 3.9-3.7 7.49-5.64 11.19-3.5-.47-7.02-.63-10.54-.49 2.27-4.06 4.44-8.19 6.62-12.31z"/></g><g fill="#b34700"><path d="M509.58 561.48c7.68 1.03 15.47.92 23.18.25-2.4 5.73-5.31 11.23-7.96 16.85l-.1-.02c-7.55-1.8-15.35-.23-23-1.1 2.81-5.24 5.21-10.67 7.88-15.98zM551.48 563.52l.24.02c7.59.89 15.25-.16 22.85.75-1.7 3.67-3.48 7.29-5.22 10.94-7.87-.3-15.8.61-23.61-.6l-.48-.07c2.15-3.64 4.32-7.26 6.22-11.04z"/></g><path fill="#b14700" d="M451.85 563.87c8.02-.04 16.07.55 24.08-.13l.69.29c1.46 3.64 3.19 7.16 4.96 10.66-7.73 1.39-15.63-.42-23.33 1.2-.27-.47-.83-1.42-1.11-1.9-.6 1.05-1.19 2.11-1.78 3.17-3.53-.23-7.06-.36-10.6-.4 2.43-4.26 4.66-8.63 7.09-12.89z"/><path fill="#a64300" d="M412.79 566.77c3.36-1.09 6.73.45 9.84 1.64 3.44 1.52 7.07 3.34 9.14 6.62.25 2.49-.89 4.95-2.04 7.1l-.66.04c-6.79-2.26-14-.63-20.99-1.06 1.93-4.65 4.08-9.3 4.71-14.34z"/><path fill="#ad4500" d="M361.94 577.2c1.42-2.98 3.09-5.83 4.88-8.6 7.04.12 14.09.08 21.14-.01 2.34-.09 4.63.4 6.86 1.08-1.83 2.64-3.57 5.34-5.25 8.07-9.18-1.03-18.42-.17-27.63-.54z"/><g fill="#963c00"><path d="M458.25 575.89c7.7-1.62 15.6.19 23.33-1.2l.21-.03c3 5.29 5.79 10.95 5.77 17.18-7.57.21-15.13.15-22.7-.03-.32-5.92-3.94-10.85-6.61-15.92zM545.25 574.56l.49.07c7.81 1.21 15.74.3 23.61.6-2.68 5.7-5.28 11.46-7.57 17.33l-.1-.02c-2.52-.63-5.1-1.04-7.69-.93-6.65.21-13.31-.06-19.95.25 3.92-5.65 7.73-11.38 11.21-17.3z"/></g><path fill="#a04000" d="M678.87 574.82c3.52-.14 7.04.02 10.54.49-1.54 2.8-3.1 5.58-4.72 8.33-3.36-.57-6.75-.92-10.15-1.04 1.39-2.63 2.88-5.19 4.33-7.78z"/><path fill="#913b00" d="M361.94 577.2c9.21.37 18.45-.49 27.63.54-2.86 4.91-5.23 10.07-7.31 15.34-10.17-.5-20.34.09-30.5-.32 3.6-5.03 7.91-9.72 10.18-15.56z"/><g fill="#9a3d00"><path d="M444.76 576.76c3.54.04 7.07.17 10.6.4a376.07 376.07 0 0 1-4.75 8.27c-3.54-.31-7.08-.44-10.62-.4 1.61-2.74 3.22-5.49 4.77-8.27zM496.98 584.99c1.61-2.49 3.17-5 4.72-7.53 7.65.87 15.45-.7 23 1.1-1.06 2.25-2.16 4.5-3.27 6.73-8.14-.63-16.3-.15-24.45-.3z"/></g><g fill="#8b3800"><path d="M617.6 580.86c.99.02 1.96.14 2.94.37-2.32 4.79-4.5 9.65-6.27 14.67-10.77-.21-21.54-.2-32.3-.01 4.01-4.83 8-9.71 11.43-14.99 8.05.55 16.15.55 24.2-.04zM496.98 584.99c8.15.15 16.31-.33 24.45.3-1.22 2.45-2.4 4.92-3.55 7.41l-.09-.01c-8.36-1.37-16.99.84-25.22-1.48 1.48-2.06 2.96-4.13 4.41-6.22z"/></g><g fill="#893700"><path d="M439.99 585.03c3.54-.04 7.08.09 10.62.4-1.89 3.18-3.81 6.33-5.8 9.44-3.33-.7-6.71-1.03-10.1-1.12 1.79-2.89 3.56-5.79 5.28-8.72zM638.89 585.83c7.28.07 14.73-1.02 21.88.75-1.04 2.16-1.76 4.5-3.07 6.52l-.75.17c-6.96-.57-13.95.22-20.9-.57l-.27-.55c.77-2.22 2.13-4.19 3.11-6.32z"/></g><path fill="#7c3200" d="M534.04 591.86c6.64-.31 13.3-.04 19.95-.25 2.59-.11 5.17.3 7.69.93-.67 1.83-1.13 3.76-2 5.52l-.7.23c-9.77-.61-19.57.15-29.34-.53 1.48-1.96 2.96-3.92 4.4-5.9z"/><path fill="#773000" d="M668.49 592.69c3.53.06 7.07.09 10.6.19-2.3 3.7-4.7 7.33-7.15 10.93l-.12-.02c-3.37-.52-6.74-.91-10.12-1.21 2.31-3.23 4.59-6.49 6.66-9.89h.13z"/><g fill="#793000"><path d="M236.58 592.97c8.68-.06 17.37-.36 26.04.24-.71 2.22-1.41 4.45-2.12 6.69-8.41.08-16.81.15-25.22.2.39-2.39.83-4.76 1.3-7.13zM397.96 599.96c1.56-2.4 3.05-4.85 4.45-7.35 7.39.62 14.82-.18 22.2.66-1.01 2.25-1.78 4.61-2.93 6.8l-.71.19c-7.67-.38-15.34-.25-23.01-.3zM635.3 592.89l.75-.19c6.95.79 13.94 0 20.9.57l.3.57c-.59 2.25-1.74 4.3-2.55 6.48l-.15-.01c-7.86-.55-15.75-.24-23.62-.24 1.59-2.31 2.86-4.82 4.37-7.18z"/></g><path fill="#712d00" d="M581.97 595.89c10.76-.19 21.53-.2 32.3.01a65.02 65.02 0 0 0-2.57 10.49c-6.58 1.15-13.35-.56-19.83 1.25-.64-2.15-1.17-4.33-1.61-6.51-.49.53-1 1.05-1.48 1.61-4-.7-8.06-.87-12.11-1 1.78-1.94 3.56-3.87 5.3-5.85z"/><path fill="#6f2c00" d="M522.54 605.73c2.49-2.55 4.85-5.22 7.1-7.97 9.77.68 19.57-.08 29.34.53l.28.57c-.41 2.22-1.08 4.37-1.56 6.57l-.19-.01c-6.83-.3-13.73-.73-20.51.29-.05-.51-.14-1.52-.18-2.02-.8.92-1.59 1.85-2.36 2.8-3.97-.33-7.94-.58-11.92-.76z"/><path fill="#6a2b01" d="M235.28 600.1c8.41-.05 16.81-.12 25.22-.2-.6 2.26-1.13 4.56-1.55 6.88l-.17-.03c-7.93-1.19-16.11-1-24.06-.05.17-2.21.35-4.4.56-6.6z"/><g fill="#6a2a01"><path d="M397.96 599.96c7.67.05 15.34-.08 23.01.3l.27.58c-.44 2.14-1.3 4.16-2 6.22-6.08-.1-12.17-.17-18.25-.01-2.58.11-5.11-.39-7.56-1.15 1.55-1.95 3.07-3.92 4.53-5.94zM630.93 600.07c7.87 0 15.76-.31 23.62.24-.64 1.96-1.3 3.91-2.01 5.85-8.63-.36-17.28.31-25.89-.49 1.45-1.85 2.89-3.71 4.28-5.6z"/></g><path fill="#662901" d="M568.67 608.66c2.79-2.16 5.48-4.44 8-6.92 4.05.13 8.11.3 12.11 1-1.69 1.97-3.46 3.86-5.26 5.72-4.94.45-9.91.69-14.85.2z"/><g fill="#5c2500"><path d="M331.5 614.62c4.19-3.8 8.15-7.86 11.98-12.02 4.45.54 8.94.62 13.4 1.08-3.21 4.15-6.62 8.15-10.2 11.99-4.99-1.15-10.13-.43-15.18-1.05zM651.56 612.39c4.46-1.94 7.18-6.17 10.14-9.81 3.38.3 6.75.69 10.12 1.21-2.4 3.52-5.1 6.81-7.88 10.02l-.11-.02c-3.54-.85-7.18-.93-10.79-.78-6.27.28-12.6-.42-18.82.66l-.06.01c-.48-.9-.95-1.78-1.41-2.66-.81.81-1.61 1.63-2.38 2.47-3.75-.21-7.48-.6-11.22-.91l-.59-.05c3.04-1.85 5.69-4.24 8.09-6.86 8.61.8 17.26.13 25.89.49-.55 2.03-.94 4.11-.98 6.23zM234.72 606.7c7.95-.95 16.13-1.14 24.06.05-.32 2.42-.63 4.86-.88 7.31l-.1-.03c-4.11-1.45-8.49-.81-12.75-.95-3.35-.12-6.71.02-9.98.8l-.09.02c-.14-2.41-.23-4.8-.26-7.2z"/></g><g fill="#5a2400"><path d="M426.84 604.96c3.55-.23 7.1.07 10.61.62-2.25 3.26-4.82 6.28-7.46 9.23l-.09-.02c-5.55-1.44-11.29-.6-16.94-.79-3.81-.1-7.62.01-11.42.33-.6-1.11-1.2-2.2-1.79-3.28-1.26 1.24-2.52 2.5-3.78 3.75-4.38-.93-8.88-.74-13.3-1.37 4.38-1.18 7.74-4.31 10.76-7.53 2.45.76 4.98 1.26 7.56 1.15 6.08-.16 12.17-.09 18.25.01-.34 1.67-.65 3.34-.89 5.03 3.86-.76 6.01-4.44 8.49-7.13zM537 605.71c6.78-1.02 13.68-.59 20.51-.29.06 2.1-.72 4.53.66 6.37 3.72 1.19 7.39-1.3 10.5-3.13 4.94.49 9.91.25 14.85-.2-2.51 2.43-5.08 4.79-7.84 6.93-5.19-.62-10.41-.51-15.62-.46-6.23.1-12.5-.54-18.67.6-2.18-2.91-3.81-6.22-4.39-9.82zM511.54 612.32c4.51-.42 7.89-3.64 11-6.59 3.98.18 7.95.43 11.92.76-2.48 2.84-5.05 5.61-7.86 8.12-4.85-.76-9.75-.6-14.62-.53-5.95.1-11.98-.64-17.85.65l-.1.01c-.91-2.56-1.53-5.22-1.82-7.91 6.65-.1 13.3-.17 19.95 0-.37 1.8-.58 3.64-.62 5.49zM591.87 607.64c6.48-1.81 13.25-.1 19.83-1.25-.03 2.52-.29 5.71 2.4 7.06-6.18 1.14-12.49.05-18.68 1-1.38-2.17-2.54-4.46-3.55-6.81zM358.85 607.73c6.56-.08 13.13-.19 19.7.07.07 2.16.41 4.45 2.42 5.69-6.1 1.13-12.32 0-18.44.96l-.23.03a82.43 82.43 0 0 1-3.45-6.75z"/></g><g><path fill="#582400" d="M437.49 605.58c1.61-.25 3.2-.61 4.8-.94 1.57 2.66 2.28 6.61 5.77 7.41 4.14 1.13 8.02-1.53 10.77-4.36 9.65.3 19.37-.76 28.95.61a98.922 98.922 0 0 1-8.04 6.4h-.13c-13.38.7-26.8-.34-40.16.69-1.44-3.07-2.18-6.42-1.96-9.81z"/></g><g fill="#481d00"><path d="M235.07 613.88c3.27-.78 6.63-.92 9.98-.8 4.26.14 8.64-.5 12.75.95-.24 3.61-.36 7.26.38 10.83-6.7.21-13.52-.77-20.09.86l-.08.02c-1.39-3.84-2.43-7.81-2.94-11.86zM439.45 615.39c13.36-1.03 26.78.01 40.16-.69-8.66 6.37-19.73 10.31-30.51 8.18-4.24-.8-7.32-4.08-9.65-7.49zM541.39 615.53c6.17-1.14 12.44-.5 18.67-.6 5.21-.05 10.43-.16 15.62.46-5.73 4.27-12.29 8.28-19.69 8.17-5.8-.26-10.89-3.78-14.6-8.03z"/></g><g fill="#4a1d00"><path d="M380.97 613.49c.42-.01 1.28-.04 1.7-.06 4.42.63 8.92.44 13.3 1.37-4.88 4.52-10.86 9.31-17.94 8.72-6.27-.25-12.04-3.93-15.5-9.07 6.12-.96 12.34.17 18.44-.96zM614.1 613.45c1.68-.26 3.32-.88 5.05-.87 3.74.31 7.47.7 11.22.91-5.23 5.05-11.57 10.62-19.35 10.03-6.34-.23-11.95-4.07-15.6-9.07 6.19-.95 12.5.14 18.68-1zM634.22 613.67c6.22-1.08 12.55-.38 18.82-.66 3.61-.15 7.25-.07 10.79.78-3.67 3.88-7.51 8.32-12.92 9.63-7.07 1.11-13.08-4.25-16.69-9.75zM401.54 614.33c3.8-.32 7.61-.43 11.42-.33 5.65.19 11.39-.65 16.94.79-3.64 3.71-7.54 8.1-13 8.76-6.51.46-11.76-4.36-15.36-9.22zM494.13 614.73c5.87-1.29 11.9-.55 17.85-.65 4.87-.07 9.77-.23 14.62.53-5.46 4.68-11.93 9.52-19.54 8.91-5.57-.17-10.57-3.83-12.93-8.79z"/></g><g><path fill="#441c00" d="M319.74 623.76c4.05-2.88 8-5.89 11.76-9.14 5.05.62 10.19-.1 15.18 1.05-2.88 3.13-5.88 6.15-8.99 9.05l-.12-.02c-5.9-1.01-11.9-.27-17.83-.94z"/></g><g><path fill="#2b1100" d="M238.09 625.72c6.57-1.63 13.39-.65 20.09-.86 1.81 4.75 5.6 8.34 9.94 10.83-7.63.68-15.44-.85-22.92 1.08l-.09.02c-2.87-3.32-5.34-7-7.02-11.07z"/></g><g><path fill="#150800" d="M268.12 635.69c10.97 4.45 23.03.79 33.81-2.26 7.8 1.53 15.77-.05 23.6 1.13-5.03 3.5-10.25 6.86-15.92 9.2-2.51-.38-5.03-.82-7.57-.76-12.04.16-24.08-.15-36.11.05-3.93.19-8.16-1.38-11.75.89-3.32-1.95-6.38-4.34-8.98-7.17 7.48-1.93 15.29-.4 22.92-1.08z"/></g><g><path fill="#030200" d="M254.18 643.94c3.59-2.27 7.82-.7 11.75-.89 12.03-.2 24.07.11 36.11-.05 2.54-.06 5.06.38 7.57.76-12.41 6.28-26.86 7.91-40.5 5.65-5.26-.89-10.32-2.79-14.93-5.47z"/></g></svg>