<svg width="1148pt" height="1148pt" viewBox="0 0 1148 1148" xmlns="http://www.w3.org/2000/svg"><path fill="#f9f517" d="M461.11 230.79c47.29-12.35 97.27-14.17 145.34-5.44 61.69 11.09 119.77 40.1 166.53 81.7 40.1 35.56 72.17 80.06 93.51 129.2 3.46-2.78 6.18-6.31 9.28-9.46 30.61-32.74 61.25-65.45 91.83-98.21 1.05-1.03 2.56-2.89 4.05-1.31 7.21 6.14 14.34 12.42 21.38 18.76 1.59 1.25.23 3.06-.87 4.06-38.09 38.42-75.95 77.08-114.12 115.42 3.9 12.35 7.75 24.73 10.54 37.39 38.46-18.23 76.78-36.76 115.18-55.12 7.79-3.59 15.39-7.63 23.29-10.98 1.91-1.05 2.63 1.68 3.33 2.88 3.77 8.83 7.92 17.5 11.59 26.37.95 1.47-.75 2.63-1.91 3.11-48.41 22.26-96.82 44.51-145.23 66.78 8.7 61.94 2.8 126.01-18.08 185.03-28.41 81.19-85.43 152.6-160.04 195.85-1.12.82-3.15 1.35-2.87 3.13-.05 16.35-.03 32.71 0 49.06-.09 2.41.28 4.94-.52 7.28-3.04.85-6.24.36-9.35.47-92.99-.01-185.97 0-278.96-.01-15.47-.21-30.97.44-46.41-.33-.46-19.21-.19-38.44-.14-57.66-24.36-14.28-47.32-31.02-67.78-50.5-46-43.43-80.27-98.96-99.25-159.27-25.68-81.27-23.81-171.02 5.52-251.07 20.77-56.93 55.4-108.86 100.55-149.35 40.84-36.76 90.38-63.97 143.61-77.78m-17.14 9.38c-55.05 17.7-105.1 50.05-144.71 92.09-37.07 39.2-65.17 86.73-82.12 137.93-12.89 38.82-19.42 79.73-19.46 120.62-.3 69.78 18.71 139.66 55.16 199.23 31.22 51.27 75.17 94.92 127.37 124.69 1.23.63 2.65 1.52 2.33 3.16.05 18.21.03 36.42 0 54.63 109.03.1 218.05.01 327.08.05.2-18.81-.38-37.67.28-56.45 5.09-3.37 10.55-6.18 15.65-9.56 55.99-35.49 101.28-87.18 130.32-146.67 25.71-52.38 38.84-110.76 38.64-169.08-.15-18.43-1.12-36.93-4.2-55.12.16-.61.47-1.83.63-2.44 3.76-2.14 7.84-3.66 11.74-5.56 44.88-20.62 89.74-41.29 134.64-61.88-3.51-8.11-7.21-16.13-10.7-24.24-46.06 21.89-91.96 44.1-138 66.04-1.25.89-2.46.1-3.58-.51-2.67-13.64-6.53-27.09-11.26-40.16-.34-1.51-.32-3.15 1.1-4.11 37.92-38.37 75.78-76.8 113.73-115.14-6.08-5.31-12.05-10.74-18.25-15.92-34.03 36.51-68.16 72.93-102.26 109.38-.84 1.36-2.37 1.14-3.72 1.01-22.66-54.31-58.71-103.03-104.15-140.44-50.04-41.38-112.04-68.37-176.67-75.49-46.82-5.3-94.76-.59-139.59 13.94z"/><g fill="#ed1b24"><path d="M443.97 240.17c44.83-14.53 92.77-19.24 139.59-13.94 64.63 7.12 126.63 34.11 176.67 75.49 45.44 37.41 81.49 86.13 104.15 140.44-23.66 24.91-46.96 50.17-70.49 75.2a279.39 279.39 0 0 0-6.64-19.76c-3.99-10.66-8.84-20.98-14.22-31-10.3-19.1-23.2-36.76-37.9-52.71-16.59-17.96-35.74-33.62-56.73-46.18-66.43-40.82-151.72-48.22-224.59-20.92-23.29 8.68-45.41 20.64-65.16 35.75-16.62 12.56-31.89 26.98-45.01 43.18-9.62 11.65-18.24 24.13-25.62 37.32-5.96 10.51-11.18 21.45-15.5 32.74-4.48 11.33-8.07 23.01-10.82 34.88-2.78 11.97-4.79 24.12-5.84 36.37-.66 7.91-1.01 15.85-1 23.79-29.06-.01-58.12 0-87.18-.01.04-40.89 6.57-81.8 19.46-120.62 16.95-51.2 45.05-98.73 82.12-137.93 39.61-42.04 89.66-74.39 144.71-92.09z"/><path d="M428.64 375.57c36.98-20.15 79.31-30.22 121.39-29.25 40.08.79 79.84 11.85 114.71 31.59 19.65 11.12 37.66 25.07 53.56 41.09 16.52 16.69 30.46 35.86 41.61 56.51 5 9.55 9.51 19.37 13.25 29.49 3.25 8.44 5.86 17.12 8.06 25.89-17.25 18.48-34.51 36.94-51.8 55.39-1.56 1.58-3.21 3.06-4.72 4.68-36.04-.3-72.09-.12-108.14-.09-1.37-.03-2.73-.03-4.08.01-103.98-.15-207.95-.03-311.92-.06-.02-7.75.31-15.49 1.02-23.21 1.15-11.89 3.04-23.71 5.89-35.31 3.14-12.47 7.03-24.77 12.09-36.6 4.69-10.98 10.06-21.68 16.27-31.89 7.82-12.76 16.73-24.87 26.7-36.04 14.75-16.47 31.72-30.91 50.24-42.99 5.3-3.05 10.47-6.32 15.87-9.21m255.42 60.78c1.58 2.9 1.96 6.18 1.89 9.44-.45.35-1.34 1.06-1.78 1.41.4.47 1.2 1.41 1.61 1.88-.69 6.7-1.44 13.4-2.22 20.1.32.39.95 1.16 1.26 1.55-.65.24-1.95.71-2.6.95.81 1.69 2.03 3.37 1.75 5.37-.13 2.48-2.39 4.39-2.07 6.97.45 15.58 1.03 31.16.92 46.76 1.72 1.32 3.42 2.67 5.1 4.06-.33 2.71-.6 5.42-.86 8.14 3.46 1.13 7.07 1.96 10.72 1.19.69-3.93 2.54-7.47 4.71-10.77 1.96-2.5.36-5.67.09-8.45.81-1.68 2.24-3.35 1.67-5.35-.83-3.83-1.69-7.77-.4-11.62-.39-.43-1.17-1.31-1.56-1.74-.73-16.14-1.54-32.53 2.11-48.4 1.22-4.53.24-9.31 1.57-13.83 1.05-2.81-1.16-5.18-2.53-7.39-2.33.01-4.67-.59-5.29-3.14-4.72.89-9.43 1.78-14.09 2.87m-27.54 1.14c-1.63-.15-3.83-.8-4.78.99.84 1.29 1.65 2.58 2.56 3.83l-.39 1.58c-.62-.1-1.87-.31-2.49-.41.31 3.09.98 6.22.38 9.33-.44 2.72.38 5.57-.78 8.19.31 2.45 1.39 4.99.56 7.46-.76 2.44-.17 5 .03 7.48-9.81.78-19.47 2.63-29.15 4.33.68-10.78 2.07-21.53 2.34-32.32-1.89-3.03-4.56-.17-4.93 2.26-3.67-.46-2.07-5.47-4.78-7.16-2.83-.27-5.98 1.16-8.41-.86-.51 1.33-1.41 2.68-1.1 4.19 1.08 4.96-1.66 9.72-1.1 14.69.53 4.39-1.09 8.62-1.51 12.95-2.42 18.91-3.02 38.02-2.61 57.05-.02 2.07 1.18 3.81 2.2 5.51.62-.53 1.86-1.6 2.48-2.13.48.37 1.43 1.11 1.9 1.48a10.89 10.89 0 0 0-.73 5.81c.93.58 1.85 1.17 2.78 1.78.39-2.86-.57-6.19 1.19-8.69.67 2.65.8 5.47 1.96 7.98.85 2.4 3.7.86 5.55 1.02 2.37-12.37 2.88-25.02 3.63-37.57 8.75.63 17.27-1.31 25.81-2.89-1.57 13.45-2.44 27.05-1.36 40.57.03 2.1 2.2 2.06 3.72 2.53-.05-1.92-.09-3.83-.04-5.73 1.25 2.17 1.42 4.81 2.8 6.9 1.56.37 3.19.08 4.79.1 1.37-4.04.82-8.87 3.44-12.34.83 3.64.98 7.38.88 11.1.42.22 1.27.66 1.69.87 4.13-35.34 7.35-70.83 8.76-106.39-2.8-.06-4.42 1.88-4.85 4.5-2.94-2.15-3.34-6.01-4.48-9.2-1.93.62-3.88 1.71-5.96 1.21m-115.81 26.48c-.44-.22-1.31-.66-1.75-.87-2.51 2.41-5.71 4.4-7.03 7.77-2 4.65-4.18 9.23-6.17 13.89-1.29 2.25.85 4.33 1.83 6.22-.79 2.44-3.24 5.23-1.25 7.72 3.85 5.45 10.03 8.57 15.67 11.82-.1-.78-.32-2.34-.43-3.12 3.45.96 6.9 1.95 10.41 2.73 1.27-.66 2.65-1.12 4.1-.7 4.52.69 8.89 2.12 13.23 3.55-7.22 8.7-18.74 11.99-29.21 14.95-2.96 1.47-5.85-3.22-8.35-.19-3.95 2.29-.87 7.11.27 10.26-.76.62-1.52 1.25-2.27 1.89.56 3.32 1.12 7.2 4.17 9.22 2.98 1.96 5.62 4.42 8.7 6.24 2.82 1.68 6.17 1.68 9.31 2.22-2.29 1.43-6.37.02-7.01 3.39 3.33-.29 6.51-1.39 9.66-2.47 4.46-1.56 9.15-2.97 12.75-6.18l-3.31-.64c2.99-1.84 6.86-1.67 9.56-4.05 7.45-6.26 14.44-13.62 18.09-22.81.85-2.49 2.16-5.19 1.14-7.83-1.25-3.5 2.98-7.25.68-10.48-8.12-9.83-19.37-16.89-31.63-20.33 8.23-6.46 18.31-10.08 28.61-11.47-1.1-1.56-3.05-1.85-4.71-2.45 2.85-.66 5.77-.99 8.56-1.91-3.01-.72-6.1-.74-9.17-.67-.01-.31-.02-.95-.03-1.26 1.91-.17 3.82-.34 5.74-.49.01-1.34.03-2.67.06-3.99-.49-.47-1.46-1.41-1.94-1.89 1.79-.23 3.61-.44 5.42-.66 0-.48.01-1.44.01-1.92-2.21-.26-4.4-.53-6.57-.91 1.38-.16 2.77-.3 4.18-.42-.35-1.57-.21-3.49-1.68-4.52-3.84-3.63-9.44-3.67-14.39-4.1 1.89-.44 5.06.31 4.57-2.67-7.17.51-14.48 1.79-21.6.12-6.13 5.61-12.22 11.25-18.22 17.01m-35.08-3.45c-.81-1.52-1.87-2.88-3.48-3.57-.94 1.14-1.89 2.28-2.81 3.43.77 4.14.8 8.34.5 12.54.8 8.39 1.91 16.75 2.72 25.14-8.19 11.06-16.42 22.09-24.61 33.15-3.3-2.78-4.17-7.23-5.04-11.24-1.72-12.26-.2-24.69 1.84-36.81 1.09-4.84.41-9.86 1.59-14.69.58-2.05-.63-3.92-1.31-5.77l-3.18.4c-.55 2.06-.7 4.2-1.06 6.3-2.54-2.23.62-6.22-1.93-8.46-.87-.93-2.12-2.79-3.55-1.61-5.25 2.96-4.3 9.96-7.41 14.42.02-.38.05-1.13.07-1.51.06-.36.17-1.08.23-1.44l-1.1-2.03c3.79-.86 1.99-4.48 1.64-7.11-3.92 2.33-4.26 7.38-4.81 11.43-1.55 16.24-.99 32.59-.86 48.88-.27 6.84 2.39 13.3 4.49 19.69 2.26 5.8 4.81 11.95 9.84 15.91 2.09 1.46 5.24 2.94 7.42.87 3.03.28 6.04 1 9.09.88 6.86-3.59 13.31-7.94 20.15-11.58.78 2.5 2.19 4.77 5.16 4.78l-.12.81c-.95 3.67-.31 7.5-.27 11.25 1.05-1.17 2.45-2.11 3.1-3.57.03-2.47-.31-4.91-.46-7.36.53.19 1.6.56 2.13.74.33 3.68.09 7.39.16 11.09 1.56-.2 3.13-.39 4.71-.59-.06-2.85 1.85-4.8 4.56-5.32.64-5.17.85-10.38 1.44-15.56-.89-27.53-2.15-55.06-3.03-82.6-2.02-.86-4.16-1.29-6.33-.81-1.11-1.49-2.07-3.13-3.48-4.35-2.64.16-5.31 1.52-6 4.27m-91.32 2.55c-5.86 5.4-11.53 11.05-17.57 16.24-4.36.28-7.58 4.25-9.4 7.9-1.97 4.66-4.21 9.21-6.14 13.89-1.04 2.21 1.03 4.18 1.89 6.07-.92 2.46-3.21 5.36-1.09 7.84 3.93 5.25 9.92 8.47 15.59 11.53-.33-1.1-.65-2.19-.98-3.26 3.45 1.08 6.94 2.03 10.47 2.84 1.56-.44 3.17-1.03 4.82-.57 4.47.83 8.96 1.91 13.09 3.87-7.7 7.98-18.52 11.68-28.96 14.52-2.4 1.01-4.56-.7-6.79-1.33-1.41.69-2.67 1.67-3.75 2.8-.58 3.04.94 5.93 2.12 8.64l-2.32 1.88c.57 3.41 1.14 7.43 4.38 9.4 3.21 2.07 5.93 4.89 9.4 6.56 2.98 1.54 6.97.56 9.19 3.53 4.9-2.22 10.52-3.25 14.57-7.04-.83-.19-2.47-.56-3.3-.74 3.22-1.69 7.22-1.65 9.95-4.24 9.05-7.66 17.58-17.27 19.62-29.35-.35-.52-1.06-1.55-1.41-2.07.84-2.79 2.32-5.62 1.93-8.59-8.01-10.32-19.62-17.39-32.02-21.2 5.86-4.63 12.75-7.92 19.98-9.74 2.92-.66 5.9-1.08 8.72-2.14-1.59-.72-3.24-1.36-4.86-1.98 2.59-1.1 6.01-.19 8.07-2.3-3.23-.24-6.47-.21-9.68-.63 1.91-1.44 4.45-1.13 6.69-1.48.03-2.24-.06-4.53-2.07-5.93 1.77-.13 3.55-.27 5.33-.41.03-.55.1-1.65.13-2.21l-3.65-.08c.7-1.47 1.78-3.48.31-4.87-3.89-4.42-10.24-4.42-15.64-4.92 1.97-.48 5.42.59 5.29-2.48-7.3.31-14.68 1.7-21.91.05m188 73.6c.27 2.27-.67 5.39 1.64 6.87-.39-2.26.45-5.27-1.64-6.87m-201.38 38.31c.01.56.04 1.69.06 2.26 1.66-.3 3.33-.61 5.01-.88.06-.51.19-1.54.26-2.06-1.78.22-3.56.44-5.33.68zM799.76 542.02c24.62-25.08 49.42-49.98 74.02-75.08 4.73 13.07 8.59 26.52 11.26 40.16-28.21 13.2-56.16 26.96-84.33 40.24-.31-1.78-.63-3.56-.95-5.32z"/><path d="M571.62 471.63c1.18-.43 4.03-1.97 3.91.53-1.16 1.84-3.75 1.88-5.6 2.75-6.26 1.58-10.31 7.03-15.87 9.93 4.21-6.23 10.95-10.02 17.56-13.21zM426.94 487.8c1.49-.82 5-1.79 3.89 1.12-3.6 1.89-7.89 2.31-11.19 4.79-3.33 2.4-6.43 5.12-9.93 7.28 3.9-6.34 10.77-9.95 17.23-13.19zM456.98 507.85l1.01-.02c-.03 2.73-.13 5.47-.46 8.19-.35-2.71-.48-5.45-.55-8.17zM691.18 533.44c.34.07 1.02.23 1.36.31.14 2.4.29 4.76-1.92 6.29.1-2.16-.84-4.74.56-6.6zM575.1 540.94c1.47-2.62 2.93-5.46 5.6-7.06-1.55 2.59-3.33 5.05-5.6 7.06zM803.81 575.48c28.85-13.22 57.7-26.46 86.5-39.79 3.08 18.19 4.05 36.69 4.2 55.12-30.1.01-60.21-.01-90.31.01 0-3.74-.06-7.47-.18-11.2l-.21-4.14zM564.81 545.9c1.59-1.27 3.39-2.23 5.27-3.01-1.4 1.55-2.93 3.38-5.27 3.01zM462.65 543.83c1.96 1.48 2.58 3.89 3.15 6.15-2.97-.13-2.9-4.03-3.15-6.15zM430.95 556.91c1.11-2.71 2.73-5.25 5.14-6.99-1.36 2.57-3.1 4.93-5.14 6.99zM471.48 549.77c2.16 1.14 4.2 2.5 6.41 3.58 2.65 1.35 5.79.93 8.51 2.1-4.09 1.04-8.36-.24-12.06-1.99-1.58-.64-2.22-2.27-2.86-3.69zM552.61 555.74c2.57-2.85 7.15-2.32 10.62-3.47-2.07 3.36-7.14 2.77-10.62 3.47zM424.58 559.24c1.21-.48 1.11.91.22 1.23-.99.71-2.26 2.26-3.61 1.52-.36-1.74 2.1-2.4 3.39-2.75zM407.61 571.71c3.21-2.49 7.68-2.32 11.47-3.42-.32.94-.96 1.54-1.91 1.79-3.06 1.11-6.31 1.63-9.56 1.63zM770.8 590.7c5.85-2.7 11.67-5.45 17.58-8 .06 2.7.12 5.4.13 8.12-5.91-.02-11.81.08-17.71-.12z"/></g><g fill="#fe7300"><path d="M453.81 346.79c72.87-27.3 158.16-19.9 224.59 20.92-1.11-.13-2.2-.25-3.29-.35-3.49 3.49-7 6.95-10.37 10.55-34.87-19.74-74.63-30.8-114.71-31.59-42.08-.97-84.41 9.1-121.39 29.25-5.4 2.89-10.57 6.16-15.87 9.21-7.91-2.05-16.27.4-24.12-2.24 19.75-15.11 41.87-27.07 65.16-35.75zM707.12 637.04c2.22-4.76 4.68-9.66 8.82-13.05-3 4.31-5.71 8.82-8.82 13.05z"/></g><path d="M970.36 331.77c6.2 5.18 12.17 10.61 18.25 15.92-37.95 38.34-75.81 76.77-113.73 115.14-1.42.96-1.44 2.6-1.1 4.11-24.6 25.1-49.4 50-74.02 75.08-.07-.4-.22-1.19-.3-1.58a260.14 260.14 0 0 0-5.57-23.08c23.53-25.03 46.83-50.29 70.49-75.2 1.35.13 2.88.35 3.72-1.01 34.1-36.45 68.23-72.87 102.26-109.38zM684.06 436.35c4.66-1.09 9.37-1.98 14.09-2.87.62 2.55 2.96 3.15 5.29 3.14 1.37 2.21 3.58 4.58 2.53 7.39-1.33 4.52-.35 9.3-1.57 13.83-3.65 15.87-2.84 32.26-2.11 48.4.39.43 1.17 1.31 1.56 1.74-1.29 3.85-.43 7.79.4 11.62.57 2-.86 3.67-1.67 5.35.27 2.78 1.87 5.95-.09 8.45-2.17 3.3-4.02 6.84-4.71 10.77-3.65.77-7.26-.06-10.72-1.19.26-2.72.53-5.43.86-8.14-1.68-1.39-3.38-2.74-5.1-4.06.11-15.6-.47-31.18-.92-46.76-.32-2.58 1.94-4.49 2.07-6.97.28-2-.94-3.68-1.75-5.37.65-.24 1.95-.71 2.6-.95-.31-.39-.94-1.16-1.26-1.55.78-6.7 1.53-13.4 2.22-20.1-.41-.47-1.21-1.41-1.61-1.88.44-.35 1.33-1.06 1.78-1.41.07-3.26-.31-6.54-1.89-9.44m1.32.66c.79 1.17 1.49 2.43 1.43 3.91.7 7.7-.77 15.36-1.59 22.99-.17 2.1-.84 4.33.25 6.32-.07-2.2.76-3.21 2.5-3.04.5 2.61.48 5.29.57 7.94-.53.07-1.59.2-2.12.26-.12-1.18-.22-2.36-.31-3.54l-2.4.12c1.17 1.72 1.28 3.8 1.4 5.82l2.45.28c.11 2.58.24 5.17.3 7.76-.54-.02-1.63-.07-2.17-.1-.14-2.33-.31-4.67-.53-6.99-1.33 1.84-2.71 3.87-2.18 6.28.82 11.72 1.16 23.46.65 35.21 1.66 1.36 3.35 2.7 5.08 4-.15 2.79-.41 5.57-.62 8.36.77.21 2.32.63 3.09.85-1.4 1.86-.46 4.44-.56 6.6 2.21-1.53 2.06-3.89 1.92-6.29 1.62.11 3.34-.01 5-.04.84-4.63 3.56-8.46 5.75-12.5.2-4.3-3.01-8.74-.65-12.83-.33-.35-.99-1.03-1.32-1.37-1.29-20.41-1.11-41.11 3.23-61.17.25-1.11.24-2.25.08-3.35.41-1.82-.87-3.29-1.66-4.77-2.35-.05-4.64-.78-5.78-3-3.93.79-7.86 1.63-11.81 2.29zM656.52 437.49c2.08.5 4.03-.59 5.96-1.21 1.14 3.19 1.54 7.05 4.48 9.2.43-2.62 2.05-4.56 4.85-4.5-1.41 35.56-4.63 71.05-8.76 106.39-.42-.21-1.27-.65-1.69-.87.1-3.72-.05-7.46-.88-11.1-2.62 3.47-2.07 8.3-3.44 12.34-1.6-.02-3.23.27-4.79-.1-1.38-2.09-1.55-4.73-2.8-6.9-.05 1.9-.01 3.81.04 5.73-1.52-.47-3.69-.43-3.72-2.53-1.08-13.52-.21-27.12 1.36-40.57-8.54 1.58-17.06 3.52-25.81 2.89-.75 12.55-1.26 25.2-3.63 37.57-1.85-.16-4.7 1.38-5.55-1.02-1.16-2.51-1.29-5.33-1.96-7.98-1.76 2.5-.8 5.83-1.19 8.69-.93-.61-1.85-1.2-2.78-1.78-.29-1.99-.04-3.96.73-5.81-.47-.37-1.42-1.11-1.9-1.48-.62.53-1.86 1.6-2.48 2.13-1.02-1.7-2.22-3.44-2.2-5.51-.41-19.03.19-38.14 2.61-57.05.42-4.33 2.04-8.56 1.51-12.95-.56-4.97 2.18-9.73 1.1-14.69-.31-1.51.59-2.86 1.1-4.19 2.43 2.02 5.58.59 8.41.86 2.71 1.69 1.11 6.7 4.78 7.16.37-2.43 3.04-5.29 4.93-2.26-.27 10.79-1.66 21.54-2.34 32.32 9.68-1.7 19.34-3.55 29.15-4.33-.2-2.48-.79-5.04-.03-7.48.83-2.47-.25-5.01-.56-7.46 1.16-2.62.34-5.47.78-8.19.6-3.11-.07-6.24-.38-9.33.62.1 1.87.31 2.49.41l.39-1.58c.5.67 1.51 2 2.01 2.67.05-2.39.07-4.77.08-7.16-1.16.17-3.49.5-4.65.66.95-1.79 3.15-1.14 4.78-.99m1.5 1.49c-.21 10.72-.35 21.46-1.37 32.15-.34 2.54-.41 5.43-2.47 7.27-.22-3.11-.01-6.22 0-9.32-2.01 1.93-1.14 5.01-1.8 7.48-1.63.81-3.57.67-5.33.97-8.67.69-17.15 2.71-25.74 3.99.64-10.87 1.9-21.7 2.49-32.57l-1.87-1.55c-.27 1.33-.52 2.67-.75 4.01-1.47-.32-2.94-.64-4.4-.96-.44-2.17-.96-4.32-1.67-6.42-1.76.08-3.52.19-5.26.3-.02 3.99 1.16 7.91.87 11.91-.38-.12-1.15-.37-1.53-.5-1.57-3.74-1.13-7.98-1.75-11.95-.08 5.18-1.33 10.21-2 15.32.11 1.22-.89 4.26 1.34 3.59 1.58-1.64-.09-4.46 1.35-5.89.42-.07 1.27-.21 1.7-.29.02 4.25 1.25 9.21-.93 13.03.39 4.42-.62 8.84-1.18 13.21-.55.18-1.64.54-2.18.72.03-3.14-.2-6.5 1.47-9.3-.78-3.12.82-6.08.56-9.19l-.72.28c-.34.03-1.02.08-1.37.1-3.33 17.67-3.85 35.72-4.29 53.64-.23 2.32.71 4.48 1.49 6.61 1.61-1.96 3.93-1.79 5.42.17-1.32 2.19-1.8 5.18.58 6.85.82-2.5-.89-6.68 1.58-8.1l.86.43c.79 2.91.93 6.06 2.56 8.7.94-.09 2.82-.29 3.77-.39 2.73-12.34 2.62-25.08 3.13-37.64 4.27-.15 8.56.17 12.81-.35 5.35-.91 10.65-2.12 16.03-2.85-1.27 12.51-3.06 25.01-3.1 37.6.1 2.29-.13 5.69 3.02 5.79l-.42-5.17c3.53-.32 2.45 4.49 3.88 6.67 1.41-.12 2.82-.23 4.24-.33.71-3.35 1.16-6.76 2.08-10.06 1.97-3.82.55-8.24 1.48-12.32.55-.12 1.66-.37 2.21-.5.15 3.29.03 6.59-.14 9.88-.28.39-.86 1.15-1.15 1.54.45 3.54 1.25 7.13.67 10.71l.87.03c3.44-31.35 6.53-62.77 7.62-94.3-1.63.77-2.4 2.15-2.32 4.12-4.74.96-5.37-5.26-6.59-8.46-1.26.44-2.5.89-3.75 1.34m-5.41 6.44c.29 2.98.7 5.98 1.96 8.74.4-2.99.65-5.98.82-8.98l-2.78.24m-.05 11.59c.52 1.11 1.04 2.23 1.58 3.35-.57.11-1.69.31-2.26.42.52 2.1 1.03 4.21 1.7 6.28.19-.09.58-.27.77-.37.32-3.2.23-6.42.48-9.62-.56-.02-1.7-.05-2.27-.06m-44.19 1.32c-.85 1.54-.88 3.7-.04 5.26 1.28-.77 1.37-4.52.04-5.26m-5.13 70.1c-.82.72-.88 3.21.55 3.13.81-.74.87-3.23-.55-3.13zM888.62 507.61c46.04-21.94 91.94-44.15 138-66.04 3.49 8.11 7.19 16.13 10.7 24.24-44.9 20.59-89.76 41.26-134.64 61.88-3.9 1.9-7.98 3.42-11.74 5.56-.16.61-.47 1.83-.63 2.44-28.8 13.33-57.65 26.57-86.5 39.79a276.35 276.35 0 0 0-3.1-28.14c28.17-13.28 56.12-27.04 84.33-40.24 1.12.61 2.33 1.4 3.58.51zM540.71 463.97c6-5.76 12.09-11.4 18.22-17.01 7.12 1.67 14.43.39 21.6-.12.49 2.98-2.68 2.23-4.57 2.67 4.95.43 10.55.47 14.39 4.1 1.47 1.03 1.33 2.95 1.68 4.52-1.41.12-2.8.26-4.18.42 2.17.38 4.36.65 6.57.91 0 .48-.01 1.44-.01 1.92-1.81.22-3.63.43-5.42.66.48.48 1.45 1.42 1.94 1.89-.03 1.32-.05 2.65-.06 3.99-1.92.15-3.83.32-5.74.49.01.31.02.95.03 1.26 3.07-.07 6.16-.05 9.17.67-2.79.92-5.71 1.25-8.56 1.91 1.66.6 3.61.89 4.71 2.45-10.3 1.39-20.38 5.01-28.61 11.47 12.26 3.44 23.51 10.5 31.63 20.33 2.3 3.23-1.93 6.98-.68 10.48 1.02 2.64-.29 5.34-1.14 7.83-3.65 9.19-10.64 16.55-18.09 22.81-2.7 2.38-6.57 2.21-9.56 4.05l3.31.64c-3.6 3.21-8.29 4.62-12.75 6.18-3.15 1.08-6.33 2.18-9.66 2.47.64-3.37 4.72-1.96 7.01-3.39-3.14-.54-6.49-.54-9.31-2.22-3.08-1.82-5.72-4.28-8.7-6.24-3.05-2.02-3.61-5.9-4.17-9.22.75-.64 1.51-1.27 2.27-1.89-1.14-3.15-4.22-7.97-.27-10.26 2.5-3.03 5.39 1.66 8.35.19 10.47-2.96 21.99-6.25 29.21-14.95-4.34-1.43-8.71-2.86-13.23-3.55-1.45-.42-2.83.04-4.1.7-3.51-.78-6.96-1.77-10.41-2.73.11.78.33 2.34.43 3.12-5.64-3.25-11.82-6.37-15.67-11.82-1.99-2.49.46-5.28 1.25-7.72-.98-1.89-3.12-3.97-1.83-6.22 1.99-4.66 4.17-9.24 6.17-13.89 1.32-3.37 4.52-5.36 7.03-7.77.44.21 1.31.65 1.75.87m-1.08 2.46c-.31-.36-.94-1.07-1.26-1.43-2.67 2.25-5.22 4.77-6.29 8.2-1.67 4.65-4.77 8.98-5.55 13.81 3.2 5.98 9.67 9.31 15.45 12.38-.46-.72-1.38-2.16-1.83-2.88 4.98.56 9.74 3.56 14.83 2.21 6.44.52 12.6 2.85 18.65 5.02-.06 5.47-2.88 10.52-7.18 13.81-7.67 5.99-17.13 9.1-26.43 11.51-2.21.8-4.25-.53-6.17-1.42-1.05.77-2.09 1.55-3.12 2.34.49 3.25 1.19 7.06 4.29 8.88 3.43 2.06 6.15 5.25 9.95 6.7 2.48 1.03 5.21.96 7.84 1.22-.84 2.95-4.35 2.03-6.59 2.63.08.27.22.81.3 1.08 6.67-2.32 13.72-3.86 19.78-7.64-.73-.73-1.45-1.46-2.15-2.19 3.22-1.24 7.07-1.31 9.7-3.8 8.97-7.54 17.34-17.02 19.52-28.91-9.92-12.25-24.52-20.24-40.09-22.43l-.24-1.45c8.27-9.95 20.22-16.9 32.99-19.11 1.2-.21 2.44-.48 3.39-1.32-.91-.12-2.73-.35-3.64-.47.42-3.5 4.95-1.87 7.4-2.78-2.87-.23-5.74-.25-8.61-.33-.32-3.58 4.25-2.04 6.37-2.83-.19-.56-.58-1.67-.78-2.23-4.9-5.08-12.7-4.27-19.11-3.87-.04-.61-.13-1.81-.17-2.41-3.93.24-7.89.18-11.77-.54-6.46 6.12-13.05 12.1-19.48 18.25m31.99 5.2c-6.61 3.19-13.35 6.98-17.56 13.21 5.56-2.9 9.61-8.35 15.87-9.93 1.85-.87 4.44-.91 5.6-2.75.12-2.5-2.73-.96-3.91-.53m3.48 69.31c2.27-2.01 4.05-4.47 5.6-7.06-2.67 1.6-4.13 4.44-5.6 7.06m-10.29 4.96c2.34.37 3.87-1.46 5.27-3.01-1.88.78-3.68 1.74-5.27 3.01m-12.2 9.84c3.48-.7 8.55-.11 10.62-3.47-3.47 1.15-8.05.62-10.62 3.47zM505.63 460.52c.69-2.75 3.36-4.11 6-4.27 1.41 1.22 2.37 2.86 3.48 4.35 2.17-.48 4.31-.05 6.33.81.88 27.54 2.14 55.07 3.03 82.6-.59 5.18-.8 10.39-1.44 15.56-2.71.52-4.62 2.47-4.56 5.32-1.58.2-3.15.39-4.71.59-.07-3.7.17-7.41-.16-11.09-.53-.18-1.6-.55-2.13-.74.15 2.45.49 4.89.46 7.36-.65 1.46-2.05 2.4-3.1 3.57-.04-3.75-.68-7.58.27-11.25.88-.76 1.74-1.55 2.57-2.37.11-2.5-.3-4.98-.49-7.46 1.13-.09 2.27-.17 3.42-.24.04 3.8.08 7.6.07 11.41 1.09-.09 2.2-.16 3.31-.23.57-2.76 2.41-4.7 5.03-5.65.76-5.57.14-11.18-.01-16.77-.86-23.21-1.81-46.42-2.61-69.63-1.19-.43-2.37-.86-3.55-1.27-.24 2.63-.24 5.66-3.06 6.92.11-3.77.99-8.26-2.66-10.76-2.97.29-4.43 2.73-4.87 5.43l-1.48-.08c-.58-1.57-1.17-3.13-1.77-4.68-.86.9-1.72 1.8-2.56 2.72 1.15 9.38 2.09 18.79 3.21 28.18.27 4.06.99 8.8-1.87 12.15a5100.9 5100.9 0 0 0-23.33 31.4c-1.33-.85-2.93-1.53-3.6-3.06-2.62-5.01-3.52-10.74-3.65-16.34-.47-15.16 1.74-30.22 4.1-45.15.63-2.04-1.05-3.46-2.44-4.57-.39 2.3-.68 4.63-.98 6.95-1.14-.33-2.27-.66-3.39-1 .46-3.51 1.01-7.41-2.41-9.68-5.07 4.58-5.61 11.73-6.42 18.07-1.14.7-2.26 1.42-3.38 2.13.38-1 1.13-2.98 1.51-3.97.02-.51.08-1.53.11-2.03 3.11-4.46 2.16-11.46 7.41-14.42 1.43-1.18 2.68.68 3.55 1.61 2.55 2.24-.61 6.23 1.93 8.46.36-2.1.51-4.24 1.06-6.3l3.18-.4c.68 1.85 1.89 3.72 1.31 5.77-1.18 4.83-.5 9.85-1.59 14.69-2.04 12.12-3.56 24.55-1.84 36.81.87 4.01 1.74 8.46 5.04 11.24 8.19-11.06 16.42-22.09 24.61-33.15-.81-8.39-1.92-16.75-2.72-25.14.3-4.2.27-8.4-.5-12.54.92-1.15 1.87-2.29 2.81-3.43 1.61.69 2.67 2.05 3.48 3.57z"/><path d="m686.78 455.87 1.46-.66c1.18 2.93.71 6.24 1.02 9.34-.54.08-1.63.23-2.17.3-.23-2.99-.66-6-.31-8.98zM571.26 461.25c1.49-.79 3.17-1 4.8-1.32.07.84.2 2.5.26 3.33-4.44 1.85-9.46 2.68-13.15 5.99-5.94 4.21-11.33 9.3-17.75 12.75.27-2.72 2.37-4.52 4.2-6.28 6.35-5.98 13.88-10.56 21.64-14.47zM453.93 473.09c.55-4.05.89-9.1 4.81-11.43.35 2.63 2.15 6.25-1.64 7.11l1.1 2.03c-.06.36-.17 1.08-.23 1.44l-.03.16c-.57-1-1.72-3-2.29-3.99-1.79 11.77-1.67 23.73-1.71 35.61.13 5.99-.49 12.15 1.47 17.93 2.37 7.87 4.78 16.07 10.03 22.57 2.24 2.69 6.02 5.57 9.55 3.35 2.98.19 5.94.88 8.93.78 7.16-3.27 13.39-8.39 20.65-11.45 1.15 2.14 2.42 4.23 4.95 4.9.07 3.47.23 6.97-.3 10.42-2.97-.01-4.38-2.28-5.16-4.78-6.84 3.64-13.29 7.99-20.15 11.58-3.05.12-6.06-.6-9.09-.88-2.18 2.07-5.33.59-7.42-.87-5.03-3.96-7.58-10.11-9.84-15.91-2.1-6.39-4.76-12.85-4.49-19.69-.13-16.29-.69-32.64.86-48.88m3.43-8.18c-.2.48-.6 1.43-.8 1.9 1.34 1.12 2.64-1.91.8-1.9m5.29 78.92c.25 2.12.18 6.02 3.15 6.15-.57-2.26-1.19-4.67-3.15-6.15m8.83 5.94c.64 1.42 1.28 3.05 2.86 3.69 3.7 1.75 7.97 3.03 12.06 1.99-2.72-1.17-5.86-.75-8.51-2.1-2.21-1.08-4.25-2.44-6.41-3.58zM414.31 463.07c7.23 1.65 14.61.26 21.91-.05.13 3.07-3.32 2-5.29 2.48 5.4.5 11.75.5 15.64 4.92 1.47 1.39.39 3.4-.31 4.87l3.65.08c-.03.56-.1 1.66-.13 2.21-1.78.14-3.56.28-5.33.41 2.01 1.4 2.1 3.69 2.07 5.93-2.24.35-4.78.04-6.69 1.48 3.21.42 6.45.39 9.68.63-2.06 2.11-5.48 1.2-8.07 2.3 1.62.62 3.27 1.26 4.86 1.98-2.82 1.06-5.8 1.48-8.72 2.14-7.23 1.82-14.12 5.11-19.98 9.74 12.4 3.81 24.01 10.88 32.02 21.2.39 2.97-1.09 5.8-1.93 8.59.35.52 1.06 1.55 1.41 2.07-2.04 12.08-10.57 21.69-19.62 29.35-2.73 2.59-6.73 2.55-9.95 4.24.83.18 2.47.55 3.3.74-4.05 3.79-9.67 4.82-14.57 7.04-2.22-2.97-6.21-1.99-9.19-3.53-3.47-1.67-6.19-4.49-9.4-6.56-3.24-1.97-3.81-5.99-4.38-9.4l2.32-1.88c-1.18-2.71-2.7-5.6-2.12-8.64 1.08-1.13 2.34-2.11 3.75-2.8 2.23.63 4.39 2.34 6.79 1.33 10.44-2.84 21.26-6.54 28.96-14.52-4.13-1.96-8.62-3.04-13.09-3.87-1.65-.46-3.26.13-4.82.57-3.53-.81-7.02-1.76-10.47-2.84.33 1.07.65 2.16.98 3.26-5.67-3.06-11.66-6.28-15.59-11.53-2.12-2.48.17-5.38 1.09-7.84-.86-1.89-2.93-3.86-1.89-6.07 1.93-4.68 4.17-9.23 6.14-13.89 1.82-3.65 5.04-7.62 9.4-7.9 6.04-5.19 11.71-10.84 17.57-16.24m-18.55 18.81c-2.77-1.19-4.64 1.83-6.27 3.56-2.61 5.15-4.83 10.51-7.17 15.79-1.06 1.79.56 3.44 1.59 4.79 3.74 4.07 8.65 6.81 13.39 9.55-.36-.76-1.06-2.29-1.42-3.05 3.43.75 6.77 1.86 10.21 2.6 1.95.5 3.89-.7 5.86-.25 5.91.94 11.61 2.89 17.21 4.95-.17 4.34-1.73 8.64-4.89 11.71-6.17 6.14-14.55 9.29-22.67 11.94-3.92 1.14-8.42 3.24-12.04.24-1.13.76-2.24 1.52-3.34 2.3.58 3.15 1.08 6.88 4.07 8.73 2.82 1.81 5.27 4.14 8.12 5.91 2.9 1.82 6.43 1.8 9.65 2.61-.94.69-1.87 1.4-2.8 2.12l-3.11-.2c0 .34.01 1.02.01 1.36 6.7-1.77 13.36-4.11 19.46-7.45-.75-.78-1.49-1.56-2.19-2.36 3.44-1.18 7.49-1.31 10.21-4 8.84-7.54 17.19-16.95 19.23-28.78-9.96-12.13-24.44-20.18-39.99-22.31l-.2-1.69c9.16-10.91 22.6-17.77 36.65-19.69-1.22-.56-2.55-.87-3.85-1.08.16-3.2 4.54-1.87 6.69-2.82-2.68-.76-7.39 1.46-8.3-2.16 1.92-.32 3.88-.48 5.79-.88 1.94-1.33-.66-2.79-1.61-3.73-5.16-3.38-11.65-2.75-17.5-2.38-.03-.61-.1-1.83-.14-2.44-3.9.3-7.85.24-11.69-.53-6.34 5.85-12.63 11.77-18.96 17.64m31.18 5.92c-6.46 3.24-13.33 6.85-17.23 13.19 3.5-2.16 6.6-4.88 9.93-7.28 3.3-2.48 7.59-2.9 11.19-4.79 1.11-2.91-2.4-1.94-3.89-1.12m4.01 69.11c2.04-2.06 3.78-4.42 5.14-6.99-2.41 1.74-4.03 4.28-5.14 6.99m-6.37 2.33c-1.29.35-3.75 1.01-3.39 2.75 1.35.74 2.62-.81 3.61-1.52.89-.32.99-1.71-.22-1.23m-16.97 12.47c3.25 0 6.5-.52 9.56-1.63.95-.25 1.59-.85 1.91-1.79-3.79 1.1-8.26.93-11.47 3.42z"/><path d="M421.96 479.88c3.05-1.67 6.1-3.62 9.68-3.81l.09 3.39c-4.53 1.7-9.51 2.68-13.22 6.02-5.89 4.14-11.2 9.23-17.58 12.63.34-1.27.52-2.68 1.58-3.59 5.5-6.04 12.35-10.68 19.45-14.64zM495.37 512.01c.63-.16 1.88-.48 2.5-.65-2.49 3.82-4.97 7.76-8.16 11.02l-1.99.59c2.06-3.97 4.87-7.49 7.65-10.96zM557.2 526.9c1.31-1.46 2.39-3.52 4.53-3.8.59 2.25-2.34 4.38-4.53 3.8zM574.55 531.18c2.02-2.8 3.28-7.61 7.32-7.83-2.04 2.84-3.36 7.39-7.32 7.83zM565.33 534.6c2.26-1.13 4.51-2.29 6.82-3.3-1.12 2.82-3.84 4.85-6.72 5.64-.03-.59-.08-1.76-.1-2.34zM729.42 586.28c17.29-18.45 34.55-36.91 51.8-55.39.82 3.33 1.6 6.68 2.3 10.05 2.58 12.54 4.14 25.28 4.73 38.06.03 1.22.09 2.46.13 3.7-5.91 2.55-11.73 5.3-17.58 8 5.9.2 11.8.1 17.71.12-.02 8.3-.48 16.61-1.31 24.88-.94 8.98-2.38 17.92-4.29 26.75-3.85 17.71-9.74 34.97-17.42 51.38-4.62 9.82-9.9 19.33-15.76 28.46-7.43 11.5-15.83 22.36-25.03 32.49-10.36 11.3-21.77 21.63-34.01 30.86-17.53 13.14-36.86 23.82-57.2 31.93-48.28 18.86-102.53 21.81-152.57 8.32-24.15-6.57-47.28-16.82-68.33-30.36-15.66-10.17-30.25-22.01-43.19-35.47 5.23 1.91 10.16 4.77 15.74 5.64 3.89.75 7.89.57 11.78 1.35 3.51 1.3 6.02 4.98 10.03 4.98 6.78-.12 13.45-1.78 19.87-3.88 1.15 4.67 3.11 10.29 8.5 11.34 6.21.68 12.43 3.42 18.71 1.73 3.91-.68 8.09-2.59 9.54-6.59 1.74-4.96 6.41-8.32 7.42-13.59 1.78-5.23.69-10.74-.4-15.97-1.06-5.01.9-10.03.14-15.05-.31-2.72-.52-5.44-.61-8.16 5.18 8.43 9.85 18.23 19.17 22.83 4.69 2.6 10.21 2.82 15.41 1.92 5.06-.86 10.66 1.3 15.28-1.66 4.68-2.86 9.08-6.14 13.87-8.81.58 5.53 1.47 12.22 7.14 14.9 4.86 1.76 10.23 1.74 15.34 1.46 4-.58 8.82-1.23 11.19-4.95 2.61-4.14 6.49-7.47 8.09-12.21 5.13-1.59 10.48-2.09 15.77-2.84 4.21-.48 8.75-2.44 10.39-6.64 1.46-4.01 2.43-8.17 3.77-12.22 1.46-4.32 1.28-9 2.71-13.31 4.37-3.51 9.8-5.47 15.09-7.19 1.58 4.4 3.17 8.84 5.75 12.78 3.08 4.69 3.94 10.43 6.98 15.13 2.17 3.28 6.98 3.47 8.92 6.97 2.56 4.2 4.33 9.62 9.26 11.66 4.66 2.16 9.86.16 13.76-2.64 4.05-2.94 10.09-3.77 12.09-8.94 2.61-4.99.26-10.54-2.14-15.09-2.4-4.16-1.57-9.1-2.39-13.63-.87-6.02-3.84-11.59-4.01-17.73-.01-5.22-2.78-9.97-2.54-15.22 2.92-2.14 6.16-4.19 7.96-7.45 1.56-3.03 1.41-6.54 1.41-9.85 4.3 6.03 6.58 13.47 6.52 20.85-1.27 8.05-1.15 16.26-.39 24.35.26 4.5 4.59 7.28 5.22 11.64.64 3.29 1.2 6.99 4.03 9.21 3.85 3.56 9.41 2.93 14.24 3.08 4.14.05 8.95.06 11.88-3.4 3.36-3.95 5.04-9 7.4-13.55 2.52-4.47.38-9.56.69-14.33.32-6.71-.6-13.64 1.78-20.08 6.45-19.58 19.59-35.94 32.38-51.75 4.22-4.86 3.39-12.05 1.24-17.64-2.47-5.43-8.99-6.11-13.96-7.93-6.41-2.31-13.13-4.07-20-3.3zM462.43 533.78c3.42-.58 3.61 4.05 4.1 6.46-.51.09-1.55.28-2.06.37-1.07-2.13-2.45-4.33-2.04-6.83zM602.31 536.67c2.09 1.6 1.25 4.61 1.64 6.87-2.31-1.48-1.37-4.6-1.64-6.87zM412.75 543.2c1.3-1.83 2.6-4.12 5.2-3.94-1.12 1.99-2.53 4.24-5.2 3.94zM434.67 540.4c.59-.48 2.13-2.03 2.32-.25-1.85 2.58-3.18 7-6.95 6.9 1.43-2.29 2.88-4.59 4.63-6.65zM471.39 538.43c4.57 3.4 9.74 6.15 15.62 5.93-.61 3.43-4.77 1.79-7.12 1.47-3.8-.83-9.04-2.51-8.5-7.4zM552.23 544.85c2.92-2.2 7.11-1.85 10.47-3.27.74.51 1.46 1.03 2.18 1.59-3.77 1.95-7.98 3.03-12.23 3.01l-.42-1.33zM420.68 550.99c2.24-1.52 4.72-2.65 7.26-3.6-1.48 2.52-3.84 4.85-6.73 5.55-.13-.49-.4-1.46-.53-1.95zM408.38 560.25c3.77-1.26 7.71-1.88 11.6-2.66-.13.57-.38 1.73-.51 2.31-3.82 1.61-7.94 2.25-12.05 2.52.24-.54.72-1.63.96-2.17z"/><path d="M197.68 590.81c29.06.01 58.12 0 87.18.01.02 5.05.15 10.11.46 15.15 1.58 26.65 7.24 53.05 16.84 77.96 3.78 9.67 8.08 19.14 12.97 28.3 7.61 14.24 16.54 27.79 26.67 40.37 14.9 18.49 32.25 35.01 51.54 48.87 15.02 10.76 31.16 20.01 48.16 27.27 71.01 31.03 156.04 27.85 224.37-8.8 17.02-8.92 32.94-19.89 47.52-32.38 10.9-9.34 21.02-19.6 30.26-30.59a256.76 256.76 0 0 0 23.96-33.6c5.32-8.83 10.05-18.01 14.27-27.41 7.51-16.85 13.17-34.52 16.92-52.57 1.82-8.78 3.15-17.66 4.08-26.57.85-8.64 1.3-17.32 1.32-26 30.1-.02 60.21 0 90.31-.01.2 58.32-12.93 116.7-38.64 169.08-29.04 59.49-74.33 111.18-130.32 146.67-5.1 3.38-10.56 6.19-15.65 9.56-.66 18.78-.08 37.64-.28 56.45-109.03-.04-218.05.05-327.08-.05.03-18.21.05-36.42 0-54.63.32-1.64-1.1-2.53-2.33-3.16-52.2-29.77-96.15-73.42-127.37-124.69-36.45-59.57-55.46-129.45-55.16-199.23z"/><path d="M300.56 590.82c103.97.03 207.94-.09 311.92.06-7.54 2.32-14.55 6.36-22.49 7.24-4.18.52-8.06 3.36-9.24 7.49-2.9 10.49-3.51 21.52-7.15 31.81-.53 5.32-.29 10.9-3.16 15.66-.88-10.37-1.59-20.76-2.42-31.13-.29-3.61-.99-7.61-3.87-10.1-3.18-2.67-7.62-2.81-11.06-5.01-2.76-1.74-5.57-4.08-9.06-3.55-4.37.64-8.63 1.9-13.07 2.08-5.35.2-8.94 4.88-11.44 9.1-2 3.18-1.37 7.06-.9 10.58 1.76 11.01 3.33 22.05 5.08 33.06.28 2.66.97 5.65-.57 8.09-3.07 5.12-6.84 9.78-10.04 14.82-1.45 2.33-3.21 4.45-5.08 6.47-1.34-18.52.26-37.1 2.73-55.46.99-5.43-1.6-10.71-4.97-14.78-2.13-2.67-5.69-3.11-8.62-4.43-3.38-1.28-6.28-4.19-10.13-3.89-4.6-.28-7.96 3.33-12.13 4.56-2.93.92-6.24 1.6-8.2 4.22-5.37 6.84-5.28 15.93-6.6 24.12-2.54-4.67-2.87-10.39-6.53-14.45-5.1-5.88-12.56-9.1-19.99-10.89-7-1.58-14.34-2.94-21.45-1.18-10.41 2.29-21.66 4.65-29.64 12.25-6.78 7.04-13.39 14.43-18.17 23.01-2.46 4.35-6.49 7.8-7.81 12.76-3.97 13.47-7.36 27.53-5.87 41.67.51 10.23 2.34 20.36 5.13 30.21 1.44 5.29 3.8 10.28 5.12 15.62-2.64-3.04-5.27-6.09-7.74-9.26a246.524 246.524 0 0 1-21.87-32.71c-5.36-9.67-10.11-19.68-14.12-29.99-9.13-23.45-14.63-48.33-16.13-73.45-.29-4.87-.46-9.73-.46-14.6zM616.56 590.87c36.05-.03 72.1-.21 108.14.09-5.12 7.45-11.27 14.18-15.78 22.04-1.09 1.75-2.58 3.19-4.01 4.66-3.15-3.51-4.84-7.89-6.34-12.27-1.35-4.03-5.4-6.64-9.61-6.46-5.49 0-10.48-3.63-16.02-2.31-6.93.56-12.89 7.46-11.74 14.46.41 4.38.56 8.99 2.68 12.97 3.03 5.83 7.06 11.13 9.56 17.26-3.4-.72-6.4-2.47-9.06-4.65-2.8-2.37-6.7-1.76-10.09-2.02-4.84-9.3-8.85-19.01-13.6-28.35-2.15-4.24-3.55-9.48-8.08-11.83-3.38-2.11-7.43-.57-11.1-1.15-1.75-.61-3.31-1.63-4.95-2.44zM725.01 611.21c3.08-3.36 5.88-6.97 9.23-10.07-.61 5.63-5.25 9.54-7.79 14.33-.15-.71-.47-2.13-.63-2.84-2.17 1.91-3.98 4.45-6.83 5.39.86-2.56 2.48-4.74 4.29-6.7.36.06 1.07.16 1.43.22l.3-.33z"/><path d="M409.64 671.45c2.69-4.38 6.07-9.32 11.35-10.6 5.4.29 10.1 3.59 14.97 5.71-8.38 3.32-17.29 5.1-26.32 4.89zM525.68 687.56c.78-1.47 2.58-1.59 3.93-2.22a83.371 83.371 0 0 1-3.24 5.26c-2.15 3.08-4.16 6.26-6.26 9.38-.77.19-2.29.58-3.05.78.28-.52.83-1.55 1.11-2.07 2.53-3.7 4.96-7.46 7.51-11.13zM398.21 695.74c.88 1.03 2.48 1.73 2.65 3.22-.21 3.65-1.31 7.47.16 11.01 1.21 3.82 4.71 6.09 7.74 8.38-1.2 1.96-2.52 3.86-3.9 5.7-5.98-2.59-8.9-9.47-8.41-15.7.33-4.24.83-8.46 1.76-12.61z"/><path fill="#fd7f01" d="M675.11 367.36c1.09.1 2.18.22 3.29.35 20.99 12.56 40.14 28.22 56.73 46.18-4 .1-8.04-.17-12.01.39-2.44.36-3.39 3.05-4.82 4.72-15.9-16.02-33.91-29.97-53.56-41.09 3.37-3.6 6.88-7.06 10.37-10.55z"/><path fill="#fd8201" d="M343.64 425.72c13.12-16.2 28.39-30.62 45.01-43.18 7.85 2.64 16.21.19 24.12 2.24-18.52 12.08-35.49 26.52-50.24 42.99-6.15-1.75-12.55-1.91-18.89-2.05z"/><g fill="#fd8c02"><path d="M718.3 419c1.43-1.67 2.38-4.36 4.82-4.72 3.97-.56 8.01-.29 12.01-.39 14.7 15.95 27.6 33.61 37.9 52.71-6.03-.23-9.15 5.41-13.12 8.91-11.15-20.65-25.09-39.82-41.61-56.51zM318.02 463.04c7.38-13.19 16-25.67 25.62-37.32 6.34.14 12.74.3 18.89 2.05-9.97 11.17-18.88 23.28-26.7 36.04-5.83-1.55-11.87-.64-17.81-.77z"/></g><g fill="#f8f50a"><path d="M685.38 437.01c3.95-.66 7.88-1.5 11.81-2.29 1.14 2.22 3.43 2.95 5.78 3 .79 1.48 2.07 2.95 1.66 4.77.16 1.1.17 2.24-.08 3.35-4.34 20.06-4.52 40.76-3.23 61.17.33.34.99 1.02 1.32 1.37-2.36 4.09.85 8.53.65 12.83-2.19 4.04-4.91 7.87-5.75 12.5-1.66.03-3.38.15-5 .04-.34-.08-1.02-.24-1.36-.31-.77-.22-2.32-.64-3.09-.85.21-2.79.47-5.57.62-8.36-1.73-1.3-3.42-2.64-5.08-4 .51-11.75.17-23.49-.65-35.21-.53-2.41.85-4.44 2.18-6.28.22 2.32.39 4.66.53 6.99.54.03 1.63.08 2.17.1-.06-2.59-.19-5.18-.3-7.76l-2.45-.28c-.12-2.02-.23-4.1-1.4-5.82l2.4-.12c.09 1.18.19 2.36.31 3.54.53-.06 1.59-.19 2.12-.26-.09-2.65-.07-5.33-.57-7.94-1.74-.17-2.57.84-2.5 3.04-1.09-1.99-.42-4.22-.25-6.32.82-7.63 2.29-15.29 1.59-22.99.06-1.48-.64-2.74-1.43-3.91m1.4 18.86c-.35 2.98.08 5.99.31 8.98.54-.07 1.63-.22 2.17-.3-.31-3.1.16-6.41-1.02-9.34l-1.46.66m3.33 68.06c.11 2.36.25 4.72.49 7.07 1.07-1.05 2.13-2.11 3.2-3.16-.09-1.44-.18-2.87-.26-4.29-1.15.12-2.29.24-3.43.38zM658.02 438.98c1.25-.45 2.49-.9 3.75-1.34 1.22 3.2 1.85 9.42 6.59 8.46-.08-1.97.69-3.35 2.32-4.12-1.09 31.53-4.18 62.95-7.62 94.3l-.87-.03c.58-3.58-.22-7.17-.67-10.71.29-.39.87-1.15 1.15-1.54.17-3.29.29-6.59.14-9.88-.55.13-1.66.38-2.21.5-.93 4.08.49 8.5-1.48 12.32-.92 3.3-1.37 6.71-2.08 10.06-1.42.1-2.83.21-4.24.33-1.43-2.18-.35-6.99-3.88-6.67l.42 5.17c-3.15-.1-2.92-3.5-3.02-5.79.04-12.59 1.83-25.09 3.1-37.6-5.38.73-10.68 1.94-16.03 2.85-4.25.52-8.54.2-12.81.35-.51 12.56-.4 25.3-3.13 37.64-.95.1-2.83.3-3.77.39-1.63-2.64-1.77-5.79-2.56-8.7l-.86-.43c-2.47 1.42-.76 5.6-1.58 8.1-2.38-1.67-1.9-4.66-.58-6.85-1.49-1.96-3.81-2.13-5.42-.17-.78-2.13-1.72-4.29-1.49-6.61.44-17.92.96-35.97 4.29-53.64.35-.02 1.03-.07 1.37-.1l.72-.28c.26 3.11-1.34 6.07-.56 9.19-1.67 2.8-1.44 6.16-1.47 9.3.54-.18 1.63-.54 2.18-.72.56-4.37 1.57-8.79 1.18-13.21 2.18-3.82.95-8.78.93-13.03-.43.08-1.28.22-1.7.29-1.44 1.43.23 4.25-1.35 5.89-2.23.67-1.23-2.37-1.34-3.59.67-5.11 1.92-10.14 2-15.32.62 3.97.18 8.21 1.75 11.95.38.13 1.15.38 1.53.5.29-4-.89-7.92-.87-11.91 1.74-.11 3.5-.22 5.26-.3.71 2.1 1.23 4.25 1.67 6.42 1.46.32 2.93.64 4.4.96.23-1.34.48-2.68.75-4.01l1.87 1.55c-.59 10.87-1.85 21.7-2.49 32.57 8.59-1.28 17.07-3.3 25.74-3.99 1.76-.3 3.7-.16 5.33-.97.66-2.47-.21-5.55 1.8-7.48-.01 3.1-.22 6.21 0 9.32 2.06-1.84 2.13-4.73 2.47-7.27 1.02-10.69 1.16-21.43 1.37-32.15m-53.22 47.74c.18 1.94.38 3.89.61 5.84l2.27-.12c-.54-2.15.67-6.45-2.88-5.72m47.46 6.83c-.87 3.37.24 7.15-1.49 10.3.41 1.66-.49 5.65 2.62 4.37-.02-1.71-.17-3.42-.24-5.12 1.73-3.17 1.49-6.91 1.16-10.38-.51.21-1.54.62-2.05.83z"/><path d="m652.61 445.42 2.78-.24c-.17 3-.42 5.99-.82 8.98-1.26-2.76-1.67-5.76-1.96-8.74zM539.63 466.43c6.43-6.15 13.02-12.13 19.48-18.25 3.88.72 7.84.78 11.77.54.04.6.13 1.8.17 2.41 6.41-.4 14.21-1.21 19.11 3.87.2.56.59 1.67.78 2.23-2.12.79-6.69-.75-6.37 2.83 2.87.08 5.74.1 8.61.33-2.45.91-6.98-.72-7.4 2.78.91.12 2.73.35 3.64.47-.95.84-2.19 1.11-3.39 1.32-12.77 2.21-24.72 9.16-32.99 19.11l.24 1.45c15.57 2.19 30.17 10.18 40.09 22.43-2.18 11.89-10.55 21.37-19.52 28.91-2.63 2.49-6.48 2.56-9.7 3.8.7.73 1.42 1.46 2.15 2.19-6.06 3.78-13.11 5.32-19.78 7.64-.08-.27-.22-.81-.3-1.08 2.24-.6 5.75.32 6.59-2.63-2.63-.26-5.36-.19-7.84-1.22-3.8-1.45-6.52-4.64-9.95-6.7-3.1-1.82-3.8-5.63-4.29-8.88 1.03-.79 2.07-1.57 3.12-2.34 1.92.89 3.96 2.22 6.17 1.42 9.3-2.41 18.76-5.52 26.43-11.51 4.3-3.29 7.12-8.34 7.18-13.81-6.05-2.17-12.21-4.5-18.65-5.02-5.09 1.35-9.85-1.65-14.83-2.21.45.72 1.37 2.16 1.83 2.88-5.78-3.07-12.25-6.4-15.45-12.38.78-4.83 3.88-9.16 5.55-13.81 1.07-3.43 3.62-5.95 6.29-8.2.32.36.95 1.07 1.26 1.43m31.63-5.18c-7.76 3.91-15.29 8.49-21.64 14.47-1.83 1.76-3.93 3.56-4.2 6.28 6.42-3.45 11.81-8.54 17.75-12.75 3.69-3.31 8.71-4.14 13.15-5.99-.06-.83-.19-2.49-.26-3.33-1.63.32-3.31.53-4.8 1.32M557.2 526.9c2.19.58 5.12-1.55 4.53-3.8-2.14.28-3.22 2.34-4.53 3.8m17.35 4.28c3.96-.44 5.28-4.99 7.32-7.83-4.04.22-5.3 5.03-7.32 7.83m-9.22 3.42c.02.58.07 1.75.1 2.34 2.88-.79 5.6-2.82 6.72-5.64-2.31 1.01-4.56 2.17-6.82 3.3m-13.1 10.25.42 1.33c4.25.02 8.46-1.06 12.23-3.01-.72-.56-1.44-1.08-2.18-1.59-3.36 1.42-7.55 1.07-10.47 3.27zM506.25 462.71c.44-2.7 1.9-5.14 4.87-5.43 3.65 2.5 2.77 6.99 2.66 10.76 2.82-1.26 2.82-4.29 3.06-6.92 1.18.41 2.36.84 3.55 1.27.8 23.21 1.75 46.42 2.61 69.63.15 5.59.77 11.2.01 16.77-2.62.95-4.46 2.89-5.03 5.65-1.11.07-2.22.14-3.31.23.01-3.81-.03-7.61-.07-11.41-1.15.07-2.29.15-3.42.24.19 2.48.6 4.96.49 7.46-.83.82-1.69 1.61-2.57 2.37l.12-.81c.53-3.45.37-6.95.3-10.42-2.53-.67-3.8-2.76-4.95-4.9-7.26 3.06-13.49 8.18-20.65 11.45-2.99.1-5.95-.59-8.93-.78-3.53 2.22-7.31-.66-9.55-3.35-5.25-6.5-7.66-14.7-10.03-22.57-1.96-5.78-1.34-11.94-1.47-17.93.04-11.88-.08-23.84 1.71-35.61.57.99 1.72 2.99 2.29 3.99l.03-.16c-.02.38-.05 1.13-.07 1.51-.03.5-.09 1.52-.11 2.03-.38.99-1.13 2.97-1.51 3.97 1.12-.71 2.24-1.43 3.38-2.13.81-6.34 1.35-13.49 6.42-18.07 3.42 2.27 2.87 6.17 2.41 9.68 1.12.34 2.25.67 3.39 1 .3-2.32.59-4.65.98-6.95 1.39 1.11 3.07 2.53 2.44 4.57-2.36 14.93-4.57 29.99-4.1 45.15.13 5.6 1.03 11.33 3.65 16.34.67 1.53 2.27 2.21 3.6 3.06a5100.9 5100.9 0 0 1 23.33-31.4c2.86-3.35 2.14-8.09 1.87-12.15-1.12-9.39-2.06-18.8-3.21-28.18.84-.92 1.7-1.82 2.56-2.72.6 1.55 1.19 3.11 1.77 4.68l1.48.08m-51.08 19.09 2.09.5c.07 8.08-1.78 16.16-.53 24.21-1.73 3.55-.26 7.62.21 11.32.52.09 1.56.25 2.09.33.4-12.88-.96-25.84.66-38.66-1.58.59-4.91-.5-4.52 2.3m40.2 30.21c-2.78 3.47-5.59 6.99-7.65 10.96l1.99-.59c3.19-3.26 5.67-7.2 8.16-11.02-.62.17-1.87.49-2.5.65m-32.94 21.77c-.41 2.5.97 4.7 2.04 6.83.51-.09 1.55-.28 2.06-.37-.49-2.41-.68-7.04-4.1-6.46m8.96 4.65c-.54 4.89 4.7 6.57 8.5 7.4 2.35.32 6.51 1.96 7.12-1.47-5.88.22-11.05-2.53-15.62-5.93zM395.76 481.88c6.33-5.87 12.62-11.79 18.96-17.64 3.84.77 7.79.83 11.69.53.04.61.11 1.83.14 2.44 5.85-.37 12.34-1 17.5 2.38.95.94 3.55 2.4 1.61 3.73-1.91.4-3.87.56-5.79.88.91 3.62 5.62 1.4 8.3 2.16-2.15.95-6.53-.38-6.69 2.82 1.3.21 2.63.52 3.85 1.08-14.05 1.92-27.49 8.78-36.65 19.69l.2 1.69c15.55 2.13 30.03 10.18 39.99 22.31-2.04 11.83-10.39 21.24-19.23 28.78-2.72 2.69-6.77 2.82-10.21 4 .7.8 1.44 1.58 2.19 2.36-6.1 3.34-12.76 5.68-19.46 7.45 0-.34-.01-1.02-.01-1.36l3.11.2c.93-.72 1.86-1.43 2.8-2.12-3.22-.81-6.75-.79-9.65-2.61-2.85-1.77-5.3-4.1-8.12-5.91-2.99-1.85-3.49-5.58-4.07-8.73 1.1-.78 2.21-1.54 3.34-2.3 3.62 3 8.12.9 12.04-.24 8.12-2.65 16.5-5.8 22.67-11.94 3.16-3.07 4.72-7.37 4.89-11.71-5.6-2.06-11.3-4.01-17.21-4.95-1.97-.45-3.91.75-5.86.25-3.44-.74-6.78-1.85-10.21-2.6.36.76 1.06 2.29 1.42 3.05-4.74-2.74-9.65-5.48-13.39-9.55-1.03-1.35-2.65-3-1.59-4.79 2.34-5.28 4.56-10.64 7.17-15.79 1.63-1.73 3.5-4.75 6.27-3.56m26.2-2c-7.1 3.96-13.95 8.6-19.45 14.64-1.06.91-1.24 2.32-1.58 3.59 6.38-3.4 11.69-8.49 17.58-12.63 3.71-3.34 8.69-4.32 13.22-6.02l-.09-3.39c-3.58.19-6.63 2.14-9.68 3.81m-9.21 63.32c2.67.3 4.08-1.95 5.2-3.94-2.6-.18-3.9 2.11-5.2 3.94m21.92-2.8c-1.75 2.06-3.2 4.36-4.63 6.65 3.77.1 5.1-4.32 6.95-6.9-.19-1.78-1.73-.23-2.32.25m-13.99 10.59c.13.49.4 1.46.53 1.95 2.89-.7 5.25-3.03 6.73-5.55-2.54.95-5.02 2.08-7.26 3.6m-12.3 9.26c-.24.54-.72 1.63-.96 2.17 4.11-.27 8.23-.91 12.05-2.52.13-.58.38-1.74.51-2.31-3.89.78-7.83 1.4-11.6 2.66z"/></g><path fill="#777505" d="M651.74 438.48c1.16-.16 3.49-.49 4.65-.66a427.3 427.3 0 0 1-.08 7.16c-.5-.67-1.51-2-2.01-2.67-.91-1.25-1.72-2.54-2.56-3.83z"/><g fill="#f8eb09"><path d="M652.56 457.01c.57.01 1.71.04 2.27.06-.25 3.2-.16 6.42-.48 9.62-.19.1-.58.28-.77.37-.67-2.07-1.18-4.18-1.7-6.28.57-.11 1.69-.31 2.26-.42-.54-1.12-1.06-2.24-1.58-3.35zM633.49 817.57c20.34-8.11 39.67-18.79 57.2-31.93 7.55.97 15.34-.6 22.7 1.92-14.58 12.49-30.5 23.46-47.52 32.38-5.13-1.53-10.51-.48-15.73-1.29-5.52-.77-11.11-.65-16.65-1.08z"/></g><path fill="#5c0b0e" d="M608.37 458.33c1.33.74 1.24 4.49-.04 5.26-.84-1.56-.81-3.72.04-5.26z"/><path fill="#fc9503" d="M318.02 463.04c5.94.13 11.98-.78 17.81.77-6.21 10.21-11.58 20.91-16.27 31.89-2.07-.56-4.25-1.33-6.37-.55-3.47 1.06-7.11.96-10.67.63 4.32-11.29 9.54-22.23 15.5-32.74z"/><path fill="#dfdc09" d="M457.36 464.91c1.84-.01.54 3.02-.8 1.9.2-.47.6-1.42.8-1.9z"/><path fill="#fc9603" d="M759.91 475.51c3.97-3.5 7.09-9.14 13.12-8.91 5.38 10.02 10.23 20.34 14.22 31-1.53 1.35-2.94 2.89-4.72 3.92-3.31.84-7.61-.3-9.37 3.48-3.74-10.12-8.25-19.94-13.25-29.49z"/><path fill="#100203" d="M455.17 481.8c-.39-2.8 2.94-1.71 4.52-2.3-1.62 12.82-.26 25.78-.66 38.66-.53-.08-1.57-.24-2.09-.33-.47-3.7-1.94-7.77-.21-11.32-1.25-8.05.6-16.13.53-24.21l-2.09-.5m2.18 15.65c-.76 1.85-.88 4.26-.03 6.1 1.42-1.05 1.31-5.03.03-6.1m-.37 10.4c.07 2.72.2 5.46.55 8.17.33-2.72.43-5.46.46-8.19l-1.01.02z"/><path fill="#230406" d="M604.8 486.72c3.55-.73 2.34 3.57 2.88 5.72l-2.27.12c-.23-1.95-.43-3.9-.61-5.84z"/><path fill="#0b0901" d="M652.26 493.55c.51-.21 1.54-.62 2.05-.83.33 3.47.57 7.21-1.16 10.38.07 1.7.22 3.41.24 5.12-3.11 1.28-2.21-2.71-2.62-4.37 1.73-3.15.62-6.93 1.49-10.3z"/><path fill="#fc9f04" d="M313.19 495.15c2.12-.78 4.3-.01 6.37.55-5.06 11.83-8.95 24.13-12.09 36.6-5.26-.54-10.5-1.22-15.77-1.64 2.75-11.87 6.34-23.55 10.82-34.88 3.56.33 7.2.43 10.67-.63z"/><path fill="#630c0f" d="M457.35 497.45c1.28 1.07 1.39 5.05-.03 6.1-.85-1.84-.73-4.25.03-6.1z"/><path fill="#fca104" d="M782.53 501.52c1.78-1.03 3.19-2.57 4.72-3.92 2.45 6.5 4.68 13.09 6.64 19.76 2.21 7.6 4.06 15.3 5.57 23.08-5.29.76-10.63.65-15.94.5-.7-3.37-1.48-6.72-2.3-10.05-2.2-8.77-4.81-17.45-8.06-25.89 1.76-3.78 6.06-2.64 9.37-3.48z"/><path fill="#000001" d="M690.11 523.93c1.14-.14 2.28-.26 3.43-.38.08 1.42.17 2.85.26 4.29-1.07 1.05-2.13 2.11-3.2 3.16-.24-2.35-.38-4.71-.49-7.07z"/><path fill="#242402" d="M603.24 528.43c1.42-.1 1.36 2.39.55 3.13-1.43.08-1.37-2.41-.55-3.13z"/><path fill="#fba804" d="M285.86 567.03c1.05-12.25 3.06-24.4 5.84-36.37 5.27.42 10.51 1.1 15.77 1.64-2.85 11.6-4.74 23.42-5.89 35.31-5.2-.83-10.47-.78-15.72-.58z"/><path fill="#fbaa04" d="M783.52 540.94c5.31.15 10.65.26 15.94-.5.08.39.23 1.18.3 1.58.32 1.76.64 3.54.95 5.32a276.35 276.35 0 0 1 3.1 28.14l.21 4.14c-5.22-.93-10.52-.72-15.77-.62-.59-12.78-2.15-25.52-4.73-38.06z"/><path fill="#fbb105" d="M285.86 567.03c5.25-.2 10.52-.25 15.72.58-.71 7.72-1.04 15.46-1.02 23.21 0 4.87.17 9.73.46 14.6-5.18 1.05-10.46.74-15.7.55-.31-5.04-.44-10.1-.46-15.15-.01-7.94.34-15.88 1-23.79z"/><path fill="#1d0405" d="M400.93 574.98c1.77-.24 3.55-.46 5.33-.68-.07.52-.2 1.55-.26 2.06-1.68.27-3.35.58-5.01.88-.02-.57-.05-1.7-.06-2.26z"/><path fill="#fbb305" d="M788.25 579c5.25-.1 10.55-.31 15.77.62.12 3.73.18 7.46.18 11.2-.02 8.68-.47 17.36-1.32 26-5.12-1.38-10.46-.67-15.68-1.12.83-8.27 1.29-16.58 1.31-24.88-.01-2.72-.07-5.42-.13-8.12-.04-1.24-.1-2.48-.13-3.7z"/><g fill="#1a1914"><path d="M724.7 590.96c1.51-1.62 3.16-3.1 4.72-4.68 6.87-.77 13.59.99 20 3.3 4.97 1.82 11.49 2.5 13.96 7.93 2.15 5.59 2.98 12.78-1.24 17.64-12.79 15.81-25.93 32.17-32.38 51.75-2.38 6.44-1.46 13.37-1.78 20.08-.31 4.77 1.83 9.86-.69 14.33-2.36 4.55-4.04 9.6-7.4 13.55-2.93 3.46-7.74 3.45-11.88 3.4-4.83-.15-10.39.48-14.24-3.08-2.83-2.22-3.39-5.92-4.03-9.21-.63-4.36-4.96-7.14-5.22-11.64-.76-8.09-.88-16.3.39-24.35.06-7.38-2.22-14.82-6.52-20.85 0 3.31.15 6.82-1.41 9.85-1.8 3.26-5.04 5.31-7.96 7.45-.24 5.25 2.53 10 2.54 15.22.17 6.14 3.14 11.71 4.01 17.73.82 4.53-.01 9.47 2.39 13.63 2.4 4.55 4.75 10.1 2.14 15.09-2 5.17-8.04 6-12.09 8.94-3.9 2.8-9.1 4.8-13.76 2.64-4.93-2.04-6.7-7.46-9.26-11.66-1.94-3.5-6.75-3.69-8.92-6.97-3.04-4.7-3.9-10.44-6.98-15.13-2.58-3.94-4.17-8.38-5.75-12.78-5.29 1.72-10.72 3.68-15.09 7.19-1.43 4.31-1.25 8.99-2.71 13.31-1.34 4.05-2.31 8.21-3.77 12.22-1.64 4.2-6.18 6.16-10.39 6.64-5.29.75-10.64 1.25-15.77 2.84-1.6 4.74-5.48 8.07-8.09 12.21-2.37 3.72-7.19 4.37-11.19 4.95-5.11.28-10.48.3-15.34-1.46-5.67-2.68-6.56-9.37-7.14-14.9-4.79 2.67-9.19 5.95-13.87 8.81-4.62 2.96-10.22.8-15.28 1.66-5.2.9-10.72.68-15.41-1.92-9.32-4.6-13.99-14.4-19.17-22.83.09 2.72.3 5.44.61 8.16.76 5.02-1.2 10.04-.14 15.05 1.09 5.23 2.18 10.74.4 15.97-1.01 5.27-5.68 8.63-7.42 13.59-1.45 4-5.63 5.91-9.54 6.59-6.28 1.69-12.5-1.05-18.71-1.73-5.39-1.05-7.35-6.67-8.5-11.34-6.42 2.1-13.09 3.76-19.87 3.88-4.01 0-6.52-3.68-10.03-4.98-3.89-.78-7.89-.6-11.78-1.35-5.58-.87-10.51-3.73-15.74-5.64-3.03-2.9-5.88-5.98-8.52-9.23-1.32-5.34-3.68-10.33-5.12-15.62-2.79-9.85-4.62-19.98-5.13-30.21-1.49-14.14 1.9-28.2 5.87-41.67 1.32-4.96 5.35-8.41 7.81-12.76 4.78-8.58 11.39-15.97 18.17-23.01 7.98-7.6 19.23-9.96 29.64-12.25 7.11-1.76 14.45-.4 21.45 1.18 7.43 1.79 14.89 5.01 19.99 10.89 3.66 4.06 3.99 9.78 6.53 14.45 1.32-8.19 1.23-17.28 6.6-24.12 1.96-2.62 5.27-3.3 8.2-4.22 4.17-1.23 7.53-4.84 12.13-4.56 3.85-.3 6.75 2.61 10.13 3.89 2.93 1.32 6.49 1.76 8.62 4.43 3.37 4.07 5.96 9.35 4.97 14.78-2.47 18.36-4.07 36.94-2.73 55.46 1.87-2.02 3.63-4.14 5.08-6.47 3.2-5.04 6.97-9.7 10.04-14.82 1.54-2.44.85-5.43.57-8.09-1.75-11.01-3.32-22.05-5.08-33.06-.47-3.52-1.1-7.4.9-10.58 2.5-4.22 6.09-8.9 11.44-9.1 4.44-.18 8.7-1.44 13.07-2.08 3.49-.53 6.3 1.81 9.06 3.55 3.44 2.2 7.88 2.34 11.06 5.01 2.88 2.49 3.58 6.49 3.87 10.1.83 10.37 1.54 20.76 2.42 31.13 2.87-4.76 2.63-10.34 3.16-15.66 3.64-10.29 4.25-21.32 7.15-31.81 1.18-4.13 5.06-6.97 9.24-7.49 7.94-.88 14.95-4.92 22.49-7.24 1.35-.04 2.71-.04 4.08-.01 1.64.81 3.2 1.83 4.95 2.44 3.67.58 7.72-.96 11.1 1.15 4.53 2.35 5.93 7.59 8.08 11.83 4.75 9.34 8.76 19.05 13.6 28.35 3.39.26 7.29-.35 10.09 2.02 2.66 2.18 5.66 3.93 9.06 4.65-2.5-6.13-6.53-11.43-9.56-17.26-2.12-3.98-2.27-8.59-2.68-12.97-1.15-7 4.81-13.9 11.74-14.46 5.54-1.32 10.53 2.31 16.02 2.31 4.21-.18 8.26 2.43 9.61 6.46 1.5 4.38 3.19 8.76 6.34 12.27 1.43-1.47 2.92-2.91 4.01-4.66 4.51-7.86 10.66-14.59 15.78-22.04m.31 20.25-.3.33c-.36-.06-1.07-.16-1.43-.22-1.81 1.96-3.43 4.14-4.29 6.7 2.85-.94 4.66-3.48 6.83-5.39.16.71.48 2.13.63 2.84-4.51 7.03-9.25 13.89-13.72 20.94l-.14-.01c-2.18 2.74-3.19 7.18-7.06 7.95.07-1.5.15-2.99.23-4.48-.85-1.04-1.69-2.1-2.51-3.14-5.81-8.23-12.5-16.2-15.64-25.94-2.81-.05-5 1.7-7.14 3.26-.63-1.55-1.1-3.17-2.05-4.55-1.32-1.81-3.59-.59-5.36-.52 1.12 2.1 2.29 4.17 3.48 6.24-.73.18-2.2.54-2.93.71 3.79 7.98 8.67 15.41 13.08 23.06 1.05 2.2 2.4 4.26 3.66 6.37 2.05 3.58 4.06 7.19 6.27 10.68-.25.73-.75 2.17-1 2.89.3 1.42.61 2.85.96 4.28-.74 1.73-.96 3.62.18 5.23 1.34-.33 2.4-1.08 3.18-2.25-.13 1.15.25 2.43-.35 3.5-1.33 1.05-2.94 1.65-4.41 2.47.37 1.8 1.85.39 2.91.08a65.46 65.46 0 0 0-.61 3.76c-1.26-2.28-2.69.77-2.58 1.94-.21 4.35-.07 8.72.09 13.08-.25 3.08 2.49 5.79 5.51 5.87l.4.4c.11.97.23 1.96.36 2.95.23 1.91.48 3.81.73 5.73 3.23.09 6.47.09 9.71-.04.85-1.94 1.75-3.87 2.68-5.78.71-1.51 1.57-2.96 1.98-4.58-.45-1.2-1.01-2.34-1.45-3.52 2.06-7.49.42-15.28 1.6-22.86l.21.01c.62-4.28 2.4-8.23 3.47-12.38l-.2-.72.67-.12c2.3-4.76 4.58-9.55 7.09-14.22l.26-.01c1.99-3.56 4.26-6.95 6.41-10.41 5.85-8.33 12.18-16.32 18.52-24.28-.2-.38-.6-1.16-.81-1.55-.23-.68-.7-2.06-.93-2.75-2.01 3.92-5.02 8.26-10.1 7.6 1.58-3.14 4.89-5.48 5.7-8.88-3.65-1.15-8.34-4.1-11.51-.63l-.44-2.94c-3.27 4.44-6.86 8.65-9.84 13.3m-128.92 1.01c-.15-.72-.44-2.16-.58-2.88-.87.19-2.59.57-3.46.76-1.25 5.89-2.45 11.8-3.53 17.73 2.88.1 4.97 1.83 5.21 4.8-2.01.55-5.37-1.77-5.95 1.21-.31 1.32-.65 2.64-.96 3.98.78.85 3.09 1.6 1.2 2.78-.67-.08-2.02-.26-2.69-.35-.1 3.37.14 6.74.83 10.05.73-.73 1.47-1.45 2.22-2.18l.7.03c-.09 2.74-.2 5.48-.3 8.23-2.52.23-4.08-1.53-5.4-3.39-.98 4.67-2.32 9.26-3.47 13.9-.62 2.36-1.23 4.73-1.84 7.1-1.65 6.28-3.24 12.57-4.87 18.85-.54 2.07-1.08 4.14-1.61 6.21-.84 3.1-1.62 6.21-2.32 9.34l-.6-.06c.66 2.49 3.46 3.12 5.14 4.74.62 3.06-1.11 7.04 1.86 9.23.15-2.95-.69-6.19.79-8.91.93-1.84 3.18-1.83 4.94-2.1l-.64 3.69c-.32 1.66-.61 3.33-.9 5 1.74.77 3.57.66 5.3-.07l2.12.92c1-.15 2.02-.29 3.04-.43.36-1.91.99-3.74 1.75-5.52l.51-.01c.62-2 1.22-4 1.82-5.99.58-3.26 1.11-6.53 1.31-9.83.04-2.09.68-4.08 1.59-5.93 6.85-5.84 15.28-9.29 23.68-12.28 1.35-.56 3.17-.86 3.31-2.64-3.34 1.07-6.63 2.79-10.23 2.29-4.89-.69-8.62 3.52-13.22 4.15-.3-1.13-.56-2.26-.78-3.38 5.54-2.22 11.14-4.29 16.65-6.58 5.05-1.94 10.21-3.65 15.05-6.08l.74-.04c.49 2.71 1.01 5.42 1.6 8.11.86.75 1.71 1.51 2.57 2.29-1.91-.01-3.77-.27-5.59-.77.2.71.62 2.15.83 2.87 1.03-.28 2.08-.56 3.13-.82l-.92 2.15c.11 1.6.21 3.2.37 4.81.05-1.39.06-2.78.1-4.15.93-.11 2.79-.34 3.72-.45.26 1.83.52 3.66.76 5.5 1.01 1.42 2.02 2.84 3.01 4.29.99 2.68 1.94 5.39 2.78 8.13.61-.21 1.85-.64 2.47-.86.31.73.94 2.18 1.25 2.91-1.69 1.41-3.67 2.39-5.69 3.24-.23-1.63-.25-3.25-.07-4.87-.86-.32-1.72-.64-2.56-.94 1.9 4.44 3.33 9.09 5.61 13.37-.26-1.85-.59-3.67-.92-5.49 2.92-.89 3.85 2.16 4.98 4.11 1.62 3.06 3.4 6.05 5.07 9.1 1.32 2.31 2.46 4.75 4.05 6.91 1.92.35.89-2.64 1.63-3.71.73-.08 2.21-.23 2.95-.31l-1.23 1.12c.59.31 1.79.91 2.38 1.22 1.38-1.61 3.33-2.29 5.36-2.68l-.28-2.9-1.3 1.16c-1.21-3.32-2.84-6.46-4.07-9.76l-.31-.01c-.47-1.35-.92-2.69-1.46-3.99.15-.67.46-2.02.61-2.7.77.17 1.55.35 2.35.54-.29-2.4-.6-4.79-.99-7.16-.31.42-.94 1.26-1.25 1.68-.57-2.87-1.43-5.67-2.26-8.46-1.06-4.56-3.63-9.03-2.44-13.81-.96-3.13-2.94-6.1-2.12-9.52l.71.13c-1.31-3.06-3.15-5.83-5.02-8.55 4.77-2.66 11.56-3.06 14.38-8.29-3.88.38-7.65 1.53-11.54 1.76-1.67-1.39-3.73-1.96-5.86-2.12.01-.44.01-1.33.01-1.77 2.5-1.1 5.17-1.73 7.75-2.61-3.29.13-6.55.7-9.8 1.18-2.11-4.84-4.55-9.53-6.66-14.36h-.18c-4.31-9.65-9.04-19.11-13.48-28.69-4.38.45-9.37 1.32-13-1.86-6.6 1.3-12.44 4.83-17.84 8.69m-56.66 5.21c-1.31 1.25-1.11 3.2-1.42 4.85-.74.11-1.48.22-2.21.35-.7-1.9-.74-4.38-2.68-5.51-1.41.46-2 2.08-2.98 3.1.78 4.46 1.42 8.96 2.02 13.44.75 4.34 1.39 8.71 1.96 13.09l.13-.02c.61 5.79 2.09 11.5 2.01 17.35-.3 2.01.1 4.28-1.1 6.04-5.91 8.8-12.07 17.46-17.79 26.39-4.12 5.32-7.39 11.26-11.54 16.55-4.34-.1-5.36-5.14-7.17-8.14l-.68-.19.23-.64c-.51-3.46-1.77-6.75-2.18-10.23-.5-6.3-.9-12.62-.85-18.94.08-4.3.2-8.59.48-12.87.22-2.99.36-5.98.56-8.96.33-3.06.64-6.11.87-9.17.45-4.93 1.43-9.82 1.62-14.76-.58-1.54-1.55-4.56-3.77-3.18-.39 2.47-.43 4.99-.55 7.5-1.19.08-2.37.16-3.55.25-1.37-2.82-.72-5.97-.5-8.94-1.3-1.19-2.22-3.27-4.02-3.61-4.41 2.65-5.2 8.23-6.3 12.82-.16 1.06-.31 2.12-.44 3.19-1.36-1.39-2.72-2.77-4.07-4.15.9-.7 1.79-1.39 2.7-2.07-.18-2.06-.34-4.1-.61-6.13-.18.28-.54.85-.72 1.14-4.57 3.94-3.59 10.64-4.31 16.04.3 2.2-1.37 5.86 1.21 7.01l.15.61c-.39-.03-1.17-.09-1.56-.11-.03 3.81-.04 7.63.04 11.45.07 1.94.13 3.88.2 5.84-3.18-.35-6.38-1.28-9.58-.81l-.63 1.2c-1.23-.21-2.46-.39-3.68-.54.12.23.37.71.5.95 2.45.31 4.93.31 7.39-.01-.05.9-.09 1.82-.12 2.75-4.64 1.34-9.33 2.57-13.88 4.22-7.63 1.9-15.11 4.42-22.68 6.59-6.92 2.46-14.38 1.73-21.55 2.77-.45 1.06-.9 2.12-1.36 3.19 1.48 1.43 2.95 2.86 4.43 4.29 1.73 1.59 3.09 3.87 5.33 4.74 3.87-.61 8.72-.29 10.99-4.16.06 1.7.14 3.41.23 5.12-3.93 1.22-7.98 2.21-11.6 4.24-1.63.22-3.12 1.36-3.96 2.74-1.15 2.14 1.53 2.71 3.04 2.8 1.73.05 2.96 1.34 4.24 2.34 3.62-.68 7.24-1.33 10.9-1.8-3.74 5.87-7.59 11.66-11.5 17.41-.06.29-.17.88-.23 1.18-4.36 2.55-7.55 6.74-10.96 10.43-1.44-.14-2.91-.33-4.28.23-1.98-.77-3.9-1.74-5.95-2.29-4.69-3.44-8.92-7.67-11.08-13.18l-.21.01c-.58-2.21-1.15-4.41-1.62-6.63l-.26.01c-.68-4.87.15-9.72.7-14.54.55-4 .7-8.09 1.89-11.97 2.2-4.6 4.29-9.26 6.49-13.86l.18.01c2.96-5.91 6.67-11.4 10.71-16.62l.2.03c4.24-4.59 9.67-8.95 16.23-8.98 4.84-.28 9.32 1.76 13.59 3.74 1.65.99 2.52-1.62 3.75-2.28.28 1.48.46 3.04 1.04 4.46 1.41.8 3.18.1 4.73.21-.64-3.41-1.57-6.75-2.42-10.1 1.63.03 3.65-.79 4.92.69.98 1.78 1.45 3.79 2.17 5.7.32-.47.6-.95.85-1.45-.96-3.22-2.5-6.25-3.21-9.54-.61-4.13-3.76-7.25-7.39-8.97-5.6-2.68-11.84-4.07-18.01-4.33-1.82 1.16-3.66 2.05-5.45.3-9.34 1.77-19.49 3.73-26.49 10.71 1.92-.56 3.84-1.15 5.78-1.65.01 1.54-.58 2.78-1.76 3.7l-.72-.03c-4.73 5.31-9.46 10.64-13.57 16.45-3.91 5.43-7.37 11.23-9.66 17.54-.72 2.87-1.11 5.81-1.34 8.77-.69.04-2.06.11-2.75.14-.11-6.09 4.83-11.37 3.72-17.45-2.4 7.22-4.29 14.61-5.47 22.13l-.12-.02c-.45 4.21-.86 8.43-.75 12.68.42 4.89.61 9.82 1.33 14.7.34 2.13.69 4.27 1.06 6.41.96 4.61 2.22 9.15 3.55 13.68l.21-.01c.7 2.76 1.62 5.47 2.76 8.09h.24c1.33 2.2 2.94 4.21 4.72 6.08l.43-.01c3.59 3.08 8.25 4.45 12.83 5.25.37.24 1.12.71 1.49.94 4.51.48 9.06-.06 13.58.15.63 1.86 1.32 3.83 3.06 4.96 2.44-.63 4.93-1.09 7.42-1.51 5.8-.91 11.35-3.62 15.46-7.84l.16.01c1.62-1.81 3.89-2.44 6.25-2.6.17 1.15.36 2.3.55 3.46.23 1.27.47 2.54.71 3.83-.99 4.45-.23 9-.04 13.49 1.92-.11 3.84-.19 5.76-.23.24-2.53.43-5.07.56-7.6l1.48 1.96c.17 2.35 1.09 4.55 2.02 6.7 1.56-.33 3.14-.63 4.71-.95.47-2.12.61-4.52 2.27-6.1 1.15-1.43 3.31-2.57 2.47-4.7 1.58-1.83 3.06-3.84 2.22-6.37-.85-3.77-1.63-7.58-1.73-11.46.24-1.78.49-3.54.72-5.3l.27.01v-3.06c-2.05-1.47-1.64-3.82-1.25-5.99.45-3.24.86-6.47 1.31-9.7.34-3.12.77-6.21 1.18-9.3.22-2.08.42-4.15.51-6.23.08-3.56 1.54-6.82 3.67-9.61 2.68-1.97 5.51-4.04 8.92-4.45.23 1.49.33 2.98.5 4.49-.23 4.75 1.98 9.14 3.24 13.62 1.08 3.1 2.26 6.16 3.5 9.21 1.31 3.11 2.75 6.18 4.58 9.02 2.45 4.78 6.16 9.42 11.3 11.44 1.59.39 4.27 1.36 4.59-1.05 4.29.23 8.57 1 12.87.82 2.55-1.25 4.89-2.9 7.1-4.67l-.08-.4.86-.06c3.45-1.66 6.5-4.03 9.64-6.19 2.93-1.44 5.39-3.81 8.66-4.54.51 1.37.95 2.78 1.63 4.11.93 1.4 2.86 1.11 4.3 1.54.18 4.83.29 9.67.75 14.49.94-1.1 1.9-2.17 2.87-3.22-.7-3.06-1.08-6.17-1.25-9.29 1-.07 3.01-.22 4.02-.29l.24 1.81c.08 2.09.18 4.2.29 6.31.09 2.22.15 4.44.2 6.68 1.57-.24 3.14-.46 4.72-.68.17-2.2.99-4.22 2.29-5.99 1.16-.27 2.31-.66 3.45-1.04.15-1.73.32-3.46.51-5.17-.45-5.64-.81-11.29-1.37-16.92-.04-3.67-.63-7.32-.7-10.98l-.14.01c-.14-2.93-.35-5.86-.63-8.77-.59-8.99-1.36-17.96-2.09-26.94-.24-6.11-1.09-12.17-1.29-18.28l-.13.01c-.29-4.6-.67-9.19-.98-13.78-.34-3.58-.64-7.15-.79-10.73-1.56-.45-3.08-1.29-4.74-1.15-.52 3.07.4 7.55-3.65 8.53.03-2.82.19-5.62.35-8.42-1.27-1.69-2.54-3.38-3.79-5.07-1.56.67-3.35 1.01-4.63 2.19m167.69 19.61c3.11-4.23 5.82-8.74 8.82-13.05-4.14 3.39-6.6 8.29-8.82 13.05m-322.74 4.51c-6.17 6.05-9.49 14.21-14.94 20.81-.4.83-1.97 2.41-.42 3 3.71-2.51 6.2-6.35 7.95-10.39 2.95-5.02 7.36-9.04 10.18-14.17-.69.19-2.08.56-2.77.75m25.26 29.9c9.03.21 17.94-1.57 26.32-4.89-4.87-2.12-9.57-5.42-14.97-5.71-5.28 1.28-8.66 6.22-11.35 10.6m42.48-.79c.92 1.06 3.39-.18 2.47-1.53-.95-1.02-3.5.1-2.47 1.53m184.13 19.66c-1.63 2.01 1.23 4.63 1.79 6.65-.45-2.2-.03-4.95-1.79-6.65m-238.04 5.42c-.93 4.15-1.43 8.37-1.76 12.61-.49 6.23 2.43 13.11 8.41 15.7 1.38-1.84 2.7-3.74 3.9-5.7-3.03-2.29-6.53-4.56-7.74-8.38-1.47-3.54-.37-7.36-.16-11.01-.17-1.49-1.77-2.19-2.65-3.22z"/><path d="M610.71 634.48c1.2-1.22 2.73-1.69 3.5.23 2.83 5.58 5.63 11.17 8.73 16.61.59 2.63-.37 5.37-2.4 7.13-4.47 3.98-10.69 4.7-16.35 5.71.55-2.52 1.1-5.04 1.68-7.54 1.21-5.35 2.4-10.71 3.6-16.06.43-2.02.81-4.06 1.24-6.08z"/></g><g fill="#ff7602"><path d="M725.01 611.21c2.98-4.65 6.57-8.86 9.84-13.3l.44 2.94c3.17-3.47 7.86-.52 11.51.63-.81 3.4-4.12 5.74-5.7 8.88 5.08.66 8.09-3.68 10.1-7.6.23.69.7 2.07.93 2.75.21.39.61 1.17.81 1.55-6.34 7.96-12.67 15.95-18.52 24.28-1.81-.08-3.61-.22-5.4-.35 3.4-5.83 7.14-11.44 10.96-17-.67.04-2.02.1-2.69.13-5.4 7.62-10.64 15.34-15.65 23.21-2.97-.34-5.94-.65-8.91-.92 4.47-7.05 9.21-13.91 13.72-20.94 2.54-4.79 7.18-8.7 7.79-14.33-3.35 3.1-6.15 6.71-9.23 10.07zM596.09 612.22c5.4-3.86 11.24-7.39 17.84-8.69 3.63 3.18 8.62 2.31 13 1.86 4.44 9.58 9.17 19.04 13.48 28.69-8.73.24-17.53-.64-26.2.63-.77-1.92-2.3-1.45-3.5-.23-7.59-1.23-15.29-.37-22.93-.64.58-2.98 3.94-.66 5.95-1.21-.24-2.97-2.33-4.7-5.21-4.8 1.08-5.93 2.28-11.84 3.53-17.73.87-.19 2.59-.57 3.46-.76.14.72.43 2.16.58 2.88zM673.06 608.98c1.77-.07 4.04-1.29 5.36.52.95 1.38 1.42 3 2.05 4.55 2.14-1.56 4.33-3.31 7.14-3.26 3.14 9.74 9.83 17.71 15.64 25.94-5.34.03-10.69-.22-16.02.23-.13.51-.41 1.52-.54 2.03-4.41-7.65-9.29-15.08-13.08-23.06.73-.17 2.2-.53 2.93-.71-1.19-2.07-2.36-4.14-3.48-6.24zM539.43 617.43c1.28-1.18 3.07-1.52 4.63-2.19 1.25 1.69 2.52 3.38 3.79 5.07-.16 2.8-.32 5.6-.35 8.42 4.05-.98 3.13-5.46 3.65-8.53 1.66-.14 3.18.7 4.74 1.15.15 3.58.45 7.15.79 10.73-6.59.05-13.17-.09-19.75-.09-1.79-.17-3.35.7-4.77 1.67-.6-4.48-1.24-8.98-2.02-13.44.98-1.02 1.57-2.64 2.98-3.1 1.94 1.13 1.98 3.61 2.68 5.51.73-.13 1.47-.24 2.21-.35.31-1.65.11-3.6 1.42-4.85z"/></g><path fill="#fac006" d="M285.32 605.97c5.24.19 10.52.5 15.7-.55 1.5 25.12 7 50 16.13 73.45-3.59.02-7.29-.42-10.8.52-1.86.99-2.88 2.97-4.19 4.54-9.6-24.91-15.26-51.31-16.84-77.96z"/><path fill="#181811" d="M737.29 614.12c.67-.03 2.02-.09 2.69-.13-3.82 5.56-7.56 11.17-10.96 17-2.11 3.6-4.16 7.24-6.07 10.95-2.13 4.13-4.14 8.31-6.04 12.55l-3.93.28c.89-3.15 1.99-6.26 3.65-9.09 1.6-2.82 3.28-5.6 5.01-8.35 5.01-7.87 10.25-15.59 15.65-23.21z"/><path fill="#fabd06" d="M782.91 642.45c1.91-8.83 3.35-17.77 4.29-26.75 5.22.45 10.56-.26 15.68 1.12-.93 8.91-2.26 17.79-4.08 26.57-5.3-.36-10.63-.17-15.89-.94z"/><path fill="#ff7b02" d="M486.32 621.18c1.8.34 2.72 2.42 4.02 3.61-.22 2.97-.87 6.12.5 8.94-3.6.25-7.21.29-10.82.27 1.1-4.59 1.89-10.17 6.3-12.82z"/><path fill="#050504" d="M476.88 625.98c.18-.29.54-.86.72-1.14.27 2.03.43 4.07.61 6.13-.91.68-1.8 1.37-2.7 2.07 1.35 1.38 2.71 2.76 4.07 4.15-.3 2.25-.52 4.51-.67 6.78a196.2 196.2 0 0 0-.32 9.08c-.04 2.78-.03 5.57.03 8.36.05 2.31.13 4.64.22 6.97-.67-.16-2.02-.47-2.69-.63.02-2.26.05-4.52.11-6.77.09-3.66.18-7.31.23-10.96-.64-.1-1.92-.29-2.56-.38l-.15-.61.39-.52c1.1-2.33 2.27-4.71 2.68-7.27-.46-1.28-1.09-2.48-1.67-3.68.14-.36.43-1.07.57-1.43a601 601 0 0 1-1.86-4.88c3.57.18 2.91-2.88 2.99-5.27z"/><path fill="#ff9202" d="M472.57 642.02c.72-5.4-.26-12.1 4.31-16.04-.08 2.39.58 5.45-2.99 5.27a601 601 0 0 0 1.86 4.88c-.14.36-.43 1.07-.57 1.43.58 1.2 1.21 2.4 1.67 3.68-.41 2.56-1.58 4.94-2.68 7.27l-.39.52c-2.58-1.15-.91-4.81-1.21-7.01z"/><g fill="#ff8c02"><path d="M494.94 625.98c2.22-1.38 3.19 1.64 3.77 3.18-.19 4.94-1.17 9.83-1.62 14.76-6.06.12-12.12.01-18.18.05.15-2.27.37-4.53.67-6.78.13-1.07.28-2.13.44-3.19 3.61.02 7.22-.02 10.82-.27 1.18-.09 2.36-.17 3.55-.25.12-2.51.16-5.03.55-7.5zM532.16 633.66c1.42-.97 2.98-1.84 4.77-1.67 6.58 0 13.16.14 19.75.09.31 4.59.69 9.18.98 13.78-7.79.72-15.68-.54-23.41.87l-.13.02c-.57-4.38-1.21-8.75-1.96-13.09z"/></g><path fill="#ff8502" d="M389.01 637.82c7-6.98 17.15-8.94 26.49-10.71 1.79 1.75 3.63.86 5.45-.3 6.17.26 12.41 1.65 18.01 4.33 3.63 1.72 6.78 4.84 7.39 8.97-8.7.05-17.39 0-26.08-.02-.11-.39-.35-1.19-.46-1.59-4 .77-7.98 1.67-12.04 2.02-4.9-.42-9.82-.48-14.74-.65 1.18-.92 1.77-2.16 1.76-3.7-1.94.5-3.86 1.09-5.78 1.65z"/><path fill="#ff8802" d="M729.02 630.99c1.79.13 3.59.27 5.4.35-2.15 3.46-4.42 6.85-6.41 10.41l-.26.01c-1.61.06-3.21.11-4.8.18 1.91-3.71 3.96-7.35 6.07-10.95z"/><path fill="#ff8a02" d="M587.78 633.84c7.64.27 15.34-.59 22.93.64-.43 2.02-.81 4.06-1.24 6.08-7.13.66-14.33.85-21.45.04 1.89-1.18-.42-1.93-1.2-2.78.31-1.34.65-2.66.96-3.98z"/><path fill="#ff9401" d="M614.21 634.71c8.67-1.27 17.47-.39 26.2-.63h.18c2.11 4.83 4.55 9.52 6.66 14.36 3.25-.48 6.51-1.05 9.8-1.18-2.58.88-5.25 1.51-7.75 2.61 0 .44 0 1.33-.01 1.77-8.72-1.2-17.59-.79-26.35-.32-3.1-5.44-5.9-11.03-8.73-16.61z"/><path fill="#ff9102" d="m712.59 636.4.14.01c2.97.27 5.94.58 8.91.92-1.73 2.75-3.41 5.53-5.01 8.35-8.69-1.31-17.54-.65-26.28-.32-1.26-2.11-2.61-4.17-3.66-6.37.13-.51.41-1.52.54-2.03 5.33-.45 10.68-.2 16.02-.23.82 1.04 1.66 2.1 2.51 3.14-.08 1.49-.16 2.98-.23 4.48 3.87-.77 4.88-5.21 7.06-7.95z"/><path fill="#0e0e0b" d="M407.77 640.52c4.06-.35 8.04-1.25 12.04-2.02.11.4.35 1.2.46 1.59v1.21c-3.98.84-8 1.44-12.01 2.1-.12-.72-.37-2.16-.49-2.88z"/><path fill="#ff9e01" d="m392.31 639.84.72.03c4.92.17 9.84.23 14.74.65.12.72.37 2.16.49 2.88 4.01-.66 8.03-1.26 12.01-2.1v-1.21c8.69.02 17.38.07 26.08.02.71 3.29 2.25 6.32 3.21 9.54-.25.5-.53.98-.85 1.45-.72-1.91-1.19-3.92-2.17-5.7-1.27-1.48-3.29-.66-4.92-.69.85 3.35 1.78 6.69 2.42 10.1-1.55-.11-3.32.59-4.73-.21-.58-1.42-.76-2.98-1.04-4.46-1.23.66-2.1 3.27-3.75 2.28-4.27-1.98-8.75-4.02-13.59-3.74-6.56.03-11.99 4.39-16.23 8.98l-.2-.03c-8.51-1.81-17.24.34-25.76-1.34 4.11-5.81 8.84-11.14 13.57-16.45z"/><path fill="#ff9a01" d="M588.02 640.6c7.12.81 14.32.62 21.45-.04-1.2 5.35-2.39 10.71-3.6 16.06-1.95.08-3.89.14-5.83.21.78-4.43 1.53-8.87 2.1-13.34-.74.07-2.21.21-2.94.27-.2 1.53-.38 3.07-.56 4.61-3.19-.04-6.38-.1-9.56-.22l-.7-.03c-.75.73-1.49 1.45-2.22 2.18-.69-3.31-.93-6.68-.83-10.05.67.09 2.02.27 2.69.35z"/><path fill="#030302" d="M384.38 641.55c.69-.19 2.08-.56 2.77-.75-2.82 5.13-7.23 9.15-10.18 14.17-1.75 4.04-4.24 7.88-7.95 10.39-1.55-.59.02-2.17.42-3 5.45-6.6 8.77-14.76 14.94-20.81z"/><path fill="#ffa201" d="M722.95 641.94c1.59-.07 3.19-.12 4.8-.18-2.51 4.67-4.79 9.46-7.09 14.22l-.67.12c-2.32-.49-4.7-.57-7.05-.38-5.44.4-10.88.11-16.32.32-2.21-3.49-4.22-7.1-6.27-10.68 8.74-.33 17.59-.99 26.28.32-1.66 2.83-2.76 5.94-3.65 9.09l3.93-.28c1.9-4.24 3.91-8.42 6.04-12.55z"/><path fill="#fac707" d="M782.91 642.45c5.26.77 10.59.58 15.89.94-3.75 18.05-9.41 35.72-16.92 52.57-5.1-2.57-10.89-2.02-16.39-2.13 7.68-16.41 13.57-33.67 17.42-51.38z"/><path fill="#ffa001" d="M478.91 643.97c6.06-.04 12.12.07 18.18-.05-.23 3.06-.54 6.11-.87 9.17-5.88-.16-11.76-.18-17.63-.04.04-3.03.14-6.06.32-9.08z"/><path fill="#0c0c09" d="M599.2 643.76c.73-.06 2.2-.2 2.94-.27-.57 4.47-1.32 8.91-2.1 13.34-.55.5-1.66 1.48-2.22 1.97-1.34-1.95-2.36-4.1-3.43-6.2 1.24-.08 2.48-.15 3.73-.2.16-1.35.34-2.69.52-4.03.18-1.54.36-3.08.56-4.61z"/><path fill="#ffac01" d="M534.25 646.73c7.73-1.41 15.62-.15 23.41-.87l.13-.01c.2 6.11 1.05 12.17 1.29 18.28-7.61-.07-15.22.01-22.82-.05.08-5.85-1.4-11.56-2.01-17.35z"/><path fill="#ffb601" d="M589.08 648.15c3.18.12 6.37.18 9.56.22-.18 1.34-.36 2.68-.52 4.03-1.25.05-2.49.12-3.73.2 1.07 2.1 2.09 4.25 3.43 6.2.56-.49 1.67-1.47 2.22-1.97 1.94-.07 3.88-.13 5.83-.21-.58 2.5-1.13 5.02-1.68 7.54 5.66-1.01 11.88-1.73 16.35-5.71 2.03-1.76 2.99-4.5 2.4-7.13 8.76-.47 17.63-.88 26.35.32 2.13.16 4.19.73 5.86 2.12 3.89-.23 7.66-1.38 11.54-1.76-2.82 5.23-9.61 5.63-14.38 8.29 1.87 2.72 3.71 5.49 5.02 8.55l-.71-.13c-7.94-1.37-16.13-.99-24.12-.15l-.74.04c-7.28-1.77-14.8-.06-22.14-1.3 5.48-1.68 12.88-2.14 15.66-7.94-4.69.83-9.08 2.71-13.55 4.28-1.61.71-3.97 1.01-4.04 3.21-3-.91-6.15-1.06-9.26-.84-.33-1.54-.65-3.07-.97-4.58-.81.18-1.61.37-2.41.57-.12 1.3-.22 2.61-.33 3.92-2.93-.01-5.85.02-8.77-.09l.2-.95c-1.36.17-2.71.34-4.05.52-.07.67-.2 2.02-.27 2.69l-1.92-1.2c1.15-4.64 2.49-9.23 3.47-13.9 1.32 1.86 2.88 3.62 5.4 3.39.1-2.75.21-5.49.3-8.23m-5.28 11.74c.25 1.2.5 2.42.75 3.65.8-.16 1.6-.31 2.41-.45.32-1.8.62-3.62.91-5.41-1.55.37-2.96 1.05-4.07 2.21z"/><path fill="#ffad01" d="M472.37 649.53c.39.02 1.17.08 1.56.11.64.09 1.92.28 2.56.38-.05 3.65-.14 7.3-.23 10.96h-3.85c-.08-3.82-.07-7.64-.04-11.45z"/><path fill="#ffb101" d="M478.59 653.05c5.87-.14 11.75-.12 17.63.04-.2 2.98-.34 5.97-.56 8.96-5.69.07-11.42.44-17.04-.64-.06-2.79-.07-5.58-.03-8.36z"/><path fill="#ffb901" d="M712.94 655.72c2.35-.19 4.73-.11 7.05.38l.2.72c-1.07 4.15-2.85 8.1-3.47 12.38l-.21-.01c-4.95-.33-9.91-.33-14.86-.23-.17-2.53-1.02-5.66-3.97-6.1a204.1 204.1 0 0 0-.11 4.32c-.34-1.33-.67-2.65-.99-3.97-.35-1.43-.66-2.86-.96-4.28.25-.72.75-2.16 1-2.89 5.44-.21 10.88.08 16.32-.32z"/><path fill="#ffc101" d="M378.74 656.29c8.52 1.68 17.25-.47 25.76 1.34-4.04 5.22-7.75 10.71-10.71 16.62l-.18-.01c-8.15-.87-16.35-.4-24.53-.41 2.29-6.31 5.75-12.11 9.66-17.54z"/><path fill="#0a0a07" d="M583.8 659.89c1.11-1.16 2.52-1.84 4.07-2.21-.29 1.79-.59 3.61-.91 5.41-.81.14-1.61.29-2.41.45-.25-1.23-.5-2.45-.75-3.65z"/><g fill="#171711"><path d="M611.73 663.64c4.47-1.57 8.86-3.45 13.55-4.28-2.78 5.8-10.18 6.26-15.66 7.94-.48-.11-1.45-.34-1.93-.45.07-2.2 2.43-2.5 4.04-3.21zM582.1 665.4c1.34-.18 2.69-.35 4.05-.52l-.2.95c-.79 2.61-1.25 6.09-4.47 6.77.09-1.51.21-3.02.35-4.51.07-.67.2-2.02.27-2.69zM485.27 716.58c.66-.18 1.97-.55 2.62-.74 1.39 2.67 2.5 5.48 3.25 8.41-.66.05-1.97.16-2.63.22-.92-1.27-1.76-2.59-2.56-3.93-.22-1.33-.45-2.65-.68-3.96z"/></g><g fill="#ffc900"><path d="M472.41 660.98h3.85c-.06 2.25-.09 4.51-.11 6.77.67.16 2.02.47 2.69.63-.09-2.33-.17-4.66-.22-6.97 5.62 1.08 11.35.71 17.04.64-.28 4.28-.4 8.57-.48 12.87-14.19-.17-28.39.34-42.57-.34 4.55-1.65 9.24-2.88 13.88-4.22.03-.93.07-1.85.12-2.75-2.46.32-4.94.32-7.39.01-.13-.24-.38-.72-.5-.95 1.22.15 2.45.33 3.68.54l.63-1.2c3.2-.47 6.4.46 9.58.81-.07-1.96-.13-3.9-.2-5.84zM636.25 690.32c1.76 1.7 1.34 4.45 1.79 6.65-.56-2.02-3.42-4.64-1.79-6.65z"/></g><g fill="#13130e"><path d="M595.05 662c.8-.2 1.6-.39 2.41-.57.32 1.51.64 3.04.97 4.58-.48.67-.96 1.35-1.43 2.03-.84.18-1.68.36-2.51.55.06-.67.17-2 .23-2.67.11-1.31.21-2.62.33-3.92zM475.91 683.9c.65-1.8 2.21-3.06 3.36-4.53.61 4.31.77 8.67.73 13.02.01 1.21.02 2.42.04 3.64l-2.57-.16c-.26-1.86-.53-3.71-.81-5.55-.32-2.14-.73-4.27-.75-6.42z"/></g><g fill="#ffd500"><path d="M536.26 664.08c7.6.06 15.21-.02 22.82.05.73 8.98 1.5 17.95 2.09 26.94-11.6-.31-23.23.53-34.8-.47 1.15-1.71 2.22-3.47 3.24-5.26-1.35.63-3.15.75-3.93 2.22-2.55 3.67-4.98 7.43-7.51 11.13-.2-.54-.6-1.64-.8-2.18 5.72-8.93 11.88-17.59 17.79-26.39 1.2-1.76.8-4.03 1.1-6.04zM632.5 668.56c7.99-.84 16.18-1.22 24.12.15-.82 3.42 1.16 6.39 2.12 9.52-1.19 4.78 1.38 9.25 2.44 13.81-6.38-.27-12.75-.18-19.1.35-.99-1.45-2-2.87-3.01-4.29-.24-1.84-.5-3.67-.76-5.5-.93.11-2.79.34-3.72.45-.04 1.37-.05 2.76-.1 4.15-.16-1.61-.26-3.21-.37-4.81l.92-2.15c-1.05.26-2.1.54-3.13.82-.21-.72-.63-2.16-.83-2.87 1.82.5 3.68.76 5.59.77-.86-.78-1.71-1.54-2.57-2.29-.59-2.69-1.11-5.4-1.6-8.11zM701.65 668.96c4.95-.1 9.91-.1 14.86.23-1.18 7.58.46 15.37-1.6 22.86-6.2-.13-12.45-.56-18.58.59-.06-4.6-.56-9.22-.16-13.81.53-.17 1.58-.49 2.11-.66-.27-.74-.54-1.46-.8-2.17.17-1.27.37-2.52.61-3.76l.86-.38c-.33 3.36-.31 6.75.33 10.08.59-.08 1.77-.22 2.36-.29 0-4.24.04-8.47.01-12.69z"/></g><path fill="#0d0d0a" d="M696.58 663.21c.32 1.32.65 2.64.99 3.97.02-1.45.06-2.89.11-4.32 2.95.44 3.8 3.57 3.97 6.1.03 4.22-.01 8.45-.01 12.69-.59.07-1.77.21-2.36.29-.64-3.33-.66-6.72-.33-10.08l-.86.38c-1.06.31-2.54 1.72-2.91-.08 1.47-.82 3.08-1.42 4.41-2.47.6-1.07.22-2.35.35-3.5-.78 1.17-1.84 1.92-3.18 2.25-1.14-1.61-.92-3.5-.18-5.23z"/><path fill="#ffda00" d="M368.71 665.29c1.11 6.08-3.83 11.36-3.72 17.45.69-.03 2.06-.1 2.75-.14.23-2.96.62-5.9 1.34-8.77 8.18.01 16.38-.46 24.53.41-2.2 4.6-4.29 9.26-6.49 13.86-7.96-.35-16 .76-23.88-.68 1.18-7.52 3.07-14.91 5.47-22.13z"/><path fill="#ffcb00" d="M585.95 665.83c2.92.11 5.84.08 8.77.09-.06.67-.17 2-.23 2.67.83-.19 1.67-.37 2.51-.55.47-.68.95-1.36 1.43-2.03 3.11-.22 6.26-.07 9.26.84.48.11 1.45.34 1.93.45 7.34 1.24 14.86-.47 22.14 1.3-4.84 2.43-10 4.14-15.05 6.08-2.55-.43-5.12-.78-7.7-.75-10.31.13-20.63.05-30.94.06.61-2.37 1.22-4.74 1.84-7.1l1.92 1.2c-.14 1.49-.26 3-.35 4.51 3.22-.68 3.68-4.16 4.47-6.77z"/><path fill="#b18c01" d="M452.12 670.66c-1.03-1.43 1.52-2.55 2.47-1.53.92 1.35-1.55 2.59-2.47 1.53z"/><path fill="#ffd901" d="M429.93 681.17c7.57-2.17 15.05-4.69 22.68-6.59 14.18.68 28.38.17 42.57.34-.05 6.32.35 12.64.85 18.94-5.3-.57-11.22 1.41-16.03-1.47.04-4.35-.12-8.71-.73-13.02-1.15 1.47-2.71 2.73-3.36 4.53.02 2.15.43 4.28.75 6.42-.73.24-2.2.72-2.93.95-.17-1.51-.27-3-.5-4.49-3.41.41-6.24 2.48-8.92 4.45-13.76-.64-27.54-.04-41.31-.32-3.86-.14-7.72.07-11.55.51-1.48-1.43-2.95-2.86-4.43-4.29.46-1.07.91-2.13 1.36-3.19 7.17-1.04 14.63-.31 21.55-2.77m30.19 4.18-.2 3c4.48-.91 8.81-2.41 13.23-3.59-.01-.82-.04-2.45-.05-3.27-4.34 1.26-8.62 2.68-12.98 3.86z"/><path fill="#ffd800" d="M578.07 673.99c10.31-.01 20.63.07 30.94-.06 2.58-.03 5.15.32 7.7.75-5.51 2.29-11.11 4.36-16.65 6.58.22 1.12.48 2.25.78 3.38 4.6-.63 8.33-4.84 13.22-4.15 3.6.5 6.89-1.22 10.23-2.29-.14 1.78-1.96 2.08-3.31 2.64-8.4 2.99-16.83 6.44-23.68 12.28-8.03-.61-16.07-.36-24.1-.28 1.63-6.28 3.22-12.57 4.87-18.85z"/><path fill="#080703" d="M694.9 677.94c-.11-1.17 1.32-4.22 2.58-1.94.26.71.53 1.43.8 2.17-.53.17-1.58.49-2.11.66-.4 4.59.1 9.21.16 13.81 1.36 1.43 2.76 2.85 4.17 4.25-3.02-.08-5.76-2.79-5.51-5.87-.16-4.36-.3-8.73-.09-13.08z"/><path fill="#face07" d="M306.35 679.39c3.51-.94 7.21-.5 10.8-.52 4.01 10.31 8.76 20.32 14.12 29.99-5.54.13-11.72-.8-16.14 3.37-4.89-9.16-9.19-18.63-12.97-28.3 1.31-1.57 2.33-3.55 4.19-4.54z"/><path fill="#11120d" d="M460.12 685.35c4.36-1.18 8.64-2.6 12.98-3.86.01.82.04 2.45.05 3.27-4.42 1.18-8.75 2.68-13.23 3.59l.2-3z"/><path fill="#ffc603" d="m363.12 687.4.12.02c7.88 1.44 15.92.33 23.88.68-1.19 3.88-1.34 7.97-1.89 11.97-7.62.14-15.24.05-22.86.01-.11-4.25.3-8.47.75-12.68z"/><g fill="#ffc103"><path d="M411.45 691.42c3.83-.44 7.69-.65 11.55-.51 13.77.28 27.55-.32 41.31.32-2.13 2.79-3.59 6.05-3.67 9.61-14.75.27-29.51-.44-44.24.52 3.62-2.03 7.67-3.02 11.6-4.24a296.6 296.6 0 0 1-.23-5.12c-2.27 3.87-7.12 3.55-10.99 4.16-2.24-.87-3.6-3.15-5.33-4.74zM520.11 699.98c2.1-3.12 4.11-6.3 6.26-9.38 11.57 1 23.2.16 34.8.47.28 2.91.49 5.84.63 8.77-6.91.74-13.86.28-20.79.38-6.97.05-13.94.1-20.9-.24zM696.33 692.64c6.13-1.15 12.38-.72 18.58-.59.44 1.18 1 2.32 1.45 3.52-.41 1.62-1.27 3.07-1.98 4.58-2.61-.12-5.22-.24-7.83-.35-.25-.35-.77-1.04-1.03-1.39-.39.17-1.19.51-1.58.68-.67.29-2.01.87-2.68 1.15-.13-.99-.25-1.98-.36-2.95l-.4-.4c-1.41-1.4-2.81-2.82-4.17-4.25z"/></g><path fill="#ffb704" d="M473.73 691.27c.73-.23 2.2-.71 2.93-.95.28 1.84.55 3.69.81 5.55l2.57.16c-.02-1.22-.03-2.43-.04-3.64 4.81 2.88 10.73.9 16.03 1.47.41 3.48 1.67 6.77 2.18 10.23l-.23.64c-7 .24-14.01.02-21.01.16-1.26-4.48-3.47-8.87-3.24-13.62z"/><path fill="#ffbf04" d="M642.08 692.39c6.35-.53 12.72-.62 19.1-.35.83 2.79 1.69 5.59 2.26 8.46.09 1.35.18 2.7.25 4.06-2.54-2.67-2.82-6.62-4.99-9.54-4.49-.36-.92 5.19-.04 7.26-3.33.65-6.72.65-10.08.29-.31-.73-.94-2.18-1.25-2.91-.62.22-1.86.65-2.47.86-.84-2.74-1.79-5.45-2.78-8.13z"/><path fill="#ffc104" d="M573.2 692.84c8.03-.08 16.07-.33 24.1.28-.91 1.85-1.55 3.84-1.59 5.93-8.04.11-16.08.08-24.12 0 .53-2.07 1.07-4.14 1.61-6.21z"/><path fill="#fad107" d="M765.49 693.83c5.5.11 11.29-.44 16.39 2.13-4.22 9.4-8.95 18.58-14.27 27.41-5.96-.43-11.94-.45-17.88-1.08 5.86-9.13 11.14-18.64 15.76-28.46z"/><path fill="#14150f" d="M658.66 702.28c-.88-2.07-4.45-7.62.04-7.26 2.17 2.92 2.45 6.87 4.99 9.54-.07-1.36-.16-2.71-.25-4.06.31-.42.94-1.26 1.25-1.68.39 2.37.7 4.76.99 7.16-.8-.19-1.58-.37-2.35-.54-.15.68-.46 2.03-.61 2.7-.84-2.28-2.49-4.07-4.06-5.86z"/><g fill="#ffa107"><path d="M517.37 696.51c.2.54.6 1.64.8 2.18-.28.52-.83 1.55-1.11 2.07.76-.2 2.28-.59 3.05-.78 6.96.34 13.93.29 20.9.24 6.93-.1 13.88.36 20.79-.38l.14-.01c.07 3.66.66 7.31.7 10.98-.23.74-.67 2.23-.9 2.97-27.09.35-54.19-.29-81.27.32-1.24-3.05-2.42-6.11-3.5-9.21 7-.14 14.01.08 21.01-.16l.68.19c1.81 3 2.83 8.04 7.17 8.14 4.15-5.29 7.42-11.23 11.54-16.55zM362.37 700.08c7.62.04 15.24.13 22.86-.01-.55 4.82-1.38 9.67-.7 14.54-6.94.2-13.89.02-20.83.17-.72-4.88-.91-9.81-1.33-14.7zM640.26 700c.84.3 1.7.62 2.56.94-.18 1.62-.16 3.24.07 4.87 2.02-.85 4-1.83 5.69-3.24 3.36.36 6.75.36 10.08-.29 1.57 1.79 3.22 3.58 4.06 5.86.54 1.3.99 2.64 1.46 3.99-4.75-.22-9.5-.23-14.25-.14-1.13-1.95-2.06-5-4.98-4.11.33 1.82.66 3.64.92 5.49-2.28-4.28-3.71-8.93-5.61-13.37z"/></g><path fill="#060604" d="M703.94 699.09c.39-.17 1.19-.51 1.58-.68.26.35.78 1.04 1.03 1.39.07 1.54.16 3.11.24 4.67h-2.26c-.21-1.8-.41-3.6-.59-5.38z"/><g fill="#ffaa06"><path d="M571.59 699.05c8.04.08 16.08.11 24.12 0-.2 3.3-.73 6.57-1.31 9.83-8.38-.2-16.79.51-25.13-.49.7-3.13 1.48-6.24 2.32-9.34zM412.44 704.1c.84-1.38 2.33-2.52 3.96-2.74 14.73-.96 29.49-.25 44.24-.52-.09 2.08-.29 4.15-.51 6.23-7.87.21-15.74.19-23.6-.07-.11-.68-.33-2.05-.45-2.73-3.35 1.24-4.48 4.8-6.29 7.53-3.2 5.09-6.43 10.23-10.65 14.55l-.25-.32c.06-.3.17-.89.23-1.18 3.91-5.75 7.76-11.54 11.5-17.41-3.66.47-7.28 1.12-10.9 1.8-1.28-1-2.51-2.29-4.24-2.34-1.51-.09-4.19-.66-3.04-2.8z"/></g><path fill="#ffaf06" d="M701.26 700.24c.67-.28 2.01-.86 2.68-1.15.18 1.78.38 3.58.59 5.38h2.26c-.08-1.56-.17-3.13-.24-4.67 2.61.11 5.22.23 7.83.35-.93 1.91-1.83 3.84-2.68 5.78-3.24.13-6.48.13-9.71.04-.25-1.92-.5-3.82-.73-5.73z"/><path fill="#1a1912" d="M429.79 711.8c1.81-2.73 2.94-6.29 6.29-7.53.12.68.34 2.05.45 2.73-1.66 3.12-3.3 6.26-5.06 9.33-1.85 3.17-3.74 6.32-5.76 9.39-2.25 3.32-4.62 6.58-7.26 9.6-2.31 2.48-4.92 4.65-7.7 6.56-2.47.71-5 1.41-7.59 1.31l.44-2.18c1.18-.52 2.26-1.2 3.23-2.03-.81-1.08-1.87-1.84-3.18-2.29 1.37-.56 2.84-.37 4.28-.23 3.41-3.69 6.6-7.88 10.96-10.43l.25.32c4.22-4.32 7.45-9.46 10.65-14.55z"/><g><path fill="#ff9208" d="M436.53 707c7.86.26 15.73.28 23.6.07-.41 3.09-.84 6.18-1.18 9.3-3.27.52-6.58.83-9.89.7-5.87-.22-11.8.57-17.59-.74 1.76-3.07 3.4-6.21 5.06-9.33z"/></g><g><path fill="#ff9508" d="m568.67 708.33.6.06c8.34 1 16.75.29 25.13.49-.6 1.99-1.2 3.99-1.82 5.99l-.51.01c-3.77.1-7.54.12-11.31.1l.64-3.69c-1.76.27-4.01.26-4.94 2.1-1.48 2.72-.64 5.96-.79 8.91-2.97-2.19-1.24-6.17-1.86-9.23-1.68-1.62-4.48-2.25-5.14-4.74z"/></g><g><path fill="#f9d608" d="M315.13 712.23c4.42-4.17 10.6-3.24 16.14-3.37 6.4 11.47 13.73 22.41 21.87 32.71-3.86 3.6-7.52 7.39-11.34 11.03-10.13-12.58-19.06-26.13-26.67-40.37z"/></g><g fill="#ff800a"><path d="M562.64 710.81c.56 5.63.92 11.28 1.37 16.92-3.83-.12-7.65-.16-11.46-.11l-.24-1.81c-1.01.07-3.02.22-4.02.29.17 3.12.55 6.23 1.25 9.29-.97 1.05-1.93 2.12-2.87 3.22-.46-4.82-.57-9.66-.75-14.49-1.44-.43-3.37-.14-4.3-1.54-.68-1.33-1.12-2.74-1.63-4.11-3.27.73-5.73 3.1-8.66 4.54-10.59-.14-21.21-.49-31.79.15-.84-.57-1.68-1.13-2.52-1.68.08.56.25 1.69.34 2.25-2.08.14-4.15.32-6.22.52-.75-2.93-1.86-5.74-3.25-8.41-.65.19-1.96.56-2.62.74.23 1.31.46 2.63.68 3.96-.22.65-.67 1.94-.9 2.58-1.83-2.84-3.27-5.91-4.58-9.02 27.08-.61 54.18.03 81.27-.32.23-.74.67-2.23.9-2.97zM363.7 714.78c6.94-.15 13.89.03 20.83-.17l.26-.01c.47 2.22 1.04 4.42 1.62 6.63-7.21.18-14.43.26-21.65-.04-.37-2.14-.72-4.28-1.06-6.41z"/></g><g><path fill="#ff8709" d="M649.93 711.99c4.75-.09 9.5-.08 14.25.14l.31.01c1.23 3.3 2.86 6.44 4.07 9.76l.08 1.49c-1.68-1.59-3.13-4.04-5.78-3.74-2.54.85-5.19 1.36-7.86 1.44-1.67-3.05-3.45-6.04-5.07-9.1z"/></g><g><path fill="#ff830a" d="M580.76 714.98c3.77.02 7.54 0 11.31-.1-.76 1.78-1.39 3.61-1.75 5.52-1.02.14-2.04.28-3.04.43l-2.12-.92c-1.73.73-3.56.84-5.3.07.29-1.67.58-3.34.9-5z"/></g><g><path fill="#ff770b" d="M425.71 725.72c2.02-3.07 3.91-6.22 5.76-9.39 5.79 1.31 11.72.52 17.59.74 3.31.13 6.62-.18 9.89-.7-.45 3.23-.86 6.46-1.31 9.7-10.64-.13-21.3.33-31.93-.35z"/></g><g><path fill="#ff730c" d="M655 721.09c2.67-.08 5.32-.59 7.86-1.44.27 1.41.58 2.83.85 4.26l-.08.07c-.74.08-2.22.23-2.95.31-.74 1.07.29 4.06-1.63 3.71-1.59-2.16-2.73-4.6-4.05-6.91z"/></g><g><path fill="#140c05" d="M662.86 719.65c2.65-.3 4.1 2.15 5.78 3.74l-.08-1.49 1.3-1.16.28 2.9c-2.03.39-3.98 1.07-5.36 2.68-.59-.31-1.79-.91-2.38-1.22l1.23-1.12.08-.07c-.27-1.43-.58-2.85-.85-4.26z"/></g><g><path fill="#ff600e" d="M364.76 721.19c7.22.3 14.44.22 21.65.04l.21-.01c2.16 5.51 6.39 9.74 11.08 13.18-9.71.78-19.45.13-29.18.46l-.21.01c-1.33-4.53-2.59-9.07-3.55-13.68z"/></g><g><path fill="#ff5d0e" d="M485.95 720.54c.8 1.34 1.64 2.66 2.56 3.93.66-.06 1.97-.17 2.63-.22 2.07-.2 4.14-.38 6.22-.52.71 3.34 3.87 5.09 6.91 5.93 3.85 1.06 8.01 2.17 12 1.17.3-.52.89-1.56 1.19-2.07 1.11.14 2.24.31 3.37.5l.08.4c-2.21 1.77-4.55 3.42-7.1 4.67-4.3.18-8.58-.59-12.87-.82-.32 2.41-3 1.44-4.59 1.05-5.14-2.02-8.85-6.66-11.3-11.44.23-.64.68-1.93.9-2.58z"/></g><g><path fill="#0f0f0b" d="M497.02 721.48c.84.55 1.68 1.11 2.52 1.68 5.06 4.17 11.53 5.45 17.92 5.6-.3.51-.89 1.55-1.19 2.07-3.99 1-8.15-.11-12-1.17-3.04-.84-6.2-2.59-6.91-5.93-.09-.56-.26-1.69-.34-2.25z"/></g><g><path fill="#f9d908" d="M724.7 754.78c9.2-10.13 17.6-20.99 25.03-32.49 5.94.63 11.92.65 17.88 1.08a256.76 256.76 0 0 1-23.96 33.6c-5.97-2.71-12.61-1.86-18.95-2.19z"/></g><g><path fill="#ff6a0d" d="M499.54 723.16c10.58-.64 21.2-.29 31.79-.15-3.14 2.16-6.19 4.53-9.64 6.19l-.86.06c-1.13-.19-2.26-.36-3.37-.5-6.39-.15-12.86-1.43-17.92-5.6z"/></g><g fill="#ff590e"><path d="M418.45 735.32c2.64-3.02 5.01-6.28 7.26-9.6 10.63.68 21.29.22 31.93.35-.39 2.17-.8 4.52 1.25 5.99v3.06l-.27-.01c-7.94-.22-15.92-.61-23.83.12-1.01.2-1.99.46-2.97.72-4.47.12-8.93-.27-13.37-.63zM552.55 727.62c3.81-.05 7.63-.01 11.46.11-.19 1.71-.36 3.44-.51 5.17-1.14.38-2.29.77-3.45 1.04-2.41.11-4.81.04-7.21-.01-.11-2.11-.21-4.22-.29-6.31z"/></g><g><path fill="#ff3f11" d="M397.7 734.4c2.05.55 3.97 1.52 5.95 2.29 1.31.45 2.37 1.21 3.18 2.29-.97.83-2.05 1.51-3.23 2.03l-.44 2.18c-10.53-.77-21.1-.3-31.64-.24h-.24a52.845 52.845 0 0 1-2.76-8.09c9.73-.33 19.47.32 29.18-.46z"/></g><g><path fill="#ff4611" d="M552.84 733.93c2.4.05 4.8.12 7.21.01-1.3 1.77-2.12 3.79-2.29 5.99-1.58.22-3.15.44-4.72.68-.05-2.24-.11-4.46-.2-6.68z"/></g><g><path fill="#ff3f12" d="M410.75 741.88c2.78-1.91 5.39-4.08 7.7-6.56 4.44.36 8.9.75 13.37.63-1.83 2.07-3.63 4.18-5.47 6.24-5.2-.14-10.4-.42-15.6-.31z"/></g><g><path fill="#151610" d="M431.82 735.95c.98-.26 1.96-.52 2.97-.72-.02 1.44-.01 2.89-.06 4.35-.32.25-.94.76-1.26 1.02-4.68 3.34-9.48 6.52-13.97 10.13.03-.3.1-.89.13-1.19 2.31-2.38 4.52-4.86 6.72-7.35 1.84-2.06 3.64-4.17 5.47-6.24z"/></g><g><path fill="#ff4211" d="M434.79 735.23c7.91-.73 15.89-.34 23.83-.12-.23 1.76-.48 3.52-.72 5.3-8.03 1.43-16.35 1.07-24.43.19.32-.26.94-.77 1.26-1.02.05-1.46.04-2.91.06-4.35z"/></g><g><path fill="#ff2214" d="M433.47 740.6c8.08.88 16.4 1.24 24.43-.19.1 3.88.88 7.69 1.73 11.46-7.39.05-14.77 0-22.16-.03-.19-1.16-.38-2.31-.55-3.46-2.36.16-4.63.79-6.25 2.6l-.16-.01c-3.67-.13-7.34-.18-11.01-.24 4.49-3.61 9.29-6.79 13.97-10.13z"/></g><g fill="#f9e209"><path d="M341.8 752.6c3.82-3.64 7.48-7.43 11.34-11.03 2.47 3.17 5.1 6.22 7.74 9.26 2.64 3.25 5.49 6.33 8.52 9.23 12.94 13.46 27.53 25.3 43.19 35.47-4.51.56-9.06.19-13.56.67-2.49.9-3.89 3.46-5.69 5.27-19.29-13.86-36.64-30.38-51.54-48.87zM690.69 785.64c12.24-9.23 23.65-19.56 34.01-30.86 6.34.33 12.98-.52 18.95 2.19-9.24 10.99-19.36 21.25-30.26 30.59-7.36-2.52-15.15-.95-22.7-1.92z"/></g><g><path fill="#ff2614" d="M403.16 743.19c2.59.1 5.12-.6 7.59-1.31 5.2-.11 10.4.17 15.6.31-2.2 2.49-4.41 4.97-6.72 7.35-3.54-.47-7.11-.76-10.68-.68-10.76.18-21.52-.12-32.28.16l-.43.01c-1.78-1.87-3.39-3.88-4.72-6.08 10.54-.06 21.11-.53 31.64.24z"/></g><g><path fill="#ff1116" d="M376.67 749.02c10.76-.28 21.52.02 32.28-.16 3.57-.08 7.14.21 10.68.68-.03.3-.1.89-.13 1.19 3.67.06 7.34.11 11.01.24-4.11 4.22-9.66 6.93-15.46 7.84-2.49.42-4.98.88-7.42 1.51-.67-.99-.81-2.01-.43-3.07.54-1.29 1.06-2.58 1.59-3.87-6.39.82-12.85 1.6-19.29.89-4.58-.8-9.24-2.17-12.83-5.25m33.95 5.69-.16 2.63c3.1-.44 6.18-1 9.25-1.58-.04-.65-.12-1.95-.15-2.61-3 .42-6.03.7-8.94 1.56z"/></g><g><path fill="#ff0018" d="M437.47 751.84c7.39.03 14.77.08 22.16.03.84 2.53-.64 4.54-2.22 6.37.84 2.13-1.32 3.27-2.47 4.7-1.66 1.58-1.8 3.98-2.27 6.1-1.57.32-3.15.62-4.71.95-.93-2.15-1.85-4.35-2.02-6.7-.31-2.61-.43-5.23-.88-7.81l-2.33.2c-.11 3.99.25 7.98.22 11.98-1.18.08-2.35.16-3.52.26-.12-4.11-.43-8.22-1.25-12.25-.24-1.29-.48-2.56-.71-3.83z"/></g><g><path fill="#080806" d="M389.5 754.27c6.44.71 12.9-.07 19.29-.89-.53 1.29-1.05 2.58-1.59 3.87-.38 1.06-.24 2.08.43 3.07-1.74-1.13-2.43-3.1-3.06-4.96-4.52-.21-9.07.33-13.58-.15-.37-.23-1.12-.7-1.49-.94z"/></g><g><path fill="#080906" d="M410.62 754.71c2.91-.86 5.94-1.14 8.94-1.56.03.66.11 1.96.15 2.61-3.07.58-6.15 1.14-9.25 1.58l.16-2.63z"/></g><g><path fill="#090907" d="M438.18 755.67c.82 4.03 1.13 8.14 1.25 12.25 1.17-.1 2.34-.18 3.52-.26.03-4-.33-7.99-.22-11.98l2.33-.2c.45 2.58.57 5.2.88 7.81l-1.48-1.96c-.13 2.53-.32 5.07-.56 7.6-1.92.04-3.84.12-5.76.23-.19-4.49-.95-9.04.04-13.49z"/></g><g><path fill="#f8ed09" d="M393.34 801.47c1.8-1.81 3.2-4.37 5.69-5.27 4.5-.48 9.05-.11 13.56-.67 21.05 13.54 44.18 23.79 68.33 30.36-2.14 2.84-5.86 2.08-8.94 2.16-7-.21-14 .08-21-.13-3.18-.14-6.36.17-9.48.82-17-7.26-33.14-16.51-48.16-27.27z"/></g><g><path fill="#f8f30a" d="M480.92 825.89c50.04 13.49 104.29 10.54 152.57-8.32 5.54.43 11.13.31 16.65 1.08 5.22.81 10.6-.24 15.73 1.29-68.33 36.65-153.36 39.83-224.37 8.8 3.12-.65 6.3-.96 9.48-.82 7 .21 14-.08 21 .13 3.08-.08 6.8.68 8.94-2.16z"/></g></svg>