<svg width="500pt" height="500pt" viewBox="0 0 500 500" xmlns="http://www.w3.org/2000/svg"><g fill="#fff"><path d="M230.54 58.77c42.89-4.85 87.33 4.9 124.04 27.68 41.54 25.52 73.28 66.88 86.18 114 13 45.99 8.66 96.73-12.74 139.54-18.95 38.56-50.86 70.65-89.42 89.64-18.44 8.84-38.15 15.22-58.43 17.98-49.46 7.42-101.69-5.12-142.17-34.56-26.22-18.87-47.96-44.11-62.07-73.22-15.23-30.73-21.73-65.54-19.54-99.71 2.24-33.61 13.33-66.67 32.13-94.65 15.38-23.14 35.59-43.12 59.12-57.94 24.99-15.68 53.53-25.75 82.9-28.76m2.05 71.05c-8.92 1.11-17.78 2.74-26.43 5.17-21.55 6.09-42.68 16.43-57.87 33.26-10.91 12.01-17.45 28.35-15.74 44.67.76 5.27 4.57 9.98 9.56 11.82 3.82 1.35 7.93.98 11.9 1.02 69.34-.02 138.68.01 208.02-.01 5.36.15 10.79-2.46 13.59-7.11 3.44-5.52 2.35-12.37 1.82-18.5-2.55-19.05-15.68-34.87-30.94-45.66-22.94-15.9-50.76-23.74-78.42-25.46-11.83.11-23.72-.63-35.49.8m-111.8 109.97c-2.9 2.77 1.55 7.69 4.74 5.75 4.59-3.11 9.84-6.08 15.61-5.37 6.84.72 11.97 5.76 17.88 8.74 7.83 4.19 17.53 4.05 25.6.59 6.15-2.38 10.6-8.14 17.37-9.11 7.4-1.65 13.86 3.09 19.72 6.87 8.13 5.54 19 6.19 28 2.47 6.58-2.42 11.27-8.62 18.52-9.45 8.43-1.52 14.97 4.9 21.84 8.53 10.44 5.67 23.9 3.62 33.09-3.58 4.61-3.67 10.71-6.12 16.66-4.76 7.61 1.73 13.05 8.09 20.48 10.3 9.48 2.9 20.44.85 28.15-5.38.35-2.13.18-4.31.21-6.45-1.77-.36-3.7-.73-5.21.57-5.64 3.69-12.67 5.94-19.38 4.12-6.87-1.58-11.63-7.39-18.15-9.77-8.83-3.3-19.25-1.46-26.59 4.41-4.89 3.87-11.09 6.38-17.39 5.95-5.83-.33-10.75-3.69-15.33-6.97-7.07-5.16-16.63-6.4-24.83-3.41-6.69 2.04-11.21 8.24-18.2 9.64-7.38 2.29-15.16-.51-21-5.14-6.93-5.55-16.47-7.64-25.01-4.97-7.63 1.79-12.58 8.98-20.42 10.29-7.8 2.23-15.54-1.52-21.55-6.25-10.19-7.7-25.8-6.61-34.81 2.38m2.66 19.61c38.86.25 77.73.04 116.59.11 48.92-.06 97.83.12 146.75-.09-5.51-1.33-11.2-.86-16.81-.92-79.33-.01-158.66.02-237.99-.01-2.88-.04-5.73.38-8.54.91m262.84 5.52c-1.58 5.56-2.29 11.34-2.52 17.11.02 1.54-.25 3.32 1.1 4.43 3.05.12 2.19-3.56 2.34-5.5-.48-4.33 1.34-9.2-1.28-13.04.56.08 1.68.25 2.24.33.68-1.54 1.36-3.1 1.43-4.81-1.2.24-2.91-.08-3.31 1.48m-154.93 15.86c1.07 3.82 4.95 6.16 8.85 5.61 2.59-1.4 4.76-3.41 5.98-6.12.29-1.4.62-2.78 1.02-4.14-.01-3.07.37-6.32-1.19-9.12-2.29 1.69-1.38 4.59-1.64 6.99-.2 3.09-1.28 6.51-4.02 8.27-1.8 1.03-4.57.9-5.59-1.17-3-4.32.22-10.24-2.88-14.41-2.09 4.36-1.81 9.54-.53 14.09m59.96-.02c1.11 3.81 4.97 6.19 8.89 5.63 2.59-1.4 4.76-3.41 5.99-6.12.28-1.38.62-2.75 1.02-4.09-.02-3.1.39-6.37-1.2-9.18-1.13 1.04-1.83 2.4-1.57 3.96.09 3.64-.28 7.73-2.99 10.45-1.7 1.86-5.36 2.22-6.66-.28-3.03-4.33.15-10.23-2.89-14.45-2.11 4.33-1.85 9.54-.59 14.08m-20.75-10.14c-2.71 2.47-2.5 6.32-1.99 9.63 1.51 2.16 3.19 4.39 5.75 5.39 3.35 1.71 7.13.65 10.48-.49.77 1.54 2.84 1.82 2.92-.28 1.05-2.59.68-5.44.64-8.15-2.41-.85-7.47-2.94-7.19 1.35.9.2 2.71.6 3.62.79-.61 1.58-.96 3.46-2.49 4.45-4.31 2.22-11.06-1.07-10.12-6.39-.15-3.32 3.04-5.4 5.88-6.2 2.89-.27 5.65 1.09 7.05 3.65.61-.01 1.84-.01 2.45-.02-1.41-7.62-12.25-9.06-17-3.73m38.9-2.08c-.42 1.94-.11 3.95-.14 5.92l-.65.05c.08 2.87.02 5.75.11 8.63-.33 1.78 1.36 3.52 3.16 3.27 3.02.19 6.06.15 9.08-.09 1.86.32 2.82-1.19 3.7-2.53-3.63-1.63-7.66-1.06-11.51-1.06.01-1.47.01-2.93 0-4.39 3.41-.33 7.47.04 10.14-2.53-3.42-1.43-7.15-1.04-10.75-1.05-.09-.89-.26-2.66-.35-3.55 4.07.03 8.13-.03 12.19-.02.22-.59.64-1.79.86-2.39-5.21-.57-10.72-1.83-15.84-.26m18.22 3.22c-.95 2.98 1.58 5.35 4.05 6.48 3.01.71 6.35 1.01 8.88 2.91.05.61.13 1.81.17 2.41-4.65 1.02-9.16-.32-13.08-2.81-.32 1.42-.37 2.87-.11 4.31.57.26 1.7.78 2.27 1.04 4.39.95 9.26 1.8 13.29-.78 1.98-1.16 1.2-3.72 1.37-5.59-3.97-2.86-8.85-3.85-13.35-5.57-.07-1.43.64-2.55 1.71-3.46 3.64-1.04 6.16 1.76 8.48 4.04.58-2.02.23-4.33-1.59-5.61-3.7-2.56-10.2-1.84-12.09 2.63m19.01-3.2c.18 5.63-.49 11.26-.26 16.9 4.81 1.71 10.29 1.36 15.16.04v-2.07c-3.67-1.13-7.53-.71-11.29-.73.01-1.44.02-2.88.02-4.31 3.38-.05 6.7-.72 10.01-1.34-.22-.55-.66-1.65-.87-2.2-3.1-.06-6.19-.14-9.28-.04 0-1.22-.01-2.43-.02-3.64 4.16-.03 8.4.43 12.5-.52l-.32-2.02c-5.19-.41-10.54-1.57-15.65-.07m-246.08 1.11c-1.16 4.03-.71 8.27-.78 12.41.54 1.75.16 4.04 1.91 5.15 3.63.2 7.19-.68 10.79-1l-.04-1.92c-3.1-.2-6.21-.19-9.31.04-.2-4.86.34-9.72-.06-14.55-.73-1.51-1.57-1.55-2.51-.13m49.27 1.1c-.46 5.51-.26 11.05.02 16.57l2.27.16c.28-2.73.39-5.47.42-8.2 3.9-.13 7.81-.13 11.71-.06.09 2.17.21 4.34.47 6.51.61-.36 1.85-1.06 2.46-1.41.18-5.02.24-10.11-.59-15.08-.47.09-1.4.28-1.87.37-.19 2.3-.33 4.59-.46 6.89-3.93-.18-7.89-.13-11.79-.72-.06-1.99 0-4.01-.42-5.97-.86-.54-2.2-.28-2.22.94m37.78-1.06c-1.46 5.83-1.21 11.94-1.05 17.9.62-.14 1.87-.43 2.5-.58.81-4.43.39-8.97.74-13.44.21.38.61 1.14.81 1.52 2.07 1.44 3.88 3.29 6.21 4.31 3.08.14 5.04-2.79 7.22-4.53.33 3.88-.24 8.07 1.65 11.63.88.12 1.77.19 2.66.23.04-3.75-.24-7.49-.14-11.23l-.51-.04c-.08-2.16-.36-4.34-1.52-6.22-3.57 1.59-5.94 4.82-9.06 7.06-2.32-2.28-4.66-4.52-7.06-6.7l-2.45.09m22.84.11c0 5.09.36 10.18.26 15.28l1 2.51c5.02-.54 10.4-.28 14.89-2.95 1.53-.7 1.73-2.43 1.96-3.88-1.66-1.5-3.49-2.82-5.54-3.72 1.77-.85 3.72-3.1 1.93-4.89-3.8-3.66-9.68-3.28-14.5-2.35m38.9 1.07c.53 5.38-2.15 11.17.58 16.19 2.13-2.05 2.19-5.11 2.34-7.86 2.04.12 4.11.06 6.15.37 2.38 1.86 4.24 4.32 6.64 6.18 2.7-2.81-1.81-5.39-3.33-7.62 1.76-.92 3.04-2.4 3.85-4.2-2.72-4.09-7.98-5.29-12.59-5.37-1.43.05-4.12.24-3.64 2.31m116.03-1.46c-.72 5.65-.69 11.39-.71 17.08 3.99.27 2.49-4.72 3.17-7.23 3.24.09 7.16-.61 8.99 2.8 1.34 1.42 2.81 2.69 4.43 3.79 1.55-3.33-2.21-5.34-3.55-7.97.71-.43 2.12-1.29 2.83-1.72.13-1.57.52-3.56-1.12-4.48-4.01-2.56-9.5-4.21-14.04-2.27m-243.88 1.02c-1.91 2.91-3.17 6.18-4.82 9.24-.99 2.26-2.65 4.72-1.81 7.29 2.74.31 3.16-2.85 4.07-4.7 2.06-.01 4.12-.01 6.17.01.81 1.4 1.68 2.78 2.58 4.13.53-.02 1.58-.08 2.1-.11-.14-4.84-2.92-9.01-4.8-13.32-.79-1.25-1.64-3.94-3.49-2.54m54.59-.22c-2.17 3.59-3.83 7.47-5.78 11.18-.9 1.9-2.12 4.81.28 6.17 1.47-2.04 2.58-4.29 3.54-6.6l.19 1.35c1.77-.04 3.55-.06 5.32-.07.99 2.06 2.11 4.47 4.84 4.42-.13-4.61-2.72-8.58-4.49-12.69-.99-1.53-1.46-4.48-3.9-3.76m220.03-.33c-1.94 3.85-3.9 7.68-5.83 11.54-.91 1.91-2.08 4.8.33 6.14 1.43-2.06 2.55-4.31 3.52-6.62l.16 1.37c1.77-.05 3.56-.06 5.34-.07.99 2.03 2.09 4.47 4.82 4.35-.26-4.38-2.51-8.24-4.25-12.16-.96-1.86-1.66-4.29-4.09-4.55m-260.9 28.34c-5.52 1.44-10.15 5.94-11.6 11.47-1.09 4.7-.81 9.62-.31 14.38 1.85 14.97 15.44 27.69 30.62 27.92 67.02-.03 134.04 0 201.06-.01 5.29-.04 10.76.48 15.81-1.45 12.6-4.03 21.98-16.34 22.37-29.58.02-4.58.53-9.44-1.5-13.7-2.57-5.64-8.51-9.67-14.77-9.52-79.32.01-158.64-.01-237.96 0-1.26.02-2.5.18-3.72.49z"/><path d="M232.59 137.76c31.19-3.63 63.74-.12 92.38 13.24 15.72 7.51 30.68 18.37 39.21 33.91 4.52 8.22 6.59 17.77 5.69 27.12-.48 3.21-3.56 5.81-6.82 5.7-71.71.05-143.42 0-215.12.03-3.6.37-7.03-2.36-7.56-5.92-1.1-11.93 2.8-23.99 9.91-33.54 8.69-11.85 21.07-20.48 34.15-26.88 15.13-7.23 31.54-11.63 48.16-13.66m8.83 3.56c-1.69 1.52-1.8 4.63.03 6.1 2.16 2.05 6.11.4 6.26-2.57.58-3.35-3.72-5.79-6.29-3.53m43.06 8.29c-2.59 1.44-2.35 6.15.62 7.02 2.03.93 4.72-.44 5.06-2.68 1.09-3.22-2.84-6.27-5.68-4.34m-93.11 9.84c-2.63.85-3.22 4.7-1.27 6.52 1.93 2.09 5.9.96 6.36-1.9.87-2.93-2.24-5.84-5.09-4.62m126.94 1.82c-2.33 1.9-1.45 6.4 1.64 6.89 2.45.65 5.11-1.64 4.59-4.21.03-3.07-4.03-4.63-6.23-2.68m-89.77 12.36c-2.28 1.24-2.54 4.76-.64 6.45 1.94 1.89 5.88.76 6.2-2.03 1.01-3.19-2.72-6.04-5.56-4.42m-57.14 15.88c-3.09 1.11-3.1 6.02-.15 7.3 2.73 1.29 6.19-1.43 5.27-4.39-.2-2.38-3.01-3.84-5.12-2.91m138.77 1.63c-3.95 1.87-1.69 8.99 2.81 7.3 5.15-1.24 2.06-9.9-2.81-7.3zM214.2 272.12c3.22.22 6.78-.09 9.46 2.07-1.9.72-3.82 1.35-5.76 1.91-1.2.09-2.39.19-3.58.29l-.12-4.27zM252.21 276.66c.05-1.7.11-3.4.18-5.1 3.61.08 7.3.5 10.56 2.19-.16.42-.48 1.25-.64 1.66-3.25 1.14-6.7 1.19-10.1 1.25zM368.26 271.54c3.54.17 7.19.5 10.39 2.18-.09.39-.27 1.18-.36 1.58-3.23 1.24-6.7 1.27-10.1 1.42.03-1.73.04-3.46.07-5.18zM121.09 278.37c.37-1.07.73-2.14 1.09-3.21.23 1.28.61 2.53 1.86 3.15-.74.01-2.22.04-2.95.06zM176.45 274.89c.5 1.19.98 2.4 1.45 3.62-1.11-.17-2.22-.34-3.33-.52.47-.1 1.4-.31 1.87-.41 0-.67 0-2.02.01-2.69zM396.45 274.88c.5 1.21.98 2.42 1.45 3.64-1.11-.18-2.22-.36-3.32-.55l1.85-.36c0-.68.02-2.04.02-2.73zM214.51 279.61c2.83-.22 5.67-.24 8.48.19 1.54.38 1.9 1.63 1.86 3.07-3.41.86-6.95.79-10.43.55.02-1.28.05-2.55.09-3.81zM139.24 306.31c78.24-.16 156.5.02 234.74-.09 2.91-.05 6.3.05 8.36 2.45 3.05 2.99 2.04 7.56 2.17 11.38.14 12.44-11.06 23.58-23.48 23.46-68.69-.05-137.39-.01-206.08-.01-9.85-.08-19.03-7.15-22.02-16.46-1.44-4.2-1.29-8.72-1.15-13.08-.09-4.03 3.45-7.61 7.46-7.65m127.61 3.57c-.08 10.46-.94 21.03.96 31.39l3.2-.28c3.49-1.35 7.43-.31 10.84-1.88-2.89-.26-5.79-.28-8.68-.36-.18-8.62.82-17.36-1.1-25.85-.63-2.35-3.22-2.68-5.22-3.02m-31.36 23.51c-.07-.99-.2-2.98-.26-3.97l-.59.11c-1.19-4.25-2.34-8.5-3.48-12.76-1.51-.96-3.16-1.6-4.96-1.61.37 7.72 2.65 15.24 5.42 22.42l2.49.76c.49-.37 1.49-1.11 1.98-1.48 2.66-7.95 4.52-16.2 5.2-24.55-3.12 6.6-3.85 14.08-5.8 21.08m51.74-16.43c-1.08 7.8-1.81 15.63-2.46 23.47.84.09 2.54.26 3.39.34 2.48-5.94 3.41-12.42 3.78-18.8.19.87.58 2.63.77 3.5.21.15.64.44.85.59-.51.54-1.52 1.62-2.03 2.16.59.14 1.77.41 2.36.54 1.72 3.18 2.15 7.64 5.68 9.42-2.18-7.87-5.31-15.46-7.67-23.3-1.08-.41-2.15-.82-3.22-1.24-.66 1.02-1.39 2.06-1.45 3.32m-40.92.26c2.86 1.01 5.91 1.09 8.91 1.19-.72 1.69-1.55 3.32-2.51 4.89-1.54.13-3.06.34-4.56.71.93.2 2.79.58 3.72.78-2.79 3.74-4.9 8.02-5.87 12.61 5 1.61 10.3.17 15.39-.21-2.96-1.72-6.58-.57-9.81-.78 1.56-3.91 4.21-7.22 6.25-10.87 1.23-.16 2.46-.31 3.7-.45l-.12-1.48c-.65.06-1.97.19-2.62.25 1.08-2.05 3.61-5.45.58-7.02-4.27-.95-8.84-.7-13.06.38z"/></g><path d="M233.62 45.83c31.41-2.81 63.39 1.67 92.9 12.77 18.27 7.27 35.71 16.76 51.4 28.66 13.47 10.67 26.36 22.24 36.9 35.89 35.62 43.59 51.49 102.23 44.01 157.91-7.12 56.83-39.45 109.64-86.13 142.64-18.24 13.36-39.04 22.91-60.54 29.7-19.19 5.71-39.22 8.17-59.18 8.79-18.23-.26-36.43-2.48-54.14-6.8-24.76-6.83-48.63-17.61-69.26-33.01-26.81-19.46-48.95-45.29-63.89-74.87-29.25-57.5-29.74-128.79-.76-186.5 12.45-24.81 29.69-47.27 50.84-65.29 18.88-16.7 41.18-29.26 64.66-38.24 17.19-5.93 35.03-10.16 53.19-11.65m-3.08 12.94c-29.37 3.01-57.91 13.08-82.9 28.76-23.53 14.82-43.74 34.8-59.12 57.94-18.8 27.98-29.89 61.04-32.13 94.65-2.19 34.17 4.31 68.98 19.54 99.71 14.11 29.11 35.85 54.35 62.07 73.22 40.48 29.44 92.71 41.98 142.17 34.56 20.28-2.76 39.99-9.14 58.43-17.98 38.56-18.99 70.47-51.08 89.42-89.64 21.4-42.81 25.74-93.55 12.74-139.54-12.9-47.12-44.64-88.48-86.18-114-36.71-22.78-81.15-32.53-124.04-27.68z"/><path d="M386.29 264.92c.4-1.56 2.11-1.24 3.31-1.48-.07 1.71-.75 3.27-1.43 4.81-.56-.08-1.68-.25-2.24-.33 2.62 3.84.8 8.71 1.28 13.04-.15 1.94.71 5.62-2.34 5.5-1.35-1.11-1.08-2.89-1.1-4.43.23-5.77.94-11.55 2.52-17.11zM231.36 280.78c-1.28-4.55-1.56-9.73.53-14.09 3.1 4.17-.12 10.09 2.88 14.41 1.02 2.07 3.79 2.2 5.59 1.17 2.74-1.76 3.82-5.18 4.02-8.27.26-2.4-.65-5.3 1.64-6.99 1.56 2.8 1.18 6.05 1.19 9.12-.4 1.36-.73 2.74-1.02 4.14-1.22 2.71-3.39 4.72-5.98 6.12-3.9.55-7.78-1.79-8.85-5.61zM291.32 280.76c-1.26-4.54-1.52-9.75.59-14.08 3.04 4.22-.14 10.12 2.89 14.45 1.3 2.5 4.96 2.14 6.66.28 2.71-2.72 3.08-6.81 2.99-10.45-.26-1.56.44-2.92 1.57-3.96 1.59 2.81 1.18 6.08 1.2 9.18-.4 1.34-.74 2.71-1.02 4.09-1.23 2.71-3.4 4.72-5.99 6.12-3.92.56-7.78-1.82-8.89-5.63zM270.57 270.62c4.75-5.33 15.59-3.89 17 3.73-.61.01-1.84.01-2.45.02-1.4-2.56-4.16-3.92-7.05-3.65-2.84.8-6.03 2.88-5.88 6.2-.94 5.32 5.81 8.61 10.12 6.39 1.53-.99 1.88-2.87 2.49-4.45-.91-.19-2.72-.59-3.62-.79-.28-4.29 4.78-2.2 7.19-1.35.04 2.71.41 5.56-.64 8.15-.08 2.1-2.15 1.82-2.92.28-3.35 1.14-7.13 2.2-10.48.49-2.56-1-4.24-3.23-5.75-5.39-.51-3.31-.72-7.16 1.99-9.63zM309.47 268.54c5.12-1.57 10.63-.31 15.84.26-.22.6-.64 1.8-.86 2.39-4.06-.01-8.12.05-12.19.02.09.89.26 2.66.35 3.55 3.6.01 7.33-.38 10.75 1.05-2.67 2.57-6.73 2.2-10.14 2.53.01 1.46.01 2.92 0 4.39 3.85 0 7.88-.57 11.51 1.06-.88 1.34-1.84 2.85-3.7 2.53-3.02.24-6.06.28-9.08.09-1.8.25-3.49-1.49-3.16-3.27-.09-2.88-.03-5.76-.11-8.63l.65-.05c.03-1.97-.28-3.98.14-5.92zM327.69 271.76c1.89-4.47 8.39-5.19 12.09-2.63 1.82 1.28 2.17 3.59 1.59 5.61-2.32-2.28-4.84-5.08-8.48-4.04-1.07.91-1.78 2.03-1.71 3.46 4.5 1.72 9.38 2.71 13.35 5.57-.17 1.87.61 4.43-1.37 5.59-4.03 2.58-8.9 1.73-13.29.78-.57-.26-1.7-.78-2.27-1.04-.26-1.44-.21-2.89.11-4.31 3.92 2.49 8.43 3.83 13.08 2.81-.04-.6-.12-1.8-.17-2.41-2.53-1.9-5.87-2.2-8.88-2.91-2.47-1.13-5-3.5-4.05-6.48zM346.7 268.56c5.11-1.5 10.46-.34 15.65.07l.32 2.02c-4.1.95-8.34.49-12.5.52.01 1.21.02 2.42.02 3.64 3.09-.1 6.18-.02 9.28.04.21.55.65 1.65.87 2.2-3.31.62-6.63 1.29-10.01 1.34 0 1.43-.01 2.87-.02 4.31 3.76.02 7.62-.4 11.29.73v2.07c-4.87 1.32-10.35 1.67-15.16-.04-.23-5.64.44-11.27.26-16.9zM100.62 269.67c.94-1.42 1.78-1.38 2.51.13.4 4.83-.14 9.69.06 14.55 3.1-.23 6.21-.24 9.31-.04l.04 1.92c-3.6.32-7.16 1.2-10.79 1-1.75-1.11-1.37-3.4-1.91-5.15.07-4.14-.38-8.38.78-12.41zM149.89 270.77c.02-1.22 1.36-1.48 2.22-.94.42 1.96.36 3.98.42 5.97 3.9.59 7.86.54 11.79.72.13-2.3.27-4.59.46-6.89.47-.09 1.4-.28 1.87-.37.83 4.97.77 10.06.59 15.08-.61.35-1.85 1.05-2.46 1.41-.26-2.17-.38-4.34-.47-6.51-3.9-.07-7.81-.07-11.71.06-.03 2.73-.14 5.47-.42 8.2l-2.27-.16c-.28-5.52-.48-11.06-.02-16.57zM187.67 269.71l2.45-.09c2.4 2.18 4.74 4.42 7.06 6.7 3.12-2.24 5.49-5.47 9.06-7.06 1.16 1.88 1.44 4.06 1.52 6.22l.51.04c-.1 3.74.18 7.48.14 11.23-.89-.04-1.78-.11-2.66-.23-1.89-3.56-1.32-7.75-1.65-11.63-2.18 1.74-4.14 4.67-7.22 4.53-2.33-1.02-4.14-2.87-6.21-4.31-.2-.38-.6-1.14-.81-1.52-.35 4.47.07 9.01-.74 13.44-.63.15-1.88.44-2.5.58-.16-5.96-.41-12.07 1.05-17.9zM210.51 269.82c4.82-.93 10.7-1.31 14.5 2.35 1.79 1.79-.16 4.04-1.93 4.89 2.05.9 3.88 2.22 5.54 3.72-.23 1.45-.43 3.18-1.96 3.88-4.49 2.67-9.87 2.41-14.89 2.95l-1-2.51c.1-5.1-.26-10.19-.26-15.28m3.69 2.3.12 4.27c1.19-.1 2.38-.2 3.58-.29 1.94-.56 3.86-1.19 5.76-1.91-2.68-2.16-6.24-1.85-9.46-2.07m.31 7.49c-.04 1.26-.07 2.53-.09 3.81 3.48.24 7.02.31 10.43-.55.04-1.44-.32-2.69-1.86-3.07-2.81-.43-5.65-.41-8.48-.19zM249.41 270.89c-.48-2.07 2.21-2.26 3.64-2.31 4.61.08 9.87 1.28 12.59 5.37-.81 1.8-2.09 3.28-3.85 4.2 1.52 2.23 6.03 4.81 3.33 7.62-2.4-1.86-4.26-4.32-6.64-6.18-2.04-.31-4.11-.25-6.15-.37-.15 2.75-.21 5.81-2.34 7.86-2.73-5.02-.05-10.81-.58-16.19m2.8 5.77c3.4-.06 6.85-.11 10.1-1.25.16-.41.48-1.24.64-1.66-3.26-1.69-6.95-2.11-10.56-2.19-.07 1.7-.13 3.4-.18 5.1zM365.44 269.43c4.54-1.94 10.03-.29 14.04 2.27 1.64.92 1.25 2.91 1.12 4.48-.71.43-2.12 1.29-2.83 1.72 1.34 2.63 5.1 4.64 3.55 7.97-1.62-1.1-3.09-2.37-4.43-3.79-1.83-3.41-5.75-2.71-8.99-2.8-.68 2.51.82 7.5-3.17 7.23.02-5.69-.01-11.43.71-17.08m2.82 2.11c-.03 1.72-.04 3.45-.07 5.18 3.4-.15 6.87-.18 10.1-1.42.09-.4.27-1.19.36-1.58-3.2-1.68-6.85-2.01-10.39-2.18zM121.56 270.45c1.85-1.4 2.7 1.29 3.49 2.54 1.88 4.31 4.66 8.48 4.8 13.32-.52.03-1.57.09-2.1.11-.9-1.35-1.77-2.73-2.58-4.13-2.05-.02-4.11-.02-6.17-.01-.91 1.85-1.33 5.01-4.07 4.7-.84-2.57.82-5.03 1.81-7.29 1.65-3.06 2.91-6.33 4.82-9.24m-.47 7.92c.73-.02 2.21-.05 2.95-.06-1.25-.62-1.63-1.87-1.86-3.15-.36 1.07-.72 2.14-1.09 3.21zM176.15 270.23c2.44-.72 2.91 2.23 3.9 3.76 1.77 4.11 4.36 8.08 4.49 12.69-2.73.05-3.85-2.36-4.84-4.42-1.77.01-3.55.03-5.32.07l-.19-1.35c-.96 2.31-2.07 4.56-3.54 6.6-2.4-1.36-1.18-4.27-.28-6.17 1.95-3.71 3.61-7.59 5.78-11.18m.3 4.66c-.01.67-.01 2.02-.01 2.69-.47.1-1.4.31-1.87.41 1.11.18 2.22.35 3.33.52-.47-1.22-.95-2.43-1.45-3.62zM396.18 269.9c2.43.26 3.13 2.69 4.09 4.55 1.74 3.92 3.99 7.78 4.25 12.16-2.73.12-3.83-2.32-4.82-4.35-1.78.01-3.57.02-5.34.07l-.16-1.37c-.97 2.31-2.09 4.56-3.52 6.62-2.41-1.34-1.24-4.23-.33-6.14 1.93-3.86 3.89-7.69 5.83-11.54m.27 4.98c0 .69-.02 2.05-.02 2.73l-1.85.36c1.1.19 2.21.37 3.32.55-.47-1.22-.95-2.43-1.45-3.64zM266.85 309.88c2 .34 4.59.67 5.22 3.02 1.92 8.49.92 17.23 1.1 25.85 2.89.08 5.79.1 8.68.36-3.41 1.57-7.35.53-10.84 1.88l-3.2.28c-1.9-10.36-1.04-20.93-.96-31.39zM235.49 333.39c1.95-7 2.68-14.48 5.8-21.08-.68 8.35-2.54 16.6-5.2 24.55-.49.37-1.49 1.11-1.98 1.48l-2.49-.76c-2.77-7.18-5.05-14.7-5.42-22.42 1.8.01 3.45.65 4.96 1.61 1.14 4.26 2.29 8.51 3.48 12.76l.59-.11c.06.99.19 2.98.26 3.97zM287.23 316.96c.06-1.26.79-2.3 1.45-3.32 1.07.42 2.14.83 3.22 1.24 2.36 7.84 5.49 15.43 7.67 23.3-3.53-1.78-3.96-6.24-5.68-9.42-.59-.13-1.77-.4-2.36-.54.51-.54 1.52-1.62 2.03-2.16-.21-.15-.64-.44-.85-.59-.19-.87-.58-2.63-.77-3.5-.37 6.38-1.3 12.86-3.78 18.8-.85-.08-2.55-.25-3.39-.34.65-7.84 1.38-15.67 2.46-23.47zM246.31 317.22c4.22-1.08 8.79-1.33 13.06-.38 3.03 1.57.5 4.97-.58 7.02.65-.06 1.97-.19 2.62-.25l.12 1.48c-1.24.14-2.47.29-3.7.45-2.04 3.65-4.69 6.96-6.25 10.87 3.23.21 6.85-.94 9.81.78-5.09.38-10.39 1.82-15.39.21.97-4.59 3.08-8.87 5.87-12.61-.93-.2-2.79-.58-3.72-.78 1.5-.37 3.02-.58 4.56-.71.96-1.57 1.79-3.2 2.51-4.89-3-.1-6.05-.18-8.91-1.19z"/><g fill="#57595b"><path d="M232.59 129.82c11.77-1.43 23.66-.69 35.49-.8 27.66 1.72 55.48 9.56 78.42 25.46 15.26 10.79 28.39 26.61 30.94 45.66.53 6.13 1.62 12.98-1.82 18.5-2.8 4.65-8.23 7.26-13.59 7.11-69.34.02-138.68-.01-208.02.01-3.97-.04-8.08.33-11.9-1.02-4.99-1.84-8.8-6.55-9.56-11.82-1.71-16.32 4.83-32.66 15.74-44.67 15.19-16.83 36.32-27.17 57.87-33.26 8.65-2.43 17.51-4.06 26.43-5.17m0 7.94c-16.62 2.03-33.03 6.43-48.16 13.66-13.08 6.4-25.46 15.03-34.15 26.88-7.11 9.55-11.01 21.61-9.91 33.54.53 3.56 3.96 6.29 7.56 5.92 71.7-.03 143.41.02 215.12-.03 3.26.11 6.34-2.49 6.82-5.7.9-9.35-1.17-18.9-5.69-27.12-8.53-15.54-23.49-26.4-39.21-33.91-28.64-13.36-61.19-16.87-92.38-13.24z"/><path d="M241.42 141.32c2.57-2.26 6.87.18 6.29 3.53-.15 2.97-4.1 4.62-6.26 2.57-1.83-1.47-1.72-4.58-.03-6.1zM284.48 149.61c2.84-1.93 6.77 1.12 5.68 4.34-.34 2.24-3.03 3.61-5.06 2.68-2.97-.87-3.21-5.58-.62-7.02zM191.37 159.45c2.85-1.22 5.96 1.69 5.09 4.62-.46 2.86-4.43 3.99-6.36 1.9-1.95-1.82-1.36-5.67 1.27-6.52zM318.31 161.27c2.2-1.95 6.26-.39 6.23 2.68.52 2.57-2.14 4.86-4.59 4.21-3.09-.49-3.97-4.99-1.64-6.89zM228.54 173.63c2.84-1.62 6.57 1.23 5.56 4.42-.32 2.79-4.26 3.92-6.2 2.03-1.9-1.69-1.64-5.21.64-6.45zM171.4 189.51c2.11-.93 4.92.53 5.12 2.91.92 2.96-2.54 5.68-5.27 4.39-2.95-1.28-2.94-6.19.15-7.3zM310.17 191.14c4.87-2.6 7.96 6.06 2.81 7.3-4.5 1.69-6.76-5.43-2.81-7.3zM120.79 239.79c9.01-8.99 24.62-10.08 34.81-2.38 6.01 4.73 13.75 8.48 21.55 6.25 7.84-1.31 12.79-8.5 20.42-10.29 8.54-2.67 18.08-.58 25.01 4.97 5.84 4.63 13.62 7.43 21 5.14 6.99-1.4 11.51-7.6 18.2-9.64 8.2-2.99 17.76-1.75 24.83 3.41 4.58 3.28 9.5 6.64 15.33 6.97 6.3.43 12.5-2.08 17.39-5.95 7.34-5.87 17.76-7.71 26.59-4.41 6.52 2.38 11.28 8.19 18.15 9.77 6.71 1.82 13.74-.43 19.38-4.12 1.51-1.3 3.44-.93 5.21-.57-.03 2.14.14 4.32-.21 6.45-7.71 6.23-18.67 8.28-28.15 5.38-7.43-2.21-12.87-8.57-20.48-10.3-5.95-1.36-12.05 1.09-16.66 4.76-9.19 7.2-22.65 9.25-33.09 3.58-6.87-3.63-13.41-10.05-21.84-8.53-7.25.83-11.94 7.03-18.52 9.45-9 3.72-19.87 3.07-28-2.47-5.86-3.78-12.32-8.52-19.72-6.87-6.77.97-11.22 6.73-17.37 9.11-8.07 3.46-17.77 3.6-25.6-.59-5.91-2.98-11.04-8.02-17.88-8.74-5.77-.71-11.02 2.26-15.61 5.37-3.19 1.94-7.64-2.98-4.74-5.75zM123.45 259.4c2.81-.53 5.66-.95 8.54-.91 79.33.03 158.66 0 237.99.01 5.61.06 11.3-.41 16.81.92-48.92.21-97.83.03-146.75.09-38.86-.07-77.73.14-116.59-.11zM135.28 298.24c1.22-.31 2.46-.47 3.72-.49 79.32-.01 158.64.01 237.96 0 6.26-.15 12.2 3.88 14.77 9.52 2.03 4.26 1.52 9.12 1.5 13.7-.39 13.24-9.77 25.55-22.37 29.58-5.05 1.93-10.52 1.41-15.81 1.45-67.02.01-134.04-.02-201.06.01-15.18-.23-28.77-12.95-30.62-27.92-.5-4.76-.78-9.68.31-14.38 1.45-5.53 6.08-10.03 11.6-11.47m3.96 8.07c-4.01.04-7.55 3.62-7.46 7.65-.14 4.36-.29 8.88 1.15 13.08 2.99 9.31 12.17 16.38 22.02 16.46 68.69 0 137.39-.04 206.08.01 12.42.12 23.62-11.02 23.48-23.46-.13-3.82.88-8.39-2.17-11.38-2.06-2.4-5.45-2.5-8.36-2.45-78.24.11-156.5-.07-234.74.09z"/></g></svg>