<svg width="650pt" height="832" viewBox="0 0 650 624" xmlns="http://www.w3.org/2000/svg"><path fill="#ffe6e5" d="M208.86 0h15.87c.81.75 1.62 1.49 2.43 2.24-5.97-1.28-12.15-1.23-18.14-.14l-.16-2.1z"/><g fill="#de2127"><path d="M182.94 7.96c8.07-4.16 17.33-4.25 26.08-5.86 5.99-1.09 12.17-1.14 18.14.14 11.85 3.26 22.07 11.74 27.33 22.86 4.09 8.14 4.7 17.37 6.01 26.23 1.38 8.68 2.62 17.37 3.91 26.06 1.19 6.31 1.07 12.92-1 19.04-1.18 4.41-4.23 8.89-9.23 9.15-1.05.08-2.1.16-3.14.22 1.26-6.17 3.09-12.48 1.98-18.82-.31-2.17-.39-4.36-.12-6.53.63-.31 1.91-.95 2.55-1.26 1.69-7.9-1.09-15.75-1.92-23.58-1.05-6.26-1.51-12.6-2.54-18.87-.21-3.58-3.78-4.81-6.82-5.01-1.49-.03-2.98-.04-4.47-.04-5.71-.07-11.42-.19-17.13-.09-1.49.02-2.97.03-4.45.08-2.02.07-4.04.19-6.05.37-11.51 1.4-22.82 4.41-33.67 8.46-3.04 1.16-6.4 1.86-8.96 3.97-2.05 1.87-2.17 4.89-1.8 7.46 1.43 11.03 3.45 21.97 4.99 32.98.53 3.18 1.98 6.88 5.57 7.51.96 2.42 1.44 4.98 1.87 7.54.95 5.56 4.09 10.35 6.42 15.38-2.11.23-4.44 1.01-6.43-.12-2.03-1.11-3.66-2.76-5.47-4.17l-.56.98c-4.37-5-6.78-11.42-7.67-17.95-2.01-14.01-4.22-27.99-6.16-42.01-2.3-17.43 6.7-36.32 22.74-44.12zM194.15 139.73c2.27-2.61 5.44-4.07 8.22-6.03l.88.95c.2 4.83-.82 10.4 2.62 14.39 5.31 5.93 11.63 12.54 20.16 12.78 4.42.04 10.31-1.04 11.83-5.87 1.35-5.49-2.06-10.56-4.83-14.99-.63-1.17-1.17-2.37-1.67-3.6 17.42 11.91 27.08 32.12 31.91 52.11 2.62 12.81 5.1 25.66 7.83 38.45l.12 2.42c-5.99 2.18-12.2 3.7-18.29 5.55-6.91 2.55-15.42-.63-18.33-7.54-2.92-5.86-5.82-11.72-8.71-17.58-1.19-2.47-2.31-4.97-3.62-7.38l-1.19.24c1.59-.83 3.23-1.67 4.57-2.9.1-2.87-1.51-5.56-2.37-8.24-3.98-9.13-8.87-17.84-12.8-27-2.3-5.48-7.5-9.93-13.51-10.61-4.17-.95-8.29.53-12.2 1.83 1.25-6.56 6.31-11.29 9.38-16.98zM358.77 180.45c5.52-14.69 16.65-27.36 31.06-33.79 4.23-1.1 8.98 1.94 9.41 6.35.19 2.09 1.04 3.98 2.57 5.43l.19-1.53c9.62 16.05 18.82 32.35 28.5 48.37-11 4.43-22.31 8.08-33.3 12.54-2.5 1.26-5.21 2.45-8.08 2.04-4.29-3.03-5.48-9.4-10.52-11.5-2.05-2.41-4-4.89-5.86-7.43-6.73 1.01-12.99 3.83-19.6 5.38.58-8.84 2.37-17.62 5.63-25.86z"/><path d="M178.41 180.11c2.87 4.64 4.23 9.98 6.76 14.79 3.64 6.76 6.37 13.95 9.45 20.97 1.8-.3 3.61-.73 5.21-1.67.58 1.08 1.18 2.18 1.76 3.28 4.59 8.51 8.36 17.45 13.14 25.87 4.4 7.43 11.49 12.77 19.27 16.28 1.81 1.3 3.74 2.69 6.07 2.75 10.14.62 21.19.46 30.05-5.12 2.12-.71 4.29-1.25 6.46-1.82 2.77 13.58 5.47 27.18 8.25 40.76-1.43.63-2.85 1.27-4.28 1.89-16.14 5.55-31.93 12.07-48.13 17.47-7.59 3.33-15.63 5.42-23.24 8.71-3.06 1.29-6.42 1.16-9.67 1.29-.17.33-.51 1.01-.68 1.34-6.67-40.27-13.65-80.5-20.39-120.77-.51-3.25-.88-6.52-.99-9.81 1.13-5.34.69-10.8.96-16.21zM379.9 242.4c1.53-2.74 2.95-5.54 4.5-8.27 1.98 2.86 3.91 5.76 5.6 8.81 2.86 5.35 6.91 9.95 9.56 15.43 1.97 4.15 5.16 7.52 7.6 11.38 3.66 6.36 7.72 12.47 11.29 18.88 5.07 6.78 9.01 14.29 13.64 21.36 6.35 9.94 12.28 20.17 19.14 29.78 2.63 3.79 4.72 7.93 7.47 11.64 3.66 4.84 5.74 10.64 9.42 15.46 4.44 5.76 7.83 12.21 11.77 18.3 6.59 11.58 14.58 22.33 21.07 33.95-5.19 2.92-11.14 3.97-16.51 6.47-4.69 1.67-9.08 4.54-14.16 4.84-1.25-2.92-2.6-5.8-3.8-8.73-.33-.78-.64-1.56-.95-2.33-.78.57-1.57 1.12-2.36 1.66-.48.13-1.43.37-1.91.49 1.13-1.05 2.2-2.16 3.33-3.21-2.13-4.43-4.24-8.87-6.27-13.35-26.28-54.12-52.2-108.42-78.43-162.56zM545.4 334.69c15.36-2.43 30.8-4.47 46.2-6.63.39 1.5.97 2.98 1.07 4.55-.97 1.04-2.1 1.91-3.2 2.78-14.63 11.39-29.13 22.94-43.79 34.28-3.63 2.8-7.02 5.92-10.91 8.36-4.02 4.29-9.14 7.07-14.63 9.03-.25-2.03-.38-4.07-.4-6.1.1-13.35-3-26.62-1.91-39.97.29-.29.87-.88 1.16-1.17 4.91-1.03 10.02-.83 14.85-2.32 3.78-1.27 8.05-.7 11.56-2.81zM193.84 412.81c14.78-5.47 29.54-10.98 44.33-16.41-.77.44-1.53.9-2.29 1.37h3.15c11.86 10.54 24.25 20.46 35.91 31.22 7.66 5.9 14.14 13.17 21.98 18.86 13.24 10.69 25.74 22.3 38.85 33.17 2.03 5.63 4.79 10.98 6.32 16.8.46.07 1.38.21 1.84.29-13.63 5.38-27.52 10.08-41.11 15.56-4.72 1.68-9.52 3.11-14.18 4.94-6.48 2.67-13.09 4.99-19.67 7.38-14.73 5.67-29.68 10.78-44.35 16.62-5.17 1.86-10.28 4.09-15.73 5-.14.55-.27 1.12-.41 1.69-3.35.13-6.44 1.42-9.49 2.66-11.02 4.16-22.2 7.9-33.12 12.31-5.47 2-10.85 4.27-16.37 6.14-4.05 1.54-8.5 1.61-12.48 3.39.64-.06 1.92-.17 2.57-.23-1.05.53-2.11 1.05-3.17 1.57-6.65 1.7-13.22 7.02-20.28 4.3-2.31-6.81-5.13-13.44-6.99-20.39-5.21-9.4-7.1-20.13-11.26-29.97-1.56-3.43-1.65-7.35-3.47-10.67-1.38-2.53-2.26-5.31-2.38-8.2 2.85-21.19 6.51-42.28 9.62-63.43 2.33-.83 4.63-1.72 6.94-2.58 22.4-7.86 44.51-16.52 66.85-24.53 2.19.05 4.45.17 6.48-.82 4.42-1.87 9.07-3.2 13.32-5.47l-1.41-.57m43.84 68.79c-25.15 9.63-50.46 18.81-75.65 28.32-2.76.54-1.67 3.74-1.7 5.71 1.54.01 3.1.14 4.64-.07 23.61-8.93 47.41-17.43 70.99-26.49 2.92-1.2 6.14-1.68 8.93-3.18 2.07-1.24 2.22-4.54-.04-5.65-2.47-.55-4.9.53-7.17 1.36m-7.75 16.15c-21.26 7.78-42.57 15.46-63.72 23.54-3.65.81-2.09 7.67 1.71 6.02 26-9.33 51.78-19.29 77.75-28.73 1.84-.76 4.3-1.3 4.91-3.52.29-1.73-1.47-2.69-2.33-3.89-6.2 1.9-12.35 4.02-18.32 6.58m-60.03 35.12c-2.33.67-2.03 3.7-1.06 5.36 3.05 1.32 6.24-.41 9.07-1.5 19.15-7.03 38.16-14.41 57.35-21.33 6.39-2.73 13.32-4.25 19.36-7.77-.01-1.11-.01-2.21 0-3.31-1.18-.6-2.36-1.2-3.53-1.78-26.94 10.4-54.14 20.2-81.19 30.33z"/></g><path fill="#5c1e15" d="M178.4 40.51c10.85-4.05 22.16-7.06 33.67-8.46.43 2.8.84 5.6 1.24 8.4-9.87 1.88-19.84 3.76-29.09 7.81-2.42.9-3.29 3.49-4.28 5.63-.04-.79-.12-2.35-.17-3.13-2.12.97-4.92 1.76-5.7 4.24-.4 3.02.4 6.01.91 8.97 1.13 5.26.8 10.71 1.97 15.97.68 2.94.91 5.96.65 8.97 1.36 1.03 2.75 2.03 4.24 2.88-1.21.25-2.42.46-3.64.64-3.59-.63-5.04-4.33-5.57-7.51-1.54-11.01-3.56-21.95-4.99-32.98-.37-2.57-.25-5.59 1.8-7.46 2.56-2.11 5.92-2.81 8.96-3.97z"/><path fill="#865544" d="M212.07 32.05c2.01-.18 4.03-.3 6.05-.37.44 2.7.9 5.4 1.32 8.1-1.92.19-3.85.37-5.77.62l-.36.05c-.4-2.8-.81-5.6-1.24-8.4z"/><path fill="#541f10" d="M218.12 31.68c1.48-.05 2.96-.06 4.45-.08.18 2.83.37 5.65.55 8.47-1.15.54-2.27 1.12-3.38 1.71-.08-.5-.22-1.5-.3-2-.42-2.7-.88-5.4-1.32-8.1z"/><path fill="#865443" d="M222.57 31.6c5.71-.1 11.42.02 17.13.09.8 4.35 1.17 8.75 1.33 13.16-4.19-5.24-11.41-4.49-17.39-4.87l-.52.09c-.18-2.82-.37-5.64-.55-8.47z"/><path fill="#5a1e15" d="M239.7 31.69c1.49 0 2.98.01 4.47.04 2.66 2.7 4.71 5.9 6.59 9.17.09-1.38.17-2.77.23-4.16 1.03 6.27 1.49 12.61 2.54 18.87.83 7.83 3.61 15.68 1.92 23.58-.64.31-1.92.95-2.55 1.26-1.34.24-2.69.37-4.02.53.76-.64 1.51-1.28 2.27-1.94.4-6.12-1.3-12.07-2.08-18.09-.82-5.91-2.02-11.76-3.83-17.45-1.56-.03-3.34-.22-4.01 1.59l-.2-.24c-.16-4.41-.53-8.81-1.33-13.16z"/><path fill="#7f0f0b" d="M244.17 31.73c3.04.2 6.61 1.43 6.82 5.01-.06 1.39-.14 2.78-.23 4.16-1.88-3.27-3.93-6.47-6.59-9.17z"/><path fill="#573728" d="m213.31 40.45.36-.05c.44 6.82 1.71 13.56 2.68 20.32 1.18 7.55 1.97 15.17 3.49 22.66-12.28 1.56-24.4 4.3-36.24 7.91l-.18.05c-.62-12.52-5.49-24.87-3.48-37.45.99-2.14 1.86-4.73 4.28-5.63 9.25-4.05 19.22-5.93 29.09-7.81m-21.12 23.47c2.21-.14 3.83-1.73 5.85-2.38 1.58.15 3.06.75 4.61 1.03 1.69-.2 1.51-2.65.08-3.18-3.61-2.41-11.1-.74-10.54 4.53m6.18 3.5c-1.6 1-2.87 2.64-3.33 4.49-.31 4.26.32 9.28 4.02 11.99 2.13 1.78 4.75-.43 5.48-2.52 1.27-3.95 1.11-8.84-1.82-12.05-1.06-1.23-2.63-2.37-4.35-1.91z"/><path fill="#826656" d="M213.67 40.4c1.92-.25 3.85-.43 5.77-.62.08.5.22 1.5.3 2 .42 4.39 1.56 8.72 1.57 13.13-.43.56-1.29 1.67-1.71 2.22-.11.72-.21 1.44-.3 2.16l3.39.87c.1 1.59.21 3.19.24 4.79l-.22.95c-1.49 4.3-.44 8.84 2.15 12.46l.93 3.06c1.03.32 2.06.65 3.09.98-3 .4-6.03.63-9.04.98-1.52-7.49-2.31-15.11-3.49-22.66-.97-6.76-2.24-13.5-2.68-20.32z"/><path fill="#543626" d="M219.74 41.78c1.11-.59 2.23-1.17 3.38-1.71l.52-.09c.37 4.72.93 9.45 2.22 14.02 1.66.55 3.3 1.22 4.85 2.06-.02.69-.04 2.07-.05 2.76-1.55-.66-3.08-1.32-4.62-1.97.07-2.46-2.1-2.57-3.97-2.72-.01 1.24-.01 2.49-.01 3.73 1.37.01 2.75.03 4.14.04.2 1.57.39 3.13.6 4.69-1.29.78-2.6 1.55-3.87 2.36-.03-1.6-.14-3.2-.24-4.79l-3.39-.87c.09-.72.19-1.44.3-2.16.42-.55 1.28-1.66 1.71-2.22-.01-4.41-1.15-8.74-1.57-13.13z"/><path fill="#816655" d="M223.64 39.98c5.98.38 13.2-.37 17.39 4.87l.2.24c2.87 11.89 3.73 24.13 6.07 36.11l.04.22c-5.93.2-11.86.31-17.77.88 1.26-3.96 3.19-8.06 2.3-12.32-.44-3.13-2.9-5.33-5.07-7.39-.21-1.56-.4-3.12-.6-4.69l-.16-1.05c1.54.65 3.07 1.31 4.62 1.97.01-.69.03-2.07.05-2.76-1.55-.84-3.19-1.51-4.85-2.06-1.29-4.57-1.85-9.3-2.22-14.02z"/><path fill="#451c0f" d="M241.23 45.09c.67-1.81 2.45-1.62 4.01-1.59 1.81 5.69 3.01 11.54 3.83 17.45.78 6.02 2.48 11.97 2.08 18.09-.76.66-1.51 1.3-2.27 1.94-.4.06-1.19.17-1.58.22-2.34-11.98-3.2-24.22-6.07-36.11z"/><path fill="#481a10" d="M174.07 55c.78-2.48 3.58-3.27 5.7-4.24.05.78.13 2.34.17 3.13-2.01 12.58 2.86 24.93 3.48 37.45-.39.12-1.18.34-1.58.45-1.49-.85-2.88-1.85-4.24-2.88.26-3.01.03-6.03-.65-8.97-1.17-5.26-.84-10.71-1.97-15.97-.51-2.96-1.31-5.95-.91-8.97z"/><path fill="#331808" d="M222.07 54.13c1.87.15 4.04.26 3.97 2.72l.16 1.05c-1.39-.01-2.77-.03-4.14-.04 0-1.24 0-2.49.01-3.73z"/><path fill="#2b0d02" d="M192.19 63.92c-.56-5.27 6.93-6.94 10.54-4.53 1.43.53 1.61 2.98-.08 3.18-1.55-.28-3.03-.88-4.61-1.03-2.02.65-3.64 2.24-5.85 2.38z"/><path fill="#2d1104" d="M222.93 64.95c1.27-.81 2.58-1.58 3.87-2.36.75 6.6 2.41 13.12 2.08 19.81-1.03-.33-2.06-.66-3.09-.98l-.93-3.06c-.6-3.46-.92-7.09.49-10.41-.88-.68-1.76-1.37-2.64-2.05l.22-.95z"/><path fill="#624638" d="M226.8 62.59c2.17 2.06 4.63 4.26 5.07 7.39.89 4.26-1.04 8.36-2.3 12.32l-.69.1c.33-6.69-1.33-13.21-2.08-19.81z"/><path fill="#624838" d="M224.86 78.36c-2.59-3.62-3.64-8.16-2.15-12.46.88.68 1.76 1.37 2.64 2.05-1.41 3.32-1.09 6.95-.49 10.41z"/><path fill="#2d1309" d="M198.37 67.42c1.72-.46 3.29.68 4.35 1.91 2.93 3.21 3.09 8.1 1.82 12.05-.73 2.09-3.35 4.3-5.48 2.52-3.7-2.71-4.33-7.73-4.02-11.99.46-1.85 1.73-3.49 3.33-4.49m-1.11 7.3c1.95-.15 1.48-2.42 1.72-3.78-2.55-.29-3.29 2.08-1.72 3.78z"/><path fill="#51362b" d="M197.26 74.72c-1.57-1.7-.83-4.07 1.72-3.78-.24 1.36.23 3.63-1.72 3.78z"/><path fill="#911d1f" d="M248.88 80.98c1.33-.16 2.68-.29 4.02-.53-.27 2.17-.19 4.36.12 6.53 1.11 6.34-.72 12.65-1.98 18.82-.23.51-.67 1.53-.9 2.04l.31-.87c-1.46-1.64-2.94-3.25-4.31-4.95 2.43-6.57 2.78-13.79 1.2-20.6l-.04-.22c.39-.05 1.18-.16 1.58-.22z"/><g fill="#dfb29b"><path d="m228.88 82.4.69-.1c5.91-.57 11.84-.68 17.77-.88 1.58 6.81 1.23 14.03-1.2 20.6 1.37 1.7 2.85 3.31 4.31 4.95l-.31.87c-4.84 11.02-15.09 19.63-27.01 21.78-13.07 2.65-27.02-2.95-35.27-13.28 1-1.71 2.42-3.34 2.59-5.39-.18-1.63-1.37-2.87-2.1-4.26-2.97-4.58-4.22-10.03-4.75-15.4 11.84-3.61 23.96-6.35 36.24-7.91 3.01-.35 6.04-.58 9.04-.98m-27.59 14.99c.74 5.58 4.1 10.53 8.93 13.38 4.17 2.36 9.5 2.34 13.76.23 4.8-2.99 8.21-8.3 8.36-14.03.1-1.67.41-4.99-2.3-4.07-9.57 1.59-19.21 2.76-28.75 4.49zM353.14 206.31c6.61-1.55 12.87-4.37 19.6-5.38 1.86 2.54 3.81 5.02 5.86 7.43 3.96 5.1 7.76 10.33 11.37 15.68-1.79 3.4-3.69 6.74-5.57 10.09-1.55 2.73-2.97 5.53-4.5 8.27-.67 1.1-1.34 2.19-2.02 3.29-6.69-.48-13.34-1.42-20.05-1.47-3.62-.57-7.23-1.13-10.89-1.34-3.13.03-5.58-2.16-8.3-3.35-3.57-.6-6.99.82-10.37 1.74-17.23 4.71-34.48 9.37-51.69 14.17-2.17.57-4.34 1.11-6.46 1.82-7.31 1.72-14.45 4.66-22.06 4.64-4.79.12-9.51-.89-14.06-2.27-7.78-3.51-14.87-8.85-19.27-16.28-4.78-8.42-8.55-17.36-13.14-25.87 7.86-3.04 16.46-3.55 24.3-6.71 2.89 5.86 5.79 11.72 8.71 17.58 2.91 6.91 11.42 10.09 18.33 7.54 6.09-1.85 12.3-3.37 18.29-5.55l-.12-2.42c.25.5.74 1.51.99 2.02 4.22-.65 8.27-2.05 12.34-3.32 22.95-6.6 45.86-13.36 68.71-20.31m5.96 11.85c-3.44.82-6.44 3.36-7.51 6.78-1.74 4.86.7 10.79 5.5 12.81 5.8 3.09 13.52-1.35 14.17-7.78 1.5-6.82-5.44-13.41-12.16-11.81z"/></g><path fill="#961c20" d="m183.42 91.34.18-.05c.53 5.37 1.78 10.82 4.75 15.4.73 1.39 1.92 2.63 2.1 4.26-.17 2.05-1.59 3.68-2.59 5.39-1.21.04-2.41.07-3.61.11-3.97.45-8.01-.96-10.22-4.41l.56-.98c1.81 1.41 3.44 3.06 5.47 4.17 1.99 1.13 4.32.35 6.43.12-2.33-5.03-5.47-9.82-6.42-15.38-.43-2.56-.91-5.12-1.87-7.54 1.22-.18 2.43-.39 3.64-.64.4-.11 1.19-.33 1.58-.45z"/><path fill="#fffefd" d="M201.29 97.39c9.54-1.73 19.18-2.9 28.75-4.49 2.71-.92 2.4 2.4 2.3 4.07-.15 5.73-3.56 11.04-8.36 14.03-4.26 2.11-9.59 2.13-13.76-.23-4.83-2.85-8.19-7.8-8.93-13.38z"/><path fill="#3f1e0a" d="M251.04 105.8c1.04-.06 2.09-.14 3.14-.22-3.6 12.8-14 23.39-26.83 26.99-7.66 2.27-15.94 1.87-23.51-.57-7.94-2.98-14.96-8.42-19.59-15.55 1.2-.04 2.4-.07 3.61-.11 8.25 10.33 22.2 15.93 35.27 13.28 11.92-2.15 22.17-10.76 27.01-21.78.23-.51.67-1.53.9-2.04z"/><path fill="#ce8f70" d="M203.84 132c7.57 2.44 15.85 2.84 23.51.57.47 2.22 2.2 3.63 4.01 4.79.5 1.23 1.04 2.43 1.67 3.6-8.91 1.87-18.53 1.65-26.99-1.94-1.75-.33-1.55-2.24-2.04-3.56-.18-.2-.56-.61-.75-.81l-.88-.95c.37-.42 1.11-1.27 1.47-1.7z"/><path fill="#e0b29b" d="M203.25 134.65c.19.2.57.61.75.81.49 1.32.29 3.23 2.04 3.56 8.46 3.59 18.08 3.81 26.99 1.94 2.77 4.43 6.18 9.5 4.83 14.99-1.52 4.83-7.41 5.91-11.83 5.87-8.53-.24-14.85-6.85-20.16-12.78-3.44-3.99-2.42-9.56-2.62-14.39z"/><path fill="#842726" d="M395.6 144.33c7.31-2.54 14.39-5.82 21.9-7.71-2.45 7.14-8.86 12.23-15.42 15.51l-1.35-.36c2.4-4.04 8.39-4.11 9.93-8.8l-.24-1.41c-2.18-.18-4.28.53-6.34 1.12-.64 1.07-.73 2.81-2.08 3.24-2.2-.24-4.29-.98-6.4-1.59z"/><g fill="#951e24"><path d="M183.29 156.13c2.4-6.15 6.02-11.87 10.86-16.4-3.07 5.69-8.13 10.42-9.38 16.98 3.91-1.3 8.03-2.78 12.2-1.83 6.01.68 11.21 5.13 13.51 10.61 3.93 9.16 8.82 17.87 12.8 27 .86 2.68 2.47 5.37 2.37 8.24-1.34 1.23-2.98 2.07-4.57 2.9-7.07 3.57-14.38 6.62-21.25 10.57-1.6.94-3.41 1.37-5.21 1.67-3.08-7.02-5.81-14.21-9.45-20.97-2.53-4.81-3.89-10.15-6.76-14.79-.27 5.41.17 10.87-.96 16.21-.4-5.13-.3-10.29.08-15.43.35-4.28-1.11-8.59-.02-12.83 1-4.39 4.28-7.74 5.78-11.93zM378.6 208.36c5.04 2.1 6.23 8.47 10.52 11.5 2.87.41 5.58-.78 8.08-2.04 9.13 12.71 18.36 25.36 27.27 38.23 6.14-3.02 12.44-5.84 18.2-9.55-1.17-2.11-2.25-4.25-3.3-6.41 3.95 1.81 2.7 6.74 4.82 9.88 1.38 2.33 2.26 4.9 2.26 7.64-5.13 2.39-10.1 5.12-15.19 7.61 3.9 5.73 8.1 11.24 11.96 17 4.66-1.97 9.1-4.42 13.54-6.85 1.65 3.37 2.96 6.91 4.73 10.22-3.83 1.98-7.68 3.91-11.49 5.91 3.12 4.31 6.13 8.71 9.4 12.92 2.42 3.43 4.7 6.96 7.21 10.33 4.21 5.92 8.6 11.72 12.68 17.74 1.12 1.58 2.11 3.33 3.68 4.53 11.16-.11 22.33-.2 33.49-.48.22.53.67 1.59.89 2.12 9.33-1.44 18.69-2.76 28.05-3.97-3.51 2.11-7.78 1.54-11.56 2.81-4.83 1.49-9.94 1.29-14.85 2.32-.29.29-.87.88-1.16 1.17-1.09 13.35 2.01 26.62 1.91 39.97.02 2.03.15 4.07.4 6.1.08.61.22 1.82.3 2.43.96 13.53 1.78 27.07 2.66 40.62.45 1.84-1.67 2.34-2.9 2.94-7.15 2.63-14.4 5.04-21.5 7.83-5.99 2.25-11.98 4.5-18 6.68-45.65 16.69-91.03 34.1-136.77 50.55-.46-.08-1.38-.22-1.84-.29-1.53-5.82-4.29-11.17-6.32-16.8 11.22-4.12 22.42-8.3 33.64-12.46 3.62-1.43 7.43-2.46 10.83-4.42 7.72-2.64 15.67-4.69 23.1-8.08 7.65-4.08 16.16-6.03 24.13-9.34 6.23-1.99 12.08-4.97 18.4-6.69 7.79-2.41 15.01-6.73 23.12-7.99.32-.4.97-1.21 1.3-1.61 5.08-.3 9.47-3.17 14.16-4.84 5.37-2.5 11.32-3.55 16.51-6.47-6.49-11.62-14.48-22.37-21.07-33.95-3.94-6.09-7.33-12.54-11.77-18.3-3.68-4.82-5.76-10.62-9.42-15.46-2.75-3.71-4.84-7.85-7.47-11.64-6.86-9.61-12.79-19.84-19.14-29.78-4.63-7.07-8.57-14.58-13.64-21.36-3.57-6.41-7.63-12.52-11.29-18.88-2.44-3.86-5.63-7.23-7.6-11.38-2.65-5.48-6.7-10.08-9.56-15.43-1.69-3.05-3.62-5.95-5.6-8.81 1.88-3.35 3.78-6.69 5.57-10.09-3.61-5.35-7.41-10.58-11.37-15.68z"/><path d="M280.55 298.09c25.72-4.83 51.29-10.49 76.96-15.6 20.39 38.9 40.77 77.81 61.13 116.73-3.6 1.24-7.17 2.56-10.73 3.91-10.9 4.04-21.82 8.03-32.69 12.17-1.69.58-3.39 1.12-5.09 1.64-5.58-13.9-11.6-27.61-17.44-41.4-2.54-5.59.88-11.83-1.11-17.56-1.36-4.05-1.81-8.6-4.56-12.03-3.83-4.91-7.67-9.8-11.41-14.76-11.37 4.24-22.77 8.43-34.14 12.67-15.28 5.62-30.5 11.43-45.81 16.97-8.6 2.87-16.84 6.84-25.68 9-8.5 1.36-17.22-4.55-19.23-12.89-2.27-10.17-4.42-20.36-6.47-30.58-1.81.52-3.61 1.06-5.41 1.59l-.04-1.05c.17-.33.51-1.01.68-1.34 3.25-.13 6.61 0 9.67-1.29 7.61-3.29 15.65-5.38 23.24-8.71 16.2-5.4 31.99-11.92 48.13-17.47zM158.11 284.35c1.74-.22 3.47-.5 5.19-.8 1.73 2.59 3.73 5.63 2.98 8.89-.56 2.37-3.01 3.16-4.99 4 1.63 1.18 3.04 2.68 3.57 4.68 9 25.65 18.39 51.17 27.36 76.83 1.84 8.6 7.93 16.16 7.53 25.2-51.5 19.04-102.95 38.19-154.45 57.2-1.05-1.22-2.3-2.35-2.85-3.91-10.95-30.63-21.91-61.26-32.84-91.9-1.12-3.53-3.42-7.12-2.19-10.94-1.63-.22-3.63.23-4.79-1.23-1.36-1.8-1.96-4.03-2.63-6.15v-1.72c.37-.53 1.12-1.57 1.49-2.09.09 2.38-.25 4.91.71 7.16.68 1.98 3.07 1.93 4.78 2.34 5.35 1.12 9.95-2.53 14.85-3.99 11.4-3.81 22.43-8.6 33.88-12.28 12.12-4.41 24.14-9.14 36.26-13.56 5.43-2.58 11.19-4.3 16.86-6.25 15.72-5.87 31.38-11.88 47.1-17.72 3.85-1.14 7.45-3.55 9.41-7.11.75-3.95-3.8-6.48-7.23-6.65m-17.06 34.59c.56 5.31 3.55 10.03 4.79 15.21 3.41-1.19 6.8-2.42 10.21-3.6-1.58-4.83-3.18-9.69-5.21-14.35-2.49-4.23-9.96-2.29-9.79 2.74m-22.71 10.54c1.35 4.45 3.15 8.74 4.61 13.15 3.4-1.08 6.72-2.4 10.06-3.64-1.25-4.3-2.87-8.49-4.38-12.71-.72-2.41-3.14-4.09-5.64-4.02-3.34.27-5.77 4.08-4.65 7.22m-23.24 6.44c.68 5.31 3.51 10.07 4.88 15.23 3.4-1.13 6.72-2.47 10.12-3.6-1.52-4.86-3.06-9.76-5.18-14.39-2.53-4.25-9.77-2.13-9.82 2.76m52.88 3.63c1.79 5.72 3.95 11.32 5.94 16.97 3.28-1.15 6.5-2.5 9.86-3.42-1.07-5.94-3.93-11.4-5.66-17.17-3.37 1.24-6.7 2.58-10.14 3.62m-75.47 7.15c1.4 4.38 3.1 8.66 4.62 13.01 3.33-1.23 6.62-2.61 10.02-3.65-1.53-5.26-3.34-10.48-5.72-15.42-1.43-.48-2.8-1.59-4.38-1.3-3.38.21-5.93 4.21-4.54 7.36m52.56 1.38c1.73 5.74 4.02 11.28 5.88 16.97 3.35-1.22 6.67-2.53 10.08-3.59-1.67-5.75-3.89-11.31-5.87-16.95-3.38 1.14-6.69 2.5-10.09 3.57m-75.62 6.83c1.44 4.43 3.19 8.74 4.59 13.18 3.4-.98 6.67-2.38 10.04-3.46-.81-4.07-2.56-7.88-3.85-11.8-.63-2.02-1.81-4.28-4.07-4.74-3.96-1.61-8.15 2.97-6.71 6.82m52.6 1.74c2.18 5.64 3.6 11.63 6.48 16.96 3.13-1.7 6.7-2.39 9.81-4.13-2.5-5.35-3.95-11.11-6.19-16.57-3.35 1.29-6.69 2.61-10.1 3.74m-75.66 6.23c1.41 4.68 3.22 9.23 4.96 13.79 3.21-1.23 6.42-2.5 9.73-3.45-.27-3.24-1.93-6.11-2.8-9.2-1.09-2.82-1.82-6.8-5.3-7.54-3.66-1.09-7.6 2.71-6.59 6.4m129.74-.88c1.42 5.73 3.98 11.14 5.69 16.8 3.49-.99 6.83-2.41 10.25-3.61-1.87-5.63-4.02-11.16-5.88-16.79-3.39 1.1-6.73 2.34-10.06 3.6m-74.51 2.19c-.75-1.01-1.79-.69-2.57.04 1.5 6.04 4.11 11.74 5.91 17.69 3.44-.86 6.65-2.42 10.04-3.44-1.34-5.87-3.87-11.39-5.71-17.11-2.53 1.02-5.05 2.06-7.67 2.82m51.4 6.32c1.83 5.68 4.06 11.22 5.93 16.89 3.43-1.15 6.79-2.49 10.18-3.73-1.9-5.67-4-11.28-6.03-16.9-3.33 1.34-6.71 2.53-10.08 3.74m-76.88 3.2c2.12 5.61 3.91 11.35 6.23 16.89 3.12-1.37 6.43-2.29 9.5-3.76l.16-.84c-1.77-5.36-3.87-10.6-5.6-15.96-3.47 1.1-6.85 2.48-10.29 3.67m54.11 5.54c1.56 5.67 4.03 11.08 5.8 16.7 3.4-1.23 6.78-2.53 10.16-3.84-2.02-5.49-3.83-11.07-5.94-16.52-3.4.79-6.96 2.02-10.02 3.66m-77.08 3.09c2.11 5.5 3.98 11.09 6.02 16.61 3.31-1.01 6.52-2.31 9.79-3.41-1.05-5.93-3.83-11.39-5.6-17.12-3.37 1.37-6.84 2.52-10.21 3.92m130.77 2.06c1.96 5.24 3.32 10.78 6.19 15.63 1.74.54 3.64 1.33 5.44.5 2.85-1.03 4.11-4.51 3.02-7.25-1.5-4.2-2.97-8.41-4.54-12.59-3.34 1.3-6.72 2.51-10.11 3.71m-76.82 3.13c1.86 5.56 3.94 11.05 5.84 16.6 3.51-.64 6.72-2.25 10.09-3.36-1.36-5.78-4.07-11.13-5.6-16.86-3.51 1.03-6.89 2.41-10.33 3.62m54.06 5.25c1.22 4.81 3.06 9.48 4.93 14.07 2.45 4.59 10.15 2.38 9.98-2.81-.93-5.15-3.46-9.83-4.85-14.85-3.37 1.14-6.67 2.5-10.06 3.59m-77.07 3.41c2.15 5.52 4.01 11.15 6.07 16.71 3.37-1.27 6.76-2.51 10.17-3.69-1.93-5.65-4.13-11.2-5.95-16.88-3.43 1.28-6.92 2.41-10.29 3.86m53.89 5.22c1.49 4.18 2.98 8.37 4.45 12.57.9 3.1 4.91 4.99 7.76 3.27 2.58-1.15 3.49-4.59 2.45-7.07-1.4-4.08-2.99-8.1-4.26-12.23-3.6.69-6.91 2.36-10.4 3.46m-76.82 3.25c2.02 5.4 3.98 10.84 5.81 16.31 3.7-.46 7.1-2.1 10.49-3.53-2.21-5.42-4.14-10.96-5.96-16.52-3.52 1.04-6.93 2.4-10.34 3.74m54.06 5.04c1.47 5 3.03 10.06 5.33 14.74 2.88 3.97 9.81 1.43 9.56-3.42-.89-5.14-3.3-9.88-4.88-14.83-3.31 1.24-6.6 2.56-10.01 3.51m-23.15 8.66c1.63 4.26 2.98 8.64 4.68 12.88.86 2.44 3.56 4.25 6.17 3.55 2.95-.59 5.08-3.88 4.05-6.79-1.29-4.43-3.13-8.67-4.5-13.07-3.56.84-6.93 2.32-10.4 3.43m-22.76 8.48c1.6 4.92 3.07 9.94 5.38 14.59 2.81 4 9.9 1.4 9.54-3.42-.83-5.15-3.42-9.83-4.81-14.84-3.38 1.18-6.71 2.53-10.11 3.67z"/><path d="M238.17 396.4c22.85-8.6 45.82-16.89 68.64-25.57 2.51 6.4 4.55 12.99 7.12 19.37-6.09 6.22-12.64 11.97-18.84 18.09.68 13.18 1.08 26.38 1.83 39.56-7.84-5.69-14.32-12.96-21.98-18.86-11.66-10.76-24.05-20.68-35.91-31.22h-3.15c.76-.47 1.52-.93 2.29-1.37z"/></g><g fill="#9e1922"><path d="M404.08 142.68c2.06-.59 4.16-1.3 6.34-1.12l.24 1.41c-1.54 4.69-7.53 4.76-9.93 8.8l1.35.36c-.54.33-1.63 1.01-2.17 1.34.7 1.14 1.4 2.28 2.09 3.44l-.19 1.53c-1.53-1.45-2.38-3.34-2.57-5.43-.43-4.41-5.18-7.45-9.41-6.35 1.9-.82 3.84-1.58 5.77-2.33 2.11.61 4.2 1.35 6.4 1.59 1.35-.43 1.44-2.17 2.08-3.24zM248.06 261.9c7.61.02 14.75-2.92 22.06-4.64-8.86 5.58-19.91 5.74-30.05 5.12-2.33-.06-4.26-1.45-6.07-2.75 4.55 1.38 9.27 2.39 14.06 2.27z"/></g><path fill="#cf8f72" d="M199.83 214.2c6.87-3.95 14.18-7 21.25-10.57l1.19-.24c1.31 2.41 2.43 4.91 3.62 7.38-7.84 3.16-16.44 3.67-24.3 6.71-.58-1.1-1.18-2.2-1.76-3.28z"/><g fill="#080403"><path d="M359.1 218.16c6.72-1.6 13.66 4.99 12.16 11.81-.65 6.43-8.37 10.87-14.17 7.78-4.8-2.02-7.24-7.95-5.5-12.81 1.07-3.42 4.07-5.96 7.51-6.78zM545.68 369.67c14.66-11.34 29.16-22.89 43.79-34.28 14.61 3.65 28.12 11.61 38.34 22.69 11.15 12.14 18.64 27.81 20.35 44.27-.02.45-.05 1.36-.06 1.82.02 1.33.02 2.66.02 4-.03 2.75-.02 5.5 0 8.26-.02 1.13-.03 2.26-.04 3.39.02.46.06 1.37.09 1.83-1.72 17.16-9.65 33.56-21.58 45.96-11.75 12.27-27.67 20.43-44.48 22.84-16.76 2.35-34.3-.96-48.94-9.48-15.73-8.79-27.95-23.34-34.47-40.09 7.1-2.79 14.35-5.2 21.5-7.83 1.23-.6 3.35-1.1 2.9-2.94-.88-13.55-1.7-27.09-2.66-40.62 1.68-1.15 3.38-2.29 5.1-3.38 2 2.81 4.22 5.44 6.54 8-4.42 10.3-5.05 22.22-1.19 32.8 4.65 13.76 16.81 24.6 31 27.7 13.42 3.25 28.33-.84 38.27-10.41 9.11-8.37 14.15-20.83 13.81-33.16-.28-12.83-6.43-25.48-16.65-33.32-13.43-10.68-33.85-12.49-48.24-2.7-1.4-1.57-2.82-3.13-4.11-4.78l.71-.57zM255.66 360.83c15.31-5.54 30.53-11.35 45.81-16.97 5.49.12 10.57 4.57 10.85 10.15.5 3.57-1.35 6.79-3.41 9.52-.96.06-1.91.14-2.86.24-35.44 13.09-70.87 26.23-106.3 39.38.4-9.04-5.69-16.6-7.53-25.2.59 1.72 1.2 3.44 1.77 5.17 12-4.42 23.95-9 35.99-13.29 8.84-2.16 17.08-6.13 25.68-9zM438.13 407.04c6.02-3.8 13.5-4.11 20.2-2.08 2.03 4.48 4.14 8.92 6.27 13.35-1.13 1.05-2.2 2.16-3.33 3.21-7.17 2.04-14.04 5-21.04 7.56-14.55 5.43-29.12 10.8-43.7 16.15-5.65 1.98-11.11 4.53-16.96 5.89-.98-5.68-1.91-11.39-2.14-17.16.15-.41.46-1.23.62-1.64 9.59-3.36 19.37-6.34 28.53-10.8 4.75-2.29 7.15-7.22 9.09-11.84.7-2.87 4.05-1.83 6.19-2.01-.08 1.6-.16 3.21-.26 4.82 1.07.08 2.15.14 3.23.16.64-1.55.81-3.23 1.09-4.86l3.36.48c.17 1.89-.87 4.77 1.67 5.4 1.93-.57 1.05-3.15 1.69-4.61.4-.15 1.21-.43 1.62-.57l1.03.05c.24 1.27.47 2.54.69 3.82 1.17.06 2.35.13 3.53.2-.41-1.86-.83-3.71-1.38-5.52m11.19-1.34c-.19.64-.99 1.35-.3 2 1.79 1.1 3.93 1.43 6.01 1.44 1.25-.04 3.13-.06 3-1.79-2.47-1.97-5.76-1.73-8.71-1.65zM343.93 498.11c45.74-16.45 91.12-33.86 136.77-50.55 3.87 4.82 8.67 8.83 14.14 11.72.48 1.44.95 2.89 1.41 4.35l1.13-.98c-.18 1.82-.03 3.64.44 5.42-33.93 9.54-67.85 19.13-101.8 28.63-22.34 6.42-44.76 12.53-67.1 18.97-7.74 1.94-15.3 4.58-23.13 6.18-.81-2.79-1.8-5.53-2.97-8.18 13.59-5.48 27.48-10.18 41.11-15.56zM268.97 525.99c6.58-2.39 13.19-4.71 19.67-7.38 4.3 9.44 4.71 20.18 4.38 30.41-1.42 24.54-14.84 48.15-35.55 61.49-14.15 9.32-31.48 13.7-48.36 12.22-28.97-2.36-56.09-22.38-65.72-49.95-1.28.23-2.54.49-3.8.79-.65.06-1.93.17-2.57.23 3.98-1.78 8.43-1.85 12.48-3.39 11.14 13.13 30.41 17.75 46.59 12.37 11.66 6.04 26.19 6.38 37.96.45 13.77-6.59 23.14-20.95 24.17-36.12.18-1.01.38-2.01.59-3 1.51-1.22 3.2-2.39 3.97-4.25 2.18-4.57 4.29-9.18 6.19-13.87z"/></g><g fill="#dd2127"><path d="M438.09 231.94c1.49-2.9 5.83-3.56 8.02-1.07 2.63 3.34 3.89 7.51 5.9 11.22 1.69 3.36 3.41 6.7 5.03 10.09 3.02 6.17 6.06 12.33 9.14 18.46 1.65 3.35 3.31 6.7 4.94 10.06 3.3 7.16 7.06 14.09 10.27 21.29-.71 1.92-1 4.37-3.18 5.22-2.58 1.94-6.98 2.18-7.99 5.62-.03-.38-.08-1.15-.1-1.53-1.42.77-2.84 1.54-4.22 2.37l.71 1.08c-2.51-3.37-4.79-6.9-7.21-10.33 3.09-1.65 6.22-3.24 9.26-4.99-2.51-4.55-4.65-9.29-7.17-13.84-1.77-3.31-3.08-6.85-4.73-10.22-3.08-6.08-6.27-12.11-9.03-18.35-.32.15-.96.44-1.28.59 0-2.74-.88-5.31-2.26-7.64-2.12-3.14-.87-8.07-4.82-9.88-1.36-2.41-3.09-5.5-1.28-8.15zM13.89 337.46c48.09-17.81 96.19-35.65 144.28-53.49 1.64-.64 3.41-.47 5.13-.42-1.72.3-3.45.58-5.19.8 3.43.17 7.98 2.7 7.23 6.65-1.96 3.56-5.56 5.97-9.41 7.11-15.72 5.84-31.38 11.85-47.1 17.72-5.67 1.95-11.43 3.67-16.86 6.25-12.12 4.42-24.14 9.15-36.26 13.56-11.45 3.68-22.48 8.47-33.88 12.28-4.9 1.46-9.5 5.11-14.85 3.99-1.71-.41-4.1-.36-4.78-2.34-.96-2.25-.62-4.78-.71-7.16 3.9-2.18 8.26-3.32 12.4-4.95z"/></g><path fill="#931e28" d="M452.01 242.09c3.11-1.29 6.24-4.23 9.8-2.78 3.37 1.18 4.25 6.01 2.22 8.71-2.03 1.83-4.63 2.83-6.99 4.16-1.62-3.39-3.34-6.73-5.03-10.09z"/><path fill="#b98482" d="M338.64 239.53c2.72 1.19 5.17 3.38 8.3 3.35 3.66.21 7.27.77 10.89 1.34.13 1.08.4 3.23.54 4.31-4.6 1.04-9.14-1-13.53-2.14-3.41-.69-4.74-4.15-6.2-6.86z"/><path fill="#f7f5f5" d="M446.45 257.61c.32-.15.96-.44 1.28-.59 2.76 6.24 5.95 12.27 9.03 18.35-4.44 2.43-8.88 4.88-13.54 6.85-3.86-5.76-8.06-11.27-11.96-17 5.09-2.49 10.06-5.22 15.19-7.61z"/><path fill="#961e25" d="M466.18 270.64c2.52-1.19 4.95-2.77 7.74-3.23 3.28.09 5.91 3.46 5.21 6.66-.48 3.99-5.13 4.86-8.01 6.63-1.63-3.36-3.29-6.71-4.94-10.06z"/><g fill="#f8f6f6"><path d="M450 291.5c3.81-2 7.66-3.93 11.49-5.91 2.52 4.55 4.66 9.29 7.17 13.84-3.04 1.75-6.17 3.34-9.26 4.99-3.27-4.21-6.28-8.61-9.4-12.92zM102.05 356.65c3.41-1.13 6.75-2.45 10.1-3.74 2.24 5.46 3.69 11.22 6.19 16.57-3.11 1.74-6.68 2.43-9.81 4.13-2.88-5.33-4.3-11.32-6.48-16.96z"/></g><path fill="#f9f4f6" d="M141.05 318.94c-.17-5.03 7.3-6.97 9.79-2.74 2.03 4.66 3.63 9.52 5.21 14.35-3.41 1.18-6.8 2.41-10.21 3.6-1.24-5.18-4.23-9.9-4.79-15.21z"/><path fill="#f6f7f7" d="M118.34 329.48c-1.12-3.14 1.31-6.95 4.65-7.22 2.5-.07 4.92 1.61 5.64 4.02 1.51 4.22 3.13 8.41 4.38 12.71-3.34 1.24-6.66 2.56-10.06 3.64-1.46-4.41-3.26-8.7-4.61-13.15z"/><g fill="#f6f6f5"><path d="M95.1 335.92c.05-4.89 7.29-7.01 9.82-2.76 2.12 4.63 3.66 9.53 5.18 14.39-3.4 1.13-6.72 2.47-10.12 3.6-1.37-5.16-4.2-9.92-4.88-15.23zM81.62 364.19c2.62-.76 5.14-1.8 7.67-2.82 1.84 5.72 4.37 11.24 5.71 17.11-3.39 1.02-6.6 2.58-10.04 3.44-1.8-5.95-4.41-11.65-5.91-17.69.78-.73 1.82-1.05 2.57-.04zM49.33 426.84c3.4-1.14 6.73-2.49 10.11-3.67 1.39 5.01 3.98 9.69 4.81 14.84.36 4.82-6.73 7.42-9.54 3.42-2.31-4.65-3.78-9.67-5.38-14.59z"/></g><g fill="#f8f5f3"><path d="M147.98 339.55c3.44-1.04 6.77-2.38 10.14-3.62 1.73 5.77 4.59 11.23 5.66 17.17-3.36.92-6.58 2.27-9.86 3.42-1.99-5.65-4.15-11.25-5.94-16.97zM87.12 387.53c3.44-1.21 6.82-2.59 10.33-3.62 1.53 5.73 4.24 11.08 5.6 16.86-3.37 1.11-6.58 2.72-10.09 3.36-1.9-5.55-3.98-11.04-5.84-16.6z"/></g><g fill="#f8f5f6"><path d="M72.51 346.7c-1.39-3.15 1.16-7.15 4.54-7.36 1.58-.29 2.95.82 4.38 1.3 2.38 4.94 4.19 10.16 5.72 15.42-3.4 1.04-6.69 2.42-10.02 3.65-1.52-4.35-3.22-8.63-4.62-13.01zM33.17 382.34c3.37-1.4 6.84-2.55 10.21-3.92 1.77 5.73 4.55 11.19 5.6 17.12-3.27 1.1-6.48 2.4-9.79 3.41-2.04-5.52-3.91-11.11-6.02-16.61z"/></g><g fill="#f6f5f5"><path d="M125.07 348.08c3.4-1.07 6.71-2.43 10.09-3.57 1.98 5.64 4.2 11.2 5.87 16.95-3.41 1.06-6.73 2.37-10.08 3.59-1.86-5.69-4.15-11.23-5.88-16.97zM118 401.41c3.49-1.1 6.8-2.77 10.4-3.46 1.27 4.13 2.86 8.15 4.26 12.23 1.04 2.48.13 5.92-2.45 7.07-2.85 1.72-6.86-.17-7.76-3.27-1.47-4.2-2.96-8.39-4.45-12.57z"/></g><g fill="#f6f6f4"><path d="M49.45 354.91c-1.44-3.85 2.75-8.43 6.71-6.82 2.26.46 3.44 2.72 4.07 4.74 1.29 3.92 3.04 7.73 3.85 11.8-3.37 1.08-6.64 2.48-10.04 3.46-1.4-4.44-3.15-8.75-4.59-13.18zM141.18 392.78c3.39-1.09 6.69-2.45 10.06-3.59 1.39 5.02 3.92 9.7 4.85 14.85.17 5.19-7.53 7.4-9.98 2.81-1.87-4.59-3.71-9.26-4.93-14.07z"/></g><g fill="#f8f5f4"><path d="M26.39 362.88c-1.01-3.69 2.93-7.49 6.59-6.4 3.48.74 4.21 4.72 5.3 7.54.87 3.09 2.53 5.96 2.8 9.2-3.31.95-6.52 2.22-9.73 3.45-1.74-4.56-3.55-9.11-4.96-13.79zM133.02 370.51c3.37-1.21 6.75-2.4 10.08-3.74 2.03 5.62 4.13 11.23 6.03 16.9-3.39 1.24-6.75 2.58-10.18 3.73-1.87-5.67-4.1-11.21-5.93-16.89z"/></g><path fill="#f6f7f5" d="M156.13 362c3.33-1.26 6.67-2.5 10.06-3.6 1.86 5.63 4.01 11.16 5.88 16.79-3.42 1.2-6.76 2.62-10.25 3.61-1.71-5.66-4.27-11.07-5.69-16.8z"/><path fill="#cccccb" d="M199.75 403.15c35.43-13.15 70.86-26.29 106.3-39.38 1.76.72 4.34.93 4.71 3.23-.12 2.18-2.29 3-3.95 3.83-22.82 8.68-45.79 16.97-68.64 25.57-14.79 5.43-29.55 10.94-44.33 16.41-6.17 2.17-12.31 4.44-18.39 6.86-22.34 8.01-44.45 16.67-66.85 24.53-2.27.31-4.56.76-6.58 1.91-6.72 3.6-14.07 5.73-21.11 8.58-12.05 4.24-23.95 8.9-35.93 13.32-1.68.54-3.58 1.07-5.26.26-1.5-1.62-.83-3.73-.39-5.6 2-.77 3.98-1.56 5.97-2.32 51.5-19.01 102.95-38.16 154.45-57.2z"/><path fill="#b3b1b2" d="M534.77 378.03c3.89-2.44 7.28-5.56 10.91-8.36l-.71.57c1.29 1.65 2.71 3.21 4.11 4.78 2.1 2 3.03 5.53 6.09 6.29 1.17 2.53 2.67 4.92 4.49 7.05-2.62 2.75-5.34 5.39-8.03 8.06-.28.17-.85.52-1.14.69-5.16-6.42-10.61-12.62-15.72-19.08z"/><g fill="#999998"><path d="M549.08 375.02c14.39-9.79 34.81-7.98 48.24 2.7 10.22 7.84 16.37 20.49 16.65 33.32.34 12.33-4.7 24.79-13.81 33.16-9.94 9.57-24.85 13.66-38.27 10.41-14.19-3.1-26.35-13.94-31-27.7-3.86-10.58-3.23-22.5 1.19-32.8 2.24 2.61 4.38 5.3 6.63 7.91-2.7 8.03-2.01 17.08 1.54 24.74 4.19 9.39 12.92 16.48 22.81 19.11 9.61 2.34 20.25.43 28.14-5.64 11.66-8.34 16.95-24.33 12.54-37.98-3.93-15.33-19.91-26.39-35.66-24.58-4.54.23-8.76 1.98-12.91 3.64-3.06-.76-3.99-4.29-6.09-6.29zM198.99 551.96c3.05-1.24 6.14-2.53 9.49-2.66-2.79 10.91-13.32 19.23-24.51 19.9-6.39.62-12.84-1.31-18.1-4.93 10.92-4.41 22.1-8.15 33.12-12.31z"/></g><path fill="#f9f5f6" d="M56.14 373.71c3.44-1.19 6.82-2.57 10.29-3.67 1.73 5.36 3.83 10.6 5.6 15.96l-.16.84c-3.07 1.47-6.38 2.39-9.5 3.76-2.32-5.54-4.11-11.28-6.23-16.89z"/><path fill="#f7f5f6" d="M110.25 379.25c3.06-1.64 6.62-2.87 10.02-3.66 2.11 5.45 3.92 11.03 5.94 16.52-3.38 1.31-6.76 2.61-10.16 3.84-1.77-5.62-4.24-11.03-5.8-16.7z"/><g fill="#b7282d"><path d="M520.14 387.06c5.49-1.96 10.61-4.74 14.63-9.03 5.11 6.46 10.56 12.66 15.72 19.08 1.25 1.65 2.61 3.22 4.02 4.75 1.16 1.3 2.25 2.67 3.22 4.13.59 1.29 1.1 2.61 1.62 3.94-.74 1.87-1.36 3.78-1.81 5.75-2.65.86-6.11 1.38-8.13-1.01-3.77-4.04-7.1-8.47-10.7-12.65-2.25-2.61-4.39-5.3-6.63-7.91-2.32-2.56-4.54-5.19-6.54-8-1.72 1.09-3.42 2.23-5.1 3.38-.08-.61-.22-1.82-.3-2.43zM82.08 520.88c1.18-2.34 2.7-4.5 4.74-6.18 3.18 5.96 4.34 12.64 6.66 18.91 3.3 7.23 5.39 14.93 8.42 22.27-2.02.86-4.04 1.72-6.06 2.59-3.93-2.02-7.46-4.97-8.7-9.38-.08.54-.24 1.61-.33 2.14-1.64-6.68-2.6-13.51-4-20.24-.66-3.99-2.01-8.06-1.13-12.12l.4 2.01z"/></g><g fill="#ccc"><path d="M555.17 381.31c4.15-1.66 8.37-3.41 12.91-3.64 15.75-1.81 31.73 9.25 35.66 24.58 4.41 13.65-.88 29.64-12.54 37.98-7.89 6.07-18.53 7.98-28.14 5.64-9.89-2.63-18.62-9.72-22.81-19.11-3.55-7.66-4.24-16.71-1.54-24.74 3.6 4.18 6.93 8.61 10.7 12.65 2.02 2.39 5.48 1.87 8.13 1.01 1.11-1.42 1.87-3.08 2.64-4.7.21.24.65.71.87.95-1.59 2.01-3.16 4.03-4.73 6.05 2.63 5.27 7.53 9.72 13.64 10.08 8.94 1.06 17.32-7.22 16.86-16.1.23-6.75-4.62-12.75-10.74-15.13-4.25-1.45-9.2.17-12.89-2.99.29-.35.87-1.06 1.16-1.41-1.4-1.52-2.71-3.31-4.69-4.07a30.659 30.659 0 0 1-4.49-7.05zM222.05 561.24c8.81-3.86 17.31-8.36 26.01-12.45l1.19.17c-1.48 9.4-6.69 18.38-14.69 23.68-8.02 5.87-18.7 7.14-28.2 4.82 3.92-2.99 7.7-6.29 10.45-10.42 1.45-2.18 2.91-4.48 5.24-5.8z"/></g><path fill="#f7f6f5" d="M163.94 384.4c3.39-1.2 6.77-2.41 10.11-3.71 1.57 4.18 3.04 8.39 4.54 12.59 1.09 2.74-.17 6.22-3.02 7.25-1.8.83-3.7.04-5.44-.5-2.87-4.85-4.23-10.39-6.19-15.63z"/><g fill="#671013"><path d="M551.63 396.42c2.69-2.67 5.41-5.31 8.03-8.06 1.98.76 3.29 2.55 4.69 4.07-.29.35-.87 1.06-1.16 1.41-1.77 1.75-3.63 3.4-5.43 5.1-1-3.01 2.88-4.39 4.35-6.42-.68-.6-1.37-1.16-2.07-1.71-2.63 2.17-4.53 5.69-8.41 5.61zM237.68 481.6c2.27-.83 4.7-1.91 7.17-1.36 2.26 1.11 2.11 4.41.04 5.65-2.79 1.5-6.01 1.98-8.93 3.18-23.58 9.06-47.38 17.56-70.99 26.49-1.54.21-3.1.08-4.64.07.03-1.97-1.06-5.17 1.7-5.71 25.19-9.51 50.5-18.69 75.65-28.32zM229.93 497.75c5.97-2.56 12.12-4.68 18.32-6.58.86 1.2 2.62 2.16 2.33 3.89-.61 2.22-3.07 2.76-4.91 3.52-25.97 9.44-51.75 19.4-77.75 28.73-3.8 1.65-5.36-5.21-1.71-6.02 21.15-8.08 42.46-15.76 63.72-23.54z"/></g><path fill="#931323" d="M551.63 396.42c3.88.08 5.78-3.44 8.41-5.61.7.55 1.39 1.11 2.07 1.71-1.47 2.03-5.35 3.41-4.35 6.42-1.08.99-2.18 1.95-3.25 2.92-1.41-1.53-2.77-3.1-4.02-4.75.29-.17.86-.52 1.14-.69z"/><g fill="#f8f6f5"><path d="M64.11 396.19c3.37-1.45 6.86-2.58 10.29-3.86 1.82 5.68 4.02 11.23 5.95 16.88-3.41 1.18-6.8 2.42-10.17 3.69-2.06-5.56-3.92-11.19-6.07-16.71zM41.18 404.66c3.41-1.34 6.82-2.7 10.34-3.74 1.82 5.56 3.75 11.1 5.96 16.52-3.39 1.43-6.79 3.07-10.49 3.53-1.83-5.47-3.79-10.91-5.81-16.31z"/></g><path fill="#b2b2b2" d="M557.76 398.94c1.8-1.7 3.66-3.35 5.43-5.1 3.69 3.16 8.64 1.54 12.89 2.99-2.67-.22-5.34-.19-8-.08-.53.57-1.07 1.15-1.6 1.73-2.68 2.77-5.74 5.11-8.75 7.51-.97-1.46-2.06-2.83-3.22-4.13 1.07-.97 2.17-1.93 3.25-2.92z"/><g fill="#999"><path d="M566.48 398.48c.53-.58 1.07-1.16 1.6-1.73 2.66-.11 5.33-.14 8 .08 6.12 2.38 10.97 8.38 10.74 15.13.46 8.88-7.92 17.16-16.86 16.1-6.11-.36-11.01-4.81-13.64-10.08 1.57-2.02 3.14-4.04 4.73-6.05 2.01 2.03 3.69 4.5 6.19 5.98 3.34 1.77 7.8-.34 8.78-3.93.8-2.25.01-4.71-1.44-6.5-2.49-3.18-5.18-6.22-8.1-9zM248.06 548.79c3.35-1.61 6.7-3.25 10.01-4.93.04.81.12 2.44.15 3.25-1.03 15.17-10.4 29.53-24.17 36.12-11.77 5.93-26.3 5.59-37.96-.45 3.54-1.54 7.03-3.23 10.27-5.32 9.5 2.32 20.18 1.05 28.2-4.82 8-5.3 13.21-14.28 14.69-23.68l-1.19-.17z"/></g><path fill="#4d4d4c" d="M566.48 398.48c2.92 2.78 5.61 5.82 8.1 9 1.45 1.79 2.24 4.25 1.44 6.5-.98 3.59-5.44 5.7-8.78 3.93-2.5-1.48-4.18-3.95-6.19-5.98-.22-.24-.66-.71-.87-.95-.77 1.62-1.53 3.28-2.64 4.7.45-1.97 1.07-3.88 1.81-5.75-.52-1.33-1.03-2.65-1.62-3.94 3.01-2.4 6.07-4.74 8.75-7.51z"/><path fill="#b2aead" d="M648.16 402.35c.46.02 1.38.08 1.84.11v1.76c-.47-.02-1.42-.04-1.9-.05.01-.46.04-1.37.06-1.82z"/><path fill="#b2b2b0" d="M375.22 415.3c10.87-4.14 21.79-8.13 32.69-12.17 1.03 1.53 2.06 3.06 3.15 4.55l.7-.55c-.74 1.72-1.46 3.46-2.38 5.09l.07-1.26c-11.15 3.38-22.48 6.08-33.71 9.16-.19-1.61-.35-3.22-.52-4.82z"/><path fill="#625e5d" d="M648.1 404.17c.48.01 1.43.03 1.9.05v3.99l-1.88-.04c0-1.34 0-2.67-.02-4z"/><path fill="#323232" d="M411.76 407.13c.6-1.33 1.76-2.07 3.09-2.54.64.85 1.28 1.71 1.93 2.57 1.7-.01 3.4-.02 5.11-.06l-.03.57c-2.14.18-5.49-.86-6.19 2.01-1.94 4.62-4.34 9.55-9.09 11.84-9.16 4.46-18.94 7.44-28.53 10.8-.16.41-.47 1.23-.62 1.64-.58-1.33-1.73-2.23-2.77-3.17.4-1.38.99-2.7 2.45-3.17 8.93-3.12 17.99-5.97 26.6-9.93 2.48-1.07 4.44-3.09 5.67-5.47.92-1.63 1.64-3.37 2.38-5.09z"/><path fill="#fdfbff" d="M449.32 405.7c2.95-.08 6.24-.32 8.71 1.65.13 1.73-1.75 1.75-3 1.79-2.08-.01-4.22-.34-6.01-1.44-.69-.65.11-1.36.3-2z"/><path fill="#f9f4f7" d="M95.24 409.7c3.41-.95 6.7-2.27 10.01-3.51 1.58 4.95 3.99 9.69 4.88 14.83.25 4.85-6.68 7.39-9.56 3.42-2.3-4.68-3.86-9.74-5.33-14.74z"/><path fill="#c93334" d="M421.89 407.1c1.25-1.34 4.19-1.98 4.03.69-.28 1.63-.45 3.31-1.09 4.86-1.08-.02-2.16-.08-3.23-.16.1-1.61.18-3.22.26-4.82l.03-.57z"/><path fill="#d72d2e" d="M429.49 406.53c.54-.13 1.63-.4 2.17-.54.3.61.9 1.82 1.19 2.42l.87.05.54.03c-.41.14-1.22.42-1.62.57-.64 1.46.24 4.04-1.69 4.61-2.54-.63-1.5-3.51-1.67-5.4.05-.44.16-1.31.21-1.74z"/><path fill="#d42d47" d="M433.72 408.46c1.04-1.45 3.31-4.59 4.41-1.42.55 1.81.97 3.66 1.38 5.52-1.18-.07-2.36-.14-3.53-.2-.22-1.28-.45-2.55-.69-3.82l-1.03-.05-.54-.03z"/><path fill="#272322" d="m648.12 408.17 1.88.04v7.71c-.47.12-1.41.38-1.88.51-.02-2.76-.03-5.51 0-8.26z"/><path fill="#fefefe" d="M375.74 420.12c11.23-3.08 22.56-5.78 33.71-9.16l-.07 1.26c-1.23 2.38-3.19 4.4-5.67 5.47-8.61 3.96-17.67 6.81-26.6 9.93-.52-2.49-1.08-4.97-1.37-7.5z"/><path fill="#ba2f36" d="M175.45 419.67c6.08-2.42 12.22-4.69 18.39-6.86l1.41.57c-4.25 2.27-8.9 3.6-13.32 5.47-2.03.99-4.29.87-6.48.82z"/><path fill="#f8f5f5" d="M72.09 418.36c3.47-1.11 6.84-2.59 10.4-3.43 1.37 4.4 3.21 8.64 4.5 13.07 1.03 2.91-1.1 6.2-4.05 6.79-2.61.7-5.31-1.11-6.17-3.55-1.7-4.24-3.05-8.62-4.68-12.88z"/><path fill="#595856" d="M648.12 416.43c.47-.13 1.41-.39 1.88-.51v4.02l-1.92-.12c.01-1.13.02-2.26.04-3.39z"/><path fill="#8c323e" d="M465.54 419.37c.31.77.62 1.55.95 2.33-24.34 8.43-48.27 18.07-72.57 26.65-4.71 1.53-9.05 4.2-14.05 4.77-.07-.5-.22-1.5-.3-2 5.85-1.36 11.31-3.91 16.96-5.89 14.58-5.35 29.15-10.72 43.7-16.15 7-2.56 13.87-5.52 21.04-7.56.48-.12 1.43-.36 1.91-.49.79-.54 1.58-1.09 2.36-1.66z"/><path fill="#a4a3a1" d="m648.08 419.82 1.92.12v1.74c-.46-.01-1.38-.02-1.83-.03-.03-.46-.07-1.37-.09-1.83z"/><path fill="#313333" d="M393.92 448.35c24.3-8.58 48.23-18.22 72.57-26.65 1.2 2.93 2.55 5.81 3.8 8.73-.33.4-.98 1.21-1.3 1.61-8.11 1.26-15.33 5.58-23.12 7.99-6.32 1.72-12.17 4.7-18.4 6.69-7.97 3.31-16.48 5.26-24.13 9.34-7.43 3.39-15.38 5.44-23.1 8.08-1.43-3.44-3.74-7.91-.37-11.02 5-.57 9.34-3.24 14.05-4.77z"/><g fill="#4d4d4d"><path d="M328.92 515.67c22.34-6.44 44.76-12.55 67.1-18.97.85 3 2.01 6.17 1.04 9.3-.82 3.44-3.62 6.07-6.92 7.14-32.39 11.9-64.7 24.06-97.12 35.88.33-10.23-.08-20.97-4.38-30.41 4.66-1.83 9.46-3.26 14.18-4.94 1.17 2.65 2.16 5.39 2.97 8.18 7.83-1.6 15.39-4.24 23.13-6.18zM224.62 542.61c1.43 6.5-1.92 12.65-3.91 18.66l1.34-.03c-2.33 1.32-3.79 3.62-5.24 5.8-2.75 4.13-6.53 7.43-10.45 10.42-3.24 2.09-6.73 3.78-10.27 5.32-16.18 5.38-35.45.76-46.59-12.37 5.52-1.87 10.9-4.14 16.37-6.14 5.26 3.62 11.71 5.55 18.1 4.93 11.19-.67 21.72-8.99 24.51-19.9.14-.57.27-1.14.41-1.69 5.45-.91 10.56-3.14 15.73-5z"/></g><path fill="#670f13" d="M169.9 532.87c27.05-10.13 54.25-19.93 81.19-30.33 1.17.58 2.35 1.18 3.53 1.78-.01 1.1-.01 2.2 0 3.31-6.04 3.52-12.97 5.04-19.36 7.77-19.19 6.92-38.2 14.3-57.35 21.33-2.83 1.09-6.02 2.82-9.07 1.5-.97-1.66-1.27-4.69 1.06-5.36z"/><path fill="#921e21" d="M81.68 518.87c1.35-4.71 5.91-7.43 10.36-8.66.12 2.89 1 5.67 2.38 8.2 1.82 3.32 1.91 7.24 3.47 10.67 4.16 9.84 6.05 20.57 11.26 29.97-1.91.47-3.8 1.02-5.67 1.62-.23-.71-.69-2.11-.92-2.81-3.07.75-6.38 2.44-9.49.94-3.07-1.4-5.54-4.24-6.26-7.57.09-.53.25-1.6.33-2.14 1.24 4.41 4.77 7.36 8.7 9.38 2.02-.87 4.04-1.73 6.06-2.59-3.03-7.34-5.12-15.04-8.42-22.27-2.32-6.27-3.48-12.95-6.66-18.91-2.04 1.68-3.56 3.84-4.74 6.18l-.4-2.01z"/><path fill="#323333" d="M224.62 542.61c14.67-5.84 29.62-10.95 44.35-16.62-1.9 4.69-4.01 9.3-6.19 13.87-.77 1.86-2.46 3.03-3.97 4.25-.21.99-.41 1.99-.59 3-.03-.81-.11-2.44-.15-3.25-3.31 1.68-6.66 3.32-10.01 4.93-8.7 4.09-17.2 8.59-26.01 12.45l-1.34.03c1.99-6.01 5.34-12.16 3.91-18.66z"/><path fill="#931e24" d="M116.14 579.44c7.06 2.72 13.63-2.6 20.28-4.3-.74 9.83.25 19.7.3 29.51-2.11 1.11-4.4 1.77-6.65 2.54-3.1-8.76-6-17.61-9.52-26.21-.88.26-2.65.77-3.54 1.02-.29-.86-.58-1.72-.87-2.56z"/></svg>