<?xml version="1.0" standalone="no"?>
<!DOCTYPE svg PUBLIC "-//W3C//DTD SVG 20010904//EN"
 "http://www.w3.org/TR/2001/REC-SVG-20010904/DTD/svg10.dtd">
<svg version="1.0" xmlns="http://www.w3.org/2000/svg"
 width="559.000000pt" height="559.000000pt" viewBox="0 0 559.000000 559.000000"
 preserveAspectRatio="xMidYMid meet">
<metadata>
Created by potrace 1.14, written by Peter Selinger 2001-2017
</metadata>
<g transform="translate(0.000000,559.000000) scale(0.100000,-0.100000)"
fill="#000000" stroke="none">
<path d="M1342 5107 c-27 -56 -207 -442 -401 -858 l-353 -755 -116 -65 c-64
-35 -148 -81 -186 -103 -117 -63 -161 -117 -173 -212 -4 -32 1 -62 15 -102 11
-31 23 -69 26 -84 4 -16 24 -64 45 -107 l38 -80 -118 -253 c-65 -139 -115
-256 -111 -259 4 -4 142 -69 306 -145 l299 -139 62 -130 c35 -71 78 -164 98
-205 19 -41 60 -129 92 -195 91 -191 142 -298 190 -403 25 -53 50 -104 55
-112 6 -8 15 -26 21 -40 20 -49 77 -94 132 -106 81 -18 97 -12 597 250 69 36
179 93 245 127 l120 61 865 -405 865 -404 26 56 c14 31 326 698 692 1483 367
784 667 1430 667 1435 0 5 -153 80 -341 168 -187 87 -342 162 -345 166 -6 10
57 27 133 37 52 6 128 0 253 -23 19 -3 46 -8 60 -10 14 -3 36 -7 50 -10 62
-14 182 -13 225 1 79 27 155 126 181 234 4 19 8 37 9 40 8 32 18 163 18 232
-1 86 -33 238 -55 265 -6 7 -8 13 -5 13 16 0 -67 192 -96 221 -7 8 -20 24 -28
37 -9 12 -32 39 -51 60 -149 158 -307 240 -442 230 -126 -10 -197 -77 -273
-253 -107 -249 -178 -352 -299 -427 -66 -42 -175 -78 -254 -84 -41 -3 -77 -7
-80 -7 -3 -1 -34 2 -70 7 -123 14 -237 78 -350 196 -41 43 -86 94 -100 114
-14 21 -31 43 -37 51 -7 7 -13 16 -13 20 0 3 -17 32 -38 63 -21 31 -43 69 -51
83 -37 75 -110 118 -191 115 -50 -2 -76 -14 -285 -131 -126 -70 -234 -128
-240 -128 -5 0 -253 114 -550 253 -297 139 -573 268 -613 286 l-73 34 -47
-103z m3754 -600 c50 -29 124 -110 124 -136 0 -6 4 -11 8 -11 5 0 9 -6 10 -12
1 -7 4 -26 8 -41 18 -78 -44 -159 -118 -153 -82 8 -185 106 -195 186 -16 120
78 217 163 167z"/>
</g>
</svg>
